<svg version="1.1" xmlns="http://www.w3.org/2000/svg" xmlns:xlink="http://www.w3.org/1999/xlink" width="134.04706" height="113.00957" viewBox="0,0,134.04706,113.00957"><g transform="translate(-173.167,-118.69414)"><g data-paper-data="{&quot;isPaintingLayer&quot;:true}" fill-rule="nonzero" stroke="none" stroke-width="0.5" stroke-linecap="butt" stroke-linejoin="miter" stroke-miterlimit="10" stroke-dasharray="" stroke-dashoffset="0" style="mix-blend-mode: normal"><g><path d="M223.31251,225.00004c0,2.5 -2.5,2.5 -2.5,2.5l-1.49029,-0.04855c-2.54679,-0.52336 -5.85465,0.00126 -8.18935,-1.24727c-1.04482,-0.55874 -1.72541,-1.62428 -2.58812,-2.43642c0,0 -1.76777,-1.76777 0,-3.53553c1.76777,-1.76777 3.53553,0 3.53553,0c2.2668,2.51036 4.98906,1.68424 8.22252,2.31632l0.50971,-0.04855c0,0 2.5,0 2.5,2.5z" fill="#b6bac1"/><path d="M190.63754,159.55937c-0.13137,-11.96058 -1.65145,-23.9351 7.74054,-33.3271c1.91597,-1.91596 2.7021,-2.99819 5.36628,-4.06404c2.73827,-1.09551 6.01526,-0.66647 8.87426,-0.62309c1.13449,0.45593 2.39525,0.67608 3.40346,1.36779c4.33037,2.97098 3.2303,6.78535 4.07866,11.11433c0.68033,3.4715 2.28375,6.91845 2.99656,10.48248c0.33334,1.66666 0.66666,3.33334 1,5c0.16666,0.83334 0.46812,1.65076 0.5,2.5c0.01399,0.37262 -0.70426,0.89899 -0.36648,1.05693c0.46026,0.21521 0.91264,-0.49071 1.41503,-0.56664c0.42144,-0.06369 0.84614,-0.10376 1.27196,-0.13512c0.3046,-0.59669 0.84185,-1.05482 1.49216,-1.25482l2.94531,-0.98177l0.02817,0.08449l0.15977,-0.13906c0.22799,-0.03853 0.45408,-0.07567 0.67852,-0.11148c0.79254,-0.55722 1.99609,-0.24326 2.97341,-0.42128c4.25942,-0.77585 8.42619,-1.11114 12.70436,-1.5288c0.91112,-0.08894 1.83624,-0.11103 2.74634,-0.01217c0.39088,0.04246 0.7402,0.59188 1.09843,0.42983c0.89031,-0.40274 -0.09169,-1.95269 -0.09843,-2.92983c-0.01711,-2.4798 -0.12971,-3.25229 0.60364,-5.71237c1.98305,-6.65232 6.69622,-14.49925 13.184,-17.18399c0.67587,-0.13783 5.46461,-1.14794 5.94093,-1.09317c2.46127,0.28297 3.94738,1.5995 5.77143,2.98953c6.47082,4.93116 6.87536,14.77434 7.49148,22.2938c0.26164,3.19314 -0.8356,7.23574 0.34032,10.30471c1.09199,2.84994 2.85959,2.45126 5.32846,3.68704c1.55633,0.77902 2.94862,1.88867 4.56455,2.53504c7.14024,5.36761 7.0793,12.87017 7.76667,20.97321c0.66974,7.8952 1.16273,16.79798 -2.21088,24.23034c-0.80235,1.76764 -2.06528,4.47278 -3.60625,5.83235c-1.70552,1.50475 -3.61841,2.10646 -5.65021,2.92411c-6.70826,3.30754 -14.70455,4.47769 -21.97436,6.1582c-4.9332,1.14037 -9.66891,1.62 -14.59908,2.52024c-2.9929,0.54649 -5.68425,1.74474 -8.7445,2.03244c-4.31452,0.40562 -8.87311,0.00852 -13.2062,0.00852c-4.80104,-0.05344 -9.63695,-1.71998 -14.21237,-3.10364c-4.02158,-1.21618 -8.37323,-1.3717 -12.4293,-2.48011c-3.15068,-0.86098 -5.60551,-2.24295 -8.46923,-3.67664c-1.77406,-0.88816 -3.73102,-1.59232 -5.15686,-2.97185c-0.87224,-0.84392 -1.67265,-1.72628 -2.42676,-2.63528c-0.37997,0.23311 -0.82703,0.36751 -1.30548,0.36751c-0.88153,0 -1.6565,-0.45625 -2.10163,-1.14551l-1.97849,-2.96774l0.01287,-0.00858c-0.01513,-0.01372 -0.03021,-0.02749 -0.04527,-0.0413c-0.57605,-0.52806 -1.19707,-1.75367 -1.74927,-3.00224c-1.60712,-2.82832 -2.96649,-5.88195 -4.37782,-8.72373c-0.79496,-1.60068 -2.12149,-3.55415 -1.84782,-5.09574c-0.07728,-0.19453 -0.15511,-0.3901 -0.23376,-0.58669l-0.97895,-2.44736c-0.12866,-0.30123 -0.19986,-0.63285 -0.19986,-0.98111c0,-0.69076 0.28015,-1.31609 0.73303,-1.76856c-0.76222,-2.82688 -1.27545,-5.74941 -0.68792,-8.70421c0.85877,-4.31892 4.09533,-9.2032 7.18713,-12.29499c1.84522,-1.84522 3.70495,-2.59687 5.26776,-4.73224l2.70943,-1.37171c0,0 0.10665,-0.03555 0.28226,-0.06895z" fill="#b6bac1"/><path d="M296.72829,213.63536c1.44112,2.16168 -0.72056,3.60279 -0.72056,3.60279l-1.66325,1.1053c-16.93244,10.14538 -34.85024,13.36026 -54.33598,13.36026c-16.38942,0 -37.38516,-1.86585 -49.55704,-13.89309l-1.83334,-4.75747l3.92414,0.58333c10.9316,11.09514 32.67215,12.87122 47.46623,12.87122c18.54219,0 35.55127,-2.93865 51.66265,-12.6198l1.45436,-0.97311c0,0 2.16167,-1.44111 3.60279,0.72056z" fill="#8a5b43"/><path d="M228.45356,181.23986c0,-1.43483 1.16317,-2.59801 2.59801,-2.59801c1.43483,0 2.59801,1.16317 2.59801,2.59801c0,1.43483 -1.16317,2.59801 -2.59801,2.59801c-1.43483,0 -2.59801,-1.16317 -2.59801,-2.59801z" fill="#8a5b43"/><path d="M248.1984,179.68106c0,-1.43483 1.16317,-2.59801 2.59801,-2.59801c1.43483,0 2.59801,1.16317 2.59801,2.59801c0,1.43483 -1.16317,2.59801 -2.59801,2.59801c-1.43483,0 -2.59801,-1.16317 -2.59801,-2.59801z" fill="#8a5b43"/><path d="M249.21649,150.47179c-7.96211,-0.9245 -15.41851,-0.64978 -22.94001,2.57611c0,0 -1.92316,0.82421 -3.00473,-0.79478c-0.94891,-0.60728 -1.12161,-1.8162 -1.12161,-1.8162l-0.28382,-2.08055c-0.66544,-2.73286 -0.36908,-5.36658 -1.01271,-8.05332c-0.52481,-2.19077 -1.32239,-3.34509 -1.95845,-5.50788c-1.41657,-4.81673 -2.603,-9.32801 -8.04569,-10.58456c-0.87799,-0.09696 -3.77161,-0.50427 -4.824,-0.32619c-2.69273,0.45564 -4.78741,2.30215 -6.56615,4.2309c-5.62814,6.10279 -7.00844,15.96062 -7.00097,23.96805c0.00248,2.65687 -0.07345,4.81591 0.59202,7.39366c0,0 0.60634,2.42536 -1.81902,3.0317c-2.42535,0.60634 -3.03169,-1.81902 -3.03169,-1.81902c-0.72804,-2.98997 -0.744,-5.5452 -0.74131,-8.60634c0.01041,-11.83249 3.60837,-30.57 17.76621,-33.13439c1.77583,-0.32166 4.77534,0.14685 6.50933,0.34047c9.14642,2.39678 12.03895,11.47056 13.99586,19.90756c0.62839,2.7092 0.29123,5.25046 0.98729,7.94668l0.05109,0.34508c7.1246,-2.53072 14.28909,-2.87433 21.80222,-2.11609c0.87701,-11.44822 6.92038,-24.89889 19.42825,-26.43875c3.89709,-0.47978 6.78287,-0.38797 10.24928,1.67433c2.82047,1.67801 4.47534,4.01775 6.5087,6.50211c2.02459,4.61357 3.07556,9.10111 3.36361,14.15098c0.27204,4.76906 -0.62231,9.39012 -0.01447,14.17859l0.27799,1.03708c0,0 0.60634,2.42536 -1.81902,3.0317c-2.42536,0.60634 -3.03169,-1.81902 -3.03169,-1.81902l-0.38867,-1.62959c-1.1194,-9.08058 0.96524,-17.61062 -2.65086,-26.33709c-1.54721,-1.81315 -2.75075,-3.57121 -4.82463,-4.83123c-2.51192,-1.52617 -4.25012,-1.30524 -7.08407,-0.99234c-10.74499,1.18636 -15.18352,15.02633 -15.12642,24.18391c0,0 0,1.45549 -1.11057,2.14534c-1.2701,1.22735 -2.53246,0.6526 -3.13129,0.24308z" fill="#8a5b43"/><path d="M195.16052,218.89512c-1.56174,1.95217 -3.51391,0.39043 -3.51391,0.39043l-1.70539,-1.36495c-3.88852,-3.24499 -7.51761,-6.07153 -10.50469,-10.23878c-1.01954,-1.78016 -2.28796,-3.4247 -3.15653,-5.28319c-4.59727,-9.83683 -3.76314,-20.91698 0.28533,-30.68862c2.4601,-5.93785 5.83474,-11.03533 12.37002,-12.80199c0,0 2.42536,-0.60634 3.0317,1.81902c0.60634,2.42535 -1.81902,3.0317 -1.81902,3.0317c-4.85577,1.06679 -7.22932,5.6236 -8.96331,9.86469c-3.4624,8.46854 -4.44037,18.09157 -0.38134,26.64471c0.7871,1.65857 1.93428,3.12188 2.84347,4.7168c2.65215,3.72956 5.02103,5.7031 8.4953,8.59455l2.62794,1.80172c0,0 1.95217,1.56174 0.39043,3.51391z" fill="#8a5b43"/><path d="M292.52391,217.18449c-1.76776,-1.76776 0,-3.53554 0,-3.53554l1.51388,-1.49936c3.1687,-3.7841 4.97264,-7.13162 6.52026,-11.76517c2.57218,-10.31919 2.2552,-21.98106 -3.10365,-31.39402c-2.45271,-4.30825 -6.03466,-7.93603 -11.10547,-8.4223c0,0 -2.48471,-0.27608 -2.20863,-2.76079c0.27608,-2.48471 2.76079,-2.20863 2.76079,-2.20863c16.75797,2.0528 21.02752,23.33508 20.2201,37.28963c-0.17806,3.0774 -1.01832,5.92533 -1.76254,8.89405c-1.76105,5.29313 -3.90632,9.26181 -7.47975,13.56816l-1.81945,1.83398c0,0 -1.76777,1.76776 -3.53553,0z" fill="#8a5b43"/><path d="M277.70438,175.59286c2.25088,0.24585 4.47515,0.99109 6.51908,2.302c2.49024,1.59716 3.92823,2.6224 5.01288,5.61745c0.88563,2.44549 0.39599,4.47187 0.10639,6.88816c-0.54431,2.56719 -1.62323,5.04926 -3.02186,7.26975c-1.9119,3.03537 -1.83771,3.94805 -4.8062,5.79468c-6.88396,4.28235 -15.02582,1.24427 -18.52897,-5.09383c-3.42518,-3.22702 -4.65913,-8.11145 -2.01894,-13.47798c2.60498,-5.29495 7.85084,-8.73315 13.3997,-9.30684c0.40212,-0.12182 0.81365,-0.23632 1.23555,-0.34492c0,0 1.18234,-0.29558 2.10237,0.35153zM281.56654,195.89065c0.06955,-0.12565 0.14355,-0.25616 0.2232,-0.39205c-0.07202,-0.00242 -0.14328,-0.00787 -0.21364,-0.01626c-0.0018,0.1358 -0.00518,0.27194 -0.00956,0.40831z" fill="#c2b8b6"/><path d="M290.86287,181.40489c0.92847,2.32119 -1.39272,3.24967 -1.39272,3.24967l-1.61034,0.64334c-3.17143,1.35918 -6.17257,2.97302 -9.33334,4.33333c0,0 -2.29786,0.9848 -3.28266,-1.31306c-0.9848,-2.29787 1.31306,-3.28266 1.31306,-3.28266c3.16079,-1.34826 6.16373,-2.97494 9.33333,-4.33334l1.72299,-0.69c0,0 2.3212,-0.92847 3.24967,1.39272z" fill="#e2e2e2"/><path d="M290.77775,202.11807c-1.11804,2.23607 -3.3541,1.11804 -3.3541,1.11804l-1.45565,-0.73213c-2.9158,-1.67237 -5.98608,-3.22062 -9.07779,-4.53941c0,0 -2.29787,-0.98479 -1.31306,-3.28266c0.9848,-2.29787 3.28267,-1.31306 3.28267,-1.31306c3.26717,1.4061 6.49806,3.03363 9.58888,4.79392l1.21102,0.6012c0,0 2.23607,1.11803 1.11804,3.35411z" fill="#e2e2e2"/><path d="M213.49219,188.08175c0.03272,0.47765 0.03892,0.96114 0.0183,1.4433c0.10107,-0.19997 0.17012,-0.39689 0.19863,-0.58761c0.03281,-0.21944 -0.04976,-0.51571 -0.21694,-0.85569zM204.32311,175.0341c3.6915,-1.47634 8.83737,-1.23333 11.56142,1.11109c0.92341,0.79472 1.44065,1.96509 2.16098,2.94763c0.20958,0.46748 0.76663,1.65574 1.31677,2.92276l1.14393,1.33299c0.21395,0.50327 0.41849,1.04654 0.60508,1.61719c0.03128,0.04221 0.06232,0.0844 0.09311,0.12655c0.00991,0.08711 0.01967,0.17381 0.02925,0.26011c1.30219,4.25602 1.5444,9.82449 -2.59885,11.78066c-3.70944,4.46663 -12.58161,7.04883 -17.83421,4.45763c-5.79182,-2.8572 -8.16789,-9.43653 -6.68631,-15.52206c0.36922,-1.51656 1.80919,-4.70753 2.61898,-6.02479c1.23262,-2.00508 3.17082,-3.55686 5.1501,-4.83048c0,0 1.25674,-0.78547 2.43976,-0.17926z" fill="#c2b8b6"/><path d="M191.28779,176.7329c1.60046,-1.92055 3.52101,-0.32009 3.52101,-0.32009l2,1.66667c2.05967,1.73053 4.3255,2.98941 6.5193,4.55289c0,0 2.03433,1.4531 0.58124,3.48743c-1.4531,2.03433 -3.48743,0.58124 -3.48743,0.58124c-2.29533,-1.64356 -4.63574,-2.97776 -6.81403,-4.78045l-2,-1.66667c0,0 -1.92055,-1.60046 -0.32009,-3.52101z" fill="#e2e2e2"/><path d="M188.97228,200.11806c-1.11803,-2.23607 1.11803,-3.3541 1.11803,-3.3541l0.54435,-0.26787c3.16719,-1.80459 6.15981,-3.85323 9.33333,-5.66667c0,0 2.17061,-1.24035 3.41096,0.93026c1.24035,2.17061 -0.93026,3.41096 -0.93026,3.41096c-3.17471,1.81412 -6.16761,3.85291 -9.33333,5.66667l-0.78898,0.39879c0,0 -2.23607,1.11803 -3.3541,-1.11803z" fill="#e2e2e2"/><path d="M241.05375,188.7888c-0.06733,0.00842 -0.13466,0.01683 -0.20199,0.02525c0,0 -2.4807,0.31008 -2.79078,-2.17061c-0.31008,-2.48069 2.17061,-2.79078 2.17061,-2.79078c0.88889,-0.11111 1.77777,-0.22223 2.66666,-0.33334l-0.47912,2.91219l1.09929,2.04919c-0.48887,0.06111 -0.97773,0.12221 -1.46659,0.18332l-0.01987,0.12077c0,0 -0.43663,0.08733 -0.97822,0.004z" fill="#b6bac1"/><path d="M239.75067,186.22622c1.56445,0.37048 3.22239,0.51837 4.81425,0.29311l0.89442,-0.01768c1.1762,-1.24978 2.86703,-0.40436 2.86703,-0.40436l2.04863,2.5694c-0.1765,1.40173 0.37669,3.1213 -0.52949,4.2052c-1.75768,2.1024 -7.62511,1.96749 -10.12586,1.62331c-1.41263,-0.19442 -3.09485,-0.01994 -4.16932,-0.9574c-1.0511,-0.91707 -0.95602,-2.62096 -1.43402,-3.93143c0,0 -0.60634,-2.42536 1.81902,-3.0317c0.69735,-0.17434 1.24433,-0.09804 1.66974,0.09917c0.90837,-0.72255 2.14559,-0.44762 2.14559,-0.44762z" fill="#f3f3f3"/><path d="M271.87501,186.49221c1.5,1.39537 -0.5,2.4419 -0.5,2.4419l-1.59298,0.81671c-3.07714,1.22269 -4.99942,1.81758 -8.57368,1.85774c-3.28334,-0.00392 -6.0164,-0.12001 -9.06249,-1.09561c-2.76162,-0.88449 -5.43006,-2.88921 -8.60417,-2.85794c-4.87966,0.04808 -7.94633,2.44215 -12.27554,3.41358c-6.26367,1.4055 -12.33568,0.91892 -17.9648,-1.31778c0,0 -2.1706,-0.86537 -0.93026,-2.37977c1.24034,-1.5144 3.41096,-0.64903 3.41096,-0.64903c4.51808,1.80796 8.98286,2.06538 14.03519,1.00784c2.49372,-0.52198 2.16934,-1.19403 4.67635,-2.00721c2.4012,-0.77886 6.39355,-1.57141 9.04811,-1.55606c4.33089,0.02504 7.04299,1.96316 10.72916,3.18866c2.32416,0.77269 4.41955,0.76826 6.93751,0.76488c2.70961,0.0446 3.73832,-0.45587 6.09298,-1.39812l1.07368,-0.57865c0,0 2,-1.04653 3.5,0.34884z" fill="#8a5b43"/><path d="M204.50415,131.2395c1.69539,-0.59298 2.78432,1.04042 2.78432,1.04042l0.92736,1.50894c1.2228,3.27426 3.271,8.42124 2.11906,11.99054c-0.52772,1.63514 -0.88022,3.88822 -2.47813,4.51977c-1.64564,0.65042 -3.66043,-0.47883 -5.08285,-1.5314c-1.02349,-0.75736 -1.26638,-2.23166 -1.64521,-3.44724c-1.17342,-3.76523 -0.1598,-8.13667 0.2616,-11.92994c0,0 0.27608,-2.48471 2.76079,-2.20863c0.12449,0.01383 0.24205,0.03321 0.35306,0.05754z" fill="#c2a19a"/><path d="M271.24451,132.0407l0.59503,-0.02549c1.62501,3.97467 2.64229,12.63478 -1.5301,15.75257c-1.4174,1.05914 -3.28051,2.50327 -4.94998,1.91704c-1.65591,-0.58147 -2.08969,-2.89625 -2.61101,-4.57207c-1.33951,-4.30601 2.06603,-9.57992 3.89048,-13.23076c0,0 1.11803,-2.23607 3.3541,-1.11803c0.70048,0.35024 1.07181,0.8102 1.25146,1.27676z" fill="#c2a19a"/></g></g></g></svg>