<svg version="1.1" xmlns="http://www.w3.org/2000/svg" xmlns:xlink="http://www.w3.org/1999/xlink" width="139.62828" height="104.074" viewBox="0,0,139.62828,104.074"><g transform="translate(-170.18586,-127.963)"><g data-paper-data="{&quot;isPaintingLayer&quot;:true}" fill-rule="nonzero" stroke="none" stroke-width="0.5" stroke-linecap="butt" stroke-linejoin="miter" stroke-miterlimit="10" stroke-dasharray="" stroke-dashoffset="0" style="mix-blend-mode: normal"><g><path d="M245.47105,227.54489c-11.51681,1.03786 -23.37759,-0.17698 -34.26226,-3.44238c-4.67898,-1.40369 -7.63798,-1.91519 -10.5853,-4.05194l-0.40309,0.6718l-2.55718,-1.53431c-0.20061,-0.11567 -0.38432,-0.25737 -0.54651,-0.42049c-1.68126,-0.21476 -3.37529,-0.62056 -4.3031,-1.38403c-0.19545,0.04698 -0.39951,0.07186 -0.60938,0.07186c-0.59433,0 0.04562,-1.38723 -0.39213,-1.72301l-2.88218,-2.13689l-2.12864,-1.38935c-0.21541,-0.28082 -0.67168,-0.01305 -0.75824,-0.36766l-0.05828,-0.07771c-0.33578,-0.43775 -0.53535,-0.98547 -0.53535,-1.5798c0,-0.15164 0.01299,-0.30025 0.03792,-0.44476l-0.31619,-0.31618c-0.27878,-0.27878 -0.49448,-0.62061 -0.62391,-1.00228c-1.31118,0.42994 -2.66869,0.59312 -3.60062,-0.19566c-0.05988,-0.05068 -0.12008,-0.10454 -0.18043,-0.16137c-1.86721,-0.05166 -3.61664,-0.34712 -4.80325,-2.16371c-2.45987,-2.11764 -3.86353,-6.20991 -2.78619,-8.66109c0.0961,-0.21864 0.20757,-0.43112 0.33274,-0.6369c0.61674,-3.41136 2.95278,-7.05246 5.74308,-8.13125c0.15172,-0.16336 0.30543,-0.32278 0.46045,-0.47768c0.92304,-1.77981 2.39462,-3.46079 3.90853,-4.56399c-1.29418,-0.4855 -2.58256,-1.61733 -3.53427,-2.98559c-0.02246,0.00374 -0.04483,0.00764 -0.06713,0.0117c-3.50898,-3.48355 -5.37784,-3.35173 -3.19447,-8.7046c0.0718,-0.17603 0.16776,-0.37011 0.28514,-0.57582c0.64865,-1.78298 2.11217,-3.48506 3.75989,-4.44061c0.63254,-0.85497 1.66401,-1.54282 2.46027,-2.24449c0.82316,-0.72538 1.85544,-1.16328 2.82447,-1.68815c1.347,-1.64539 3.30894,-2.62396 5.69074,-1.8902c4.27989,-5.82825 3.46156,-13.87524 6.86385,-20.46919c1.6217,-3.143 4.15445,-6.21557 7.84751,-5.80836c0.36726,-0.19875 0.78781,-0.31159 1.23472,-0.31159c0.59433,0 1.14204,0.19957 1.5798,0.53535l2.05741,1.54306l-0.11039,0.14718l0.38866,0.09415c0.68554,0.89746 1.30564,1.69615 1.86911,2.44341c4.18238,2.65052 7.34363,11.56541 12.25683,13.66126l1.70343,-1.27757l0.09871,0.13161c0.1975,-0.1885 0.40915,-0.36236 0.63853,-0.5179c0.23796,-0.16136 4.12111,-0.13659 5.74943,-0.12447l2.91036,-0.48506c0.15412,-0.02849 0.31302,-0.0434 0.47539,-0.0434c0.17971,0 0.35516,0.01825 0.5246,0.05299c3.9049,-0.88437 7.96165,-1.07928 12.46543,-1.09219h2.59801c0.16613,0 0.32862,0.01559 0.48608,0.04539c0.01608,-0.02239 0.03251,-0.04453 0.04927,-0.06638l1.54306,-2.05741l0.04248,0.03186c0.02371,-0.05865 0.04813,-0.11709 0.07325,-0.17528c0.54095,-1.25303 1.91236,-2.52296 3.27981,-3.67362c1.37754,-1.63854 2.9512,-3.08606 4.48204,-4.60799l1.16178,-1.54905c2.74357,-4.08288 5.41874,-8.06103 11.76622,-3.51923c7.65118,5.47463 6.02474,18.01888 12.32027,24.31441c7.48521,2.79352 12.55556,8.35276 9.89334,16.93845c-0.78327,2.52604 -3.53713,4.07255 -4.07153,6.19347c-0.22004,0.8733 1.82837,0.18007 2.64166,0.56692c1.0657,0.5069 1.99893,1.28124 2.85504,2.09347c6.62481,6.28517 11.43108,14.01201 5.32162,22.24492c-3.16037,3.16037 -4.70833,3.79166 -8.29183,6.40538c-3.70629,2.70329 -9.28962,7.15837 -13.94583,7.49461c-0.30598,0.40164 -0.72632,0.71146 -1.21244,0.8809l-4.10002,1.53751l-0.25261,-0.67363c-9.44991,4.77907 -20.74738,6.0018 -31.31608,6.03506z" fill="#b6bac1"/><path d="M198.53471,141.9333c0.675,-1.60778 1.42687,-4.85151 3.14096,-5.73341c6.13242,-3.15517 15.08988,5.04871 17.27172,9.47557c0.61967,1.25728 2.49341,2.66456 2.01415,3.84309h0.36995c0,0 2.59801,0 2.59801,2.37382c0,2.37382 -2.59801,2.37382 -2.59801,2.37382h-0.41568c-7.80836,-0.05357 -20.44068,2.44642 -26.64334,7.07604c0,0 -2.0287,1.48291 -3.65166,-0.37072c-1.62296,-1.85364 0.40574,-3.33656 0.40574,-3.33656c0.26299,-0.18917 0.5336,-0.37512 0.81138,-0.55783c1.0711,-5.6177 4.48611,-9.87819 6.6968,-15.14382z" fill="#a9acb4"/><path d="M254.90319,145.42855c0.29228,-2.44748 5.43346,-6.51926 6.99067,-7.54212c3.14656,-4.91399 8.44235,-9.83745 13.17895,-4.01919c4.23419,1.69899 4.31421,7.11442 5.29884,10.9963c0.68727,2.70952 1.4981,3.88933 2.12367,5.50952l0.74321,-0.24774l0.81218,2.43656c0.09871,0.27456 0.1525,0.57054 0.1525,0.87909c0,1.43484 -1.16317,2.59801 -2.59801,2.59801c-0.30855,0 -0.60454,-0.05379 -0.87909,-0.1525l-2.43656,-0.81218l0.01828,-0.05483l-0.19093,-0.00961c-2.43302,-1.21651 -5.14426,-2.67144 -7.87311,-3.79271c-4.87242,-0.90129 -10.12231,-1.29856 -14.87476,-0.60813c0,0 -2.57189,0.36741 -2.9393,-2.20448c-0.36741,-2.57189 2.20448,-2.9393 2.20448,-2.9393c0.08974,-0.01263 0.17939,-0.02486 0.26897,-0.03667z" fill="#a9acb4"/><path d="M194.64591,191.97906c-0.76936,-0.68155 -1.34554,-1.55265 -1.61515,-2.60831c-0.88532,-3.46652 0.24064,-5.34774 2.21795,-6.19349c5.10463,-5.21852 18.49007,-0.82925 12.47343,9.0781c-3.65751,6.02267 -10.26959,3.80341 -13.07623,-0.27629z" fill="#c2b8b6"/><path d="M275.85606,187.88776c0.28498,-0.93421 0.83886,-1.91257 1.72307,-2.91169c1.01449,-1.14634 2.37724,-2.12526 3.86706,-2.477c12.9118,-3.04843 10.9014,19.03677 -1.55677,14.12146c-4.44048,-1.75197 -5.27608,-5.51163 -4.03336,-8.73277z" fill="#c2b8b6"/><g fill="#8a5b43"><path d="M286.63878,160.40531c-2.54755,0.50951 -3.05706,-2.03804 -3.05706,-2.03804l-0.5196,-2.59801c-1.44031,-7.20159 -2.89479,-13.49397 -7.72873,-19.07174c-2.38533,-2.75238 -4.62581,-4.85096 -7.76634,-2.33755c-4.39556,4.39556 -9.10337,14.54094 -14.73723,17.06481c-2.04374,0.91556 -7.0495,0.19776 -9.30783,0.19776c-5.92989,0 -12.18054,-0.35896 -17.74076,1.89258c0,0 -1.58072,0.63228 -2.69479,-0.40642c-0.6879,-0.22983 -1.14636,-0.68829 -1.14636,-0.68829l-0.76094,-0.79787c-1.06597,-1.4213 -2.13098,-2.84332 -3.19515,-4.26596c-2.07109,-3.49625 -8.3094,-12.98479 -13.64972,-11.4554c-1.4054,0.40248 -3.14801,4.24762 -3.65725,5.37572c-2.64734,5.86452 -5.32876,12.82596 -6.56758,19.16876c0,0 -0.50951,2.54755 -3.05706,2.03804c-2.54755,-0.50951 -2.03804,-3.05706 -2.03804,-3.05706c1.54864,-7.59424 4.63069,-16.57102 8.6334,-23.17c1.4284,-2.35489 2.14101,-4.26789 5.04341,-5.28483c8.13748,-2.85119 16.15589,7.80177 19.60475,13.48546c0.94416,1.25522 1.88744,2.5111 2.82996,3.76755c5.89591,-1.98362 12.18941,-1.7983 18.39614,-1.7983c1.39944,0 6.01741,0.76515 7.3194,0.19776c1.38751,-0.60466 3.2399,-4.23121 4.11182,-5.39377c2.84758,-3.79677 5.85532,-7.4418 9.20941,-10.79589c14.28461,-10.33389 22.02294,14.45725 23.99461,24.31561l0.5196,2.59801c0,0 0.50951,2.54755 -2.03804,3.05706z"/><path d="M187.92466,210.85707c0,2.59801 -2.59801,2.59801 -2.59801,2.59801l-1.54871,-0.05045c-2.91015,-0.58744 -6.75505,-1.23121 -9.23429,-2.97664c-6.66114,-4.68958 -4.48723,-15.41905 -1.36796,-21.6031c0.75082,-1.48853 2.71088,-4.24745 4.66324,-5.54699c-12.85242,-7.69502 0.808,-24.84562 13.20333,-24.90053c0,0 2.59801,0 2.59801,2.59801c0,2.59801 -2.59801,2.59801 -2.59801,2.59801c-8.45255,-0.04563 -19.59443,11.86229 -8.07999,16.44079l0.2142,0.28214l0.07178,-0.0957l2.05421,1.54066c0.64476,0.47275 1.06339,1.23577 1.06339,2.09655c0,1.27705 -0.92141,2.33889 -2.13569,2.55699l-1.25324,0.25066c-5.47824,4.26818 -10.37225,11.23431 -6.84236,18.21768c1.23505,2.44337 6.36119,2.99097 8.66238,3.44638l0.52969,-0.05045c0,0 2.59801,0 2.59801,2.59801z"/><path d="M301.54719,210.80268c-0.09455,0.23782 -1.97665,1.71972 -3.22515,1.36053c-1.24851,-0.35919 -2.06838,-1.38142 -2.13478,-2.95774c-0.06641,-1.57631 2.04074,-2.35767 2.04074,-2.35767c4.92503,-2.95092 6.45949,-3.73526 6.41542,-9.98666c-0.68162,-3.39367 -1.67145,-5.97386 -4.61341,-7.99537c-3.20322,-2.20103 -7.61487,-2.2227 -7.86621,-7.4629c-0.08732,-1.82058 3.64984,-5.29842 4.26106,-7.36127c2.00949,-6.78197 -3.8228,-12.13875 -9.97003,-13.33939c0,0 -2.54755,-0.50951 -2.03804,-3.05706c0.50951,-2.54755 3.05706,-2.03804 3.05706,-2.03804c9.06148,1.84784 16.8843,10.15381 13.93162,19.91508c-0.72247,2.38843 -3.43577,4.36395 -4.05256,6.14836c-0.32237,0.93262 1.83029,0.74241 2.71671,1.17595c1.02157,0.49965 1.9992,1.09517 2.92671,1.75318c4.26237,3.02385 5.82833,6.7876 6.81781,11.74947c-0.03838,7.91215 -4.99218,12.30015 -8.26695,14.45353z"/><path d="M296.72828,213.96865c1.44111,2.16168 -0.72056,3.60279 -0.72056,3.60279l-1.66325,1.1053c-16.93244,10.14538 -34.85024,13.36026 -54.33598,13.36026c-16.38942,0 -37.4685,-3.28253 -49.64037,-15.30977c0,0 -1.83707,-1.83707 0,-3.67414c1.83707,-1.83707 3.67414,0 3.67414,0c10.93161,11.09514 31.17215,13.7879 45.96623,13.7879c18.54219,0 35.55127,-2.93865 51.66265,-12.61979l1.45435,-0.97311c0,0 2.16168,-1.44111 3.60279,0.72056z"/><path d="M228.45355,181.23981c0,-1.43484 1.16317,-2.59801 2.59801,-2.59801c1.43484,0 2.59801,1.16317 2.59801,2.59801c0,1.43484 -1.16317,2.59801 -2.59801,2.59801c-1.43484,0 -2.59801,-1.16317 -2.59801,-2.59801z"/><path d="M248.19839,179.681c0,-1.43484 1.16317,-2.59801 2.59801,-2.59801c1.43484,0 2.59801,1.16317 2.59801,2.59801c0,1.43484 -1.16317,2.59801 -2.59801,2.59801c-1.43484,0 -2.59801,-1.16317 -2.59801,-2.59801z"/><path d="M284.48528,186.60494c2.32373,0.7863 1.16187,2.35891 1.16187,2.35891l-0.76493,0.97192c-3.65099,3.26417 -6.52056,6.99362 -12.30387,8.94195c-10.24184,3.45035 -25.98764,0.47629 -30.37741,-6.89128c-0.48778,0.78338 -1.83891,2.78771 -2.76535,3.41233c-2.97837,2.00808 -7.74853,4.08686 -11.9731,4.37451c-11.53526,0.78545 -22.84992,-3.60587 -26.62233,-11.03974c0,0 -0.82156,-1.668 1.64312,-2.22401c2.46469,-0.556 3.28625,1.11201 3.28625,1.11201c2.62031,5.53475 14.26156,10.89574 23.09814,8.41048c4.34282,-1.22141 6.80695,-3.39066 9.6925,-5.67075c1.09348,-0.86403 1.71964,-2.4509 3.39732,-2.52221c1.85969,-0.07905 3.04317,1.45584 4.56476,2.18375c3.36686,5.69638 15.41628,8.54175 23.64458,5.7401c5.03015,-1.71272 7.41705,-5.08026 10.55858,-7.93702l0.27428,-0.43465c0,0 1.16186,-1.57261 3.48559,-0.78631z"/></g><path d="M224.48172,170.52896l0.21865,0.22896c-0.07213,0.16426 -0.13784,0.33343 -0.19896,0.50609c-0.03629,0.70369 -0.23377,1.33381 -0.55138,1.87869c-0.30803,1.07515 -0.68214,2.09985 -1.51515,2.77425c-2.64146,2.13851 -8.00441,0.9032 -8.99889,-2.61884c-1.66562,-5.89899 8.54825,-9.65857 10.63489,-4.39176c0.22602,0.57049 0.35869,1.11257 0.41083,1.62261z" fill="#dfe4ed"/><path d="M269.10538,172.57209c0,0 0.34125,1.02377 -0.07592,1.97162c-0.06574,1.57806 -1.253,2.94006 -4.39154,3.47948c-8.5544,1.47022 -7.64706,-11.55268 -1.32267,-10.96866c1.78754,0.16507 2.97307,0.71802 3.68674,1.47607c0.3555,0.19331 0.6258,0.46706 0.8238,0.73067c0.2078,0.25545 0.36802,0.55114 0.46718,0.87357z" fill="#dfe4ed"/><path d="M210.28244,143.29029c1.83707,1.83707 0,3.67413 0,3.67413l-0.20374,-0.18414c-2.78097,8.13283 -6.5922,7.50989 -10.19226,0.3403c0,0 -1.16186,-2.32373 1.16186,-3.48559c2.32373,-1.16186 3.48559,1.16186 3.48559,1.16186c0.12233,0.24583 0.28167,0.55707 0.44042,0.89276c0.06316,-0.20617 0.12428,-0.39497 0.17502,-0.55246l1.45898,-1.84687c0,0 1.83707,-1.83707 3.67413,0z" fill="#c2b8b6"/><path d="M271.94877,141.78029c0.01743,-0.02594 0.03489,-0.05168 0.05233,-0.0772c0.15134,-0.75734 0.68135,-2.08351 2.53752,-2.08351c2.59801,0 2.59801,2.59801 2.59801,2.59801l-0.5693,2.03864c-4.97132,6.14596 -7.56109,4.96001 -9.89724,-2.04844c0,0 -0.82156,-2.46468 1.64312,-3.28625c2.46468,-0.82156 3.28625,1.64312 3.28625,1.64312c0.10562,0.31685 0.24139,0.75804 0.34931,1.21562z" fill="#c2b8b6"/></g></g></g></svg>