<svg version="1.1" xmlns="http://www.w3.org/2000/svg" xmlns:xlink="http://www.w3.org/1999/xlink" width="141.37701" height="123.97561" viewBox="0,0,141.37701,123.97561"><g transform="translate(-171.49334,-108.06138)"><g data-paper-data="{&quot;isPaintingLayer&quot;:true}" fill-rule="nonzero" stroke="none" stroke-width="0.5" stroke-linecap="butt" stroke-linejoin="miter" stroke-miterlimit="10" stroke-dasharray="" stroke-dashoffset="0" style="mix-blend-mode: normal"><g><path d="M206.22169,198.05938c0.92096,-0.52766 2.00811,-0.21705 2.00811,-0.21705l1.95662,0.58979c3.69478,0.46901 7.40739,0.38966 11.09971,1.01451c2.94553,0.49847 5.40934,1.81455 8.39512,1.97001c4.94649,0.25756 9.84581,-0.09566 14.75288,-0.63108c10.24457,-2.58492 21.40324,-8.92648 32.21774,-7c6.94234,1.23669 13.40478,6.69401 16.18273,13.12796c1.07797,2.49668 1.84295,4.47009 1.12466,7.30763c-0.30725,1.21374 -1.21501,2.18952 -1.82252,3.28428c-5.61397,4.83186 -12.98822,6.54181 -20.13469,7.86488c-1.95536,0.36201 -3.76569,1.33837 -5.72526,1.6769c-1.98971,0.34374 -3.78024,-0.22591 -5.76166,0.01355c-10.39091,1.25581 -20.92466,1.5622 -31.40936,0.68323c-10.67171,-0.00251 -19.9604,-3.75881 -29.33033,-8.58661c-3.95069,-2.03557 -7.60447,-4.83749 -6.30223,-9.93377c0.31242,-1.22264 1.27636,-2.17736 1.92407,-3.26038c0.5641,-0.94321 0.93416,-2.04105 1.71129,-2.81818c1.90887,-1.90887 5.50039,-3.38684 7.86075,-4.73618c0,0 0.5489,-0.31365 1.25237,-0.34949z" fill="#dfe4ed"/><path d="M174.62245,197.51327c0,0 -1.60046,-1.92056 0.32009,-3.52102c0.38172,-0.31809 0.75079,-0.4971 1.09716,-0.57974c-0.0043,-0.11972 -0.00097,-0.24034 0.01096,-0.36192c0.31815,-3.24337 5.82036,-6.54672 8.2721,-7.98642c0.64787,-0.38045 1.37775,-0.62071 2.1143,-0.78744c-1.89403,-0.60432 -3.158,-2.5464 -4.5799,-3.85119c-0.25627,-0.23516 -3.98759,-3.28595 -4.08192,-3.41163c-0.9659,-1.28695 -2.59898,-2.6204 -2.35919,-4.21154c0.23589,-1.56528 6.35274,-5.0722 7.84436,-6.13045c1.60065,-1.58597 6.5504,-3.72583 7.26525,-5.94351c0.50857,-1.57774 -0.24183,-3.31613 -0.14449,-4.97095c0.11617,-1.97502 0.3819,-3.9408 0.69143,-5.89487c1.43747,-9.07482 3.94032,-18.01904 8.26622,-26.12943c1.22941,-2.30496 2.72807,-5.85811 4.93156,-7.40299c1.24874,-0.8755 2.77233,-1.27183 4.1585,-1.90774c6.99724,4.82871 10.85443,13.43236 12.24698,21.74723c0.72646,4.33774 1.13936,9.73173 3.53835,13.58253c1.1181,1.79475 4.66106,0.96941 6.23345,0.69763c5.18077,-0.89547 10.37816,-1.45679 15.62376,-2.0332c2.24651,0 4.21339,-0.11932 6.43134,0.34675c0.45116,0.09481 0.81452,0.71432 1.25554,0.58003c0.32075,-0.09768 0.05716,-0.66932 0.11956,-0.99876c0.17829,-0.94128 0.33269,-1.89092 0.60195,-2.81032c0.60106,-2.0523 1.35108,-4.05801 2.02748,-6.08673c1.72444,-5.17199 3.58384,-10.16317 5.73784,-15.18626c1.63488,-3.81253 3.36016,-7.67581 6.74149,-10.30498c3.2489,-2.52621 7.59281,-4.2773 11.28291,-1.18494c0.91555,0.76725 1.06228,2.13989 1.59342,3.20984c0.47105,1.25584 1.94198,5.04871 2.14776,6.19776c0.99914,5.57896 -0.29023,11.64814 0.97408,17.19748c0.46064,2.02186 1.21642,3.96949 1.66533,5.99399c0.07889,0.35576 0.16951,0.70846 0.26781,1.05916c0.0957,-0.01112 0.19305,-0.01684 0.29173,-0.01684c1.18975,0 2.1854,0.8311 2.43804,1.9444l0.65398,2.61594c0.65115,1.13992 0.78051,2.41773 1.13613,3.62399c0.53228,0.52453 1.14369,1.09764 1.81054,2.15262l1.46759,1.28414c1.03007,0.44971 2.14119,0.87772 2.46671,1.0807c1.86419,1.16246 2.79748,2.50196 4.37952,3.95217c2.35785,2.16136 5.29398,4.08776 6.33648,7.34219c1.4865,4.6405 -1.33467,6.78542 -4.18802,9.86916c-0.68768,0.7432 -1.37628,1.49246 -2.14846,2.14744c-0.49599,0.4207 -2.14065,0.88152 -1.55921,1.17294c2.74166,1.37419 3.90373,2.7771 5.92686,5.22177c0.72373,1.26118 2.71775,4.42582 2.77186,5.89289c0.19085,5.1743 -4.70914,8.15213 -8.84055,9.83087c-1.03121,0.41902 -2.00547,1.1788 -3.11845,1.19415c-5.71176,0.07879 -6.72705,-4.96512 -9.51978,-8.6412c-0.42977,-0.56571 -0.91745,-1.12892 -1.45191,-1.67971c-0.57993,-0.052 -1.01268,-0.26837 -1.01268,-0.26837l-1.45565,-0.73213c-5.04739,-2.95155 -9.38585,-2.02065 -14.93765,-1.67544c-3.20706,0.19941 -6.24852,0.44588 -9.27353,0.86318c-4.61032,2.02648 -9.2938,3.74418 -14.0837,5.34416c-2.7902,0.93202 -5.4158,1.80693 -8.44766,1.79743c-2.02507,-0.00635 -3.97788,-0.78341 -5.98925,-1.01868c-8.87728,-1.03834 -17.65405,-2.99968 -26.61808,-2.01508c-4.55447,0.95076 -7.08471,3.97743 -9.32046,7.90664l-0.13351,0.09404l0.04417,0.03313l-1.98254,2.64339c-0.45492,0.62044 -1.18914,1.02327 -2.01746,1.02327c-0.73062,0 -1.38803,-0.31341 -1.84513,-0.81313c-0.15178,-0.05451 -0.29677,-0.12329 -0.43333,-0.20471l-2.20387,-1.25935c-4.73908,-2.07 -8.16378,-5.70057 -11.43822,-9.62235z" fill="#b6bac1"/><path d="M296.72828,213.96865c1.44112,2.16168 -0.72056,3.60279 -0.72056,3.60279l-1.66325,1.1053c-16.93244,10.14538 -34.85024,13.36026 -54.33598,13.36026c-16.38942,0 -37.4685,-3.28252 -49.64037,-15.30976c0,0 -1.83707,-1.83707 0,-3.67414c1.83707,-1.83707 3.67414,0 3.67414,0c10.9316,11.09514 31.17215,13.78789 45.96623,13.78789c18.54219,0 35.55127,-2.93865 51.66265,-12.6198l1.45436,-0.97311c0,0 2.16167,-1.44111 3.60279,0.72056z" fill="#8a5b43"/><path d="M229.78688,182.90648c0,-1.43483 1.16317,-2.59801 2.59801,-2.59801c1.43483,0 2.59801,1.16317 2.59801,2.59801c0,1.43483 -1.16317,2.59801 -2.59801,2.59801c-1.43483,0 -2.59801,-1.16317 -2.59801,-2.59801z" fill="#8a5b43"/><path d="M246.53172,182.34768c0,-1.43483 1.16317,-2.59801 2.59801,-2.59801c1.43483,0 2.59801,1.16317 2.59801,2.59801c0,1.43483 -1.16317,2.59801 -2.59801,2.59801c-1.43483,0 -2.59801,-1.16317 -2.59801,-2.59801z" fill="#8a5b43"/><path d="M259.37666,133.03698c0.36467,-1.72716 0.95147,-3.42413 1.42371,-5.12486c1.91273,-6.88852 5.95207,-18.31082 15.71762,-15.74892c3.0455,0.79896 4.7155,3.25563 6.41279,5.65841c3.54851,5.02348 4.43015,10.35337 6.0215,16.0905c0.86621,3.12286 2.65246,8.14599 1.39176,11.40112c-0.04851,0.12525 -0.1007,0.24853 -0.15622,0.37004l0.06021,0.02007l-0.91977,2.75931c0.72025,0.13402 2.04806,0.62817 2.04806,2.45012c0,2.5 -2.5,2.5 -2.5,2.5h-0.33333c-3.0029,-0.01893 -5.65051,-0.69244 -8.62642,-1.01724c-5.41509,-0.67677 -10.78892,-1.27301 -16.26029,-0.98533c-0.38355,0.02017 -1.97969,0.01453 -3.56413,0.13122c-0.34758,0.91516 -1.01825,1.88536 -1.28617,2.76717c-0.85966,2.82942 -2.45723,5.25372 -3.63806,7.9368c-0.42096,0.9565 -0.51063,2.08284 -1.13049,2.9242c-0.92131,1.25053 -1.85837,2.91177 -3.384,3.20347c-1.4949,0.28583 -2.9066,-0.97635 -4.21723,-1.75009c-2.87582,-1.69776 -4.9978,-4.91808 -6.60564,-7.92454l-0.4503,0.78802l-0.04644,-0.02654c-0.02562,0.07577 -0.05247,0.15121 -0.08062,0.22631c-0.39854,1.06295 -1.43727,1.75951 -2.20923,2.59184c-3.04603,3.28422 -5.82255,5.47341 -10.28163,2.67315c-3.47629,-2.18308 -5.05389,-8.53546 -6.59226,-12.42485c-1.68638,0.52309 -3.43222,0.85109 -5.16804,1.17723c-4.33496,0.81449 -9.34655,1.44066 -13.34466,3.44706c-2.65426,1.33201 -4.71641,3.19581 -7.46293,4.39331c0,0 -2.29786,0.9848 -3.28266,-1.31306c-0.18251,-0.42586 -0.25227,-0.80662 -0.24481,-1.14437c-0.22856,-0.47637 -0.27537,-0.89768 -0.27537,-0.89768c-0.98833,-8.9943 1.61775,-17.92017 4.44901,-26.40795c1.16983,-3.50702 2.22156,-6.48187 4.29088,-9.59117c2.4379,-3.66311 6.04024,-9.25419 11.36819,-7.25333c3.2965,1.23797 5.24973,6.45751 6.95155,9.20278c1.93815,5.1058 3.95113,10.16379 5.49204,15.40795c0.26141,0.88966 1.187,4.61696 1.32955,6.17193c1.56595,-0.24423 2.44076,1.28669 2.44076,1.28669c0.36461,0.6402 0.68403,1.27281 0.97031,1.90217c0.45763,-0.50865 1.121,-0.82849 1.85908,-0.82849c0.11851,0 0.23509,0.00825 0.34921,0.0242l2.62754,0.32844l-0.01543,0.12345l0.30339,-0.07016c0.07966,0.06511 0.15932,0.13021 0.23899,0.19532l0.04077,-0.10872l1.43133,0.53675c0.23934,0.00402 0.47659,0.00604 0.7053,-0.00884c1.93468,-0.12587 4.09673,-1.09285 5.81317,-0.19136c0.34665,0.18206 0.55121,0.47823 0.67923,0.83761h2.72201c2.29136,-0.26131 5.14867,-0.95358 7.69828,-1.22845c0.36962,-0.23732 0.68782,-0.33278 0.68782,-0.33278c1.20129,-0.36014 2.37361,-0.74394 3.53274,-1.14048c-0.15719,-0.81573 -0.22872,-1.66671 -0.31428,-2.44302c-0.24703,-2.24137 1.41093,-6.19448 2.15472,-8.22135c0.39858,-1.08615 0.78735,-2.20586 1.17885,-3.34304zM271.80487,140.55459l0.01346,-0.22878l-0.07941,0.23823c0.02198,-0.00313 0.04396,-0.00628 0.06595,-0.00945zM198.55786,149.986c0.12829,-0.04373 0.25917,-0.08087 0.39198,-0.11311c-0.09607,-0.1549 -0.18368,-0.30967 -0.26339,-0.46437c-0.03793,0.19392 -0.0797,0.38673 -0.12859,0.57748z" fill="#a9acb4"/><path d="M225.66733,152.24047c-2.44047,0.54233 -2.9828,-1.89814 -2.9828,-1.89814l-0.39551,-1.78017c-1.86291,-8.09564 -4.0622,-17.70214 -8.31719,-24.89177c-1.56804,-2.64951 -3.71597,-6.57443 -7.05098,-6.80192c-4.23365,1.83468 -5.54263,6.87849 -7.06404,10.83303c-4.10251,10.6635 -6.63181,21.2379 -6.63181,32.69851c0,0 0,2.5 -2.5,2.5c-2.5,0 -2.5,-2.5 -2.5,-2.5c0,-12.08081 2.64631,-23.26147 6.9682,-34.50149c2.39529,-6.22947 4.41473,-11.29483 10.93596,-13.96697c1.27053,0.10177 2.60571,-0.10755 3.8116,0.3053c2.64662,0.90609 3.54691,2.43317 5.13642,4.40143c4.8747,6.03624 6.99879,13.13648 9.05438,20.48462c0.96867,3.4627 2.21662,6.80215 3.02943,10.31497l0.40449,1.81983c0,0 0.54233,2.44047 -1.89814,2.98279z" fill="#8a5b43"/><path d="M251.27953,151.83607l0.17166,-0.00009c-8.9416,-1.87948 -17.01045,-1.25281 -25.85203,0.6c0,0 -2.68256,0.56215 -3.30161,-1.87383c-0.61906,-2.43598 2.06351,-2.99813 2.06351,-2.99813c9.39516,-1.96882 18.0927,-2.60421 27.54205,-0.75891c1.86324,-9.97554 4.707,-20.48225 9.83898,-29.3601c2.58423,-4.47048 7.69478,-9.99203 13.98359,-9.32917c1.43453,0.15121 2.70261,0.92529 4.05392,1.38793c11.56043,10.252 9.71346,26.82774 12.86476,40.17241l0.2601,1.81374c0,0 0.34148,2.4807 -2.39033,2.79078c-2.73181,0.31008 -3.07328,-2.17061 -3.07328,-2.17061l-0.18039,-1.38626c-1.39371,-5.91024 -2.67588,-12.1176 -3.1385,-18.15825c-0.49422,-6.45331 -2.21916,-14.00215 -7.34272,-18.86934c-4.6012,-1.68392 -8.22591,2.65293 -10.15385,6.05876c-5.3408,9.43484 -8.08781,20.61187 -9.85187,31.02516c0,0 -0.41863,2.47093 -3.13968,2.09078c-0.86193,-0.12042 -1.40882,-0.45062 -1.75378,-0.84562c-0.3636,-0.08167 -0.60052,-0.18924 -0.60052,-0.18924z" fill="#8a5b43"/><path d="M188.08027,210.26777c-1.76776,1.76776 -3.53553,0 -3.53553,0l-0.01847,-0.12403c-4.83743,-2.90964 -9.20689,-5.98427 -13.02346,-10.18702c-0.17439,-5.69573 2.05586,-9.88819 6.96231,-13.06255c0.7722,-0.49959 1.81783,-1.29419 2.75904,-1.61102c-0.36695,-0.27409 -0.70667,-0.59439 -1.04966,-0.89451c-0.754,-0.65974 -1.42056,-1.4132 -2.12976,-2.12087c-2.47388,-2.46856 -5.82037,-4.56728 -5.19556,-8.69445c0.19898,-1.31438 1.17792,-2.3914 1.91074,-3.50052c3.30389,-5.00042 8.50732,-7.13222 13.05258,-10.5728c0,0 2,-1.5 3.5,0.5c1.5,2 -0.5,3.5 -0.5,3.5c-4.06035,3.02181 -11.16855,5.65706 -13.03668,10.92668c-0.32,0.90264 1.70442,2.20979 1.80444,2.30555c1.67556,1.60423 4.67046,3.69172 6,5.5c0.94337,1.28305 2.51256,2.68974 2.18561,4.24835c-0.4634,2.20906 -4.918,3.5731 -6.60599,4.62526c-2.35054,1.46514 -4.67925,4.12363 -5.03769,6.93745c3.52783,2.84722 7.08247,5.48284 10.97654,7.81298l0.98153,0.87597c0,0 1.76776,1.76776 0,3.53553z" fill="#8a5b43"/><path d="M296.28342,205.23224l0.98153,-0.87597c3.89407,-2.33014 7.44871,-4.96576 10.97654,-7.81298c-0.35843,-2.81382 -2.68715,-5.47231 -5.03769,-6.93745c-1.68799,-1.05216 -6.14259,-2.4162 -6.60599,-4.62526c-0.32695,-1.5586 1.24225,-2.9653 2.18561,-4.24835c1.32954,-1.80828 4.32445,-3.89577 6,-5.5c0.10002,-0.09576 2.12444,-1.40292 1.80444,-2.30555c-1.86813,-5.26962 -8.97632,-7.90487 -13.03668,-10.92668c0,0 -2,-1.5 -0.5,-3.5c1.5,-2 3.5,-0.5 3.5,-0.5c4.54526,3.44058 9.74869,5.57238 13.05258,10.5728c0.73282,1.10912 1.71175,2.18615 1.91074,3.50052c0.62482,4.12716 -2.72167,6.22589 -5.19556,8.69445c-0.7092,0.70767 -1.37577,1.46113 -2.12976,2.12087c-0.34299,0.30012 -0.6827,0.62042 -1.04966,0.89451c0.94121,0.31683 1.98684,1.11142 2.75904,1.61102c4.90645,3.17436 7.13671,7.36682 6.96231,13.06255c-3.81657,4.20275 -8.18602,7.27738 -13.02346,10.18702l-0.01848,0.12403c0,0 -1.76776,1.76776 -3.53553,0c-1.76776,-1.76776 0,-3.53553 0,-3.53553z" data-paper-data="{&quot;index&quot;:null}" fill="#8a5b43"/><path d="M212.3272,195.75645c-0.33523,0.11957 -0.67391,0.21435 -1.01404,0.28535c-1.45128,0.55517 -3.11555,0.7873 -4.7577,0.67511c-2.4319,1.34038 -4.47207,3.38625 -6.71437,2.75977c-1.72117,1.54859 -3.3992,-0.12944 -3.3992,-0.12944c-2.05163,-2.09307 -3.09147,-2.67884 -3.96706,-5.73956c-2.43498,-8.51183 3.61083,-16.75123 11.80344,-18.78895c5.1042,-1.26955 10.70827,0.2771 14.80325,3.4569c2.69672,2.09403 3.35307,3.34285 4.49194,6.48995c1.26691,3.50091 1.15276,6.2115 0.28927,9.74598c-0.93473,1.2509 -1.33868,3.21352 -2.8042,3.75271c-2.47859,0.91193 -4.82855,-1.61481 -6.90667,-2.29207c-0.29358,-0.09568 -1.01836,-0.16785 -1.82467,-0.21575zM200.96876,194.64743c-0.02324,0.20202 0.00674,0.27581 0.13891,0.11165c-0.04674,-0.03669 -0.09305,-0.07391 -0.13891,-0.11165z" fill="#c2b8b6"/><path d="M264.03416,193.69954c-0.05865,0.01041 -0.11899,0.01953 -0.18109,0.02729c-2.48069,0.31009 -2.79078,-2.17061 -2.79078,-2.17061c-0.38279,-3.21321 -0.51708,-6.89673 0.84797,-9.95798c5.16579,-11.58477 21.91079,-12.94345 29.29526,-2.8576c2.73604,3.73693 6.00497,13.38939 1.43856,17.27326c-1.20362,1.02371 -2.94694,1.14117 -4.42041,1.71176c-4.57836,-3.08197 -9.31171,-5.30469 -15.01402,-5.31286c-1.95757,-0.0028 -6.65813,1.83394 -9.17549,1.28673z" fill="#c2b8b6"/><path d="M294.33552,217.00237c-2.47698,0 -2.47699,-2.45397 -2.47699,-2.45397v-1.47238c0.01984,-3.63958 -1.03819,-7.67201 -2.94316,-10.75963c-1.25655,-1.23101 -2.1055,-2.86434 -3.48663,-3.95651c-1.22569,-0.96926 -2.94315,-1.07559 -4.39807,-1.65555c-12.06082,-4.80767 -24.24524,4.14384 -35.83805,6.52414c-3.42316,0.70287 -7.7875,0.03169 -11.29549,0.03169c-10.66473,-0.04681 -22.98013,-7.25581 -32.88014,-1.34808c-3.66172,2.18509 -8.06443,5.85124 -6.79969,10.68269c0,0 0.48577,2.40632 -1.94311,2.88757c-2.42888,0.48126 -2.91466,-1.92505 -2.91466,-1.92505c-0.3512,-2.08141 -0.13651,-4.32954 0.62446,-6.30058c4.03886,-10.46137 14.84212,-13.62374 25.43163,-12.31632c6.18462,0.76358 12.15394,3.44568 18.48151,3.41183c3.19311,0 7.40462,0.71517 10.50196,0.03168c12.81422,-2.82771 25.04639,-11.52785 38.47145,-6.23648c0.63063,0.24856 5.2074,2.04174 5.50986,2.27079c1.75572,1.32956 2.88489,3.32199 4.43972,4.87777c2.49036,4.15829 3.97058,8.90307 3.99239,13.78003v1.47238c0,0 0,2.45397 -2.47698,2.45397z" fill="#8a5b43"/><path d="M240.00359,187.43248c1.47961,-0.11547 2.96655,-0.06009 4.20607,-0.01967c1.23879,0.04039 2.6685,-0.4412 3.71131,0.22872c0.78688,0.50551 1.57649,1.14743 2.2061,1.89407c0.76557,0.58722 1.42812,1.27229 1.74773,2.14238c2.08291,5.6705 -3.60958,7.4935 -7.50979,8.06333c-2.80411,-0.00915 -3.86701,0.20894 -6.65846,-0.80592c-1.19009,-0.43267 -2.47255,-0.84873 -3.3824,-1.72947c-1.15886,-1.12178 -2.70895,-2.46312 -2.61192,-4.07307c0.10075,-1.67166 1.82487,-2.86639 3.09586,-3.95688c1.01245,-0.86867 2.35682,-1.33381 3.78774,-1.57441c0.02324,-0.00969 0.04636,-0.01955 0.06936,-0.02958c0,0 0.61823,-0.23184 1.33841,-0.1395z" fill="#56392a"/><path d="M209.32769,138.01007c2.23607,1.11803 1.11803,3.3541 1.11803,3.3541l-0.93821,1.86676c-0.40923,0.9167 -0.53915,2.01954 -1.22769,2.75011c-1.20618,1.2798 -2.51988,3.17647 -4.27637,3.08991c-1.92466,-0.09485 -4.04706,-4.31667 -4.96441,-5.9178c0,0 -1.24035,-2.17061 0.93026,-3.41096c2.17061,-1.24035 3.41096,0.93026 3.41096,0.93026c0.26446,0.46415 0.71034,1.0844 1.02703,1.67894c0.16101,-0.3654 0.35583,-0.72113 0.5045,-1.09006l1.06179,-2.13324c0,0 1.11803,-2.23607 3.3541,-1.11803z" fill="#c2a19a"/><path d="M282.43806,136.6273c1.95217,1.56174 0.39043,3.51391 0.39043,3.51391l-1.25117,1.55802c-0.72626,0.95446 -1.14418,2.2567 -2.17878,2.86338c-5.9339,3.47957 -6.69887,-0.48359 -9.30888,-4.65814c0,0 -1.325,-2.12 0.795,-3.44499c2.12,-1.325 3.44499,0.795 3.44499,0.795c0.76537,1.22501 1.05797,2.69434 1.72888,3.97353c0.10798,0.20587 0.17662,-0.43194 0.29557,-0.63167c0.36521,-0.61323 0.7697,-1.20219 1.15455,-1.80329l1.41549,-1.77531c0,0 1.56174,-1.95217 3.51391,-0.39043z" fill="#c2a19a"/></g></g></g></svg>