<svg version="1.1" xmlns="http://www.w3.org/2000/svg" xmlns:xlink="http://www.w3.org/1999/xlink" width="241.43924" height="360.9" viewBox="0,0,241.43924,360.9"><g transform="translate(-128.0052,26.60899)"><g data-paper-data="{&quot;isPaintingLayer&quot;:true}" fill-rule="nonzero" stroke-linecap="butt" stroke-linejoin="miter" stroke-miterlimit="10" stroke-dasharray="" stroke-dashoffset="0" style="mix-blend-mode: normal"><path d="M140.625,256.83333l-11,-226l155,-6l81.19199,25.43018l-16.65265,245.8226l-148.53934,34.74722z" fill="#1381d5" stroke="none" stroke-width="0"/><path d="M173.62505,63l-39,-27.5l155,-6l74.69199,23.43018z" fill="#1693f3" stroke="none" stroke-width="0"/><path d="M141.76476,256.5l-11.13972,-226l68.96874,32l2.93308,268z" fill="#116fb7" stroke="none" stroke-width="0"/><path d="M141.625,257.5l-11,-226l155,-6l81.19199,25.43018l-16.65265,245.8226l-148.53934,34.74722z" fill="none" stroke="#78605e" stroke-width="5"/><path d="M209.42458,103.9531c5.361,-9.36459 25.09631,-14.49888 34.34743,-10.02067c10.61562,5.13873 19.75776,17.28692 17.81,29.80825c-1.41498,9.09631 -12.28135,17.58584 -21.25118,20.31964c2.23094,7.07923 5.28537,16.30907 -5.70981,19.69219c-3.61207,1.1114 -7.72269,-0.71311 -11.06268,-2.48135c-2.44714,-1.29555 -4.43905,-9.66046 -4.99105,-11.43912c-3.09705,-9.97935 -4.09528,-14.02644 -8.25946,-25.29336c-0.27471,-0.74326 -1.49454,-3.58185 -2.39677,-6.74474c-0.47985,-1.16107 -0.77094,-2.41999 -0.83504,-3.7385c-0.00895,-0.18402 -0.01347,-0.3692 -0.01347,-0.55544c0,-1.67347 0.36539,-3.26161 1.02075,-4.68896c0.07321,-1.21182 0.33826,-2.37189 0.76516,-3.45023c0.13952,-0.49017 0.32171,-0.96329 0.57612,-1.40771zM238.62188,119.4476c-1.82164,-4.61571 -4.54676,-4.80263 -7.61505,-3.61692c0.08444,0.2446 0.16405,0.46604 0.23803,0.65847c0.81259,2.11356 1.53569,4.07408 2.1978,5.93919c2.45778,-0.79632 5.59132,-1.93653 5.17921,-2.98074z" fill="#ffffff" stroke="none" stroke-width="0.5"/><path d="M295.3701,85.32732l3.1864,1.06213l0.00495,-0.00171l0.01872,0.0096l1.28993,0.42997l1.87404,1.19257l1.97657,1.01363l1.02328,0.89537l0.01775,0.0113l0.00103,0.00513l2.95794,2.5882l1.12818,1.62458l1.33997,1.45482l3,5.5l0.34818,1.33915l0.53124,0.46269l0.09214,1.93493l0.48744,1.87478l-0.36961,0.59975l0.06582,1.3821l-1.24906,6.24529l0.01279,0.02674l-0.03861,0.10241l-0.22511,1.12556l-0.97683,2.06219l-0.80505,2.13511l-0.65337,0.94375l-0.04685,0.09892l-0.02812,0.00937l-3.07299,4.43878l0.00133,0.04103l-0.10188,0.10419l-0.59812,0.86396l-1.73747,1.52473l-1.61609,1.65282l-0.89492,0.55072l-0.10952,0.09611l-0.04091,-0.00354l-5.45465,3.35671l-1.21282,0.38406l-0.4086,0.53561l-1.99355,0.22508l-1.91261,0.60566l-0.5912,-0.32297l-1.26414,0.14273l-6.11293,-0.81506l-0.00146,0.00084l-0.00657,-0.00191l-1.37904,-0.18387l-2.05698,-0.8157l-2.12473,-0.6181l-1.20174,-0.70101l-0.00636,-0.00252l-0.00063,-0.00156l-4.79127,-2.7949l-0.45668,-0.44555l-0.45529,-0.03959l-1.51174,-1.87946l-1.72647,-1.68436l0.00408,-0.45699l-0.39989,-0.49716l-2.92121,-6.32929l-0.14112,-0.09703l-0.4721,-2.89164l-0.54594,-2.87862l0.0994,-0.13945l0.41808,-5.01698l-0.05754,-0.10257l0.091,-0.29901l0.03284,-0.39408l0.82183,-2.41413l0.74252,-2.43969l0.20345,-0.33909l0.10073,-0.29588l0.10661,-0.04966l4.08922,-6.81536l0.68808,-0.68808l0.08015,-0.57446l1.7795,-1.2852l1.55216,-1.55215l0.57989,0.01234l0.78887,-0.56974l2.26312,-0.90525c0.72469,-0.30951 1.48847,-0.54514 2.28188,-0.69742l0.1196,-0.07176l1.83541,-1.32558l1.12164,-0.44866l0.0734,-0.04404l0.02182,0.00595l1.28314,-0.51326l2.11111,-0.28787l2.06703,-0.51676h3.5l1.75444,0.43861zM285.80627,111.04319l-0.03628,0.43537l0.27208,0.5895l0.99182,0.57856l1.29445,0.1726l1.078,-0.66339l1.83128,-2.64517l0.2421,-1.21049l-0.08374,-0.15352l-0.65824,-0.57596l-1.18482,0.78987l-2.71991,0.9714z" fill="#ffffff" stroke="none" stroke-width="0.5"/><path d="M341.85147,81.3455c8.20429,4.67732 10.18995,13.52279 9.71107,22.6545c-0.36373,6.93586 -3.88112,12.64485 -8.86066,17.1562c-1.40511,1.273 -3.81309,3.55874 -6.21157,4.80382c-0.36201,2.3176 -0.71013,4.63553 -1.01326,6.95601c-1.0116,7.74405 -2.11085,19.69363 -14.89303,16.49808c-3.66634,-0.91658 -6.24121,-4.60389 -8.18558,-7.84452c-0.9248,-1.54134 0.57348,-9.50844 0.82306,-11.47629c1.23755,-9.75738 3.53987,-19.62665 3.84104,-29.44452c0.03465,-1.12973 -0.73188,-11.55199 1.55457,-12.85854l2.46769,-1.41012c4.18869,-6.50847 13.97303,-8.90773 20.76666,-5.03463z" fill="#ffffff" stroke="none" stroke-width="0.5"/><path d="M154.3125,242.5l-5.5,-95.5l36.5,28.5l2.5,96.5z" fill="#ffffff" stroke="none" stroke-width="NaN"/><path d="M158.32199,171.88218c-0.50657,0.32159 -1.06415,-0.05013 -1.06415,-0.05013c-1.54248,-1.05538 -3.93879,-3.21025 -3.63271,-5.44168c0.14508,-1.05767 0.43714,-2.54985 1.46174,-2.8497c0.94306,-0.27599 1.59523,1.14776 2.39285,1.72165l0.01538,0.07594l0.02882,-0.02197l0.20438,0.26807c0.43307,-2.03094 3.88112,-2.26998 4.91707,0.20437c0.67896,1.6217 -2.10424,4.8796 -3.03994,5.8326l-0.08579,0.08579c0,0 -0.56965,0.56965 -1.19766,0.17507zM158.28507,170.11426c0.76313,-0.76326 2.45699,-2.64723 2.44902,-3.73647c-0.00363,-0.4955 -1.07563,-0.27217 -1.50977,0.10265l-0.3069,1.25078c-0.09955,0.44737 -0.49878,0.78183 -0.97613,0.78183c-0.32828,0 -0.61961,-0.15818 -0.80193,-0.40248l-1.2059,-1.58169l0.01883,-0.01436c-0.12047,-0.36073 -0.09672,-0.85454 -0.42583,-1.02275c-0.27194,-0.13899 0.01637,0.61676 0.09864,0.91087c0.1404,0.50193 0.33649,0.98941 0.56408,1.45829c0.44755,0.92204 1.23843,1.68548 2.09589,2.25332z" fill="#0e5e9b" stroke="none" stroke-width="0.5"/><path d="M171.74068,171.38982c0.1872,0.44746 0.32088,0.91958 0.38809,1.39659l0.62507,1.87522c0.03799,0.10568 0.0587,0.21961 0.0587,0.33837c0,0.55228 -0.44772,1 -1,1c-0.39791,0 -0.74153,-0.2324 -0.90255,-0.56887l-0.5928,-1.17522c-0.28157,-0.57505 -0.51802,-1.25556 -0.57415,-1.9201c-0.02694,-0.00256 -0.05379,-0.0048 -0.08041,-0.00649c-0.3738,0.42598 -0.79211,0.81178 -1.23953,1.16577c-0.03695,0.05881 -0.07515,0.11631 -0.11543,0.17161l0.12619,0.12619l-1.41421,1.41421c-0.18096,0.18096 -0.43096,0.29289 -0.70711,0.29289c-0.55228,0 -1,-0.44772 -1,-1c0,-0.2459 0.08876,-0.47107 0.23598,-0.64523l1.21543,-1.45852c0.53575,-0.59426 0.94839,-1.32921 1.60333,-1.78724c0.01781,-0.04434 0.03885,-0.08554 0.06234,-0.12381c-0.37561,-0.02864 -0.74901,-0.09759 -1.11708,-0.19573v0.21052h-2c-0.55228,0 -1,-0.44772 -1,-1c0,-0.55228 0.44772,-1 1,-1h2v0.21052c0.09445,-0.02518 0.18926,-0.04844 0.28436,-0.06959c-0.01264,-0.33247 -0.02554,-0.66475 -0.09955,-0.94931l-0.1681,-1.00863c-0.01097,-0.05932 -0.0167,-0.12048 -0.0167,-0.18298c0,-0.55228 0.44772,-1 1,-1c0.42054,0 0.78044,0.25959 0.92822,0.62726l0.77876,1.81711l-0.03981,0.01706c0.12722,0.19035 0.24748,0.38459 0.35736,0.5821c0.94844,-0.08075 2.12625,-0.02937 2.70521,-0.01678l0.17684,0.16006l0.04062,-0.08124l0.98062,0.49031c0.33825,0.16034 0.57216,0.50491 0.57216,0.90412c0,0.4846 -0.3447,0.8887 -0.8023,0.98046l-1.93315,0.42959l-0.02814,-0.12665c-0.10249,0.03634 -0.20525,0.07183 -0.30827,0.10642z" fill="#0e5e9b" stroke="none" stroke-width="0.5"/><path d="M178.77452,180.22687c0.27313,0.96198 -0.68885,1.23511 -0.68885,1.23511l-1.97145,0.29243c-0.42439,-0.99198 -1.62427,-1.95626 -1.27752,-2.97579c-0.2396,-0.30131 -0.42259,-0.62932 -0.49742,-1.00838c-0.12392,-0.62779 1.01736,-0.77645 1.52604,-1.16467c0,0 0.89443,-0.44721 1.34164,0.44721c0.02195,0.0439 0.04066,0.08671 0.05641,0.12845c0.1866,-0.08291 0.36493,-0.17238 0.52689,-0.2748l-0.86485,2.79856c0.02305,0.08502 0.04673,0.16985 0.071,0.25449l0.54299,-0.42147c0,0 0.96198,-0.27313 1.23511,0.68885z" fill="#0e5e9b" stroke="none" stroke-width="0.5"/><path d="M169.81254,178.5c0,0 0,-1 1,-1c1,0 1,1 1,1c-0.04592,0.97564 0.39897,2.0497 1.12132,2.70711l0.08579,0.08579c0,0 0.2561,0.2561 0.30593,0.61418c0.4681,-0.03434 0.91331,0.00645 1.32003,0.16538c0.57842,0.22602 2.079,2.33617 2.58806,3.02055l1.07887,-0.093c0,0 1,0 1,1c0,1 -1,1 -1,1l-1.92113,-0.093c-0.8701,-0.95084 -1.27325,-2.50264 -2.47372,-2.97172c-1.95931,-0.76561 -5.39604,1.7974 -7.51333,0.97763c-1.81334,-0.70209 -0.83559,-2.0532 -2.04759,-3.02281c-1.23975,-0.9918 -5.62774,1.40373 -7.1043,0.78774c-0.33232,-0.13864 -2.4262,-3.13815 -2.75367,-3.59661c0,0 -0.58124,-0.81373 0.2325,-1.39497c0.81373,-0.58124 1.39497,0.2325 1.39497,0.2325c0.67347,0.94285 0.82688,2.46715 1.89623,2.91326c1.7141,0.71508 5.27081,-1.99396 7.2458,-0.72212c0.99777,0.64254 0.82398,2.6097 1.95241,2.97719c1.10285,0.35917 2.59419,-0.24898 4.07383,-0.72058c-0.88631,-1.06473 -1.43812,-2.49313 -1.482,-3.86651z" fill="#0e5e9b" stroke="none" stroke-width="0.5"/><path d="M166.3125,177.5c0,1 -1,1 -1,1l-0.69612,-0.01942c-1.19048,-0.2381 -2.1017,-0.46844 -3.00176,-0.79318l-0.03708,0.18541l-1.943,-0.3886c-0.46739,-0.08395 -0.82205,-0.49266 -0.82205,-0.98421c0,-0.55228 0.44772,-1 1,-1h1c0,0 0.48306,0 0.7777,0.33574l0.37958,0.07592l-0.04525,0.22626c0.98411,-0.21505 1.81747,0.12819 3.08409,0.38151l0.30388,-0.01942c0,0 1,0 1,1z" fill="#0e5e9b" stroke="none" stroke-width="0.5"/><path d="M166.79029,191.70953c-0.20953,0.9778 -1.18733,0.76827 -1.18733,0.76827l-1.60488,-0.36771c-0.3952,-0.37003 -0.65794,-0.98891 -1.18559,-1.11009c-1.17225,-0.26923 -1.7792,2.39962 -2.94142,2.08995c-3.77678,-1.0063 -1.70755,-3.18761 -0.89063,-4.64465c0,0 0.5547,-0.83205 1.38675,-0.27735c0.83205,0.5547 0.27735,1.38675 0.27735,1.38675c-2.80631,3.09327 1.82825,-0.57161 2.16795,-0.5547c0.79635,0.03965 1.34294,0.85994 2.01441,1.28991l1.19512,0.23229c0,0 0.9778,0.20953 0.76827,1.18733z" fill="#0e5e9b" stroke="none" stroke-width="0.5"/><path d="M177.51965,194.20711c-0.70711,0.70711 -1.41421,0 -1.41421,0l0.25364,-0.20819c-1.17304,-0.00776 -2.05094,1.70063 -3.19999,1.46449c-2.12661,-0.43705 -2.82377,-4.9293 -2.84655,-6.4634c0,0 0,-1 1,-1c1,0 1,1 1,1c-0.02147,1.11735 0.42598,2.21073 0.86052,3.24035c0.16454,0.38988 -0.16004,1.27266 0.26204,1.24219c0.53118,-0.03835 0.42012,-1.07858 0.89198,-1.3255c0.57448,-0.30064 1.29262,-0.10397 1.93892,-0.15595l1.25364,0.79181c0,0 0.70711,0.70711 0,1.41421z" fill="#0e5e9b" stroke="none" stroke-width="0.5"/><path d="M171.63757,201.06509c-0.56509,0.82503 -1.39012,0.25993 -1.39012,0.25993l-0.49753,-0.34078c-2.20841,-1.51279 -4.36077,-3.10112 -6.52555,-4.67551c0,0 -0.80874,-0.58817 -0.22056,-1.39691c0.58817,-0.80874 1.39691,-0.22056 1.39691,-0.22056c2.14953,1.56329 4.2864,3.14102 6.47939,4.64293l0.49753,0.34078c0,0 0.82503,0.56509 0.25993,1.39012z" fill="#0e5e9b" stroke="none" stroke-width="0.5"/><path d="M158.28508,196.26726c0.23274,0.97254 -0.7398,1.20528 -0.7398,1.20528l-0.05907,0.01414c-0.90515,0.11204 -1.94642,0.82648 -2.71545,0.33613c-0.67719,-0.43179 -1.81931,-6.11839 -1.63381,-6.94242c0.17652,-0.78413 0.91706,-1.32025 1.37559,-1.98038c0,0 0.6,-0.8 1.4,-0.2c0.8,0.6 0.2,1.4 0.2,1.4c-1.57586,1.87615 -0.47371,2.40487 -0.22283,4.72044c0.04728,0.43636 -0.41377,1.08003 -0.04369,1.316c0.37008,0.23597 0.78314,-0.39656 1.17471,-0.59484l0.05907,-0.01414c0,0 0.97254,-0.23274 1.20528,0.7398z" fill="#0e5e9b" stroke="none" stroke-width="0.5"/><path d="M181.11234,203.10027c-0.60027,0.7998 -1.40007,0.19953 -1.40007,0.19953l-0.15223,-0.11425c-2.24582,-1.69869 -3.77637,-3.87086 -5.52837,-6.06085c0,0 -0.6247,-0.78087 0.15617,-1.40556c0.78087,-0.6247 1.40556,0.15617 1.40556,0.15617c1.63678,2.04598 3.05875,4.14215 5.16717,5.71064l0.15223,0.11425c0,0 0.7998,0.60027 0.19953,1.40007z" fill="#0e5e9b" stroke="none" stroke-width="0.5"/><path d="M163.8125,214c0.55228,0 1,0.44772 1,1c0,0.55228 -0.44772,1 -1,1c-0.49322,0 -0.90305,-0.35708 -0.98506,-0.82683c-0.18955,1.11846 -1.33819,1.43908 -1.37293,2.7743c-0.0284,1.09118 0.31762,2.28378 1.03444,3.10698c0.46418,0.53306 1.33223,0.6828 1.88647,1.09683c0.06937,-0.2101 0.21523,-0.45954 0.52193,-0.57964c0.0425,-0.07934 0.09931,-0.16035 0.17332,-0.24223c0.67058,-0.74183 1.41242,-0.07125 1.41242,-0.07125l0.61266,0.73736c1.08995,-0.47592 4.03946,-0.85444 4.76917,-1.60916c1.21841,-1.26019 0.81076,-4.97883 -0.2811,-6.20153c-0.90543,-1.01393 -3.02565,-0.60281 -3.65573,-1.80733c-0.33413,-0.63875 1.03602,-8.53193 -1.63936,-4.42373c-0.2871,0.44086 -0.74453,0.7775 -0.97621,1.24502v1.80121c0,0.55228 -0.44772,1 -1,1c-0.27614,0 -0.52614,-0.11193 -0.70711,-0.29289l-1,-1l0.00312,-0.00312l-0.01458,-0.00853c-0.45172,-0.4822 -0.93246,-0.93877 -1.35517,-1.44659c-0.36869,-0.44292 -1.36754,-1.33448 -1.54048,-0.78476c-0.77017,2.44802 2.72022,3.9709 3.10169,5.87806c0.02743,0.13714 0.04372,0.26486 0.05036,0.38447c0.11892,-0.4194 0.50467,-0.72664 0.96218,-0.72664zM166.24293,223.6061c-0.02442,0.35339 -0.10608,0.65228 -0.4047,0.74455c-0.54,0.16687 -4.37117,-1.4242 -4.85759,-1.98281c-0.15875,-0.1823 -1.53224,-4.21167 -1.52545,-4.4724c0.03048,-1.17143 1.64205,-2.09784 1.36985,-3.23761c-0.28405,-1.18941 -1.93629,-1.63123 -2.42631,-2.75161c-0.89903,-2.05555 -1.33386,-6.054 2.37892,-5.78499c0.31175,0.02259 2.17284,2.01766 2.95881,2.8657c0.02659,-2.53873 2.84366,-5.80724 5.55915,-3.37853c0.11363,0.10163 1.0427,3.9897 1.01664,4.41436c-0.03251,0.52963 -0.78728,0.98955 -0.58546,1.4803c0.45194,1.09892 2.51491,0.43308 3.31441,1.3121c1.80082,1.97992 2.22987,6.92557 0.26156,8.96138c-1.09245,1.12991 -5.16239,1.77871 -6.61812,2.17628z" fill="#0e5e9b" stroke="none" stroke-width="0.5"/><path d="M166.3125,214.5c0,-0.55228 0.44772,-1 1,-1c0.55228,0 1,0.44772 1,1c0,0.55228 -0.44772,1 -1,1c-0.55228,0 -1,-0.44772 -1,-1z" fill="#0e5e9b" stroke="none" stroke-width="0.5"/><path d="M170.70697,217.94721c-0.44721,0.89443 -1.34164,0.44721 -1.34164,0.44721l-0.21115,-0.10557c-1.90781,-1.07867 -2.20816,-1.00254 -2.91316,1.08254c0,0 -0.37139,0.92848 -1.29987,0.55709c-0.92848,-0.37139 -0.55709,-1.29987 -0.55709,-1.29987c1.38195,-3.12349 2.56414,-3.54876 5.66454,-2.12861l0.21115,0.10557c0,0 0.89443,0.44721 0.44721,1.34164z" fill="#0e5e9b" stroke="none" stroke-width="0.5"/><path d="M176.29121,209.71385l0.76714,0.30402c-0.06601,0.21736 -0.13202,0.43472 -0.19804,0.65208l0.32504,0.06501l-0.3886,1.943c-0.08395,0.46739 -0.49266,0.82205 -0.98421,0.82205c-0.35261,0 -0.6626,-0.1825 -0.84065,-0.4582l-0.9914,-1.48709l0.17478,-0.11652l-0.3408,-0.37604c0.02189,-0.05474 0.04378,-0.10947 0.06567,-0.16421c-0.2606,-0.12688 -0.7315,-0.462 -0.52937,-1.1718c0.27388,-0.96177 1.23564,-0.68789 1.23564,-0.68789l0.21898,0.08678c0.22236,-0.14605 0.54048,-0.22638 0.95436,-0.01944c0.32901,0.16451 0.47648,0.38952 0.53146,0.60828z" fill="#0e5e9b" stroke="none" stroke-width="0.5"/><path d="M156.6481,222.98639c-0.98639,-0.1644 -0.82199,-1.15079 -0.82199,-1.15079l0.1712,-1.02721c0.80527,-4.3778 -3.11184,-7.89341 -1.07924,-12.2556c0,0 0.44721,-0.89443 1.34164,-0.44721c0.89443,0.44721 0.44721,1.34164 0.44721,1.34164c-1.82603,3.31775 1.84864,7.86765 1.26317,11.68997l-0.1712,1.02721c0,0 -0.1644,0.98639 -1.15079,0.82199z" fill="#0e5e9b" stroke="none" stroke-width="0.5"/><path d="M162.14459,239.5547c-0.5547,0.83205 -1.38675,0.27735 -1.38675,0.27735l-1.76346,-1.25706c-0.86746,-3.01497 -5.45698,-11.29562 -0.18184,-12.07499c0,0 1,0 1,1c0,1 -1,1 -1,1c-0.67676,-0.47999 -0.57972,1.91078 -0.50634,2.3876c0.34217,2.22342 1.90186,4.27725 2.3245,6.53741l1.23654,0.74294c0,0 0.83205,0.5547 0.27735,1.38675z" fill="#0e5e9b" stroke="none" stroke-width="0.5"/><path d="M169.01965,247.20711c-0.70711,0.70711 -1.41421,0 -1.41421,0l-0.72654,-0.8489c-1.94525,-5.07018 -4.17271,-9.99069 -4.62428,-15.33951l-0.20996,0.04406l-0.40647,-1.93672c-0.01678,-0.07264 -0.02565,-0.1483 -0.02565,-0.22604c0,-0.55228 0.44772,-1 1,-1c0.33133,0 0.62502,0.16113 0.80698,0.40931l1.19302,1.59069c0,0 0.6,0.8 -0.2,1.4c-0.08551,0.06413 -0.16873,0.11227 -0.24918,0.1471c0.61114,1.5189 0.57535,3.38372 1.0516,4.99962c0.9173,3.11239 2.36832,6.16404 3.53122,9.19507l0.27346,0.1511c0,0 0.70711,0.70711 0,1.41421z" fill="#0e5e9b" stroke="none" stroke-width="0.5"/><path d="M176.85819,254.33801c-0.83801,0.54565 -1.38366,-0.29236 -1.38366,-0.29236l-0.72366,-1.1114c-4.21627,-6.50805 -6.29856,-14.90288 -9.35747,-22.04034c0,0 -0.39392,-0.91915 0.52523,-1.31306c0.91915,-0.39392 1.31306,0.52523 1.31306,0.52523c3.00316,7.00738 5.02647,15.36997 9.1952,21.73687l0.72366,1.1114c0,0 0.54565,0.83801 -0.29236,1.38366z" fill="#0e5e9b" stroke="none" stroke-width="0.5"/><path d="M181.42657,250.78929c-0.78929,0.61403 -1.40331,-0.17526 -1.40331,-0.17526l-0.81648,-1.05454c-3.58997,-6.4841 -7.29868,-12.74554 -9.83403,-19.71775c0,0 -0.34174,-0.93979 0.59805,-1.28154c0.93979,-0.34174 1.28154,0.59805 1.28154,0.59805c2.48264,6.82727 6.12852,12.9403 9.62445,19.30074l0.72505,0.92698c0,0 0.61403,0.78929 -0.17526,1.40331z" fill="#0e5e9b" stroke="none" stroke-width="0.5"/><path d="M183.15942,239.04793c0.65312,0.1993 0.65312,0.95207 0.65312,0.95207l-1.87719,0.98014c-3.0803,-5.62748 -5.96705,-11.20066 -8.53897,-17.07933c0,0 -0.40082,-0.91616 0.51534,-1.31698c0.91616,-0.40082 1.31698,0.51534 1.31698,0.51534c2.40038,5.48658 5.07719,10.70154 7.93073,15.94875z" fill="#0e5e9b" stroke="none" stroke-width="0.5"/><path d="M183.47087,225.75273c-0.75273,0.65833 -1.41106,-0.0944 -1.41106,-0.0944l-0.72033,-0.82773c-1.45824,-2.26187 -2.91284,-4.52607 -4.36812,-6.78984c0,0 -0.54076,-0.84118 0.30042,-1.38194c0.84118,-0.54076 1.38194,0.30042 1.38194,0.30042c1.42876,2.22252 2.85837,4.44449 4.284,6.66901l0.62755,0.71341c0,0 0.65833,0.75273 -0.0944,1.41106z" fill="#0e5e9b" stroke="none" stroke-width="0.5"/><path d="M195.37621,35.14888c0.35112,-0.93633 1.28745,-0.58521 1.28745,-0.58521l0.25468,0.09551c1.72897,0.64837 6.14809,1.67143 7.24735,3.31917c0.8726,1.30799 -0.31627,3.93561 -0.58811,5.29545c-1.06502,5.32763 -0.93193,11.24083 -3.37062,16.17342c0,0 -0.44721,0.89443 -1.34164,0.44721c-0.89443,-0.44721 -0.44721,-1.34164 -0.44721,-1.34164c2.3792,-4.69773 2.17724,-10.56826 3.19831,-15.67123c0.1471,-0.73517 1.25998,-3.37383 0.84296,-3.85991c-1.02238,-1.19169 -4.83597,-1.96207 -6.24328,-2.48982l-0.25468,-0.09551c0,0 -0.93633,-0.35112 -0.58521,-1.28745z" fill="#0e5c98" stroke="none" stroke-width="0.5"/><path d="M327.54828,50.68007c-7.70836,-2.19016 -15.34591,-4.30211 -23.10199,-6.24083c-6.80768,-1.70185 -12.92211,-3.89997 -19.45356,-6.36928c-1.6522,-0.62464 -5.91962,-1.39555 -5.56051,-4.1384c0.11959,-0.91339 1.39022,-1.21299 2.13736,-1.75184c1.72916,-1.24709 2.0884,-1.58733 3.46208,-3.30442c0,0 0.6247,-0.78087 1.40556,-0.15617c0.78087,0.6247 0.15617,1.40556 0.15617,1.40556c-0.70351,0.87938 -1.24611,1.92142 -2.12281,2.62827c-0.89135,0.71866 -2.64636,0.47534 -3.07104,1.53864c-0.12682,0.31752 0.50246,0.47915 0.80902,0.63056c1.40748,0.69514 3.03118,1.04072 4.48407,1.65289c6.04361,2.54646 11.8664,4.33088 18.23871,5.92389c8.06183,2.0156 16.0011,4.2182 24.01908,6.50058l-0.53225,1.99488c0,0 -0.54386,0.05778 -0.8699,-0.31434z" fill="#0e5c98" stroke="none" stroke-width="0.5"/><path d="M241.28268,37.24254c-0.24254,0.97014 -1.21268,0.72761 -1.21268,0.72761l-0.05971,-0.01493c-8.76728,-2.22908 -17.97746,1.0201 -26.69775,1.04479c0,0 -1,0 -1,-1c0,-1 1,-1 1,-1c2.07498,0.00655 3.71774,-0.53371 5.74827,-0.8554c6.4971,-1.02933 15.02749,-1.70739 21.43455,-0.12967l0.05971,0.01493c0,0 0.97014,0.24254 0.72761,1.21268z" fill="#0e5c98" stroke="none" stroke-width="0.5"/><path d="M265.31254,36.5c0,1 -1,1 -1,1l-1.53565,-0.00064c-4.67328,-0.33097 -9.27923,-0.49936 -13.96435,-0.49936c0,0 -1,0 -1,-1c0,-1 1,-1 1,-1c4.70822,0 9.33947,0.16214 14.03565,0.50064l1.46435,-0.00064c0,0 1,0 1,1z" fill="#0e5c98" stroke="none" stroke-width="0.5"/><path d="M240.81253,318.5c0,0 -4.12985,-38.34096 -4.3995,-54.9692c-0.22032,-13.58632 2.8995,-37.5308 2.8995,-37.5308c0,0 32.45199,-23.5 46.5,-23.5c7.2374,0 17.67477,-3.51573 24.84456,-2.67475c5.34749,0.62723 8.65544,5.67475 8.65544,5.67475c0,0 3.08529,15.79098 3.14396,26.99663c0.09226,17.6223 -2.64396,68.50337 -2.64396,68.50337z" fill="#ecdcc8" stroke="none" stroke-width="0"/><path d="M326.70499,245.42011c2.19919,-3.33299 4.5055,-6.58772 6.29721,-10.20575c1.14411,-2.31032 2.07082,-4.95982 3.98691,-6.5852c2.26435,-1.92079 5.44412,-2.91937 6.93336,-5.56734c1.50506,-2.6761 1.24502,-10.02419 -1.16707,-12.14627c-0.84028,-0.73925 -4.51883,-0.73847 -5.48495,0.12621c-4.22186,3.77856 -1.73515,10.12956 -2.83297,15.06047c-0.26128,1.17361 -1.24202,2.02151 -1.78676,3.07965c-1.87283,3.63789 -3.61282,7.42362 -5.01171,11.29335c0,0 -0.34487,0.94949 -1.14024,1.62944c0.03553,1.16111 0.06619,2.32213 0.09027,3.48355c0.03864,-0.05604 0.07729,-0.11208 0.11593,-0.16813zM326.97855,225.72863c0.34584,-0.64366 1.10204,-1.05999 1.24622,-1.78506c1.49955,-7.54096 -1.8782,-12.63125 5.27868,-18.59986c1.67217,-1.39452 3.97101,-1.95161 6.08507,-1.95266c2.4636,-0.00123 5.19423,0.35966 7.15191,1.9461c5.05327,4.09499 5.90974,15.51971 2.90674,21.07814c-1.8793,3.4785 -5.54545,5.47049 -8.65573,7.7247c-1.60566,1.16372 -1.23698,2.35761 -2.12539,4.14314c-2.15654,4.33423 -4.2255,7.20852 -6.86117,11.20763c-1.01013,1.46514 -2.02026,2.93027 -3.03039,4.39541l-1.00328,1.45508c0,0 -0.52686,0.76412 -1.40245,1.20698c-0.02679,0.92132 -0.06098,1.84389 -0.1034,2.76797c-0.65964,14.22303 -2.71087,28.18479 -3.3705,42.40749l-3.25664,-0.4013l-3.27981,0.09815c0.00772,-0.1665 0.01563,-0.33296 0.02373,-0.49939l-0.00057,-0.00007c0,0 0.00056,-0.01195 0.00225,-0.0344c0.68536,-14.03858 2.69384,-27.83156 3.34506,-41.87298c0.47641,-10.24301 -0.10743,-20.29929 -0.51906,-30.52067c-0.04525,-1.12359 -0.09904,-12.35231 -0.25756,-13.69234c-0.29454,-2.4898 -1.43447,-10.51741 -4.47733,-11.86258c-0.87639,-0.38743 -1.88904,-0.21864 -2.8281,-0.369c-5.36433,-0.85892 -9.90588,-0.70818 -15.31119,0.24388c-13.35176,2.35169 -26.03272,6.30953 -38.4995,12.00499c-5.45124,3.28854 -10.59479,6.47157 -14.99596,11.33468c-0.88082,0.97328 -1.90375,1.92498 -2.35348,3.18967c-0.38729,1.08913 0.01244,2.32604 -0.02126,3.48853c-0.13059,4.50609 0.28506,8.83953 0.31229,13.33523c0.05466,9.02026 -0.56756,18.29748 0.11664,27.28181c0.56332,7.39705 1.66731,14.58757 2.69022,21.9082c0,0 0.07475,0.53634 -0.03233,1.21937c0.02616,0.2847 0.01765,0.46817 0.01765,0.46817l-0.078,0.31031c1.0397,7.48629 1.19946,15.21218 0.87998,22.75161c0,0 -0.16215,3.49625 -3.43038,3.34467c-3.26823,-0.15158 -3.10608,-3.64782 -3.10608,-3.64782c0.36262,-7.05033 0.16316,-14.3705 -0.81664,-21.37437l0.01466,-1.68754c0,0 0.00824,-0.17762 0.05843,-0.45105c-0.40974,-2.94398 -0.8347,-5.86918 -1.23312,-8.79547c-1.92887,0.8087 -3.47317,-1.00495 -3.47317,-1.00495l-1.21006,-1.48943c-4.30229,-7.09096 -8.57024,-14.09104 -12.46945,-21.4538c-0.91717,-1.21209 -2.60895,-1.40188 -3.86494,-2.1947c-4.73084,-2.98629 -7.35353,-5.53472 -8.30587,-11.90154c-1.20026,-8.02435 4.9727,-23.23687 14.71182,-20.42646c8.79172,2.53702 6.84054,14.73082 8.80461,21.5476c0.82789,2.87336 2.26687,5.6389 4.03358,8.05615c0.0632,-4.14353 0.16849,-8.28459 0.14806,-12.37677c-0.02314,-4.63562 -0.58239,-9.06374 -0.30437,-13.72239c0.10953,-1.83548 -0.23495,-3.78731 0.39571,-5.50182c3.22403,-8.76485 13.5354,-14.19745 20.64314,-18.47964c14.74321,-6.74909 31.01955,-12.53901 47.14926,-13.6693c5.98236,-0.41921 15.29079,-0.36011 19.15616,5.48977c5.23796,7.92717 4.13733,18.2638 4.45964,27.37532c0.34062,-0.6784 0.68921,-1.34998 1.04566,-2.01336zM232.73086,267.15746c-5.11566,-5.23837 -8.66706,-11.90975 -9.55075,-19.54715c-0.30108,-2.60207 -0.44969,-5.28043 -1.28376,-7.7425c-0.24401,-0.72031 -0.85706,-3.6428 -2.21141,-4.09257c-1.27014,-0.42181 -3.55687,2.15738 -3.7208,2.42073c-1.29846,2.08601 -3.08017,7.52617 -2.75195,10.20685c0.75512,6.16701 4.65007,5.45968 8.367,8.05255c1.06434,0.74246 1.75236,1.96763 2.62856,2.95145c3.39784,6.3213 7.01233,12.41321 10.69929,18.51357c-0.12722,-1.2889 -0.24074,-2.58212 -0.33708,-3.8813c-0.14695,-1.98183 -0.23455,-3.97674 -0.28208,-5.97939c-0.92308,-0.26443 -1.55702,-0.90224 -1.55702,-0.90224z" fill="#78605e" stroke="none" stroke-width="0.5"/><path d="M326.68208,245.46455c-0.03863,0.05605 -0.07734,0.11206 -0.11598,0.1681c-0.02407,-1.16143 -0.05905,-2.32495 -0.09458,-3.48606c0.79537,-0.67995 1.14043,-1.62932 1.14043,-1.62932c1.39889,-3.86973 3.11945,-7.67909 4.99228,-11.31698c0.54474,-1.05814 1.54442,-1.9662 1.8057,-3.13981c1.09782,-4.9309 -1.35668,-11.28996 2.86519,-15.06852c0.96612,-0.86468 4.65915,-0.86186 5.49942,-0.12262c2.4121,2.12208 2.69591,9.49074 1.19085,12.16683c-1.48923,2.64797 -4.6671,3.69429 -6.93145,5.61509c-1.91609,1.62537 -2.90498,4.29966 -4.0491,6.60997c-1.79171,3.61802 -4.10354,6.87032 -6.30274,10.20331z" data-paper-data="{&quot;noHover&quot;:false,&quot;origItem&quot;:[&quot;Path&quot;,{&quot;applyMatrix&quot;:true,&quot;segments&quot;:[[[326.70496,245.42011],[0,0],[2.19919,-3.33299]],[[333.00217,235.21436],[-1.79171,3.61802],[1.14411,-2.31032]],[[336.98908,228.62916],[-1.91609,1.62537],[2.26435,-1.92079]],[[343.92244,223.06182],[-1.48923,2.64797],[1.50506,-2.6761]],[[342.75537,210.91555],[2.4121,2.12208],[-0.84028,-0.73925]],[[337.27042,211.04176],[0.96612,-0.86468],[-4.22186,3.77856]],[[334.43745,226.10223],[1.09782,-4.9309],[-0.26128,1.17361]],[[332.65069,229.18188],[0.54474,-1.05814],[-1.87283,3.63789]],[[327.63899,240.47523],[1.39889,-3.86973],[0,0]],[[326.49875,242.10467],[0.79537,-0.67995],[0.03553,1.16111]],[[326.58902,245.58823],[-0.02407,-1.16143],[0.03864,-0.05604]],[[326.70494,245.4201],[-0.03863,0.05605],[0,0]]],&quot;closed&quot;:true,&quot;fillColor&quot;:[0,0,0,1]}]}" fill="#ecdcc8" stroke="none" stroke-width="0.5"/><path d="M232.69866,267.1192c0,0 0.69983,0.71302 1.6229,0.97745c0.04753,2.00265 0.12752,4.00328 0.27447,5.9851c0.09634,1.29918 0.20667,2.59419 0.33389,3.88309c-3.68696,-6.10037 -7.3211,-12.18683 -10.71894,-18.50812c-0.87619,-0.98382 -1.61691,-2.2663 -2.68125,-3.00876c-3.71693,-2.59286 -7.6019,-1.90881 -8.35702,-8.07583c-0.32823,-2.68068 1.47306,-8.13602 2.77152,-10.22202c0.16393,-0.26335 2.46042,-2.84563 3.73056,-2.42382c1.35435,0.44977 1.97126,3.37162 2.21527,4.09193c0.83407,2.46207 0.98431,5.14026 1.28539,7.74232c0.88369,7.6374 4.47192,14.39683 9.58758,19.6352z" data-paper-data="{&quot;noHover&quot;:false,&quot;origItem&quot;:[&quot;Path&quot;,{&quot;applyMatrix&quot;:true,&quot;segments&quot;:[[[232.73083,267.15746],[0,0],[-5.11566,-5.23837]],[[223.18008,247.61031],[0.88369,7.6374],[-0.30108,-2.60207]],[[221.89632,239.86781],[0.83407,2.46207],[-0.24401,-0.72031]],[[219.6849,235.77524],[1.35435,0.44977],[-1.27014,-0.42181]],[[215.9641,238.19597],[0.16393,-0.26335],[-1.29846,2.08601]],[[213.21216,248.40282],[-0.32823,-2.68068],[0.75512,6.16701]],[[221.57915,256.45536],[-3.71693,-2.59286],[1.06434,0.74246]],[[224.20771,259.40682],[-0.87619,-0.98382],[3.39784,6.3213]],[[234.907,277.92039],[-3.68696,-6.10037],[-0.12722,-1.2889]],[[234.56992,274.03909],[0.09634,1.29918],[-0.14695,-1.98183]],[[234.28784,268.0597],[0.04753,2.00265],[-0.92308,-0.26443]],[232.73082,267.15746]],&quot;closed&quot;:true,&quot;fillColor&quot;:[0,0,0,1]}]}" fill="#ecdcc8" stroke="none" stroke-width="0.5"/><path d="M266.31253,289.5c-3.02114,0 -3.43448,-2.6078 -3.49104,-3.32138c-1.76966,-2.35954 -3.53931,-4.71908 -5.30897,-7.07862c0,0 -2.1,-2.8 0.7,-4.9c2.8,-2.1 4.9,0.7 4.9,0.7c2,2.66667 4,5.33333 6,8l0.7,3.1c0,0 0,3.5 -3.5,3.5z" fill="#ecdcc8" stroke="none" stroke-width="0.5"/><path d="M305.91253,302.8l-3.20166,2.08275c-1.86608,-0.15114 -3.74998,-0.15508 -5.59824,-0.45344c-0.37335,-0.06027 -0.74991,-0.14921 -1.12912,-0.25633c-2.42678,-0.13365 -4.90105,-0.74723 -7.29715,-1.56934c-0.23467,0.04681 -0.46899,0.11093 -0.70281,0.19466c-3.22062,1.1532 -5.97552,4.76178 -9.08732,6.32291c-7.82039,3.92334 -22.9143,8.88948 -27.37466,-2.42971c-0.89741,-2.2774 -0.22819,-4.7732 0.44933,-7.03776c-0.86376,-3.31279 -0.24448,-7.06893 1.07464,-10.90942c0.51537,-1.50043 1.69308,-2.69167 2.37889,-4.12225c0.21633,-0.45126 0.58278,-1.05615 0.30224,-1.47055c-0.35118,-0.51875 -1.20139,-0.37955 -1.7542,-0.67422c-1.38713,-0.7394 -2.9065,-1.33819 -4.04816,-2.41868c-7.64388,-7.23439 -3.47798,-16.87072 1.90095,-23.72343c0.0377,-0.55442 0.16688,-0.94196 0.16688,-0.94196l0.83453,-2.20753c-0.12201,-1.36693 -1.34317,-2.4117 -2.22083,-3.46672c-3.93397,-4.72896 -8.09039,-13.02957 -3.52345,-18.90901c1.21528,-1.56455 3.44326,-1.9603 5.1649,-2.94045c0,0 0.92907,-0.46454 2.028,-0.38134c0.19486,-0.1283 0.36873,-0.24413 0.51574,-0.34536c1.44666,-0.99609 2.33274,-2.64774 3.69444,-3.75715c3.22803,-2.62993 7.62055,-4.5857 11.65746,-5.38168c2.84099,-0.56017 6.01408,-0.31152 9.16111,-0.19351c1.75612,-1.12732 3.48028,-2.30719 5.28404,-3.35617c2.33289,-1.3567 5.04699,-1.91737 7.60708,-2.77115c7.39183,-2.46515 14.70468,-5.75495 20.79971,1.56851c1.13842,1.36785 2.06244,2.95758 2.63804,4.64154c2.6035,7.61662 -2.15012,14.07022 -2.83231,21.39548c-0.31518,3.3843 0.82788,6.75197 1.45674,10.09223c0.95367,5.06552 0.65618,9.52515 -0.54931,14.46797c-1.57656,6.23886 -3.90165,11.3838 -3.90743,17.9398l-0.10736,0.65868c0.51936,1.17827 0.95535,2.37514 1.0944,3.63606c0.26988,2.4473 0.05972,4.9909 -0.60511,7.36158c-0.59014,2.10434 -1.48735,4.21619 -2.86094,5.9189c0.45648,2.03694 -1.40906,3.4361 -1.40906,3.4361zM279.25996,300.66505c0.18554,-0.13391 0.36606,-0.27088 0.54275,-0.40998c-0.48652,0.28451 -0.94748,0.62962 -1.39381,1.01107c0.28634,-0.19704 0.56978,-0.39808 0.85106,-0.60109z" fill="#ab8a78" stroke="none" stroke-width="0.5"/><path d="M307.31253,275.5c2.44694,0 3.18316,1.71072 3.40467,2.74014c4.72197,6.90315 4.6488,15.70032 0.63418,22.99634c0,0 -0.09033,0.15808 -0.26584,0.38153c-0.16939,0.22812 -0.29814,0.35686 -0.29814,0.35686l-0.05125,0.03901c-0.23729,0.2395 -0.54109,0.49215 -0.90767,0.6908l-0.71609,0.54499c-3.46494,1.38381 -6.47415,1.87601 -10.07743,2.67496c-5.6002,1.24173 -11.03173,3.82784 -16.59795,5.01921c-2.83439,0.60666 -6.79715,0.66583 -9.69037,1.02914c0,0 -3.47297,0.43412 -3.90709,-3.03885c-0.43412,-3.47297 3.03885,-3.90709 3.03885,-3.90709c2.85579,-0.35524 6.53291,-0.37499 9.30963,-0.97086c5.48109,-1.17623 10.87438,-3.74978 16.40205,-4.98079c3.00225,-0.6686 5.3119,-0.99906 8.07181,-2.00028c2.48524,-4.71616 2.48456,-11.2178 -1.08241,-15.38865l-0.76696,-2.68643c0,0 0,-3.5 3.5,-3.5z" fill="#ab8a78" stroke="none" stroke-width="0.5"/><path d="M301.44284,295.51667c0.01375,-2.24996 2.26371,-2.23621 2.26371,-2.23621l-0.42441,0.31929c5.21164,-3.07336 7.20472,-5.85059 10.37649,-10.83811c0.70795,-1.11322 1.54497,-2.15008 2.15359,-3.32057c0.37372,-0.71874 1.21145,-1.6245 0.77135,-2.30462c-0.35831,-0.55372 -1.23667,0.53723 -1.89552,0.56736c-1.28957,0.05897 -2.59356,-0.55021 -3.8608,-0.30412c-0.99212,0.19266 -1.73368,1.03924 -2.60052,1.55887c-2.49274,1.39594 -5.31685,2.30685 -7.49832,4.15173c-2.17733,1.84138 -3.53836,4.47285 -5.32367,6.69638c-3.80079,4.73373 -7.68609,9.29377 -11.76794,13.78771c-2.75573,3.03395 -7.2229,8.2151 -11.21547,9.58373c-1.14431,0.39226 -2.41539,-0.21746 -3.59855,-0.46936c-1.90485,-0.40554 -4.13891,-0.26677 -5.64704,-1.49902c-0.77479,-0.63307 -1.47688,-8.87921 -1.46553,-8.9725c0.1566,-1.28622 1.05133,-2.36877 1.59927,-3.54293c0.17752,-0.38041 3.92748,-8.18671 4.04974,-8.38641c1.94284,-3.17348 5.34104,-6.0416 7.80513,-8.8137c7.6951,-8.64904 16.72277,-15.77471 25.33811,-23.4467c4.05041,-3.60691 7.05205,-7.08101 10.23065,-11.41172c0.75241,-1.02513 1.88208,-1.84101 2.30381,-3.04066c0.35478,-1.00923 -0.15073,-2.13864 -0.10734,-3.20753c0.04441,-1.094 0.82179,-2.26644 0.37003,-3.2638c-0.29268,-0.64614 -1.41055,-0.23107 -2.07067,-0.49068c-1.12161,-0.4411 -2.03766,-1.59746 -3.24289,-1.599c-1.20523,-0.00154 -2.14859,1.09457 -3.24696,1.59071c-4.26049,1.92449 -5.11991,2.86892 -8.60258,6.11017c-8.78242,8.17363 -15.22196,17.83587 -22.03138,27.68117c-2.57613,3.72466 -5.24543,7.36779 -7.96231,10.99128c-0.9959,1.32822 -1.75692,2.87788 -3.00734,3.96987c-0.70068,0.61191 -8.79221,4.83036 -9.39909,4.8923c-1.21192,0.12369 -2.23106,-0.98963 -3.28831,-1.59485c-4.87114,-2.78845 -5.6473,-2.46271 -5.99398,-8.72992c-0.05796,-1.04785 0.57857,-2.02041 0.9551,-2.99998c1.70226,-4.42852 3.65731,-8.47097 6.23039,-12.44437c3.31149,-5.08155 7.32156,-9.95036 11.57844,-14.29363c1.8767,-1.91478 4.252,-3.31382 6.04003,-5.31166c1.12006,-1.25148 6.34945,-6.18391 3.58637,-8.01896c-0.47536,-0.3157 -1.13207,0.19904 -1.7024,0.18028c-1.27976,-0.04208 -2.57725,-0.65276 -3.82426,-0.36202c-1.24701,0.29074 -2.169,1.36198 -3.26983,2.01599c-4.94221,2.93617 -8.33846,6.8119 -11.61832,11.53195c-1.08951,1.56792 -2.31241,3.20259 -2.63897,5.08375c0,0 -0.44126,2.20631 -2.64757,1.76505c-2.20631,-0.44126 -1.76505,-2.64757 -1.76505,-2.64757c1.70354,-7.82423 9.68037,-15.7782 16.40771,-19.62323c1.49355,-0.85364 2.83491,-2.1178 4.51027,-2.5084c4.9536,-1.15492 12.03966,0.29402 12.05255,6.88354c0.00103,0.52566 -5.11849,8.00921 -5.73734,8.70067c-1.50833,1.6853 -4.53003,3.77577 -6.20024,5.48158c-4.0365,4.12253 -7.86789,8.74566 -10.99841,13.57511c-1.56472,2.39752 -2.92433,4.94086 -4.0574,7.57004c-0.81231,1.88489 -2.37406,3.61494 -2.40778,5.66713c-0.01637,0.99604 -0.05255,2.16197 0.57976,2.93175c0.76514,0.93148 2.17997,1.04078 3.20475,1.67553c0.40994,0.25392 0.60139,1.08326 1.07076,0.97272c1.10301,-0.25978 1.85103,-1.31201 2.82551,-1.89036c1.15241,-0.68395 2.53792,-1.01039 3.54729,-1.89187c1.00937,-0.88148 1.56082,-2.17885 2.35229,-3.26023c2.6466,-3.616 5.32701,-7.18479 7.87626,-10.87112c6.99662,-10.11741 13.63854,-20.01326 22.66673,-28.41562c3.5827,-3.33435 5.29617,-5.05984 9.8957,-6.95222c1.66217,-0.68386 3.22799,-1.95685 5.02534,-1.95456c0.37169,0.00047 8.59302,3.26977 9.06776,4.11727c0.22027,0.39322 0.61267,9.29482 0.26269,10.31703c-0.56012,1.63603 -1.93788,2.86474 -2.92734,4.28294c-2.4771,3.55047 -4.42059,6.05356 -7.57714,9.03078c-9.36297,8.83102 -19.71039,16.5403 -28.29007,26.20171c-3.55135,3.99527 -6.9187,7.28785 -9.21407,12.10091c-1.02125,2.14142 -2.91445,4.01694 -3.16203,6.37646c-0.13449,1.28178 0.49494,2.53757 0.57009,3.82419c0.02658,0.45505 -0.67415,1.13313 -0.26842,1.34087c0.95027,0.48657 2.14145,0.01208 3.19881,0.15957c0.58502,0.08161 1.14909,0.75283 1.69316,0.52284c1.0974,-0.46389 1.75915,-1.60861 2.67582,-2.36966c3.47012,-2.88104 6.2691,-5.85377 9.30492,-9.20098c3.0054,-3.31368 5.76961,-6.76114 8.56984,-10.24871c0.32412,-0.40367 5.70995,-7.13164 5.92541,-7.31388c0.21601,-0.1827 7.74655,-4.3854 8.20678,-4.64313c1.26144,-0.67221 2.38391,-1.73034 3.78432,-2.01664c1.67504,-0.34245 3.42647,0.00312 5.12534,0.19511c1.69338,0.19136 4.0688,-0.46017 5.0231,0.95173c1.24574,1.84308 0.6212,4.5028 0.13012,6.67251c-0.3711,1.6396 -1.73522,2.87981 -2.6162,4.31154c-3.41102,5.54347 -6.19336,8.92257 -11.89679,12.32356l-1.89885,0.31028c0,0 -2.24996,-0.01375 -2.23621,-2.26371z" fill="#dab099" stroke="none" stroke-width="0.5"/><path d="M312.6855,204.56573c1.94364,7.07497 -2.55358,14.48719 -7.51282,19.01875c-1.42971,1.30641 -5.3323,4.54655 -7.13975,5.19585c-4.53447,1.62894 -10.87054,0.79743 -15.6369,-1.89894c-1.66787,2.22193 -3.57846,4.2559 -5.74348,5.59589c-5.79655,3.58767 -13.07735,3.52523 -18.56366,0.13362c-0.0801,-0.02086 -0.15999,-0.04304 -0.23967,-0.06662c-5.04762,-1.49384 -10.02295,-5.85753 -11.40973,-11.11c-1.93076,-7.31281 1.40491,-17.04829 7.28834,-21.74571c1.30111,-1.03883 2.96839,-1.4409 4.60147,-1.90246c0.5281,-0.3421 1.07614,-0.62166 1.6899,-0.69502c7.2777,-0.86991 13.36726,1.98367 17.15262,7.62066c1.00613,-5.68649 4.16172,-10.53854 9.65033,-13.37859c1.59224,-0.82389 3.48738,-0.83321 5.23108,-1.24981c0,0 0.58,-0.12889 1.31517,-0.04149c6.11977,-1.29831 12.65624,0.96674 16.19527,8.01591c0.45372,0.90373 0.79583,1.861 1.05033,2.84803c0.91224,1.21142 1.75606,2.51177 2.07148,3.65994z" fill="#ffffff" stroke="none" stroke-width="0.5"/><path d="M285.26959,223.00793c1.04996,0.43693 2.08714,0.94377 3.20747,0.99594c1.46672,0.0683 2.84957,-0.7246 4.29849,-0.96243c2.6554,-0.43587 5.34759,-0.97296 7.8002,-2.08013c2.73471,-1.96005 5.74379,-3.88471 6.97224,-7.2234c2.04996,-5.57141 1.19433,-14.03662 -3.48381,-18.05556c-5.21948,-4.48401 -13.68874,-2.24977 -18.5327,1.52435c-2.50611,1.95261 -3.36655,5.11594 -4.41614,7.95303c0.35861,0.63917 0.70821,1.2856 1.10659,1.89469c0.96046,1.46846 2.37796,2.7098 2.92362,4.37747c0.52564,1.60648 0.11131,3.37875 0.16697,5.06812c-0.00963,2.24893 0.1156,4.32722 -0.15727,6.40558c0.05491,0.04686 0.09357,0.08262 0.11435,0.10234zM281.09355,191.7933c7.45559,-6.06709 19.57434,-7.93295 27.4673,-1.47565c7.02833,5.74994 8.62573,17.75137 5.51619,25.94444c-1.89739,4.99927 -5.87658,7.81897 -10.02776,10.7766c-3.23747,1.42325 -6.70394,2.38528 -10.1998,2.91987c-1.90952,0.292 -3.77245,1.13887 -5.70151,1.03757c-1.91775,-0.10071 -3.70417,-0.99798 -5.5463,-1.55739c-7.33432,11.02434 -24.52648,11.32495 -33.76403,2.03613c-8.31021,-8.35633 -7.87117,-23.47603 -0.10961,-31.83506c1.05015,-1.13098 2.00812,-2.44102 3.36003,-3.18552c0.97724,-0.53816 2.08408,-0.75811 3.1919,-0.97563c1.03591,-0.97867 2.53254,-0.97867 2.53254,-0.97867h0.5c6.23212,0.01134 12.41733,1.41051 17.49346,5.00782c1.21409,-2.91241 2.68098,-5.59336 5.28758,-7.71452zM259.56586,201.51951c-0.49719,0.27417 -0.90447,0.37599 -0.90447,0.37599c-9.39032,1.95415 -10.61425,14.51924 -6.7599,21.95882c2.38454,4.6026 7.89168,6.62756 12.75591,7.16271c2.32694,0.25601 5.35614,0.10798 7.46135,-1.0799c1.34878,-0.76106 4.81018,-4.41738 5.51397,-5.89963c0.98986,-2.08474 0.69056,-5.41721 0.6798,-7.5375c0.05566,-0.97729 0.48519,-2.00617 0.16697,-2.93188c-0.36248,-1.05444 -1.44653,-1.70247 -2.07638,-2.62253c-0.78776,-1.15075 -1.2265,-2.54943 -2.16826,-3.57797c-3.84293,-4.19705 -9.29395,-5.66711 -14.66898,-5.8481z" fill="#78605e" stroke="none" stroke-width="0.5"/><path d="M266.46405,201.38873c0.77798,0.41146 2.37747,0.86325 3.06814,1.1631c1.47231,0.6392 2.88576,1.68259 4.12046,2.97501l2.23057,1.79215c0.03636,0.30531 0.07273,0.61062 0.10909,0.91592l0.35189,-0.15639l1.96911,4.43051c0.21329,0.45233 0.33255,0.95773 0.33255,1.49098c0,0.80373 -0.27091,1.54418 -0.7264,2.13503c-0.24701,2.63855 -1.65698,5.02651 -4.73587,6.50908c-7.46056,3.59245 -14.95022,-2.89753 -16.46625,-9.94037c-1.10674,-5.14144 -0.01983,-7.1041 3.28698,-10.51194c0,0 -0.19179,-1.14154 3.61641,-1.33333c0.40845,-0.02057 2.67745,0.24503 2.84332,0.53027z" fill="#624e4c" stroke="none" stroke-width="0.5"/><path d="M285.41256,214.00232c-1.15488,-0.96452 -2.09186,-2.44172 -3.02921,-3.5866c-2.4908,-3.04229 -2.74849,-6.82527 -1.21494,-10.45345c1.73273,-4.09942 8.16998,-7.82391 12.39003,-7.95304c2.37438,-0.07265 4.95348,-0.11225 7.05724,0.991c4.43504,2.32584 5.52383,10.22128 3.95705,14.27293c-1.87684,4.85345 -8.14594,9.99684 -13.58412,9.71182c-1.5409,-0.08076 -2.82757,-1.23632 -4.24135,-1.85449c0,0 -0.75211,-0.37606 -1.33471,-1.12817zM287.43618,203.07456c-0.13238,0.24689 -0.18387,0.51692 -0.18095,0.79909l0.12569,-0.56561c0.01581,-0.07881 0.03426,-0.15667 0.05526,-0.23348z" fill="#624e4c" stroke="none" stroke-width="0.5"/><path d="M289.17302,246.66667c0,-1.933 1.567,-3.5 3.5,-3.5c1.933,0 3.5,1.567 3.5,3.5c0,1.933 -1.567,3.5 -3.5,3.5c-1.933,0 -3.5,-1.567 -3.5,-3.5z" fill="#ed62bd" stroke="none" stroke-width="0.5"/><path d="M273.17302,254.16667c0,-1.933 1.567,-3.5 3.5,-3.5c1.933,0 3.5,1.567 3.5,3.5c0,1.93299 -1.567,3.5 -3.5,3.5c-1.933,0 -3.5,-1.56701 -3.5,-3.5z" fill="#edd161" stroke="none" stroke-width="0.5"/><path d="M235.14789,198.14154c-2.47487,2.47487 -4.94975,0 -4.94975,0l-1.62114,-1.84248c-2.43411,-4.62496 -4.23749,-9.46411 -6.69012,-14.03862c-0.54049,0.39968 -1.07789,0.80291 -1.61387,1.20623c0,0 -2.8,2.1 -4.9,-0.7c-2.1,-2.8 0.7,-4.9 0.7,-4.9c3.03376,-2.26835 6.1192,-4.51218 9.46239,-6.29326l1.19616,-0.81892c0,0 2.91218,-1.94145 4.85363,0.97072c1.94145,2.91217 -0.97072,4.85363 -0.97072,4.85363l-1.80384,1.18108c-0.36512,0.1919 -0.7265,0.39052 -1.08453,0.59507c2.60287,4.7862 4.48532,9.83781 7.04293,14.67927l0.37886,0.15753c0,0 2.47487,2.47487 0,4.94974z" fill="#ffffff" stroke="none" stroke-width="0.5"/><path d="M267.02189,172.06217l-1.549,0.35417c-2.46939,0.9804 -4.96344,1.96715 -7.55204,2.56034c-0.03905,1.83874 -0.09695,3.67619 -0.2622,5.50686c0,0 -0.31688,3.48563 -3.8025,3.16876c-3.48562,-0.31688 -3.16875,-3.8025 -3.16875,-3.8025c0.59546,-6.50173 -0.16942,-13.26114 1.56274,-19.62487c0.54566,-2.00466 0.38829,-5.45674 2.44756,-5.73211c3.46095,-0.46281 6.68945,2.23761 9.63242,4.11676c3.91147,2.49755 8.81034,9.19057 11.95884,12.73183l1.01457,1.76002c0,0 1.56525,3.13049 -1.56525,4.69574c-3.13049,1.56525 -4.69574,-1.56525 -4.69574,-1.56525l0.01457,-0.23997c-1.21196,-1.36377 -2.47136,-2.69791 -3.74308,-4.02464c-0.17933,0.06667 -0.29212,0.09487 -0.29212,0.09487zM259.93915,164.06113c-0.27276,-0.3186 -0.56876,-0.63199 -0.85678,-0.95219c-0.22634,1.52212 -0.74205,3.03198 -0.89704,4.56705c1.26665,-0.39102 2.50797,-0.87912 3.7403,-1.37604c-0.67527,-0.73786 -1.33935,-1.48292 -1.98648,-2.23881z" fill="#ffffff" stroke="none" stroke-width="0.5"/><path d="M311.11447,180.57885c-2.91217,1.94145 -4.85363,-0.97073 -4.85363,-0.97073l-1.97776,-2.96704c-1.15614,-1.65198 -4.26371,-5.82596 -6.09598,-9.23397c-0.49109,2.94911 -1.02249,5.902 -1.57169,8.89194l-5.65572,-1.32984l-1.22908,0.06509c0.0208,-0.1132 0.04157,-0.22634 0.06232,-0.33943l-0.11991,-0.0282c0,0 0,-0.88953 0.44844,-1.7717c1.24791,-6.87699 2.36946,-13.58188 3.06892,-20.57655c0,0 0.2845,-2.84498 2.9106,-3.13506c1.0369,-1.01668 2.57204,-1.01668 2.57204,-1.01668c2.89475,0.14396 6.25951,-1.15588 8.68423,0.43188c7.99615,5.23606 6.22511,10.89693 0.48425,15.81543c-1.1082,0.94946 -3.79489,-0.61488 -4.31335,0.74923c-0.47208,1.24205 2.18467,1.55642 3.05564,2.5599c1.3254,1.52705 2.31944,3.31276 3.47916,4.96915l2.02224,3.03296c0,0 1.94145,2.91218 -0.97073,4.85363zM303.50453,158.91936c0.81967,-0.57073 4.75762,-3.06496 0.48425,-4.18458c-1.30973,-0.34314 -2.68001,0.00339 -4.04167,0.25171c-0.21733,1.95009 -0.46488,3.8822 -0.73651,5.80543c1.40426,-0.62968 3.11463,-1.05142 4.29393,-1.87256z" fill="#ffffff" stroke="none" stroke-width="0.5"/><path d="M329.17302,184.66667c-3.5,0 -3.5,-3.5 -3.5,-3.5l0.06797,-1.18641c1.30134,-6.36013 3.98111,-12.72407 5.84716,-19.02102c-1.66593,-0.47738 -3.33005,-0.94282 -4.95909,-1.4519c0,0 -3.34068,-1.04396 -2.29672,-4.38464c1.04396,-3.34068 4.38464,-2.29672 4.38464,-2.29672c5.5738,1.74182 11.33547,3.07757 16.5531,5.72629l-2.09706,6.61438c0,0 -1.68268,0.00001 -2.71459,-1.16672c-0.72294,-0.32499 -1.45836,-0.62591 -2.20297,-0.90826c-1.80595,5.99743 -4.47803,12.22408 -5.6504,18.26139l0.06797,-0.18641c0,0 0,3.5 -3.5,3.5z" fill="#ffffff" stroke="none" stroke-width="0.5"/><path d="M277.67302,247.66667c0,-0.15742 0.01039,-0.31241 0.03053,-0.46433c-0.08936,0.04487 -0.1788,0.08961 -0.26835,0.13421c0.0816,0.15258 0.16141,0.30642 0.24022,0.46096c-0.0016,-0.04342 -0.0024,-0.08704 -0.0024,-0.13084zM278.27932,259.87722c-5.04681,-2.06177 -7.15711,-7.3603 -8.42996,-12.09188c-0.15704,-0.23409 -0.30061,-0.50528 -0.42602,-0.81881c-1.29987,-3.24967 1.9498,-4.54953 1.9498,-4.54953c4.58105,-1.81736 8.48755,-4.52311 13.24307,-6.08697c3.322,-1.09244 11.60699,-2.8282 14.57126,0.40199c1.52727,1.66429 1.82939,7.85948 1.44845,9.9429c-0.40153,2.19601 -0.79939,4.516 -2.01948,6.3855c-2.56191,3.92551 -8.41582,7.15496 -13.69189,7.45741c-2.18442,0.40806 -4.45475,0.25426 -6.64521,-0.6406z" fill="#ffffff" stroke="none" stroke-width="0.5"/><path d="M176.42302,110.66667c0,-0.17189 0.01313,-0.33064 0.03739,-0.47726c-0.53238,-0.65306 -0.53735,-1.50969 -0.53735,-1.50969l0.01066,-0.2921c-0.13952,-1.36123 -0.24478,-2.72641 -0.41857,-4.0837c-0.10576,-0.82596 0.28371,-2.01685 -0.41963,-2.46263c-0.52239,-0.33109 -0.54973,1.13722 -0.99602,1.56539c-1.15895,1.11192 -2.18254,2.74141 -3.76698,3.00432c-2.23092,0.37019 -3.8774,-2.39627 -6.0113,-3.14495c-1.68258,-0.59033 -3.71592,-0.3758 -5.15511,-1.42855c-1.38286,-1.01154 -0.862,-4.78965 -2.5445,-4.46601c-0.54522,0.10488 -0.36236,1.04969 -0.53608,1.57702c-0.43097,1.30826 -0.85198,2.61978 -1.27797,3.92967c0,0 -0.45455,1.36364 -1.72696,1.54775c-0.46377,0.63117 -1.19607,0.87527 -1.19607,0.87527c-1.45832,0.39271 -4.34687,0.72364 -3.96869,2.18579c0.24151,0.93377 1.5063,1.51113 1.49791,2.47559c-0.01452,1.6702 -1.10993,3.15323 -1.56086,4.76146c-0.04181,0.14909 -1.10776,3.0655 0.08642,3.58277c0.79515,0.34443 1.79719,-0.08424 2.58484,0.27703c5.61026,2.57336 11.47919,8.70347 18.45308,6.4431c0.79363,-0.25723 1.59888,-0.57132 2.25411,-1.08773c0.83659,-0.65935 1.10055,-2.13571 2.13865,-2.37437c0.51211,-0.11773 7.12596,2.30694 6.79057,-0.89196c-0.73826,-0.94182 -2.66787,-1.71787 -2.21478,-2.82547c0.63393,-1.54964 3.12228,-1.35481 4.3779,-2.46234c0.29059,-0.25632 -0.17862,-0.75667 -0.31903,-1.11782c-0.36648,-0.94265 -1.69241,-1.31383 -2.70154,-1.38121l-0.6301,0.03061c0,0 -2.25,0 -2.25,-2.25zM186.34138,113.06607c0.38218,1.58545 0.64011,3.56318 -0.31902,4.88219c-0.70427,0.96851 -6.55591,0.25084 -1.83687,0.71218c-0.08573,5.09559 1.37216,6.70292 -5.27935,8.11581c-1.32289,0.281 -2.58878,-1.18073 -3.93008,-1.00776c-0.6082,0.07843 -0.37497,1.25213 -0.86135,1.62562c-1.11191,0.85383 -2.41817,1.4622 -3.74588,1.91227c-5.85976,1.98632 -13.33376,-1.08218 -18.20623,-4.15394c-1.16037,-0.73153 -2.09578,-1.82694 -3.34069,-2.40296c-1.05605,-0.48863 -2.50304,-0.00044 -3.41516,-0.72296c-3.09435,-2.45114 -2.75898,-5.08628 -1.91358,-8.41723c0.2906,-1.145 1.45204,-2.05731 1.43914,-3.23854c-0.01069,-0.97911 -1.5585,-1.54686 -1.50209,-2.52441c0.10103,-1.75062 0.67098,-3.67337 1.93021,-4.89371c1.30471,-1.26443 3.40073,-1.28033 5.1011,-1.9205c0,0 0.08617,-0.02873 0.22967,-0.05732c0.41816,-1.40117 0.65712,-2.88629 1.41538,-4.12814c3.01092,-4.93116 4.46682,-5.25528 9.30648,-1.10648c0.72387,0.62055 0.00258,2.18564 0.7669,2.75563c0.98017,0.73097 2.46407,0.15731 3.63057,0.52382c1.25222,0.39344 2.458,0.98262 3.53804,1.72852c0.37011,0.25561 0.25218,1.35283 0.66497,1.17416c2.93558,-1.27062 -1.19605,-7.11692 6.237,-4.43028c3.81191,1.3778 3.80788,7.45972 4.15568,10.39863l0.01399,0.63629c3.26123,0.65962 4.89281,0.27296 5.92118,4.5391z" fill="#ffffff" stroke="none" stroke-width="0.5"/><path d="M156.92299,110.66667c0,-1.24264 1.00736,-2.25 2.25,-2.25c1.24264,0 2.25,1.00736 2.25,2.25c0,1.24264 -1.00736,2.25 -2.25,2.25c-1.24264,0 -2.25,-1.00736 -2.25,-2.25z" fill="#ffffff" stroke="none" stroke-width="0.5"/><path d="M172.13876,62.25688l-39,-27.5l155,-6l74.69199,23.43018z" fill="#0c5287" stroke="none" stroke-width="0"/><path d="M162.92299,112.66667c0,-1.24264 1.00736,-2.25 2.25,-2.25c1.24264,0 2.25,1.00736 2.25,2.25c0,1.24264 -1.00736,2.25 -2.25,2.25c-1.24264,0 -2.25,-1.00736 -2.25,-2.25z" fill="#ffffff" stroke="none" stroke-width="0.5"/><path d="M143.55993,84.69058l-9.30633,-52.82653l66.03295,31.13919z" fill="#1693f3" stroke="none" stroke-width="NaN"/><path d="" fill="#ecdcc8" stroke="#8a5b43" stroke-width="5"/><path d="" fill="#ecdcc8" stroke="#8a5b43" stroke-width="5"/><path d="" fill="#ab8a78" stroke="none" stroke-width="0.5"/><path d="" fill="#ab8a78" stroke="none" stroke-width="0.5"/><path d="" fill="#ab8a78" stroke="none" stroke-width="0.5"/><path d="" fill="#ab8a78" stroke="none" stroke-width="0.5"/><path d="" fill="#ffffff" stroke="none" stroke-width="0.5"/><path d="" fill="#ffffff" stroke="none" stroke-width="0.5"/><path d="" fill="#ab8a78" stroke="none" stroke-width="0.5"/><path d="" fill="#ab8a78" stroke="none" stroke-width="0.5"/><g><path d="M180.39936,-16.16555c7.93149,-10.03136 118.79377,-11.70562 131.18554,1.66342c2.563,2.76513 4.68364,20.84421 5.92342,44.18653c-1.81117,0.32542 -4.03969,0.89769 -7.48581,1.87847c-10.32018,2.93714 -19.97311,8.33596 -30.373,10.92692c-16.03835,3.99568 -32.53001,0.27866 -48.70198,1.88934c-2.44437,0.24345 -4.68235,1.58936 -7.02353,2.38404c0,0 -1.52719,0.54798 -3.09819,1.87205c-2.76376,-0.04354 -5.51682,-0.15307 -8.25058,-0.36589c-8.083,-0.62925 -15.63894,-2.00911 -23.8018,-2.01933c-1.77518,-0.00222 -12.13103,-0.10783 -13.62756,0.36285c-0.52602,0.16545 -1.03353,0.37923 -1.5283,0.62629c0.97877,-31.62552 3.43077,-59.16649 6.78178,-63.40468z" fill="#ecdcc8" stroke="#8a5b43" stroke-width="5"/><path d="" fill="#ecdcc8" stroke="#8a5b43" stroke-width="5"/><path d="M192.35459,-10.01958c1.64346,-0.66324 3.34664,-1.19013 5.07691,-1.54561l1.75838,-0.44775c0,0 0.80481,-0.20365 1.57216,0.12877c2.53627,-0.65932 5.21082,-1.1079 8.12999,-1.58718c5.59173,0.0152 11.37636,0.13929 16.87436,1.08037c6.28032,1.07498 11.49684,6.13151 17.67762,7.33507c5.96941,1.16241 12.50024,-1.38067 17.213,-4.96952c4.36926,-1.52642 8.73237,-3.74375 13.29448,-4.51124c11.76141,-1.97863 27.74532,1.96786 32.78753,14.20794c0,0 0.30132,0.7912 0.09256,1.61919c1.9008,6.05364 2.31352,13.59062 0.83721,19.64844c-1.10831,4.54778 -3.22183,8.86122 -5.12243,13.14482c-7.6124,2.8901 -15.04154,6.44904 -22.89683,8.40605c-16.03835,3.99568 -32.53001,0.27866 -48.70198,1.88934c-2.44437,0.24345 -4.68235,1.58936 -7.02353,2.38404c0,0 -1.52719,0.54798 -3.09819,1.87205c-2.76376,-0.04354 -5.51682,-0.15307 -8.25058,-0.36589c-8.083,-0.62925 -15.63894,-2.00911 -23.8018,-2.01933c-0.4375,-0.00055 -1.3962,-0.00737 -2.61501,-0.01031c0.35637,-0.74873 0.71113,-1.4967 1.043,-2.2507c0.29003,-3.28365 -0.48745,-6.26956 -1.52944,-9.54201c-3.12759,-9.92451 -5.756,-22.0043 -2.66691,-32.34876c1.34217,-4.49456 4.17477,-8.90817 8.14662,-11.08856c0.44257,-0.71915 1.2029,-1.02924 1.2029,-1.02924z" fill="#ab8a78" stroke="none" stroke-width="0.5"/><path d="M195.88098,30.26512c-2.08709,0.73621 -2.77101,-1.51042 -2.77101,-1.51042l-0.51002,-2.55764c0.6602,-4.02875 1.71467,-8.10155 3.97736,-11.41066c3.66891,-5.11626 9.32504,-7.45372 15.06229,-7.39773c0.75795,-1.56367 1.69468,-2.96819 2.76661,-4.1062c5.83728,-6.19718 15.80367,-6.73702 23.03161,-3.70726c0,0 2.03503,0.88918 1.209,3.07978c-0.82604,2.1906 -2.86107,1.30142 -2.86107,1.30142c-5.42068,-2.50777 -13.85043,-2.06862 -18.28936,2.68649c-0.38692,0.41448 -0.7464,0.86471 -1.07617,1.34345c0.985,0.23809 1.95621,0.54604 2.90346,0.9218c4.88056,1.93606 9.57787,4.27113 11.37772,10.02613c0.33586,1.0739 0.64048,2.22335 0.53313,3.35056c-0.78774,8.27064 -9.09032,8.06546 -14.47748,6.14449c-1.05582,-0.59384 -2.24752,-0.96683 -3.16746,-1.78154c-3.90518,-3.45852 -4.71703,-9.23112 -3.58263,-14.49236c-3.85322,0.31651 -7.54623,2.01965 -9.92904,5.48721c-1.8618,2.5354 -2.65779,6.18081 -3.14891,9.35548l0.35509,0.28417c0,0 0.68393,2.24664 -1.40316,2.98286zM214.43528,12.37982c-1.16924,4.49078 -0.18327,9.50811 4.02334,11.69029c2.45398,0.92519 10.11797,1.88636 8.08077,-3.62407c-0.28389,-0.76789 -0.57155,-1.55023 -1.01158,-2.2275c-1.79504,-2.76275 -4.98589,-3.78243 -7.73593,-4.87886c-1.07169,-0.42728 -2.20127,-0.75076 -3.3566,-0.95987z" fill="#ffffff" stroke="none" stroke-width="0.5"/><path d="M254.77294,29.76891c0.13388,-0.01984 0.26703,-0.03884 0.39952,-0.057c0.06775,-0.43788 0.15206,-0.90474 0.25679,-1.41404c0.71036,-3.45421 2.4818,-6.45627 4.33166,-9.30749c1.40117,-2.15965 2.50252,-4.59582 4.23838,-6.45256c0.82316,-0.88048 1.95432,-1.35133 2.88447,-2.09823c5.24623,-4.21263 11.57632,-7.88538 18.30383,-8.39998c3.95831,-0.30278 8.16448,0.67167 12.02555,1.52218c0,0 2.15142,0.47543 1.70975,2.79132c-0.44167,2.31589 -2.59309,1.84046 -2.59309,1.84046c-3.44133,-0.7631 -7.26926,-1.7165 -10.80217,-1.43977c-11.67715,0.91464 -22.49986,10.66228 -25.45845,22.66888c1.43145,0.03446 2.87005,0.17517 4.40045,0.41804c3.19918,0.5077 6.28262,0.72026 9.29905,2.0975c2.16439,0.98821 3.89419,2.04923 5.55019,3.87909c1.70942,1.88889 2.51129,4.0136 2.50163,6.08961c-0.72033,0.20681 -1.44383,0.40169 -2.17099,0.58285c-0.71093,0.17712 -1.42276,0.33908 -2.13541,0.48702c0.10306,-0.29861 0.17272,-0.61891 0.20395,-0.96196c0.23875,-2.62298 -4.03496,-4.9856 -5.65092,-5.71742c-3.80626,-1.72375 -8.40453,-2.32747 -12.73118,-2.19096c-0.03447,0.51084 -0.05425,1.02408 -0.05887,1.53923c0.87423,3.87003 2.28844,6.85025 4.76185,8.74028c-2.06095,0.04825 -4.12519,0.03999 -6.19114,0.00183c-1.48044,-2.45413 -2.24916,-5.19137 -2.93307,-8.18824c0.00092,-0.62748 -0.0041,-1.19051 -0.00767,-1.71466c-6.85133,-0.06583 -13.47567,3.57146 -17.39696,9.50115c-1.77672,0.04487 -3.55086,0.13243 -5.32141,0.27973c4.28195,-8.88032 13.28187,-14.45222 22.58426,-14.49689z" fill="#ffffff" stroke="none" stroke-width="0.5"/></g></g></g></svg>