<svg version="1.1" xmlns="http://www.w3.org/2000/svg" xmlns:xlink="http://www.w3.org/1999/xlink" width="198.2009" height="170.68473" viewBox="0,0,198.2009,170.68473"><g transform="translate(-130.89956,-75.65764)"><g data-paper-data="{&quot;isPaintingLayer&quot;:true}" fill-rule="nonzero" stroke-linecap="butt" stroke-linejoin="miter" stroke-miterlimit="10" stroke-dasharray="" stroke-dashoffset="0" style="mix-blend-mode: normal"><path d="M142.17653,236.08121c-10.65336,-8.97425 -13.06515,-135.15631 1,-149.33333c8.74471,-8.81426 163.8354,-13.82247 176.66667,0c7.85128,8.45779 10.22314,138.74158 -0.33333,149c-12.28894,11.94197 -166.47674,9.47878 -177.33333,0.33333z" fill="#ad6262" stroke="#8a5b43" stroke-width="5"/><path d="M148.60631,222.43992c-0.71084,-1.86713 -1.27785,-3.80297 -1.66375,-5.77058l-0.48364,-1.9991c0,0 -0.22,-0.915 0.12707,-1.79023c-0.71186,-2.88342 -1.20167,-5.92536 -1.72536,-9.24558c-0.01627,-6.36497 0.08147,-12.9501 1.04479,-19.21336c1.10039,-7.15447 6.41714,-13.11945 7.65407,-20.1613c1.19463,-6.80104 -1.53229,-14.22121 -5.35451,-19.56631c-1.63936,-4.96519 -4.00928,-9.91966 -4.84724,-15.10844c-2.16031,-13.37701 1.92036,-31.5922 14.83423,-37.39738c0,0 0.83489,-0.34723 1.71164,-0.11406c6.39031,-2.19616 14.35777,-2.70645 20.77204,-1.05857c5.7921,1.48804 11.23409,4.63335 16.69003,7.02099c3.38333,1.48062 7.02723,2.17397 10.46633,3.62197c7.69223,1.60642 11.92582,-3.9106 17.68177,-8.09821c10.46411,-7.61291 27.94826,-9.41954 38.46076,-1.22168c4.6119,1.86753 9.23735,3.96101 14.31703,3.38666c3.56213,-0.40277 6.6732,-2.26471 10.20542,-2.65281c8.60145,-0.94508 17.68739,3.12934 19.59567,12.74944c0.62414,3.14647 0.04518,7.10577 0.03362,10.31315c-0.83399,4.43605 -1.89399,8.71055 -1.53081,13.27177c0.37516,4.71168 3.5952,8.33623 5.40149,12.43868c4.91046,11.1526 6.53578,23.38778 2.10932,34.89395c-2.18464,6.77846 -4.57738,12.15136 -3.93892,19.51801c0.43828,5.05691 2.33086,10.49441 0.34391,15.56208c-2.17904,5.5576 -7.34537,11.17668 -12.34857,14.07054c-2.66655,1.54233 -5.87241,2.51812 -8.62532,3.92407c-4.97825,0.89105 -10.50004,1.03215 -15.48527,0.09578c-1.85691,-0.34878 -3.57686,-1.38854 -5.4557,-1.57034c-3.57531,-0.34594 -7.1487,-0.68051 -10.71569,-1.06112c-10.22807,-1.09137 -18.85558,3.30897 -28.58265,5.30561c-5.10504,0 -9.60773,0.83955 -14.71621,-0.61577c-3.08972,-0.88021 -5.92111,-2.58979 -8.83539,-3.95246c-3.47391,-0.31249 -6.62681,0.58855 -10.08117,1.7922c-10.47639,3.61337 -23.23474,6.67013 -34.19116,3.20952c-4.76046,-1.5036 -9.44393,-4.70413 -11.77252,-9.21344c-0.76301,-0.4999 -1.09531,-1.36369 -1.09531,-1.36369z" fill="#fff9f6" stroke="none" stroke-width="0.5"/><path d="M157.3125,104c0,-0.81786 0.39273,-1.544 0.9999,-2.0001c0.21451,-0.28556 0.48875,-0.52368 0.80417,-0.69583c0.42404,-0.77697 1.24843,-1.30407 2.19593,-1.30407c1.19413,0 2.19271,0.83721 2.4408,1.95668c0.40729,0.28772 0.72475,0.69414 0.90202,1.16891l0.89096,2.22741c1.65986,2.36404 4.29977,5.12402 0.88215,8.55455c-2.03028,2.03795 -8.86013,-1.1123 -9.86173,-2.80917c-0.6877,-1.16508 0.2678,-4.19148 0.93862,-6.13389c-0.12421,-0.29679 -0.19283,-0.62262 -0.19283,-0.96449z" fill="#d73737" stroke="none" stroke-width="0.5"/><path d="M181.4396,135.42007c-0.50441,0.21569 -6.61915,-3.90749 -6.96246,-5.02781c-1.39443,-4.55054 2.93207,-7.61564 6.04911,-9.53599c0,0 2.14373,-1.28624 3.42997,0.85749c0.45003,0.75004 0.48017,1.39512 0.32917,1.91686c0.01785,0.12054 0.0271,0.24388 0.0271,0.36938v2.5c-0.01936,2.68075 0.44642,7.50073 -2.8729,8.92007z" fill="#d73737" stroke="none" stroke-width="0.5"/><path d="M170.91088,169.24579c-1.3934,0.68546 -8.82681,-2.99658 -9.43518,-4.35734c-0.54265,-1.21375 2.09265,-7.57494 2.37082,-9.29945c0,0 0.411,-2.46598 2.87698,-2.05499c1.44146,0.24024 1.8999,1.18265 2.03202,1.92424c0.48568,0.34389 0.84329,0.85671 0.98723,1.45288c0.1745,0.21175 0.31484,0.45272 0.41257,0.71445l0.97837,2.44593l-0.00013,0.00005c0.87969,2.17889 3.92339,7.13463 -0.22268,9.17421z" fill="#d73737" stroke="none" stroke-width="0.5"/><path d="M199.66877,177.21376c0.59575,-0.9627 0.90769,-2.17529 1.78724,-2.88811c1.30823,-1.06023 2.88807,-2.59981 4.53149,-2.2328c0.56549,0.12629 4.0979,6.47332 4.4956,7.1668l1.97822,3.46188c0.22304,0.37408 0.35117,0.81131 0.35117,1.27847c0,1.38071 -1.11929,2.5 -2.5,2.5c-0.22872,0 -0.45026,-0.03071 -0.66073,-0.08824l-3.94561,-0.9864l0.01973,-0.07893c-0.16304,-0.0261 -0.32566,-0.05566 -0.48782,-0.08908c-0.92403,-0.19046 -1.5316,-1.09856 -2.29143,-1.66138l-2.38109,-1.42866c-0.74893,-0.43183 -1.25305,-1.24069 -1.25305,-2.16731c0,-0.22642 0.0301,-0.44581 0.08652,-0.65438c-0.36443,-1.07489 0.26975,-2.13186 0.26975,-2.13186z" fill="#d73737" stroke="none" stroke-width="0.5"/><path d="M188.27308,196.44221c-0.09387,0.63979 -5.59074,5.70253 -6.63306,5.91686c-9.214,1.89466 -6.15941,-7.07286 -5.2935,-12.27007c0,0 0.411,-2.46598 2.87698,-2.05499c0.50129,0.08355 0.8837,0.25202 1.17484,0.46743c0.75223,0.02538 1.4202,0.38308 1.86173,0.93093c3.01942,0.24194 6.31986,4.91847 6.01302,7.00983z" fill="#d73737" stroke="none" stroke-width="0.5"/><path d="M213.3125,125c0.82194,0 1.55123,0.39666 2.00691,1.00899c3.2253,0.14344 6.6196,5.28815 5.73888,8.08939c-0.45821,1.4574 -2.75471,1.33788 -4.19732,1.84072c-2.83631,0.98864 -10.03558,4.05979 -12.31815,0.10902c-1.27594,-2.20844 4.04172,-8.50964 5.31751,-10.10985c0,0 1.17336,-1.4667 2.75729,-0.84042c0.22061,-0.0637 0.45376,-0.09784 0.69489,-0.09784z" fill="#d73737" stroke="none" stroke-width="0.5"/><path d="M224.8125,102.5c1.38071,0 2.5,1.11929 2.5,2.5c0,0.1209 -0.00858,0.2398 -0.02517,0.35612l1.52517,1.14388c0.8281,0.65976 2.06589,1.00667 2.48429,1.97928c0.08948,0.20801 0.16564,0.41979 0.2308,0.63468l0.1061,-0.04244l0.97894,2.44736c0.12865,0.30123 0.19986,0.63286 0.19986,0.98112c0,1.38071 -1.11929,2.5 -2.5,2.5c-0.29691,0 -0.58173,-0.05176 -0.84593,-0.14675l-2.83346,-0.94449c-1.99257,-0.39469 -7.5158,-1.41663 -8.0248,-2.22912c-0.46264,-0.73849 1.77142,-6.07548 2.38299,-7.60812c0,0 0.88144,-2.20359 3.07372,-1.45787c0.23602,-0.07385 0.4871,-0.11366 0.74747,-0.11366z" fill="#d73737" stroke="none" stroke-width="0.5"/><path d="M153.70829,211.95303c-0.21637,-0.06587 -0.44391,-0.16642 -0.68203,-0.3093c-2.14373,-1.28624 -0.85749,-3.42997 -0.85749,-3.42997c0.86725,-1.44185 3.07286,-5.67144 4.96651,-5.70747c2.78475,-0.05298 4.57781,3.65622 5.73444,5.57001l1.42763,1.9035c0.32311,0.42124 0.51515,0.94829 0.51515,1.5202c0,1.38071 -1.11929,2.5 -2.5,2.5c-0.15625,0 -0.30915,-0.01433 -0.45746,-0.04176l-2.95354,-0.49226l0.04143,-0.24856c-0.88167,-0.0156 -1.75765,-0.09347 -2.62072,-0.26597l-0.50971,0.04855c0,0 -1.39938,0 -2.10421,-1.04697z" fill="#d73737" stroke="none" stroke-width="0.5"/><path d="M222.00326,217.6982c-3.37738,1.70411 -10.95642,-4.26852 -10.65134,-7.64041c0.14139,-1.56273 2.33331,-2.09945 3.53337,-3.11037c1.89976,-1.60034 4.16466,-2.75429 6.44241,-3.74528c0,0 2.29786,-0.9848 3.28266,1.31306c0.31818,0.74243 0.29369,1.34779 0.11473,1.82714c0.05699,0.20955 0.0874,0.43005 0.0874,0.65765c0,0.18573 -0.02025,0.36673 -0.05867,0.54091l-0.47963,2.39815c-0.22055,1.55872 -0.70496,6.96901 -2.27094,7.75914z" fill="#d73737" stroke="none" stroke-width="0.5"/><path d="M229.41961,150.50156c0.13524,-0.1247 0.28851,-0.2331 0.4631,-0.32222c2.31879,-1.18372 9.58565,6.00076 9.4235,7.99789c-0.29226,3.59955 -9.63188,6.63128 -12.10965,4.73033c-1.89478,-1.45368 -0.37465,-7.77705 -0.38406,-9.90755c0,0 0,-2.5 2.5,-2.5c0.03623,0 0.07193,0.00052 0.10711,0.00156z" fill="#d73737" stroke="none" stroke-width="0.5"/><path d="M263.3125,114c1.37435,1.03076 1.09597,2.29763 0.7873,2.98937c0.13674,0.30903 0.2127,0.65096 0.2127,1.01063c0,0.34826 -0.07121,0.67989 -0.19986,0.98112l-0.97894,2.44736l-0.03375,-0.0135l-0.00684,0.10916c-0.57384,1.14904 -3.67015,7.79346 -4.89215,8.31266c-1.42081,0.60367 -3.07239,-0.50824 -4.49936,-1.09719c-2.71941,-1.12238 -5.44619,-3.31633 -4.79624,-6.91462c0.23788,-1.31699 1.87721,-1.91067 2.87609,-2.80132c2.36497,-2.10874 5.0296,-3.5366 7.26329,-5.79144c0,0 1.76777,-1.76777 3.53553,0c0.19606,0.19606 0.34864,0.39213 0.46495,0.58578c0.08802,0.05389 0.17714,0.11438 0.26728,0.18199z" fill="#d73737" stroke="none" stroke-width="0.5"/><path d="M267.53399,207.35328c0.04549,0.15822 0.08582,0.31734 0.12158,0.47728l0.06074,-0.01735l0.98414,3.44448c0.07283,0.23453 0.11205,0.48384 0.11205,0.74232c0,1.38071 -1.11929,2.5 -2.5,2.5c-0.34826,0 -0.67989,-0.07121 -0.98112,-0.19986l-2.44736,-0.97894c-3.23545,-1.31016 -7.12291,-1.00318 -8.04994,-5.49339c-0.493,-2.38796 1.40693,-4.66948 2.07461,-7.0146c0,0 0.6868,-2.40381 3.09061,-1.71701c0.42344,0.12098 0.75098,0.29525 1.00327,0.50026c0.53928,0.15454 1.00393,0.48568 1.32739,0.92682l1.48254,1.97672c1.22297,1.63105 3.15818,2.89403 3.72149,4.85328zM261.29395,207.55157c-0.02106,-0.02778 -0.04208,-0.05567 -0.06305,-0.08367l-1.40957,-0.02861c0.19218,0.21004 0.86944,0.12909 1.47262,0.11228z" fill="#d73737" stroke="none" stroke-width="0.5"/><path d="M269.80033,168.25366c-0.01145,1.64579 0.28116,3.90059 -1.08626,4.81651c-2.24916,1.50654 -10.38844,-2.86971 -11.23693,-5.17791c-1.38576,-3.7698 3.2595,-10.10297 5.33535,-12.89226c0,0 1.5,-2 3.5,-0.5c0.8748,0.6561 1.07998,1.40785 1.03397,2.04606c0.22527,0.31457 0.37937,0.68358 0.43877,1.08348l0.48827,2.9296c0.26961,1.34714 1.52734,7.6211 1.52683,7.69451z" fill="#d73737" stroke="none" stroke-width="0.5"/><path d="M294.28943,118.30122c-1.2073,0.94874 -2.88141,-1.06631 -4.29126,-1.67459c-1.16911,-0.50442 -6.45648,-3.17372 -6.60307,-3.9893c-0.46469,-2.58533 4.90831,-7.24793 6.46523,-9.19906c0,0 1.56174,-1.95217 3.51391,-0.39043c1.01397,0.81117 1.07995,1.72768 0.90917,2.42126c0.44713,1.19236 0.89427,2.38471 1.3414,3.57707c1.45988,2.91692 0.42472,7.87192 -1.33538,9.25507zM290.02486,110.90465c0.11523,0.03582 0.23003,0.07406 0.34407,0.11484l-0.16022,-0.27674c-0.06288,0.0575 -0.12425,0.1116 -0.18385,0.1619z" fill="#d73737" stroke="none" stroke-width="0.5"/></g></g></svg>