<svg version="1.1" xmlns="http://www.w3.org/2000/svg" xmlns:xlink="http://www.w3.org/1999/xlink" width="198.2009" height="170.68473" viewBox="0,0,198.2009,170.68473"><g transform="translate(-130.89956,-75.65764)"><g data-paper-data="{&quot;isPaintingLayer&quot;:true}" fill-rule="nonzero" stroke-linecap="butt" stroke-linejoin="miter" stroke-miterlimit="10" stroke-dasharray="" stroke-dashoffset="0" style="mix-blend-mode: normal"><path d="M142.17653,236.08121c-10.65336,-8.97425 -13.06515,-135.15631 1,-149.33333c8.74471,-8.81426 163.8354,-13.82247 176.66667,0c7.85128,8.45779 10.22314,138.74158 -0.33333,149c-12.28894,11.94197 -166.47674,9.47878 -177.33333,0.33333z" fill="#ecdcc8" stroke="#8a5b43" stroke-width="5"/><path d="M148.60631,222.43992c-0.71084,-1.86713 -1.27785,-3.80297 -1.66375,-5.77058l-0.48364,-1.9991c0,0 -0.22,-0.915 0.12707,-1.79023c-0.71186,-2.88342 -1.20167,-5.92536 -1.72536,-9.24558c-0.01627,-6.36497 0.08147,-12.9501 1.04479,-19.21336c1.10039,-7.15447 6.41714,-13.11945 7.65407,-20.1613c1.19463,-6.80104 -1.53229,-14.22121 -5.35451,-19.56631c-1.63936,-4.96519 -4.00928,-9.91966 -4.84724,-15.10844c-2.16031,-13.37701 1.92036,-31.5922 14.83423,-37.39738c0,0 0.83489,-0.34723 1.71164,-0.11406c6.39031,-2.19616 14.35777,-2.70645 20.77204,-1.05857c5.7921,1.48804 11.23409,4.63335 16.69003,7.02099c3.38333,1.48062 7.02723,2.17397 10.46633,3.62197c7.69223,1.60642 11.92582,-3.9106 17.68177,-8.09821c10.46411,-7.61291 27.94826,-9.41954 38.46076,-1.22168c4.6119,1.86753 9.23735,3.96101 14.31703,3.38666c3.56213,-0.40277 6.6732,-2.26471 10.20542,-2.65281c8.60145,-0.94508 17.68739,3.12934 19.59567,12.74944c0.62414,3.14647 0.04518,7.10577 0.03362,10.31315c-0.83399,4.43605 -1.89399,8.71055 -1.53081,13.27177c0.37516,4.71168 3.5952,8.33623 5.40149,12.43868c4.91046,11.1526 6.53578,23.38778 2.10932,34.89395c-2.18464,6.77846 -4.57738,12.15136 -3.93892,19.51801c0.43828,5.05691 2.33086,10.49441 0.34391,15.56208c-2.17904,5.5576 -7.34537,11.17668 -12.34857,14.07054c-2.66655,1.54233 -5.87241,2.51812 -8.62532,3.92407c-4.97825,0.89105 -10.50004,1.03215 -15.48527,0.09578c-1.85691,-0.34878 -3.57686,-1.38854 -5.4557,-1.57034c-3.57531,-0.34594 -7.1487,-0.68051 -10.71569,-1.06112c-10.22807,-1.09137 -18.85558,3.30897 -28.58265,5.30561c-5.10504,0 -9.60773,0.83955 -14.71621,-0.61577c-3.08972,-0.88021 -5.92111,-2.58979 -8.83539,-3.95246c-3.47391,-0.31249 -6.62681,0.58855 -10.08117,1.7922c-10.47639,3.61337 -23.23474,6.67013 -34.19116,3.20952c-4.76046,-1.5036 -9.44393,-4.70413 -11.77252,-9.21344c-0.76301,-0.4999 -1.09531,-1.36369 -1.09531,-1.36369z" fill="#edbc81" stroke="none" stroke-width="0.5"/><path d="M174.8125,234.5c-2.5,0 -2.5,-2.5 -2.5,-2.5l0.05953,-1.04233c0.39526,-1.67922 0.49058,-3.45883 1.18578,-5.03767c1.22852,-2.79002 2.62914,-2.8524 4.28418,-4.95854c2.26354,-2.88053 4.61429,-7.82012 3.99468,-11.61471c-0.66002,-4.04215 -2.35569,-7.76929 -5.5627,-10.37624c-2.53027,-2.05683 -6.77714,-2.38996 -9.03666,-4.52918c-1.22761,-1.16225 -1.87836,-2.81125 -2.81754,-4.21688c-0.21911,-8.72151 3.54054,-16.4413 8.31811,-23.61943c1.48359,-2.22904 2.95295,-4.51882 4.5983,-6.63609c1.41302,-1.8183 3.59051,-4.03237 4.02143,-6.44171c1.1396,-6.37163 -3.02167,-13.98857 -7.31287,-18.25947c-3.8207,-3.83887 -8.24251,-6.2482 -11.30686,-10.87279c-5.2912,-7.98525 -4.32525,-18.72903 -0.15045,-27.03473c1.80635,-3.59371 4.81699,-7.14695 7.22508,-10.36024c0,0 1.5,-2 3.5,-0.5c2,1.5 0.5,3.5 0.5,3.5c-6.58354,8.77082 -14.13718,20.86483 -6.92538,31.60503c2.86664,4.26915 7.09667,6.54576 10.69314,10.12721c2.185,2.19416 4.06809,4.35472 5.47185,7.15686c2.13122,4.25429 4.09511,10.79247 3.21528,15.58368c-0.76794,4.18191 -4.14918,7.06684 -6.38027,10.4222c-4.79614,7.21299 -10.25595,14.95503 -10.68189,23.88057c2.24631,3.38738 6.96632,3.63985 10.1458,6.25394c4.17733,3.43451 6.65225,8.27934 7.4373,13.62376c0.76597,5.21458 -1.87698,11.32909 -5.00532,15.38529c-0.42324,0.54878 -3.35907,3.17621 -3.71582,4.04146c-0.51398,1.24658 -0.54282,2.64155 -0.81422,3.96233l0.05953,-0.04233c0,0 0,2.5 -2.5,2.5z" fill="#cc9054" stroke="none" stroke-width="0.5"/><path d="M219.3125,228.5c0,-2.20338 1.94196,-2.4648 2.40277,-2.49582c0.98353,-1.19729 1.67785,-2.64778 2.32928,-4.05605c0.68833,-1.48805 2.67037,-4.67244 2.77672,-6.65744c0.47698,-8.90211 -5.66228,-15.84794 -11.38501,-21.70359c-9.37364,-3.64754 -9.44473,-11.87836 -7.04002,-20.22878c1.73863,-6.03744 4.8432,-11.77226 9.02761,-16.49633c2.26821,-2.56073 5.33663,-4.95746 7.30153,-7.73822c2.9775,-4.21381 3.23776,-10.00707 0.89559,-14.42075c-1.61873,-2.69536 -3.06215,-5.20166 -5.44649,-7.31439c-4.38459,-3.88514 -9.60652,-5.40711 -13.00038,-10.59351c-2.12631,-3.24937 -1.91719,-7.11741 -1.32573,-10.7172c1.30387,-7.9356 5.69492,-13.71899 10.46411,-20.07792c0,0 1.5,-2 3.5,-0.5c2,1.5 0.5,3.5 0.5,3.5c-4.28065,5.70753 -8.33666,10.84456 -9.53589,17.92208c-0.40471,2.38849 -0.82362,5.09641 0.67427,7.2828c3.06366,4.47183 8.10734,5.93812 11.99962,9.40649c2.84583,2.53589 4.61958,5.4597 6.55351,8.68561c1.04204,2.17109 1.59445,4.5974 1.79996,6.99683c0.09348,1.09135 0.5295,2.15136 0.5082,3.2465c-0.09032,4.64257 -3.25698,8.93467 -6.15362,12.14554c-4.29916,4.76555 -9.10418,9.69 -11.53636,15.77086c-1.83786,4.59499 -4.87776,12.07237 -0.96695,16.35383c1.50438,1.64695 2.48514,1.76275 4.53348,2.60235c7.11828,6.98621 14.36137,15.47028 13.61499,26.29641c-0.21291,3.08814 -1.96078,5.65783 -3.22328,8.34256c-1.04852,2.2297 -2.28188,4.44998 -4.00018,6.21589l-2.76776,0.73224c0,0 -2.5,0 -2.5,-2.5z" fill="#cc9054" stroke="none" stroke-width="0.5"/><path d="M272.94079,227.70943c0.79057,-2.37171 3.16228,-1.58114 3.16228,-1.58114l-1.05833,1.10395c2.81774,-2.81774 9.0181,-7.11877 9.28553,-11.52979c0.66055,-10.89494 -8.32443,-18.14176 -17.03249,-22.37235c-1.53091,-0.69724 -6.10171,-2.54562 -7.65963,-3.9736c-3.56879,-3.27113 -3.27475,-8.59895 -2.26445,-12.90627c1.66764,-7.10982 7.21402,-12.26705 12.17104,-17.21798c1.45249,-1.4507 2.56835,-3.2287 4.10046,-4.59506c1.32894,-1.18517 3.13142,-1.85192 4.24793,-3.23905c2.76243,-3.432 2.06754,-10.16138 1.5331,-14.15271c-3.16887,-6.16828 -5.98177,-10.29129 -11.96216,-14.14026c-3.90566,-2.51368 -9.39315,-3.49495 -12.7967,-6.72275c-3.51865,-3.33696 -2.87025,-6.02171 -2.85485,-10.38242c0.02758,-7.81435 3.87619,-15.30689 8.5,-21.5c0,0 1.5,-2 3.5,-0.5c2,1.5 0.5,3.5 0.5,3.5c-3.94973,5.23901 -7.52612,11.84847 -7.5,18.5c0.00678,1.72478 -0.66146,3.5281 -0.14093,5.17248c0.37068,1.17101 2.50062,2.18664 3.34396,2.636c3.37167,1.79655 6.90983,3.00845 10.14542,5.08635c6.98009,4.48262 10.4717,9.57147 14.03784,16.85974c0.87983,5.89258 1.41145,13.75823 -2.4669,18.84729c-1.22446,1.6067 -3.23969,2.42174 -4.75207,3.76095c-1.46814,1.30004 -2.51371,3.01749 -3.89954,4.40494c-3.43522,3.43927 -7.88913,7.22257 -9.99865,11.78157c-1.13356,2.44979 -2.7233,8.98859 -0.09477,11.09418c1.18874,0.95225 6.01422,2.96946 6.44403,3.16442c10.02718,4.93309 17.80584,11.70324 19.35649,23.33851c0.18415,1.38178 0.64228,2.76366 0.50736,4.15111c-0.58184,5.98321 -6.8142,10.56995 -10.71447,14.47021l-4.05833,0.10395c0,0 -2.37171,-0.79057 -1.58114,-3.16228z" fill="#cc9054" stroke="none" stroke-width="0.5"/><path d="M148.8125,120c0,-1.38071 1.11929,-2.5 2.5,-2.5c1.38071,0 2.5,1.11929 2.5,2.5c0,1.38071 -1.11929,2.5 -2.5,2.5c-1.38071,0 -2.5,-1.11929 -2.5,-2.5z" fill="#ffffff" stroke="none" stroke-width="0.5"/><path d="M147.8125,129.5c0,-1.38071 1.11929,-2.5 2.5,-2.5c1.38071,0 2.5,1.11929 2.5,2.5c0,1.38071 -1.11929,2.5 -2.5,2.5c-1.38071,0 -2.5,-1.11929 -2.5,-2.5z" fill="#ffffff" stroke="none" stroke-width="0.5"/><path d="M156.8125,127.5c0,-1.38071 1.11929,-2.5 2.5,-2.5c1.38071,0 2.5,1.11929 2.5,2.5c0,1.38071 -1.11929,2.5 -2.5,2.5c-1.38071,0 -2.5,-1.11929 -2.5,-2.5z" fill="#ffffff" stroke="none" stroke-width="0.5"/><path d="M195.8125,166.5c0,-1.38071 1.11929,-2.5 2.5,-2.5c1.38071,0 2.5,1.11929 2.5,2.5c0,1.38071 -1.11929,2.5 -2.5,2.5c-1.38071,0 -2.5,-1.11929 -2.5,-2.5z" fill="#ffffff" stroke="none" stroke-width="0.5"/><path d="M189.3125,174.5c0,-1.38071 1.11929,-2.5 2.5,-2.5c1.38071,0 2.5,1.11929 2.5,2.5c0,1.38071 -1.11929,2.5 -2.5,2.5c-1.38071,0 -2.5,-1.11929 -2.5,-2.5z" fill="#ffffff" stroke="none" stroke-width="0.5"/><path d="M198.3125,177c0,-1.38071 1.11929,-2.5 2.5,-2.5c1.38071,0 2.5,1.11929 2.5,2.5c0,1.38071 -1.11929,2.5 -2.5,2.5c-1.38071,0 -2.5,-1.11929 -2.5,-2.5z" fill="#ffffff" stroke="none" stroke-width="0.5"/><path d="M158.8125,209c0,-1.38071 1.11929,-2.5 2.5,-2.5c1.38071,0 2.5,1.11929 2.5,2.5c0,1.38071 -1.11929,2.5 -2.5,2.5c-1.38071,0 -2.5,-1.11929 -2.5,-2.5z" fill="#ffffff" stroke="none" stroke-width="0.5"/><path d="M158.3125,217c0,-1.38071 1.11929,-2.5 2.5,-2.5c1.38071,0 2.5,1.11929 2.5,2.5c0,1.38071 -1.11929,2.5 -2.5,2.5c-1.38071,0 -2.5,-1.11929 -2.5,-2.5z" fill="#ffffff" stroke="none" stroke-width="0.5"/><path d="M164.3125,214.5c0,-1.38071 1.11929,-2.5 2.5,-2.5c1.38071,0 2.5,1.11929 2.5,2.5c0,1.38071 -1.11929,2.5 -2.5,2.5c-1.38071,0 -2.5,-1.11929 -2.5,-2.5z" fill="#ffffff" stroke="none" stroke-width="0.5"/><path d="M248.8125,122c0,-1.38071 1.11929,-2.5 2.5,-2.5c1.38071,0 2.5,1.11929 2.5,2.5c0,1.38071 -1.11929,2.5 -2.5,2.5c-1.38071,0 -2.5,-1.11929 -2.5,-2.5z" fill="#ffffff" stroke="none" stroke-width="0.5"/><path d="M241.8125,129.5c0,-1.38071 1.11929,-2.5 2.5,-2.5c1.38071,0 2.5,1.11929 2.5,2.5c0,1.38071 -1.11929,2.5 -2.5,2.5c-1.38071,0 -2.5,-1.11929 -2.5,-2.5z" fill="#ffffff" stroke="none" stroke-width="0.5"/><path d="M252.3125,129.5c0,-1.38071 1.11929,-2.5 2.5,-2.5c1.38071,0 2.5,1.11929 2.5,2.5c0,1.38071 -1.11929,2.5 -2.5,2.5c-1.38071,0 -2.5,-1.11929 -2.5,-2.5z" fill="#ffffff" stroke="none" stroke-width="0.5"/><path d="M289.8125,101.5c0,-1.38071 1.11929,-2.5 2.5,-2.5c1.38071,0 2.5,1.11929 2.5,2.5c0,1.38071 -1.11929,2.5 -2.5,2.5c-1.38071,0 -2.5,-1.11929 -2.5,-2.5z" fill="#ffffff" stroke="none" stroke-width="0.5"/><path d="M222.8125,106.5c0,-1.38071 1.11929,-2.5 2.5,-2.5c1.38071,0 2.5,1.11929 2.5,2.5c0,1.38071 -1.11929,2.5 -2.5,2.5c-1.38071,0 -2.5,-1.11929 -2.5,-2.5z" fill="#ffffff" stroke="none" stroke-width="0.5"/><path d="M189.8125,130.5c0,-1.38071 1.11929,-2.5 2.5,-2.5c1.38071,0 2.5,1.11929 2.5,2.5c0,1.38071 -1.11929,2.5 -2.5,2.5c-1.38071,0 -2.5,-1.11929 -2.5,-2.5z" fill="#ffffff" stroke="none" stroke-width="0.5"/><path d="M156.3125,169c0,-1.38071 1.11929,-2.5 2.5,-2.5c1.38071,0 2.5,1.11929 2.5,2.5c0,1.38071 -1.11929,2.5 -2.5,2.5c-1.38071,0 -2.5,-1.11929 -2.5,-2.5z" fill="#ffffff" stroke="none" stroke-width="0.5"/><path d="M209.3125,212.5c0,-1.38071 1.11929,-2.5 2.5,-2.5c1.38071,0 2.5,1.11929 2.5,2.5c0,1.38071 -1.11929,2.5 -2.5,2.5c-1.38071,0 -2.5,-1.11929 -2.5,-2.5z" fill="#ffffff" stroke="none" stroke-width="0.5"/><path d="M242.3125,176c0,-1.38071 1.11929,-2.5 2.5,-2.5c1.38071,0 2.5,1.11929 2.5,2.5c0,1.38071 -1.11929,2.5 -2.5,2.5c-1.38071,0 -2.5,-1.11929 -2.5,-2.5z" fill="#ffffff" stroke="none" stroke-width="0.5"/><path d="M267.3125,215.5c0,-1.38071 1.11929,-2.5 2.5,-2.5c1.38071,0 2.5,1.11929 2.5,2.5c0,1.38071 -1.11929,2.5 -2.5,2.5c-1.38071,0 -2.5,-1.11929 -2.5,-2.5z" fill="#ffffff" stroke="none" stroke-width="0.5"/><path d="M256.3125,211c0,-1.38071 1.11929,-2.5 2.5,-2.5c1.38071,0 2.5,1.11929 2.5,2.5c0,1.38071 -1.11929,2.5 -2.5,2.5c-1.38071,0 -2.5,-1.11929 -2.5,-2.5z" fill="#ffffff" stroke="none" stroke-width="0.5"/><path d="M257.8125,219c0,-1.38071 1.11929,-2.5 2.5,-2.5c1.38071,0 2.5,1.11929 2.5,2.5c0,1.38071 -1.11929,2.5 -2.5,2.5c-1.38071,0 -2.5,-1.11929 -2.5,-2.5z" fill="#ffffff" stroke="none" stroke-width="0.5"/></g></g></svg>