<svg version="1.1" xmlns="http://www.w3.org/2000/svg" xmlns:xlink="http://www.w3.org/1999/xlink" width="198.2009" height="170.68473" viewBox="0,0,198.2009,170.68473"><g transform="translate(-131.89955,-75.65764)"><g data-paper-data="{&quot;isPaintingLayer&quot;:true}" fill-rule="nonzero" stroke-linecap="butt" stroke-linejoin="miter" stroke-miterlimit="10" stroke-dasharray="" stroke-dashoffset="0" style="mix-blend-mode: normal"><path d="M143.17653,236.08121c-10.65336,-8.97425 -13.06515,-135.15631 1,-149.33333c8.74471,-8.81426 163.8354,-13.82247 176.66667,0c7.85128,8.45779 10.22314,138.74158 -0.33333,149c-12.28894,11.94197 -166.47674,9.47878 -177.33333,0.33333z" fill="#ecdcc8" stroke="#8a5b43" stroke-width="5"/><path d="M149.60631,222.43992c-0.71084,-1.86713 -1.27785,-3.80297 -1.66375,-5.77058l-0.48364,-1.9991c0,0 -0.22,-0.915 0.12707,-1.79023c-0.71186,-2.88342 -1.20167,-5.92536 -1.72536,-9.24558c-0.01627,-6.36497 0.08147,-12.9501 1.04479,-19.21336c1.10039,-7.15447 6.41714,-13.11945 7.65407,-20.1613c1.19463,-6.80104 -1.53229,-14.22121 -5.35451,-19.56631c-1.63936,-4.96519 -4.00928,-9.91966 -4.84724,-15.10844c-2.16031,-13.37701 1.92036,-31.5922 14.83423,-37.39738c0,0 0.83489,-0.34723 1.71164,-0.11406c6.39031,-2.19616 14.35777,-2.70645 20.77204,-1.05857c5.7921,1.48804 11.23409,4.63335 16.69003,7.02099c3.38333,1.48062 7.02723,2.17397 10.46633,3.62197c7.69223,1.60642 11.92582,-3.9106 17.68177,-8.09821c10.46411,-7.61291 27.94826,-9.41954 38.46076,-1.22168c4.6119,1.86753 9.23735,3.96101 14.31703,3.38666c3.56213,-0.40277 6.6732,-2.26471 10.20542,-2.65281c8.60145,-0.94508 17.68739,3.12934 19.59567,12.74944c0.62414,3.14647 0.04518,7.10577 0.03362,10.31315c-0.83399,4.43605 -1.89399,8.71055 -1.53081,13.27177c0.37516,4.71168 3.5952,8.33623 5.40149,12.43868c4.91046,11.1526 6.53578,23.38778 2.10932,34.89395c-2.18464,6.77846 -4.57738,12.15136 -3.93892,19.51801c0.43828,5.05691 2.33086,10.49441 0.34391,15.56208c-2.17904,5.5576 -7.34537,11.17668 -12.34857,14.07054c-2.66655,1.54233 -5.87241,2.51812 -8.62532,3.92407c-4.97825,0.89105 -10.50004,1.03215 -15.48527,0.09578c-1.85691,-0.34878 -3.57686,-1.38854 -5.4557,-1.57034c-3.57531,-0.34594 -7.1487,-0.68051 -10.71569,-1.06112c-10.22807,-1.09137 -18.85558,3.30897 -28.58265,5.30561c-5.10504,0 -9.60773,0.83955 -14.71621,-0.61577c-3.08972,-0.88021 -5.92111,-2.58979 -8.83539,-3.95246c-3.47391,-0.31249 -6.62681,0.58855 -10.08117,1.7922c-10.47639,3.61337 -23.23474,6.67013 -34.19116,3.20952c-4.76046,-1.5036 -9.44393,-4.70413 -11.77252,-9.21344c-0.76301,-0.4999 -1.09531,-1.36369 -1.09531,-1.36369z" fill="#b195d9" stroke="none" stroke-width="0.5"/><path d="M289.91768,228.22295c0.21853,0.12099 0.44056,0.28725 0.66259,0.50928c1.76777,1.76777 0,3.53553 0,3.53553l-4.58896,-0.33929c-1.30418,-3.26414 -2.15064,-6.13146 -2.67115,-9.62403c2.95092,-9.38483 8.57292,-17.01916 15.79372,-23.63875c5.20503,-4.77166 12.2094,-8.75671 15.47355,-15.30545c1.5761,-3.16207 3.29296,-8.55267 2.32195,-12.17104c-0.86373,-3.21861 -2.92782,-3.67313 -5.48597,-2.44959c-5.38805,3.23283 -10.46305,5.42037 -14.72227,10.39839c-7.61313,8.89795 -13.7047,19.21335 -20.33515,28.78789c-3.54358,5.11703 -6.34185,11.37986 -10.78572,15.84187c-2.20851,2.21753 -5.08565,4.09781 -7.6075,5.94668c-4.46197,1.53179 -11.67221,4.66706 -15.92803,0.55332c-4.49332,-4.34331 -1.62442,-13.2184 -0.11919,-18.01104c5.34165,-17.00775 20.06354,-28.4594 32.11919,-40.52449c5.33499,-5.33234 9.99151,-10.74823 14.92343,-16.41996c1.69274,-1.94666 4.07796,-3.21246 5.76146,-5.16711c3.0857,-3.58271 5.67508,-8.1128 8.20875,-12.09919c0.30089,-0.47341 4.93409,-7.39383 5.25276,-8.09611c2.09036,-4.60667 4.34196,-11.98956 3.64553,-17.1031c-0.08856,-0.65028 -0.94107,-5.19071 -2.31473,-5.47504c-1.3073,-0.27059 -2.66823,0.12473 -4.00323,0.11977c-14.8378,2.50937 -28.19552,14.72077 -37.66318,25.88502c-2.77631,3.27381 -4.67275,6.99992 -7.28916,10.37177c-6.68284,8.61238 -13.631,17.07098 -19.67907,26.14646c-6.6593,9.82472 -12.96122,20.07035 -18.90584,30.34852c-5.75831,9.95605 -10.38824,19.21366 -18.97032,27.09105c-1.13445,1.04129 -2.02727,2.36471 -3.29705,3.23586c-5.48499,3.76304 -14.4273,5.43375 -20.90424,5.37878c-4.71257,-1.97379 -11.30721,-2.1401 -13.7796,-7.42852c-0.95298,-2.03842 -0.71946,-4.90536 -0.71773,-7.02042c0.00526,-6.45698 1.93583,-10.96168 4.76959,-16.62928c8.10612,-16.21243 20.09646,-31.38563 35.01547,-41.97084c16.43959,-14.04322 36.32508,-25.3938 49.55065,-42.81731c5.73896,-7.56058 13.85314,-17.32439 8.21422,-27.01818c-6.54845,-5.99867 -17.022,-1.94846 -23.73561,2.06225c-2.46509,1.47264 -4.52328,3.70623 -6.8387,5.39142c-1.94618,1.41646 -4.01927,2.68626 -5.78426,4.32295c-2.64249,2.45041 -3.89897,4.04964 -6.25705,6.84125c-2.12212,2.51227 -4.14342,5.10947 -6.13138,7.72919c-3.02403,3.98504 -6.09941,7.59348 -8.66996,11.89255c-10.58127,16.98416 -19.65396,34.59556 -32.18288,50.26033c-2.5478,3.18548 -5.0521,7.49021 -8.66516,9.58019c-6.62359,3.83143 -14.02124,2.10726 -19.17358,-3.0065c-6.35118,-8.55864 -3.12672,-19.88299 1.70815,-28.3609c8.19618,-14.37195 19.77239,-26.69641 33.22739,-36.31144c6.03409,-4.29114 11.93963,-9.49258 17.18533,-14.73343c2.2774,-2.2753 4.69111,-4.69144 5.28824,-8.05155c0.46458,-2.61425 -1.98419,-6.04327 -3.97718,-7.37099c-1.1215,-0.74714 -2.67963,0.32958 -3.99351,0.6291c-5.70424,1.30038 -10.86147,4.80258 -15.38248,8.42402c-3.3981,3.3981 -7.56453,6.06338 -10.92736,9.43234c-5.11525,5.12458 -9.15852,11.09855 -13.15981,17.09159c-3.37883,5.06074 -6.44274,10.17385 -7.62867,16.10354c0,0 -0.49029,2.45145 -2.94174,1.96116c-2.45145,-0.49029 -1.96116,-2.94174 -1.96116,-2.94174c2.28928,-11.44639 10.46983,-22.10302 18.08863,-30.67701c0.6564,-0.7387 3.5473,-4.55313 4.12288,-5.12786c3.42206,-3.417 7.62445,-6.11947 11.07264,-9.56766c5.22307,-4.17404 11.03627,-8.04278 17.61752,-9.57598c1.33544,-0.31111 5.69367,-1.08584 7.00649,-0.3709c1.81916,0.99069 3.16779,2.69667 4.51381,4.27117c1.90646,2.23008 2.93318,5.4167 2.50901,8.35785c-0.96734,6.70742 -6.69882,10.89144 -11.31222,15.04351c-4.29045,3.86141 -8.51896,7.80435 -13.21421,11.17151c-12.87755,9.19399 -23.90976,20.95774 -31.77261,34.68856c-3.61614,6.31484 -7.29952,16.06777 -2.29185,22.6391c3.36279,3.39865 8.45683,4.5757 12.82642,1.9935c2.94405,-1.73978 5.24964,-5.81392 7.33484,-8.41981c12.39487,-15.48997 21.35514,-32.93633 31.81712,-49.73967c2.67172,-4.43854 5.82753,-8.18818 8.95284,-12.307c2.04064,-2.68934 4.11615,-5.35508 6.29512,-7.93362c2.5014,-2.96011 3.86623,-4.68168 6.69366,-7.29639c1.9037,-1.76048 4.11818,-3.15272 6.21574,-4.67705c2.43232,-1.76761 4.57718,-4.05241 7.1613,-5.60858c7.69438,-4.63358 18.8876,-8.47889 27.28284,-3.63571c1.161,0.66978 1.9877,1.79864 2.98155,2.69796c0.81041,1.43438 1.95324,2.72652 2.43122,4.30314c2.7416,9.04311 -2.38348,17.87989 -7.51844,24.85724c-14.4557,19.6423 -35.20341,32.13797 -53.50555,47.74866c-14.34125,10.16309 -25.83875,24.70853 -33.62689,40.28462c-2.48959,4.97911 -4.23576,8.70135 -4.23041,14.37072c0.00088,0.93032 -0.20275,3.74882 0.28227,4.97958c1.15677,2.93542 7.67741,3.45386 10.2204,4.57148c5.0672,-0.07473 12.85061,-1.64866 17.09576,-4.62122c9.93474,-6.95656 14.87961,-18.55468 20.73263,-28.67309c6.00458,-10.38043 12.36836,-20.72892 19.09416,-30.65148c6.11422,-9.16801 13.11742,-17.72987 19.88013,-26.42446c2.66632,-3.42799 4.59437,-7.19435 7.42257,-10.53619c10.39633,-12.28444 24.79651,-24.95714 41.06588,-27.63611c0.73551,-0.00232 5.53859,-0.05541 5.99677,0.11977c3.06786,1.173 3.60998,2.78436 4.57502,5.56301c2.26392,6.51856 0.54043,12.3438 -1.3793,18.71939c-1.63596,5.43316 -4.1236,9.07386 -7.14105,13.81798c-2.6602,4.18246 -5.39692,8.92953 -8.64298,12.6834c-1.71882,1.98771 -4.14235,3.28515 -5.85793,5.27566c-4.95322,5.74702 -9.69551,11.1962 -15.07657,16.58004c-10.70793,10.69998 -23.22583,20.41797 -29.47617,34.73153c-1.63634,3.74728 -3.69756,9.0957 -3.30376,13.25436c0.11202,1.18302 -0.01353,2.59398 0.77993,3.47858c0.46293,0.51611 3.06433,0.26777 3.23223,0.26777c2.57863,0 4.36247,-0.91887 6.83973,-1.71445c2.09971,-1.6263 4.51325,-3.18348 6.3925,-5.05332c4.22431,-4.20317 6.86168,-10.31414 10.21428,-15.15813c6.72917,-9.72262 12.91984,-20.1909 20.66485,-29.21211c4.70378,-5.47884 10.32779,-8.03165 16.27773,-11.60161c1.14721,-0.41822 2.22092,-1.28388 3.44163,-1.25465c10.21077,0.24453 10.44311,11.04291 8.04352,18.2772c-3.2146,9.69138 -11.01511,14.48813 -18.17561,21.05137c-6.27446,5.75111 -11.27435,12.33033 -14.20628,20.36125c0.3813,1.93472 0.94395,3.72494 1.61284,5.5274z" fill="#86d4f6" stroke="none" stroke-width="0.5"/></g></g></svg>