<svg version="1.1" xmlns="http://www.w3.org/2000/svg" xmlns:xlink="http://www.w3.org/1999/xlink" width="248.61523" height="148.60171" viewBox="0,0,248.61523,148.60171"><g transform="translate(-141.69239,-112.69914)"><g data-paper-data="{&quot;isPaintingLayer&quot;:true}" fill-rule="nonzero" stroke="none" stroke-width="0.5" stroke-linecap="butt" stroke-linejoin="miter" stroke-miterlimit="10" stroke-dasharray="" stroke-dashoffset="0" style="mix-blend-mode: normal"><g><path d="M264.13975,249.2642c-0.56771,-0.93817 -0.81061,-2.26308 0.14914,-3.02531c0.63544,-0.50466 5.76745,-1.0865 6.99579,-1.23186c7.11748,-0.84224 14.79192,-1.30898 22.07438,-1.30898c5.89722,0 18.30149,-3.6324 24.16667,-3.57519c3.23449,0.03155 -1.73066,0.90186 0.44835,2.54368c1.07075,0.80678 0.88115,2.50233 0.88498,3.43636c0.01459,3.5568 -1.72241,10.60091 -9.99934,11.68768c-6.21473,0.816 -9.98985,0.28598 -13.47699,-1.95974c-0.16264,-0.11194 -1.76836,-1.21398 -2.64364,-1.82455c-0.46819,-0.01142 -0.90268,-0.08934 -1.26882,-0.21586c-0.54918,0.51366 -1.2545,0.9629 -1.48458,1.15406c-2.30679,1.91652 -5.24973,3.73187 -9.97128,3.96562c-1.65658,0.08202 -4.80442,-0.53367 -6.26625,-0.90639c-0.49759,-0.12687 -5.52918,-1.7147 -5.7234,-1.82821c-3.151,-1.84175 -3.18036,-4.56551 -3.88501,-6.9113z" fill="#8adaa4"/><path d="M148.09555,239.68148c0.52308,0.09053 1.04434,0.17836 1.50983,0.17458c4.1241,-0.0335 7.42564,0.19853 11.35629,1.25322c1.94329,0.25993 5.69753,0.59222 7.11245,1.69126c3.16048,2.45494 1.4128,5.62326 0.10611,8.22411c-2.81793,5.60883 -11.1161,9.90306 -18.34191,5.66268c-0.85467,-0.50155 -1.334,-1.32009 -1.97928,-1.99378c-1.9779,-2.06495 -2.81992,-3.89003 -3.45145,-6.42823c-0.45029,-1.80978 -0.57567,-3.38184 -0.39043,-5.05198c-0.04571,-0.71416 0.05465,-1.41932 0.37502,-2.09173c0.00509,-0.02119 0.01023,-0.04243 0.01541,-0.06369c0,0 0.49029,-1.96742 2.94174,-1.57394c0.28731,0.04611 0.53421,0.11385 0.74622,0.1975z" fill="#8adaa4"/><path d="M318.69239,236.53156c2.5,0 2.5,2.5 2.5,2.5v0.5c-0.01671,3.77134 -0.55644,8.23569 -2.28555,11.66026c-3.9212,7.76611 -14.74141,11.91355 -22.43926,7.51915c-2.45012,-1.39868 -4.14299,-3.70457 -5.13865,-6.30222c-4.97292,9.38468 -17.0724,11.22248 -24.9043,3.39058c-3.51798,-3.51798 -3.27263,-6.84411 -4.18369,-11.27747c0,0 -0.49029,-2.45145 1.96116,-2.94174c2.45145,-0.49029 2.94174,1.96116 2.94174,1.96116c0.67244,3.44 0.14449,6.0507 2.81631,8.72253c5.55566,5.55566 14.57882,4.42819 17.41105,-3.16071l0.92379,-0.75793c0.04014,-0.1519 0.07621,-0.24207 0.07621,-0.24207c0.30124,-0.74393 0.60249,-1.48786 0.90373,-2.23179l0.45692,-2.28461c0.20986,-1.16847 1.23165,-2.05512 2.46053,-2.05512c1.22888,0 2.25067,0.88665 2.46053,2.05512l0.49092,2.45459l-0.01594,0.00319c0.00962,0.02162 0.01915,0.0433 0.0286,0.06502c1.11471,2.56366 0.40435,4.90269 2.39238,7.24773c4.57103,5.39191 14.42867,0.58952 16.92906,-4.48591c1.33436,-2.70857 1.73045,-6.37596 1.71445,-9.33974v-0.5c0,0 0,-2.5 2.5,-2.5z" fill="#8a5b43"/><path d="M170.18267,240.58011c2.45145,0.49029 1.96116,2.94174 1.96116,2.94174l-0.49241,2.46041c-0.63148,3.6903 -1.48973,6.85104 -4.11629,9.73876c-5.95733,6.54969 -16.33814,4.05066 -21.68549,-2c-3.40503,-3.85288 -4.02222,-8.5438 -4.13317,-13.34107c-0.01587,-0.11385 -0.02408,-0.23016 -0.02408,-0.34839c0,-0.08546 0.00429,-0.16992 0.01266,-0.25317c-0.01131,-0.74802 -0.01266,-1.49788 -0.01266,-2.24683c0,0 0,-2.5 2.5,-2.5c2.5,0 2.5,2.5 2.5,2.5c0,0.73955 -0.00986,1.50162 -0.01007,2.27408c0.00666,0.07441 0.01007,0.14977 0.01007,0.22592c0,0.07205 -0.00304,0.14338 -0.00902,0.21389c0.01916,3.59325 0.32429,7.36018 2.85177,10.09665c3.43183,3.7156 10.35729,6.46798 14.31451,2c1.95185,-2.20378 2.43361,-4.47422 2.88371,-7.26124l0.50759,-2.53959c0,0 0.49029,-2.45145 2.94174,-1.96116z" fill="#8a5b43"/></g><path d="M318.92885,236.53157c2.5,0 2.5,2.5 2.5,2.5v0.5c-0.01671,3.77134 -0.55644,8.23569 -2.28555,11.66026c-3.9212,7.76611 -14.74141,11.91355 -22.43926,7.51915c-2.45012,-1.39868 -4.14299,-2.28569 -5.13865,-4.88334c-4.97292,9.38468 -17.0724,9.8036 -24.9043,1.9717c-3.51798,-3.51798 -3.27263,-6.84411 -4.18369,-11.27747c0,0 -0.49029,-2.45145 1.96116,-2.94174c2.45145,-0.49029 2.94174,1.96116 2.94174,1.96116c0.67244,3.44 0.14449,6.0507 2.81631,8.72253c5.55566,5.55566 14.57882,4.42819 17.41105,-3.16071l0.92379,-0.75793c0.04014,-0.1519 0.07621,-0.24207 0.07621,-0.24207c0.30124,-0.74393 0.60249,-1.48786 0.90373,-2.23179l0.45692,-2.28461c0.20986,-1.16847 1.23165,-2.05512 2.46053,-2.05512c1.22888,0 2.25067,0.88665 2.46053,2.05512l0.49092,2.45459l-0.01594,0.00319c0.00962,0.02162 0.01915,0.0433 0.0286,0.06502c1.11471,2.56366 0.40435,4.90269 2.39238,7.24773c4.57103,5.39191 14.42867,0.58952 16.92906,-4.48591c1.33436,-2.70857 1.73045,-6.37596 1.71445,-9.33974v-0.5c0,0 0,-2.5 2.5,-2.5z" fill="#8a5b43"/><g><path d="M356.04591,212.50643c0,0 -1.22372,0.17482 -2.0731,-0.58189c-1.72627,0.81771 -3.30161,2.00711 -5.13878,2.52327c-2.58682,0.72677 -5.36048,0.70635 -7.9293,1.48011c-3.99248,1.20259 -6.08273,2.401 -9.67334,1.54535l-0.04874,0.00975c0,0 -1.77271,0.35454 -2.60471,-1.04681c-0.18916,-0.15053 -0.38734,-0.34408 -0.5516,-0.58424c-1.18936,0.27926 -2.37945,0.54672 -3.58764,0.66743c-3.41384,0.34108 -7.06154,0.0152 -10.49269,0c-1.4685,-0.28706 -2.92887,-0.57541 -4.3836,-0.86438c-0.66234,0.37655 -1.37006,0.37655 -1.37006,0.37655l-1.99029,-0.04855c-3.17499,-0.65246 -5.04254,-0.16988 -8.35437,0.04372c-1.97243,0.12721 -3.92151,-0.56972 -5.82898,-1.08764c-3.98207,-1.0812 -6.09012,-1.01365 -8.82636,-4.40753c0,0 -0.60404,-0.80539 -0.53441,-1.77731c-2.45878,-0.81885 -4.87712,-1.74766 -7.1904,-3.04328c-2.63225,-1.47427 -4.69567,-3.81719 -6.91319,-5.79078c-0.74676,-0.66461 -1.74453,-1.06965 -2.34629,-1.86792c-1.85365,-2.45896 -2.8604,-5.24403 -3.44406,-8.14241c-0.04655,-0.11477 -0.0931,-0.22954 -0.13965,-0.3443l-0.16806,0.08403l-1.47751,-2.95502c-0.18291,-0.34741 -0.28642,-0.74312 -0.28642,-1.16302c0,-0.53923 0.17072,-1.03859 0.46107,-1.44698c-1.31756,-6.43728 -3.83363,-12.52783 -1.85742,-19.26539c1.08979,-3.71545 2.96283,-7.49614 5.50772,-10.42564c1.57472,-1.81269 3.50273,-3.45768 4.70922,-5.58681c1.56707,-2.76546 1.17816,-5.99169 1.19158,-9.02153c0.5186,-2.653 0.72476,-6.10808 1.6418,-8.61744c1.5139,-4.14258 5.74174,-9.71203 9.66639,-11.84041c4.23217,-2.29515 10.68608,-1.57787 14.79055,0.46457c2.58082,1.28425 5.63453,3.39923 7.65686,5.47185c3.60728,3.69699 3.22553,8.3293 4.9605,12.61494c0.12577,-0.07446 0.25863,-0.13821 0.39733,-0.18999l2.44593,-0.97837l0.07176,0.17941l0.38394,-0.31311c2.75143,-0.04175 5.21278,0.12563 7.76987,0.47985c2.56073,-0.13027 5.10626,0.0062 7.69319,0.52359c1.08336,0.21667 4.12466,1.33346 5.05961,-0.11287c0.37407,-0.57868 1.01101,-4.99474 1.04257,-5.10932c0.67293,-2.44249 1.97181,-5.85435 3.22812,-8.05117c3.04703,-5.32811 9.36089,-7.17965 14.70664,-9.23008c3.38185,-0.05132 5.48741,0.10247 8.68514,1.05853c2.01552,0.6026 4.15476,1.1484 5.82616,2.42584c7.867,6.01271 3.96147,15.22015 3.96147,23.47051c0,1.98889 -0.45407,4.69107 0.3318,6.59851c1.5021,3.64582 4.59849,5.13869 7.8227,7.0273c2.39048,3.12124 5.62786,5.12348 7.1773,8.9727c4.57327,11.36122 -0.22361,26.2713 -8.56404,34.66926c-2.49167,2.50885 -5.53511,4.68418 -8.37279,6.80685c-1.80626,1.08023 -2.90383,1.87991 -4.66433,2.50342c-2.85232,2.14235 -4.41586,3.24567 -8.37709,3.89683z" fill="#8adaa4"/><path d="M351.68266,212.98301c-2.45145,0.49029 -2.94174,-1.96116 -2.94174,-1.96116c-0.78912,-4.03688 -1.23907,-7.23711 1.59496,-10.66464c1.94058,-2.34697 5.16416,-3.96228 8.11015,-4.31349c2.43246,-0.28999 4.2741,0.48598 6.52153,-0.69158c1.04535,-0.54771 1.46676,-1.87133 1.9852,-2.9315c2.23958,-4.57977 3.7209,-10.28478 8.62871,-12.62871c1.15039,-0.54942 2.34609,-1.42004 3.61091,-1.26038c1.73128,0.21854 3.13213,1.53949 4.6982,2.30924c-0.77181,11.25881 -7.70215,18.12999 -16.15967,24.66128c-0.83122,0.64191 -1.3476,1.68334 -2.27071,2.18416c-2.77778,1.50705 -7.07538,2.24958 -10.12615,3.26157l-0.16452,-0.0305l0.01314,0.0657l-1.593,0.3186c-0.17816,0.68131 -0.66509,1.43302 -1.907,1.6814zM353.03954,205.60777l0.14127,-0.08476c-0.04081,-0.03103 -0.08065,-0.06328 -0.11944,-0.0967c-0.00856,0.05954 -0.01581,0.12006 -0.02183,0.18146z" fill="#7ec897"/><path d="M375.60814,203.00021c1.44112,2.16168 -0.72056,3.60279 -0.72056,3.60279l-1.66325,1.1053c-16.93244,10.14538 -34.85024,13.36026 -54.33598,13.36026c-16.38942,0 -37.4685,-3.28252 -49.64037,-15.30976c0,0 -1.83707,-1.83707 0,-3.67414c1.83707,-1.83707 3.67414,0 3.67414,0c10.9316,11.09514 31.17215,13.78789 45.96623,13.78789c18.54219,0 35.55127,-2.93865 51.66265,-12.6198l1.45436,-0.97311c0,0 2.16167,-1.44111 3.60279,0.72056z" fill="#8a5b43"/><path d="M268.2315,149.58812c1.48706,-3.41916 4.38235,-5.97721 8.92058,-6.05623c2.77651,-0.04835 4.31769,0.83516 6.76512,1.82027c2.99862,2.25419 4.70214,5.04859 5.20092,8.12619c0.22439,0.50341 0.40266,1.03224 0.52915,1.58044c1.68389,7.29794 -4.53623,15.05925 -12.15457,14.46479c-0.93419,-0.07289 -1.83831,-0.37498 -2.70065,-0.78422c-0.48435,-0.08894 -0.93751,-0.19656 -1.34509,-0.32152c-1.92379,-0.58979 -5.7784,-2.87895 -6.89016,-4.58655c-2.35452,-3.61641 -1.43238,-10.32542 1.6747,-14.24317z" fill="#efc3c3"/><path d="M371.75633,144.42504c0.42133,0.34635 0.65492,0.70991 0.65492,0.70991l1.49756,2.71535c0.3234,1.84269 1.12467,3.59332 2.05344,5.1994c0.23942,1.37103 0.8407,2.72554 0.71827,4.11309c-1.05941,12.00688 -17.52979,11.90856 -22.0638,2.75527c-4.30075,-8.68237 0.08957,-19.11083 10.06266,-18.87715c1.25988,0.02952 2.61969,-0.30686 3.77491,0.21563c1.26466,0.57199 2.04654,1.92011 3.06982,2.88017c0,0 0.10025,0.10402 0.23221,0.28834z" fill="#efc3c3"/><path d="M333.85598,140.13266c-1.29081,1.29081 -2.58161,0.69654 -3.18419,0.2819c-4.24813,-0.54161 -8.47913,-1.1405 -12.77866,-0.88683c-2.96976,0.17522 -5.81687,0.66642 -8.80491,0.67049c0,0 -0.65279,0 -1.29122,-0.33357c-0.01396,0.00016 -0.028,0.00024 -0.04211,0.00024c-2.5,0 -2.5,-2.5 -2.5,-2.5v-1.33334c0.10873,-6.01889 -3.79043,-10.74125 -8.65831,-13.78453c-2.48952,-1.06777 -4.11609,-1.37469 -6.84169,-1.38214c-3.47882,-0.0095 -6.10079,1.0495 -8.8055,3.14548c-1.90452,1.47588 -2.68697,1.60395 -4.20774,3.53867c-4.56878,5.81242 -4.48676,14.86044 -4.48676,21.81585c0,0 0,1.45851 -1.11402,2.14748c-0.37415,0.32927 -0.73451,0.48371 -0.73451,0.48371c-4.76343,1.85804 -6.25417,7.61482 -7.99817,11.96702c-4.09462,10.21827 -3.10025,21.31428 3.38104,30.28202c2.16201,3.02682 4.04901,5.15717 6.89946,7.53254l1.68505,2.02548c0,0 1.56173,1.95217 -0.39043,3.51391c-1.95217,1.56174 -3.51391,-0.39043 -3.51391,-0.39043l-0.98163,-1.30785c-3.15215,-2.62679 -5.37962,-5.12483 -7.7672,-8.46746c-7.38689,-10.44325 -8.69102,-23.18392 -3.95229,-35.05131c2.21941,-5.55817 4.18446,-11.10241 9.49502,-14.104c0.15663,-12.50401 2.60897,-26.25591 15.9906,-30.98779c2.07439,-0.73353 4.30075,-1.13865 6.501,-1.14333c3.51761,-0.00748 5.94095,0.57311 9.15831,1.95119c6.35897,3.97348 10.90285,9.75388 11.31318,17.35959c2.48524,-0.09867 4.88825,-0.49352 7.39025,-0.64029c4.26229,-0.25004 8.45638,0.25629 12.66458,0.78987c0.72505,-6.29839 2.8545,-12.94667 7.85773,-17.20124c7.03112,-5.97902 19.47927,-7.66144 27.13342,-1.74589c2.80834,2.17044 4.23465,5.24042 5.77411,8.32081c1.42744,3.8556 1.86805,7.56134 1.87507,11.66597v2c0,0 0,0.06207 -0.00978,0.16666c0.00978,0.10459 0.00978,0.16666 0.00978,0.16666c-0.0048,2.49774 0.24095,4.75365 0.08298,7.18695c9.38484,7.98445 18.09618,17.39292 17.24552,30.63506c-0.32178,5.00926 -2.44953,9.1744 -4.17521,13.77621c-2.26747,5.27262 -5.412,9.61736 -9.06607,14.00225l-1.75389,1.39953c0,0 -2,1.5 -3.5,-0.5c-1.5,-2 0.5,-3.5 0.5,-3.5l0.91278,-0.60046c3.31199,-3.97439 6.22282,-7.87476 8.26726,-12.66442c1.52604,-4.06943 3.55734,-7.80022 3.82479,-12.22379c0.72578,-12.00445 -7.99289,-20.25542 -16.5032,-27.36651c-0.45558,-0.24856 -0.89662,-0.67106 -1.07968,-1.38922c-0.16971,-0.45128 -0.2291,-1.00688 0.02972,-1.61787c0.0833,-0.27506 0.2058,-0.50392 0.35199,-0.69435c0.12535,-2.15935 -0.13316,-4.21119 -0.13698,-6.44337c0,0 0,-0.06207 0.00978,-0.16666c-0.00978,-0.10459 -0.00978,-0.16666 -0.00978,-0.16666v-2c0.00646,-3.36024 -0.25818,-6.5214 -1.45826,-9.66737c-1.12833,-2.25538 -2.15124,-4.76141 -4.22589,-6.34586c-6.26143,-4.78199 -17.76914,-2.86992 -22.52607,3.23628c-2.78639,3.57673 -3.99116,7.98188 -4.47173,12.38637c0,0 -0.10476,0.94281 -0.76597,1.60237c0.26258,0.67434 0.32318,1.61516 -0.61764,2.55598z" fill="#8a5b43"/><path d="M291.5882,138.3649c0,-1.38071 1.11929,-2.5 2.5,-2.5c1.38071,0 2.5,1.11929 2.5,2.5c0,1.38071 -1.11929,2.5 -2.5,2.5c-1.38071,0 -2.5,-1.11929 -2.5,-2.5z" fill="#8a5b43"/><path d="M343.92154,135.69823c0,-1.38071 1.11929,-2.5 2.5,-2.5c1.38071,0 2.5,1.11929 2.5,2.5c0,1.38071 -1.11929,2.5 -2.5,2.5c-1.38071,0 -2.5,-1.11929 -2.5,-2.5z" fill="#8a5b43"/><path d="M348.92843,160.14959c-0.404,0.808 -0.95398,1.17804 -1.4917,1.32114c1.03958,2.90811 0.09384,7.59926 -0.25289,10.26703c-0.17962,1.382 -0.03011,2.96937 -0.85525,4.09246c-0.97501,1.32706 -2.49011,2.65633 -4.13623,2.70134c-1.56365,0.04276 -2.92019,-1.33276 -3.98429,-2.47928c-1.38692,-1.49435 -1.63483,-4.71942 -1.97475,-6.57002c-0.64834,-3.52971 -1.525,-6.84664 -1.54096,-10.4507c0,0 0,-2.5 2.5,-2.5c0.68312,0 1.17958,0.18666 1.54038,0.45797c1.95321,-2.40907 5.16692,-1.32822 7.44991,-0.90943l1.62774,0.71538c0,0 2.23607,1.11803 1.11803,3.3541z" fill="#ffb9ce"/><path d="M359.18023,156.6379c-0.60634,2.42535 -3.0317,1.81902 -3.0317,1.81902l-1.00307,-0.27398c-7.18279,-0.80775 -14.30365,-0.25204 -21.4408,-1.68097c-11.16253,-1.2463 -22.46859,-2.2554 -33.70345,-0.98257c-5.55868,0.62975 -11.06059,1.95772 -16.60292,2.65953c0,0 -2.48069,0.31009 -2.79078,-2.1706c-0.31008,-2.48069 2.1706,-2.79078 2.1706,-2.79078c5.58317,-0.68774 11.12844,-2.06205 16.73041,-2.6738c11.67166,-1.27458 23.36546,-0.26591 34.96322,1.01743c7.05807,1.41015 14.11322,0.87079 21.22587,1.65236l1.66359,0.39269c0,0 2.42536,0.60634 1.81902,3.03169z" fill="#8a5b43"/><path d="M350.19237,155.53156c2.5,0 2.5,2.5 2.5,2.5v1c-0.01729,5.49215 -0.01974,13.01958 -3.52949,17.53853c-2.49846,3.21688 -6.70697,5.9002 -10.80344,3.57649c-1.48306,-0.84126 -3.52518,-4.9257 -4.03175,-6.30368c-2.08117,-5.66125 -2.06033,-13.37359 -1.1013,-19.22234c0,0 0.411,-2.46598 2.87698,-2.05499c2.46598,0.411 2.05499,2.87698 2.05499,2.87698c-0.81951,4.82757 -0.45866,9.82345 0.48547,14.59871c0.36586,1.85046 0.85704,4.55365 2.38148,5.87527c1.21646,1.05462 3.65266,-1.72587 4.19656,-2.42351c2.69254,-3.45364 2.48599,-10.29475 2.47051,-14.46147v-1c0,0 0,-2.5 2.5,-2.5z" fill="#8a5b43"/><path d="M276.80244,182.1196c2.66894,0.81691 5.58675,4.02691 8.31842,5.09076c3.25298,1.31725 6.465,1.30947 9.01286,4.246c0.85359,0.9838 1.31018,2.31591 1.51356,3.60242c0.99242,6.27773 -5.64227,8.38327 -10.70124,7.9606c-5.64714,-0.47181 -12.22098,-4.75216 -14.93307,-9.76302c-1.69811,-3.13744 -2.31966,-8.21624 0.52491,-11.09901c0.89419,-0.9062 2.44281,-0.71817 3.66422,-1.07726c0,0 1.76653,-0.35331 2.60035,1.0395z" fill="#7ec897"/><path d="M285.23105,173.59012c0.90847,-0.44823 1.81463,-0.87357 2.63633,-0.46571c8.57905,4.25832 -1.5287,11.80058 -5.75513,6.7939c-0.94155,-1.11537 0.08578,-2.91803 0.12867,-4.37704c0,0 0.49029,-2.45145 2.94174,-1.96116c0.01626,0.00325 0.03238,0.00659 0.04838,0.01001z" fill="#7ec897"/></g></g></g></svg>