<svg version="1.1" xmlns="http://www.w3.org/2000/svg" xmlns:xlink="http://www.w3.org/1999/xlink" width="299.28307" height="150.53814" viewBox="0,0,299.28307,150.53814"><g transform="translate(-90.35847,-104.73093)"><g data-paper-data="{&quot;isPaintingLayer&quot;:true}" fill-rule="nonzero" stroke="none" stroke-width="0.5" stroke-linecap="butt" stroke-linejoin="miter" stroke-miterlimit="10" stroke-dasharray="" stroke-dashoffset="0" style="mix-blend-mode: normal"><path d="M136.64152,192.74977l0.25,2.5c-3.77532,-0.08401 -7.53151,2.03609 -10.60503,4.07462c-2.15067,1.42645 -5.4455,1.9167 -7.37425,3.40967c-0.57453,0.44472 -0.74085,1.2681 -1.25295,1.78347c-1.34323,1.35182 -3.11523,2.27594 -4.29725,3.77076c-1.76345,2.2301 -3.21823,4.77264 -5.01834,7.02321c0,0 -1.56174,1.95217 -3.51391,0.39043c-1.95217,-1.56174 -0.39043,-3.51391 -0.39043,-3.51391c1.77804,-2.22212 3.21788,-4.79278 4.98166,-6.97679c1.32459,-1.64017 3.20753,-2.74296 4.70275,-4.22924c0.66721,-0.66322 0.98876,-1.65973 1.74705,-2.21653c2.20181,-1.61676 5.2977,-2.02995 7.62575,-3.59033c3.74665,-2.51121 7.99349,-4.5889 12.526,-4.88985c0.2223,-0.03553 0.36897,-0.03553 0.36897,-0.03553l0.00149,0.01494c0.1658,-0.00741 0.33197,-0.01241 0.49851,-0.01494z" fill="#f3f1f0"/><path d="" fill="#8a5b43"/><g><path d="M272.67776,193.3935c-2.14373,1.28624 -3.42997,-0.85749 -3.42997,-0.85749c-1.99666,-3.32776 -4.51714,-6.93104 -5.31116,-10.81347c-1.38829,-6.78823 -0.93171,-16.2995 2.21528,-22.58367c2.47039,-4.9331 7.79751,-8.05175 8.84325,-13.60146c0.47878,-1.19694 1.93318,-2.3477 1.50363,-3.56318c-0.59462,-1.68257 -4.51377,-1.92248 -5.62769,-2.44219c-2.30142,-1.07376 -5.58032,-4.24527 -7.00768,-6.32049c-2.94404,-4.28029 -2.97189,-9.50294 -2.97189,-14.46177c0,-0.64636 -0.02385,-5.35511 0.09071,-5.66734c3.20853,-8.74389 13.35021,-3.56788 18.44034,0.19101c4.20341,3.36273 7.27685,6.44139 9.70856,11.36542c1.97547,4.00019 1.44179,8.57862 3.04265,12.59048c0.51321,1.28614 2.57876,2.34682 3.47255,2.85815c3.87561,2.21717 6.95156,3.43331 10.98648,1.00226c1.45546,-0.87692 2.77427,-1.98463 4.05823,-3.14654c-0.77448,-0.42478 -1.29952,-1.24779 -1.29952,-2.19344c0,-0.82832 0.40283,-1.56254 1.02328,-2.01746l1.97672,-1.48254l0.19479,0.25973l0.51463,-0.63144c2.41881,-0.07942 4.80886,-0.23047 6.84119,0.42705c1.45027,-0.10298 2.89272,-0.05534 3.94938,-0.05534c0.17034,0 0.34247,-0.00008 0.51617,0h1.48383c0.09117,0 0.18121,0.00488 0.26986,0.0144c3.3733,0.06879 7.02737,0.46355 9.49791,2.71784c0.74888,0.68333 0.92864,1.82396 1.58873,2.59341c1.56608,1.82556 4.97972,4.01261 7.38986,4.18652c3.82,0.27563 14.21928,0.51368 13.75365,-5.01217c0.00689,-1.85425 -0.51166,-3.68608 -0.49968,-5.5403c0.05854,-9.06197 7.02635,-17.52764 15.0712,-20.78089c1.93003,-0.78048 7.18731,-3.65111 9.10348,-3.08596c2.05111,0.60495 3.87066,4.55725 4.27988,6.43438c1.05832,4.85463 0.19805,9.77545 -1.60742,14.33266c-2.19648,6.58945 -5.54273,10.00336 -10.68016,14.50293c-0.4676,0.40954 -3.61953,3.05013 -2.8576,4.18047c1.87515,2.78185 5.1585,4.69202 6.86971,7.73189c3.75928,6.67817 4.32059,14.26428 4.32059,21.72482c0,4.3522 0.93734,9.88129 -1.15254,13.85989c-0.77215,1.46997 -1.1964,3.88956 -2.8448,4.08905c-1.8664,0.22588 -3.46364,-1.72869 -4.65734,-3.18113c-0.87624,-1.06618 -0.76461,-2.65322 -1.21091,-3.95912c-0.73318,-2.14533 -1.49225,-4.45714 -3.02305,-6.17069c-2.29235,-2.566 -5.16895,-5.58555 -7.98759,-7.5509c-0.92668,-0.64614 -3.12701,-0.94045 -4.11406,-1.13566c-3.46245,-0.68475 -6.67801,-1.46433 -10.21591,-1.45997c-0.89212,-0.14629 -1.78061,-0.31548 -2.66662,-0.49785c-0.08054,0.00637 -0.12718,0.00637 -0.12718,0.00637h-2.5c-5.90868,0 -12.15001,0.59327 -17.9507,-0.54096c-1.34525,-0.22826 -2.59984,-0.3289 -3.82946,-0.34875c-0.34402,0.09256 -0.68022,0.18806 -1.00747,0.28607c-2.72117,0.81501 -5.5604,0.53887 -8.2396,1.05853c-1.68234,0.32631 -3.11988,1.44606 -4.7604,1.94147c-6.0919,1.83964 -12.08204,3.98719 -17.97083,6.49114c-6.63783,1.33552 -9.45738,5.30105 -13.52432,10.30092l-0.69913,1.74783c0.05646,0.69852 -0.15476,1.56123 -1.23185,2.20748z" fill="#f3f1f0"/><path d="M299.5962,146.42953c-0.42138,0.78582 -1.25062,1.32024 -2.20468,1.32024c-0.59079,0 -1.13372,-0.20493 -1.56157,-0.54758l-1.15219,0.69131l-0.12451,-0.20752l-0.49439,0.47308c-1.20609,-0.02136 -2.55403,0.39098 -3.77005,0.39995c-0.52202,1.41368 -1.16385,2.85689 -1.98377,4.04318c0.16867,2.02586 -1.551,4.08337 -2.63195,5.89358c-1.17344,1.9651 -5.70929,6.24363 -8.54539,7.06171c-0.6654,0.38305 -1.452,0.69041 -2.2739,0.93764l0.02251,0.05252l-3.4492,1.47823c-0.31554,0.1438 -0.66621,0.22391 -1.0356,0.22391c-0.82012,0 -1.54801,-0.39491 -2.00388,-1.00494c-0.57699,0.14258 -1.28698,0.07381 -2.05786,-0.54289c-1.27265,-1.01812 -1.05191,-2.20217 -0.74405,-2.90311c-0.49597,0.046 -1.0708,-0.0815 -1.69422,-0.54906c-2,-1.5 -0.5,-3.5 -0.5,-3.5c3.36883,-4.49177 7.00965,-8.72482 10.52949,-13.03853c1.23702,-1.51603 1.28802,-2.45899 2.07416,-4.17384c0.15013,-0.3275 0.73137,-0.62223 0.54735,-0.93196c-0.82081,-1.38153 -2.92359,-1.39533 -4.18952,-2.38516c-2.93163,-2.29223 -6.81769,-5.95685 -8.64088,-9.2457c-1.40952,-2.54264 -1.71305,-5.43958 -2.27204,-8.23452c-0.88135,-4.50867 -1.17329,-13.00317 4.89843,-14.42836c3.60076,-0.84519 5.90094,2.15315 8.44799,3.86345c1.54081,1.03462 3.44171,1.45102 4.98126,2.48752c5.91955,3.98533 9.07719,10.89827 11.02013,17.37474c0.62396,2.07988 1.47792,4.08906 1.66617,6.16671c0.40662,-0.28625 0.90242,-0.45434 1.43748,-0.45434c0.48518,0 0.93808,0.13821 1.32147,0.37741l1.01012,0.60607c0.84288,0.15546 1.43617,0.74875 1.43617,0.74875l-0.03726,0.06436l3.71437,0.74287c1.16847,0.20987 2.05512,1.23166 2.05512,2.46053c0,0.35555 -0.07422,0.69377 -0.20802,1c0.1338,0.30623 0.20802,0.64445 0.20802,1c0,1.38071 -1.11929,2.5 -2.5,2.5c-0.29642,0 -0.5808,-0.05159 -0.84463,-0.14628c-0.13719,0.12459 -0.28829,0.23414 -0.45069,0.32604z" fill="#a26a5d"/><path d="M287.16671,178.07036c1.86734,-1.03007 3.31611,-2.7714 5.2681,-3.63029c2.11061,-0.92868 4.76733,-0.68319 6.95671,-0.6903c0,0 0.26175,0 0.61586,0.0847l0.38414,-0.0847c3.97575,0.04462 8.12913,-1.4008 12.1177,-1.9706c4.15,-0.64957 7.98556,0.30635 12.1761,-0.02089c15.71421,-1.22712 39.78554,-5.43627 47.4868,12.96734c2.23131,4.65801 3.84465,12.19823 -0.58198,16.35845c-1.7835,1.67617 -7.06324,4.17502 -9.38728,5.03038c-12.05163,4.43557 -25.48671,5.13532 -38.31134,5.13532c-14.16181,0 -28.80107,-0.28505 -41.31433,-7.87337c-2.88266,-1.74811 -4.66852,-3.94479 -5.66139,-6.56681l-0.29205,-0.29205l0.12256,-0.12256c-0.20134,-0.1549 -0.39445,-0.32125 -0.57771,-0.50125c-0.90514,-0.88904 -0.53003,-2.48224 -0.74307,-3.73296c-0.39512,-2.31971 -0.09557,-4.817 0.72637,-7.0219l0.17363,-0.12868l-0.07775,-0.04665l1.47643,-2.46071c0.43183,-0.74893 1.24069,-1.25305 2.16731,-1.25305c0.52554,0 1.01321,0.16216 1.4157,0.43918c1.77906,-1.38495 3.83814,-2.50357 5.85949,-3.61859z" fill="#f19d8a"/><path d="M381.89152,169.24977c0,4.66646 0.17478,9.27021 -0.53228,13.90045c-0.00315,0.02065 -1.03136,5.17526 -1.0381,5.18858c-0.01551,0.03065 -0.03113,0.06123 -0.04685,0.09176l0.02104,0.00601l-0.98482,3.44685c-0.28053,1.07387 -1.25721,1.86634 -2.41899,1.86634c-1.22888,0 -2.25067,-0.88665 -2.46053,-2.05513l-0.49092,-2.45459l0.01536,-0.00307l-0.02295,-0.03652c-0.28323,-1.72646 -0.45855,-3.68052 -1.25541,-5.29044c-1.50344,-3.03745 -4.84605,-4.26123 -7.32408,-6.18975c-5.45548,-4.2457 -11.45445,-6.97052 -18.46147,-6.97052c0,0 -0.34713,0 -0.78269,-0.12935c-0.43297,0.43977 -1.10302,0.76621 -2.1283,0.59533c-2.46598,-0.411 -2.05499,-2.87698 -2.05499,-2.87698c0.12598,-0.75539 0.82823,-5.24203 1.13418,-5.99049c2.0593,-5.0378 8.26071,-9.05543 13.80458,-8.0534c2.96799,0.53645 6.43251,2.58935 8.66523,4.56626c0.72985,0.64623 1.34317,2.56096 2.13753,1.9959c0.58815,-0.41837 0.75184,-1.28783 1.34823,-1.69438c0.25005,-0.17046 4.92932,-2.02671 5.44776,-2.23408l2.42847,-0.17881c0,0 2.5,0 2.5,2.5c0,0.65286 -0.17049,1.13523 -0.42242,1.49163c3.71069,1.97206 2.92242,4.81816 2.92242,8.50837z" fill="#a26a5d"/><path d="M378.0573,196.96842c1.44112,2.16168 -0.72056,3.60279 -0.72056,3.60279l-1.66325,1.1053c-16.93244,10.14538 -34.85024,13.36026 -54.33598,13.36026c-16.38942,0 -37.4685,-3.28252 -49.64037,-15.30976c0,0 -1.83707,-1.83707 0,-3.67414c1.83707,-1.83707 3.67414,0 3.67414,0c10.9316,11.09514 31.17215,13.78789 45.96623,13.78789c18.54219,0 35.55127,-2.93865 51.66265,-12.6198l1.45436,-0.97311c0,0 2.16167,-1.44111 3.60279,0.72056z" fill="#8a5b43"/><path d="M309.78257,164.23958c0,-1.43483 1.16317,-2.59801 2.59801,-2.59801c1.43483,0 2.59801,1.16317 2.59801,2.59801c0,1.43483 -1.16317,2.59801 -2.59801,2.59801c-1.43483,0 -2.59801,-1.16317 -2.59801,-2.59801z" fill="#8a5b43"/><path d="M329.52741,162.68078c0,-1.43483 1.16317,-2.59801 2.59801,-2.59801c1.43483,0 2.59801,1.16317 2.59801,2.59801c0,1.43483 -1.16317,2.59801 -2.59801,2.59801c-1.43483,0 -2.59801,-1.16317 -2.59801,-2.59801z" fill="#8a5b43"/><path d="M300.63264,127.63593c-0.04468,0.21517 -0.08905,0.44656 -0.13273,0.68839c0.15691,0.03923 0.30794,0.09329 0.45153,0.1606c-0.10515,-0.28325 -0.21153,-0.56628 -0.3188,-0.84899zM297.18543,122.80855l-0.24536,-0.04907l0.49092,-2.45459c0.20987,-1.16847 1.23166,-2.05512 2.46053,-2.05512c0.82831,0 1.56254,0.40283 2.01746,1.02328l1.48254,1.97672l-0.09209,0.06907l0.2715,0.20612c1.58472,3.8869 6.03804,11.78986 2.74257,15.82355c-0.87773,1.07435 -2.42337,1.39759 -3.74835,1.80879c-1.26847,0.39367 -2.61867,0.68727 -3.94232,0.57799c-1.11869,-0.09236 -2.10653,-0.77622 -3.1598,-1.16433c0,0 -1.92841,-0.77136 -1.56676,-2.66563c-0.00316,-0.05145 -0.00476,-0.10332 -0.00476,-0.15556c0,-0.25848 0.03923,-0.5078 0.11205,-0.74232l0.94887,-3.32105c0.48144,-3.38936 1.12572,-6.10291 2.23298,-8.87785z" fill="#f1e0c5"/><path d="M305.97165,127.36302c1.38675,2.08013 -0.69338,3.46688 -0.69338,3.46688l-2.88675,1.41987c-1.83919,-0.00815 -3.68524,-0.19571 -5.49029,-0.54855c0,0 -2.45145,-0.49029 -1.96116,-2.94174c0.49029,-2.45145 2.94174,-1.96116 2.94174,-1.96116c1.47983,0.3041 2.99898,0.4596 4.50971,0.45145l0.11325,-0.58013c0,0 2.08013,-1.38675 3.46688,0.69338z" fill="#f2d8ad"/><path d="M341.04468,122.87444c0.67781,-2.08142 0.64476,-4.76347 2.3545,-6.13041c1.40442,-1.12283 3.81276,-0.92068 5.3939,-0.06444c1.34337,0.72749 1.62876,2.62988 2.05332,4.0974c0.27791,0.96061 -0.15934,2.01278 0,3c0.21784,1.34967 1.85037,3.39901 2.31639,4.42813c0.40628,0.89718 0.38738,1.97452 0.90422,2.81289c0.83288,1.35104 2.42043,2.19048 3.07233,3.63756c0.6195,1.37515 1.11578,3.07373 0.58752,4.48644c-0.51793,1.3851 -2.01976,2.2641 -3.35186,2.90616c-3.66625,1.76712 -12.0414,-0.45601 -15.12751,-2.91501c-0.96109,-0.7658 -1.33315,-2.06478 -1.99972,-3.09717c0,0 -0.01861,-0.03101 -0.04761,-0.08781c-0.77948,-0.4233 -1.30865,-1.24907 -1.30865,-2.19843c0,-0.24775 0.03604,-0.48708 0.10316,-0.71304l0.71228,-2.61168l0.23311,-1.16557c0,0 0.07105,-0.35524 0.29428,-0.76822l0.04656,-0.17071c0.27065,-1.0882 1.25425,-1.8946 2.4262,-1.8946c0.10324,0 0.20502,0.00626 0.30498,0.01842c0.31636,-1.19832 0.64895,-2.39174 1.03262,-3.56992z" fill="#f1e0c5"/><path d="M353.26323,129.4592c0.79057,2.37171 -1.58114,3.16228 -1.58114,3.16228l-2.29057,0.62829c-4.30804,-0.05596 -6.18512,-0.8882 -9.56174,-3.54783c0,0 -1.95217,-1.56174 -0.39043,-3.51391c1.56174,-1.95217 3.51391,-0.39043 3.51391,-0.39043c2.54944,2.07969 3.17504,2.51041 6.43826,2.45217l0.70943,-0.37171c0,0 2.37171,-0.79057 3.16228,1.58114z" fill="#f2d8ad"/><path d="M356.14152,140.74977c-2.5,0 -2.5,-2.5 -2.5,-2.5l0.17881,-0.57153c-1.41936,-3.58164 -2.82546,-6.37758 -3.57517,-10.21611c-0.62016,-1.53151 -1.10242,-3.12455 -1.84325,-4.60146c-0.82034,-1.63542 -1.82226,-4.72266 -2.49168,-6.32554c-0.67161,1.47099 -1.88034,5.02696 -2.52909,6.32554c-1.37401,2.75031 -2.59644,5.56519 -3.92991,8.3458c-0.58899,1.22818 -0.77425,2.85871 -1.90813,3.61346c-2.30348,1.53328 -6.9448,-0.12931 -9.39186,-0.61872c-5.09562,-1.01913 -9.42099,-1.50656 -14.36411,0.46375c-1.70077,0.1315 -3.48915,0.94913 -5.10231,0.3945c-1.297,-0.44593 -1.962,-1.94366 -2.7227,-3.08488c-1.95565,-2.93391 -3.13377,-6.47374 -4.60119,-9.70068c-0.52895,-1.1632 -1.28746,-2.23973 -1.90347,-3.3657c-0.57887,1.85536 -1.48613,3.87254 -1.96847,5.20145c-1.56135,4.30176 -2.52555,8.6736 -3.39602,13.13039c0,0 -0.33224,1.66121 -1.81722,1.97515c-0.36657,0.43643 -0.95134,0.78454 -1.88423,0.78454v0.00002c-2.5,0 -2.5,-2.5 -2.5,-2.5l0.04855,-1.00971c-0.86074,-4.30649 -1.47337,-8.57965 -2.95491,-12.50565c-0.00129,-0.08605 -0.01346,-0.16946 -0.03518,-0.24893l-0.24456,-0.97825l-0.12739,0.03185l-0.14621,-0.36552c-0.26085,-0.9759 -0.58812,-1.84623 -1.01639,-2.58208c-0.58766,-1.1508 -1.40243,-2.21751 -2.34545,-3.15295l-0.16088,-0.03642l0.02338,-0.04677l-0.48201,-0.24101c-0.01231,-0.00648 -0.02477,-0.01271 -0.03737,-0.01868l-0.42728,-0.21365c-2.39432,-2.31156 -5.6403,-3.3626 -8.55101,-4.82254c-1.1448,-0.38223 -5.18221,-2.13828 -6.42526,-1.57363c-0.97641,0.44353 -0.92499,1.94573 -1.22168,2.9763c-1.05301,3.65776 -1.41101,7.96573 -0.47008,11.685c1.02169,4.0385 2.76055,7.11441 5.09435,9.69245l0.1787,0.35739l0.06385,-0.03193c0.00645,0.05648 0.01289,0.11294 0.01934,0.16942l0.15569,0.07084l-0.05155,0.05155l0.75,0.75l0.13568,-0.13568l0.01444,0.01926c0.07164,0.09771 0.16061,0.18194 0.26237,0.24814c0.94822,1.12374 2.11444,2.08694 3.38405,2.77236c1.20397,0.85597 2.49091,1.6778 3.85305,2.49508c0,0 2.14373,1.28624 0.85749,3.42997c-1.28624,2.14373 -3.42997,0.85749 -3.42997,0.85749c-0.50811,-0.30487 -1.00761,-0.61211 -1.49814,-0.92263c-1.03364,-0.90944 -2.72144,-2.14274 -4.18953,-2.93915c-0.7856,-0.74687 -1.50942,-1.53903 -2.13234,-2.38196c0,0 -0.42552,-0.56736 -1.03767,-0.38814c-3.42035,-3.39959 -5.9382,-7.48092 -7.28236,-12.90923c-1.12348,-4.53704 -0.848,-9.85589 0.52992,-14.315c0.57931,-1.87471 1.89171,-5.05857 3.77832,-6.0237c2.90664,-1.48694 7.84009,0.516 10.57474,1.42637c3.59327,1.79122 7.39964,3.13052 10.31106,6.04194c1.73602,1.73602 3.08371,3.59767 4.15984,5.55746c0.04188,0.02515 0.08371,0.05051 0.12548,0.07608c0.42568,1.31511 1.08253,2.43 1.73094,3.59006c0.30884,1.40794 0.7691,2.83734 1.33694,4.11949c0.07398,0.56193 0.17687,1.13651 0.29106,1.69194c0.95077,-3.37033 1.97986,-6.72469 2.92173,-10.1589c0.42526,-1.55056 2.16888,-7.2083 4.04978,-7.33132c1.91501,-0.12525 3.19625,2.19222 4.47231,3.62561c2.92732,3.28825 4.42233,9.25033 6.57357,13.12257c0.43588,0.78458 0.68559,1.65935 1,2.5c0.11166,0.29853 -0.03825,0.8702 0.2773,0.91512c0.65735,0.09357 1.26513,-0.40367 1.89769,-0.6055c5.60539,-2.25019 10.86389,-1.69065 16.63589,-0.53625c0.0591,0.01182 4.55273,0.90597 4.75606,0.96362c0.30432,0.08629 0.63135,0.64423 0.85209,0.41766c0.32324,-0.33176 -1.80354,0.80324 -1.65813,0.36346c0.41936,-1.26835 2.73746,-4.23603 3.33379,-5.43142c1.65107,-3.3097 3.821,-7.44863 5.59928,-10.6762c1.22468,-2.22278 2.63597,-5.64926 4.1994,-5.67938c1.7278,-0.03328 2.77648,2.76833 3.70533,5.28194c0.77115,2.08685 1.96886,4.10983 2.96151,6.10087c0.12808,0.25689 2.05753,5.1479 2.15675,5.39854c0.23736,1.16396 0.52245,2.21292 0.84529,3.21171c0.02049,-0.09256 0.04112,-0.18502 0.06188,-0.27739c-0.02373,0.03144 -0.04737,0.06286 -0.07094,0.09427c0.20027,-0.85295 0.40094,-1.81413 0.52295,-2.74092c0.56784,-1.28215 1.0281,-2.71155 1.33694,-4.11949c0.64842,-1.16006 1.30526,-2.27495 1.73094,-3.59006c0.04177,-0.02557 0.0836,-0.05093 0.12548,-0.07608c1.07612,-1.95979 2.42382,-3.82144 4.15984,-5.55746c2.91142,-2.91142 6.71778,-4.25071 10.31105,-6.04194c2.73465,-0.91037 7.66811,-2.91331 10.57475,-1.42637c1.88662,0.96513 3.19901,4.14899 3.77832,6.0237c1.37792,4.4591 1.65339,9.77796 0.52992,14.315c-1.34417,5.42831 -3.86201,9.50964 -7.28236,12.90923c-0.61214,-0.17922 -1.03767,0.38814 -1.03767,0.38814c-0.62291,0.84293 -1.34674,1.63508 -2.13234,2.38196c-1.46809,0.79641 -3.15589,2.02971 -4.18953,2.93915c-0.49054,0.31052 -0.99004,0.61776 -1.49815,0.92263c0,0 -2.14373,1.28624 -3.42997,-0.85749c-1.28624,-2.14373 0.85749,-3.42997 0.85749,-3.42997c1.36214,-0.81728 2.64909,-1.63911 3.85305,-2.49508c1.26961,-0.68542 2.43583,-1.64862 3.38405,-2.77236c0.10177,-0.0662 0.19073,-0.15043 0.26238,-0.24814l0.01444,-0.01926l0.13567,0.13568l0.75,-0.75l-0.05155,-0.05155l0.15569,-0.07084c0.00644,-0.05648 0.0129,-0.11294 0.01934,-0.16942l0.06384,0.03193l0.1787,-0.35739c2.3338,-2.57805 4.07265,-5.65395 5.09434,-9.69245c0.94093,-3.71927 0.58293,-8.02724 -0.47008,-11.685c-0.29669,-1.03057 -0.24527,-2.53277 -1.22168,-2.9763c-1.24304,-0.56465 -5.28046,1.19141 -6.42525,1.57363c-2.91071,1.45994 -6.15669,2.51098 -8.55101,4.82254l-0.42728,0.21365c-0.01261,0.00598 -0.02506,0.0122 -0.03737,0.01868l-0.48201,0.24101l0.02339,0.04677l-0.16088,0.03642c-0.94302,0.93544 -1.75779,2.00215 -2.34546,3.15295c-0.42827,0.73585 -0.75553,1.60618 -1.01638,2.58208l-0.14621,0.36552l-0.12739,-0.03185l-0.24456,0.97825c-0.02172,0.07947 -0.03388,0.16288 -0.03518,0.24893c-1.48154,3.926 -2.09418,8.19916 -2.95492,12.50565l0.04855,1.00971c0,0 0,1.89679 -1.6522,2.386c-0.3701,0.35315 -0.91678,0.61398 -1.72429,0.61398z" fill="#8a5b43"/><path d="M304.04731,137.82442c2.24666,-0.60634 2.80833,1.81902 2.80833,1.81902l0.48733,3.09663c-0.81279,3.97311 -2.00623,5.39774 -5.03089,7.79198c-2.40256,0.55893 -7.26205,-0.26755 -9.31756,1.24584c-1.58869,1.16968 -2.18245,4.54359 -3.04053,6.19671c-1.01415,1.95379 -3.11287,5.32527 -4.46758,6.94953c-1.4881,1.7842 -3.33915,2.42309 -5.23694,3.51717c-0.95002,0.54769 -1.77807,1.39235 -2.81203,1.71777c-5.31702,1.67347 -9.8189,-1.3223 -13.37157,-5.14152c0,0 -1.63752,-1.76776 0,-3.53553c1.63752,-1.76776 3.27504,0 3.27504,0c1.29373,1.40327 2.84525,3.47383 4.82152,3.81287c6.16181,1.05712 11.01027,-4.3833 13.75388,-9.76993c1.25632,-2.46657 2.00917,-6.12208 4.37006,-7.80329c3.15232,-2.2448 6.70081,-1.12167 10.13523,-1.75416c1.63629,-1.3897 2.02822,-1.9486 2.3797,-4.20802l-0.43899,-0.90337c0,0 -0.56167,-2.42535 1.685,-3.03169z" fill="#a26a5d"/><path d="M312.15929,132.982c1.76777,1.76777 0,3.53553 0,3.53553l-1.5,1.5c-1.99472,1.979 -3.03838,3.30351 -5.81106,4.54193c-4.84497,2.16401 -10.54143,0.08033 -14.45671,-2.8097c0,0 -2,-1.5 -0.5,-3.5c1.5,-2 3.5,-0.5 3.5,-0.5c4.96945,3.80482 9.47667,3.02809 13.73223,-1.26777l1.5,-1.5c0,0 1.76777,-1.76777 3.53553,0z" fill="#8a5b43"/><path d="M380.39152,158.24977c0,2.5 -2.5,2.5 -2.5,2.5h-0.5c-4.11609,-0.09159 -6.63049,1.82277 -9,5c0,0 -1.5,2 -3.5,0.5c-2,-1.5 -0.5,-3.5 -0.5,-3.5c3.4048,-4.51758 7.26274,-6.91294 13,-7h0.5c0,0 2.5,0 2.5,2.5z" fill="#a26a5d"/><path d="M357.65928,136.982c1.76777,1.76777 0,3.53553 0,3.53553l-2.33929,2.05342c-5.91142,2.34002 -12.81402,2.18785 -17.69624,-2.55342c-0.14938,-0.14507 -2.99134,-3.94658 -3.23223,-4.26777c0,0 -1.5,-2 0.5,-3.5c2,-1.5 3.5,0.5 3.5,0.5c0.9293,1.23907 1.69805,2.61214 2.76777,3.73223c3.28821,3.44307 8.37908,3.03583 12.30376,1.44658l0.66071,-0.94658c0,0 1.76777,-1.76777 3.53553,0z" fill="#8a5b43"/><path d="M372.50476,201.3299c-2.08013,-1.38675 -0.69338,-3.46688 -0.69338,-3.46688l0.58013,-0.11325c0,-5.62689 0.25086,-11.79452 -4.03853,-16.02949c-3.94209,-2.3292 -8.02284,-5.04161 -12.32525,-6.62448c-9.68874,-3.56453 -20.04582,-1.66444 -29.93002,-0.85455c-4.87742,0.39964 -9.6525,-0.19441 -14.52898,0.50223c-4.60779,0.00912 -8.18338,0.55928 -12.69664,1.45966c-5.19844,1.03707 -10.13913,1.44098 -14.53665,4.58748c-2.27837,1.63021 -5.95561,3.80338 -7.16167,6.47958c-1.37003,3.04005 0.28777,7.65602 1.86147,10.19334c0,0 1.28624,2.14373 -0.85749,3.42997c-0.48651,0.29191 -0.92885,0.40715 -1.32202,0.41089c-0.06,0.07097 -0.12536,0.14206 -0.19645,0.21314c-1.76777,1.76777 -3.53553,0 -3.53553,0l-0.68441,-0.70603c-2.3166,-2.89631 -4.82413,-5.61127 -7.04783,-8.56174c-1.67591,-2.24044 -3.88623,-4.99466 -4.84604,-7.63622c-0.27857,-0.76669 -1.01789,-6.22888 -1.12884,-7.01023c-1.89593,-13.35172 3.87403,-27.89099 15.68863,-34.99729c0,0 2.14373,-1.28624 3.42997,0.85749c1.28624,2.14373 -0.85749,3.42997 -0.85749,3.42997c-10.11402,6.05203 -14.9447,18.64171 -13.31137,30.00271c0.28711,1.99706 0.18099,4.09389 0.87116,5.98977c0.79772,2.19131 2.76072,4.51153 4.15396,6.36378c0.88805,1.19077 1.83074,2.34183 2.79081,3.48139c-0.87858,-6.50344 1.80286,-10.27206 7.17814,-14.45772c3.42299,-2.66543 7.15855,-4.65827 11.28564,-5.90996c0.67622,-0.20509 6.3478,-0.8832 7.26483,-1.06709c4.65585,-0.93361 8.54408,-1.55094 13.30336,-1.54034c4.85897,-0.69414 9.61984,-0.08625 14.47102,-0.49777c10.66672,-0.90485 21.62058,-2.6193 32.06998,1.14545c4.78668,1.72456 9.34406,4.74342 13.67475,7.37552c4.04991,4.08108 5.36069,8.7803 5.77554,13.92264c2.57435,-5.95087 3.67637,-12.44646 3.68593,-18.95212c0.00346,-2.35596 0.08743,-5.35807 -0.8318,-7.59851c-2.06458,-5.03199 -4.60822,-10.65031 -7.40781,-15.29058c-0.57307,-1.455 -1.30973,-2.86926 -2.26038,-4.11091l-0.26777,-0.23223c0,0 -1.76777,-1.76777 0,-3.53553c1.76777,-1.76777 3.53553,0 3.53553,0l0.73223,0.76777c1.10943,1.503 2.03746,3.15795 2.73962,4.88909c2.8383,4.7555 5.562,10.53181 7.59219,15.70942c1.12319,2.86448 1.16406,6.3879 1.1682,9.40149c0.01268,9.23626 -2.11309,18.29638 -6.85627,26.28624c0,0 -1.05096,1.75159 -2.83621,1.13819l-0.2274,0.46233c0,0 -1.38675,2.08013 -3.46688,0.69338z" fill="#8a5b43"/><path d="M363.95408,142.80687c3.10953,0.70143 5.75267,2.55 5.41584,6.2707c-0.57671,6.37041 -10.39973,6.53866 -12.9063,1.48299c-2.78691,-0.26407 -5.54755,-0.87318 -3.15224,-6.19754c0.63183,-1.40445 2.82749,-1.2805 4.33378,-1.60108c0.48679,-0.1036 1.02033,-0.18367 1.58303,-0.23512c0.58272,-0.19392 1.20011,-0.34493 1.73485,-0.59824c0,0 1.9509,-0.78036 2.99105,0.87829z" fill="#a26a5d"/><path d="M272.45056,125.08609c0.07611,-0.23006 0.19312,-0.4715 0.36083,-0.72307c1.38675,-2.08013 3.46688,-0.69338 3.46688,-0.69338l2.11325,1.58013c0.41211,0.54948 3.3269,4.38175 3.37171,4.70943c0.67505,4.93603 -0.85106,7.56387 -6.31183,4.83411c-2.02307,-1.0113 -2.94456,-5.57628 -3.46369,-7.35674c0,0 -0.39509,-1.38281 0.46285,-2.35048z" fill="#c2a19a"/><path d="M371.69855,124.82326c0.2065,-0.04719 0.43658,-0.07349 0.69297,-0.07349c2.5,0 2.5,2.5 2.5,2.5l-0.04855,0.99029c-0.71122,3.41938 -2.98604,11.64713 -9.10595,7.8839c-1.42617,-0.87697 -0.47346,-3.35507 -0.26175,-5.01586c0.48596,-3.81206 1.3496,-3.78903 3.91625,-5.85833c0,0 1.11668,-0.83751 2.30703,-0.42651z" fill="#c2a19a"/><path d="M311.79905,185.57613c0.83516,4.88059 3.36822,12.65959 -3.13098,15.54998c-4.06406,1.8074 -6.00012,-2.87225 -6.69175,-5.23073c-1.39404,-4.75372 -0.67634,-9.60178 1.09401,-14.07408c0,0 0.92847,-2.32119 3.24966,-1.39272c0.61552,0.24621 1.00254,0.59035 1.23895,0.96318c0.26044,-0.09196 0.54066,-0.14199 0.83257,-0.14199c1.0731,0 1.98829,0.67611 2.34282,1.62559l0.97837,2.44594l-0.08516,0.03406z" fill="#e69583"/><path d="M336.80823,178.91245c1.15885,-0.03432 2.56608,0.81149 4.20992,3.02299c3.50928,4.72113 3.48285,17.83452 -4.36772,18.80089c-4.48529,0.55211 -5.2593,-2.77077 -6.16819,-5.81922c-0.85212,-2.85803 -2.06322,-8.76535 -0.99383,-11.85654c0.58926,-1.70331 1.85542,-3.09053 2.78313,-4.63579c0,0 1.325,-2.11999 3.44499,-0.795c0.615,0.38438 0.94009,0.83565 1.09171,1.28267z" fill="#e69583"/><path d="M365.0461,161.62189c0.46852,0.95768 1.0895,1.91172 0.83196,2.88678c-0.51952,1.96692 -1.62056,4.16747 -3.46613,5.02336c-1.25915,0.58393 -2.5549,0.63291 -3.76811,0.30577c-0.38897,0.00042 -0.78706,-0.04029 -1.19126,-0.12687c-4.33375,-0.92826 -6.85095,-6.51824 -3.32882,-10.22893c0.70098,-0.7385 1.68208,-1.10549 2.74797,-1.25482c0.41235,-0.18511 0.87597,-0.32097 1.39269,-0.39748c4.16872,-0.61724 6.51345,1.15972 6.7817,3.79219z" fill="#d5a79d"/><path d="M287.19598,158.27516c0.95249,-0.23541 1.89508,-0.26685 2.71464,-0.01256c1.65642,-0.41276 2.62463,1.20093 2.62463,1.20093l1.76556,3.11891c-0.08234,1.64072 0.68439,3.56892 -0.24701,4.92215c-0.72833,1.05819 -1.70416,1.84338 -2.7934,2.36464c-0.51044,0.40641 -1.15824,0.57588 -1.8546,0.6174c-0.1977,0.03997 -0.39656,0.07257 -0.59592,0.09786c-0.0634,0.02165 -0.12801,0.04104 -0.1939,0.05801c-0.3151,0.08113 -0.63174,0.1046 -0.94947,0.08755c-0.76194,0.0976 -1.53315,-0.04102 -2.25487,-0.43623c-0.43788,-0.13873 -0.85747,-0.31761 -1.25007,-0.53606c-0.12303,-0.03229 -0.24597,-0.06129 -0.3688,-0.08601c-0.02611,-0.06374 -0.05357,-0.12727 -0.08221,-0.19063c-1.36617,-0.92146 -2.31748,-2.37928 -2.4157,-4.34381c-0.49734,-2.2493 0.09564,-4.74953 2.13488,-6.41565c0.9826,-0.80282 2.43901,-0.46983 3.76623,-0.4465z" fill="#d5a79d"/></g><path d="M110.20498,218.5019c0.99601,0.71517 0.99601,2.06877 0.99601,2.06877c0,4.05012 0.66214,8.76056 -0.01217,12.74634c-0.22596,1.3356 -0.16722,2.93905 -1.11364,3.90816c-3.4275,3.5097 -12.41613,1.83496 -16.09901,-0.47509c-1.11633,-0.70021 -2.50743,-1.34374 -3.01126,-2.56138c-1.96816,-4.75662 1.27893,-8.11159 3.68349,-11.54524c1.56651,-2.23693 1.62277,-3.57899 4.17635,-5.1599c0.47047,-0.29127 0.98045,-0.50177 1.50569,-0.68108c0.06807,-0.21705 0.13447,-0.34985 0.13447,-0.34985l0.41488,-0.81044c2.09377,-5.23444 4.15815,-10.40102 7.93256,-14.70953c6.56407,-7.49291 17.77142,-12.8503 27.39834,-14.81345c0,0 2.45145,-0.49029 2.94174,1.96116c0.49029,2.45145 -1.96116,2.94174 -1.96116,2.94174c-8.49203,1.6586 -18.82169,6.57082 -24.60166,13.18655c-2.60786,2.98494 -4.25944,6.42555 -5.73895,9.99565c1.94564,-3.12468 4.01316,-6.33204 6.58255,-8.90143c6.44413,-6.44413 15.01515,-9.78326 23.4772,-12.60394c0,0 2.37171,-0.79057 3.16228,1.58114c0.79057,2.37171 -1.58114,3.16228 -1.58114,3.16228c-7.71509,2.5717 -15.63886,5.51211 -21.5228,11.39606c-2.72598,2.72598 -4.81848,6.29969 -6.8463,9.57239c0.02806,0.02934 0.05561,0.05969 0.08252,0.09108zM106.20041,222.21726l-1.14109,-0.23034c-0.76163,-0.30578 -1.52326,-0.61155 -2.2849,-0.91733c-2.65884,1.30628 -4.35917,4.45233 -5.9676,6.84846c-0.48632,0.72448 -1.78169,2.86587 -1.36977,4.03458c0.35649,1.01144 1.94573,0.92499 2.9763,1.22168c1.40932,0.40572 6.55735,1.9693 7.91344,0.74185c0.82736,-0.74888 -0.12295,-2.22954 -0.1258,-3.34549c-0.00713,-2.78442 -0.00235,-5.56895 -0.00058,-8.35341z" data-paper-data="{&quot;index&quot;:null}" fill="#8a5b43"/><path d="M106.24482,230.59472c0.00286,1.11595 0.9419,2.6105 0.11453,3.35938c-1.35608,1.22745 -6.5582,-0.32894 -7.96752,-0.73466c-1.03057,-0.29668 -2.63813,-0.22515 -2.99462,-1.23659c-0.41192,-1.16871 0.87334,-3.33801 1.35966,-4.06249c1.60842,-2.39613 3.3715,-5.59283 6.03035,-6.8991c0.76163,0.30578 1.53928,0.61903 2.30092,0.92481l1.14655,0.2348c-0.00177,2.78446 0.003,5.62943 0.01013,8.41385z" data-paper-data="{&quot;noHover&quot;:false,&quot;origItem&quot;:[&quot;Path&quot;,{&quot;applyMatrix&quot;:true,&quot;segments&quot;:[[[24.87139,239.21749],[-0.00177,2.78446],[0,0]],[[23.7303,238.98715],[0,0],[-0.76163,-0.30578]],[[21.4454,238.06982],[0.76163,0.30578],[-2.65884,1.30628]],[[15.47781,244.91828],[1.60842,-2.39613],[-0.48632,0.72448]],[[14.10804,248.95287],[-0.41192,-1.16871],[0.35649,1.01144]],[[17.08433,250.17454],[-1.03057,-0.29668],[1.40932,0.40572]],[[24.99777,250.91639],[-1.35608,1.22745],[0.82736,-0.74888]],[[24.87197,247.5709],[0.00286,1.11595],[-0.00713,-2.78442]]],&quot;closed&quot;:true}]}" fill="#a26a5d"/><g><path d="M266.58889,243.23241c-0.56771,-0.93817 -0.81061,-2.26308 0.14914,-3.02531c0.63544,-0.50466 5.76745,-1.0865 6.99579,-1.23186c7.11748,-0.84224 14.79192,-1.30898 22.07438,-1.30898c5.89722,0 18.30149,-3.6324 24.16667,-3.57519c3.23449,0.03155 -1.73066,0.90186 0.44835,2.54368c1.07075,0.80678 0.88115,2.50233 0.88498,3.43636c0.01459,3.5568 -1.72241,10.60091 -9.99934,11.68768c-6.21473,0.816 -9.98985,0.28598 -13.47699,-1.95974c-0.16264,-0.11194 -1.76836,-1.21398 -2.64364,-1.82455c-0.46819,-0.01142 -0.90268,-0.08934 -1.26882,-0.21586c-0.54918,0.51366 -1.2545,0.9629 -1.48458,1.15406c-2.30679,1.91652 -5.24973,3.73187 -9.97128,3.96562c-1.65658,0.08202 -4.80442,-0.53367 -6.26625,-0.90639c-0.49759,-0.12687 -5.52918,-1.7147 -5.7234,-1.82821c-3.151,-1.84175 -3.18036,-4.56551 -3.88501,-6.9113z" fill="#f3f1f0"/><path d="M150.54469,233.64969c0.52308,0.09053 1.04434,0.17836 1.50983,0.17458c4.1241,-0.0335 7.42564,0.19853 11.35629,1.25322c1.94329,0.25993 5.69753,0.59222 7.11245,1.69126c3.16048,2.45494 1.4128,5.62326 0.10611,8.22411c-2.81793,5.60883 -11.1161,9.90306 -18.34191,5.66268c-0.85467,-0.50155 -1.334,-1.32009 -1.97928,-1.99378c-1.9779,-2.06495 -2.81992,-3.89003 -3.45145,-6.42823c-0.45029,-1.80978 -0.57567,-3.38184 -0.39043,-5.05198c-0.04571,-0.71416 0.05465,-1.41932 0.37502,-2.09173c0.00509,-0.02119 0.01023,-0.04243 0.01541,-0.06369c0,0 0.49029,-1.96742 2.94174,-1.57394c0.28731,0.04611 0.53421,0.11385 0.74622,0.1975z" fill="#f3f1f0"/><path d="M321.14153,230.49977c2.5,0 2.5,2.5 2.5,2.5v0.5c-0.01671,3.77134 -0.55644,8.23569 -2.28555,11.66026c-3.9212,7.76611 -14.74141,11.91355 -22.43926,7.51915c-2.45012,-1.39868 -4.14299,-3.70457 -5.13865,-6.30222c-4.97292,9.38468 -17.0724,11.22248 -24.9043,3.39058c-3.51798,-3.51798 -3.27263,-6.84411 -4.18369,-11.27747c0,0 -0.49029,-2.45145 1.96116,-2.94174c2.45145,-0.49029 2.94174,1.96116 2.94174,1.96116c0.67244,3.44 0.14449,6.0507 2.81631,8.72253c5.55566,5.55566 14.57882,4.42819 17.41105,-3.16071l0.92379,-0.75793c0.04014,-0.1519 0.07621,-0.24207 0.07621,-0.24207c0.30124,-0.74393 0.60249,-1.48786 0.90373,-2.23179l0.45692,-2.28461c0.20986,-1.16847 1.23165,-2.05512 2.46053,-2.05512c1.22888,0 2.25067,0.88665 2.46053,2.05512l0.49092,2.45459l-0.01594,0.00319c0.00962,0.02162 0.01915,0.0433 0.0286,0.06502c1.11471,2.56366 0.40435,4.90269 2.39238,7.24773c4.57103,5.39191 14.42867,0.58952 16.92906,-4.48591c1.33436,-2.70857 1.73045,-6.37596 1.71445,-9.33974v-0.5c0,0 0,-2.5 2.5,-2.5z" fill="#8a5b43"/><path d="M172.63182,234.54832c2.45145,0.49029 1.96116,2.94174 1.96116,2.94174l-0.49241,2.46041c-0.63148,3.6903 -1.48973,6.85104 -4.11629,9.73876c-5.95733,6.54969 -16.33814,4.05066 -21.68549,-2c-3.40503,-3.85288 -4.02222,-8.5438 -4.13317,-13.34107c-0.01587,-0.11385 -0.02408,-0.23016 -0.02408,-0.34839c0,-0.08546 0.00429,-0.16992 0.01266,-0.25317c-0.01131,-0.74802 -0.01266,-1.49788 -0.01266,-2.24683c0,0 0,-2.5 2.5,-2.5c2.5,0 2.5,2.5 2.5,2.5c0,0.73955 -0.00986,1.50162 -0.01007,2.27408c0.00666,0.07441 0.01007,0.14977 0.01007,0.22592c0,0.07205 -0.00304,0.14338 -0.00902,0.21389c0.01916,3.59325 0.32429,7.36018 2.85177,10.09665c3.43183,3.7156 10.35729,6.46798 14.31451,2c1.95185,-2.20378 2.43361,-4.47422 2.88371,-7.26124l0.50759,-2.53959c0,0 0.49029,-2.45145 2.94174,-1.96116z" fill="#8a5b43"/></g><path d="M321.37801,230.49978c2.5,0 2.5,2.5 2.5,2.5v0.5c-0.01671,3.77134 -0.55644,8.23569 -2.28555,11.66026c-3.9212,7.76611 -14.74141,11.91355 -22.43926,7.51915c-2.45012,-1.39868 -4.14299,-2.28569 -5.13865,-4.88334c-4.97292,9.38468 -17.0724,9.8036 -24.9043,1.9717c-3.51798,-3.51798 -3.27263,-6.84411 -4.18369,-11.27747c0,0 -0.49029,-2.45145 1.96116,-2.94174c2.45145,-0.49029 2.94174,1.96116 2.94174,1.96116c0.67244,3.44 0.14449,6.0507 2.81631,8.72253c5.55566,5.55566 14.57882,4.42819 17.41105,-3.16071l0.92379,-0.75793c0.04014,-0.1519 0.07621,-0.24207 0.07621,-0.24207c0.30124,-0.74393 0.60249,-1.48786 0.90373,-2.23179l0.45692,-2.28461c0.20986,-1.16847 1.23165,-2.05512 2.46053,-2.05512c1.22888,0 2.25067,0.88665 2.46053,2.05512l0.49092,2.45459l-0.01594,0.00319c0.00962,0.02162 0.01915,0.0433 0.0286,0.06502c1.11471,2.56366 0.40435,4.90269 2.39238,7.24773c4.57103,5.39191 14.42867,0.58952 16.92906,-4.48591c1.33436,-2.70857 1.73045,-6.37596 1.71445,-9.33974v-0.5c0,0 0,-2.5 2.5,-2.5z" fill="#8a5b43"/></g></g></svg>