<svg version="1.1" xmlns="http://www.w3.org/2000/svg" xmlns:xlink="http://www.w3.org/1999/xlink" width="198.2009" height="170.68473" viewBox="0,0,198.2009,170.68473"><g transform="translate(-140.89955,-94.65764)"><g data-paper-data="{&quot;isPaintingLayer&quot;:true}" fill-rule="nonzero" stroke-linecap="butt" stroke-linejoin="miter" stroke-miterlimit="10" stroke-dasharray="" stroke-dashoffset="0" style="mix-blend-mode: normal"><path d="M152.17653,255.08121c-10.65336,-8.97425 -13.06515,-135.15631 1,-149.33333c8.74471,-8.81426 163.8354,-13.82247 176.66667,0c7.85128,8.45779 10.22314,138.74158 -0.33333,149c-12.28894,11.94197 -166.47674,9.47878 -177.33333,0.33333z" fill="#ecdcc8" stroke="#8a5b43" stroke-width="5"/><path d="M158.60631,241.43992c-0.71084,-1.86713 -1.27785,-3.80297 -1.66375,-5.77058l-0.48364,-1.9991c0,0 -0.22,-0.915 0.12707,-1.79023c-0.71186,-2.88342 -1.20167,-5.92536 -1.72536,-9.24558c-0.01627,-6.36497 0.08147,-12.9501 1.04479,-19.21336c1.10039,-7.15447 6.41714,-13.11945 7.65407,-20.1613c1.19463,-6.80104 -1.53229,-14.22121 -5.35451,-19.56631c-1.63936,-4.96519 -4.00928,-9.91966 -4.84724,-15.10844c-2.16031,-13.37701 1.92036,-31.5922 14.83423,-37.39738c0,0 0.83489,-0.34723 1.71164,-0.11406c6.39031,-2.19616 14.35777,-2.70645 20.77204,-1.05857c5.7921,1.48804 11.23409,4.63335 16.69003,7.02099c3.38333,1.48062 7.02723,2.17397 10.46633,3.62197c7.69223,1.60642 11.92582,-3.9106 17.68177,-8.09821c10.46411,-7.61291 27.94826,-9.41954 38.46076,-1.22168c4.6119,1.86753 9.23735,3.96101 14.31703,3.38666c3.56213,-0.40277 6.6732,-2.26471 10.20542,-2.65281c8.60145,-0.94508 17.68739,3.12934 19.59567,12.74944c0.62414,3.14647 0.04518,7.10577 0.03362,10.31315c-0.83399,4.43605 -1.89399,8.71055 -1.53081,13.27177c0.37516,4.71168 3.5952,8.33623 5.40149,12.43868c4.91046,11.1526 6.53578,23.38778 2.10932,34.89395c-2.18464,6.77846 -4.57738,12.15136 -3.93892,19.51801c0.43828,5.05691 2.33086,10.49441 0.34391,15.56208c-2.17904,5.5576 -7.34537,11.17668 -12.34857,14.07054c-2.66655,1.54233 -5.87241,2.51812 -8.62532,3.92407c-4.97825,0.89105 -10.50004,1.03215 -15.48527,0.09578c-1.85691,-0.34878 -3.57686,-1.38854 -5.4557,-1.57034c-3.57531,-0.34594 -7.1487,-0.68051 -10.71569,-1.06112c-10.22807,-1.09137 -18.85558,3.30897 -28.58265,5.30561c-5.10504,0 -9.60773,0.83955 -14.71621,-0.61577c-3.08972,-0.88021 -5.92111,-2.58979 -8.83539,-3.95246c-3.47391,-0.31249 -6.62681,0.58855 -10.08117,1.7922c-10.47639,3.61337 -23.23474,6.67013 -34.19116,3.20952c-4.76046,-1.5036 -9.44393,-4.70413 -11.77252,-9.21344c-0.76301,-0.4999 -1.09531,-1.36369 -1.09531,-1.36369z" fill="#ab8a78" stroke="none" stroke-width="0.5"/><path d="M201.18421,237.20943c0.79057,2.37171 -1.58114,3.16228 -1.58114,3.16228l-2.70157,0.59428c-4.26395,-0.72984 -8.57675,-1.90821 -12.089,-4.46598c-5.43132,-4.14871 -7.93575,-10.57435 -7.90974,-17.10517c-1.65786,-0.85435 -3.14846,-1.91305 -4.35803,-3.12707c-6.58687,-6.61109 -7.21537,-17.95262 -4.05342,-26.19624c0,0 0.92848,-2.32119 3.24967,-1.39272c2.32119,0.92848 1.39272,3.24967 1.39272,3.24967c-2.62043,6.18367 -2.1073,15.77663 2.94658,20.80376c0.44052,0.43819 0.91869,0.84496 1.42683,1.21775c0.24606,-1.12247 0.56608,-2.22963 0.95794,-3.30987c2.01901,-5.56579 4.46101,-10.92514 10.53612,-13.00479c1.13363,-0.38807 2.34734,-0.74099 3.53991,-0.62485c8.75019,0.85221 8.58126,10.30388 6.58113,16.44624c-0.62184,1.205 -1.00935,2.56348 -1.86553,3.61499c-3.63455,4.46373 -9.73398,5.41886 -15.30395,4.15589c0.35698,4.3843 2.1793,8.57878 5.85979,11.27242c2.69179,2.1056 6.55116,2.99206 9.911,3.53402l0.29843,-0.40572c0,0 2.37171,-0.79057 3.16228,1.58114zM182.16439,216.18577c4.75546,1.30678 10.05523,0.15751 12.33841,-4.64247c0.96413,-2.79826 1.93615,-11.52711 -3.87896,-9.17861c-0.81035,0.32727 -1.63595,0.65891 -2.34957,1.16342c-2.91104,2.05808 -3.97082,5.69561 -5.11431,8.83179c-0.44562,1.22217 -0.78114,2.50967 -0.99557,3.82587z" fill="#ffffff" stroke="none" stroke-width="0.5"/><path d="M247.69925,221.41987c2.08013,1.38675 0.69338,3.46688 0.69338,3.46688l-3.49112,2.57923c-7.70326,-1.30262 -12.65456,-4.98801 -18.05952,-10.42745c-1.65385,-2.72554 -3.59813,-5.11328 -4.83919,-8.08182c-1.52962,-3.65878 -2.37606,-7.61305 -2.55743,-11.61035c-11.51394,-3.83336 -19.01296,-15.26488 -19.12658,-27.16913c-0.02175,-0.15228 -0.04261,-0.30374 -0.06258,-0.45446c-0.46342,-0.07476 -0.95758,-0.16822 -1.49673,-0.2847c-3.6567,-0.79002 -6.84142,-2.79026 -9.86709,-4.88057c-2.29178,-1.5833 -4.87424,-2.82384 -6.84766,-4.78973c-0.93581,-0.93224 -1.44025,-2.21728 -2.23542,-3.27203c-4.48492,-5.94898 -8.40522,-13.13458 -8.98829,-20.78953c-0.34307,-4.50399 0.66301,-9.29698 1.54003,-13.69649c0,0 0.49029,-2.45145 2.94174,-1.96116c2.45145,0.49029 1.96116,2.94174 1.96116,2.94174c-0.78702,3.92126 -1.77302,8.2836 -1.45997,12.30351c1.03472,13.28682 11.4048,25.55358 24.11807,28.85672c0.02815,-1.62956 0.16863,-3.26783 0.41659,-5.01114c0.51835,-3.64425 0.72528,-7.15518 2.16416,-10.59609c1.03244,-2.46897 2.14439,-4.44365 4.06976,-6.33845c4.66701,-4.59293 10.73798,-3.49661 14.31011,1.89359c3.75476,5.66579 2.30195,15.43534 -2.3024,20.16934c-3.24649,3.3379 -7.09225,4.61639 -11.46231,5.7135c-0.66352,0.00233 -1.25886,0.01106 -1.81309,0.01795c-0.03608,9.39019 5.60255,18.37697 14.28716,22.05419c0.42667,-4.23251 1.59417,-8.38802 3.48086,-12.16432c3.07945,-6.16369 13.06483,-14.67673 19.64293,-7.51002c1.32057,1.43874 1.71939,4.5436 2.08452,6.37458c-0.04799,7.50761 -3.64464,17.19714 -11.91345,19.17947c-0.34004,0.08152 -6.20144,0.06818 -7.07438,0.06688c-0.43945,-0.00066 -0.85617,0.00379 -1.25885,0.00613c0.1645,3.00085 0.81088,6.00598 2.06855,9.03717c1.05001,2.53068 2.77403,4.57712 4.16081,6.91818c4.5218,4.48645 8.54894,7.52496 14.94048,8.57255l-1.49112,-0.42077c0,0 1.38675,-2.08013 3.46688,-0.69338zM224.70252,193.01361c0.37311,-0.00511 0.74408,-0.01302 1.10998,-0.01361c1.97533,-0.00318 3.99532,0.48625 5.92562,0.06688c5.54315,-1.20429 8.13891,-8.99621 8.08655,-13.82053c-0.07306,-0.36376 -0.55697,-3.15919 -0.91548,-3.62542c-1.26067,-1.63945 -3.95168,-0.23345 -5.23679,0.22654c-3.60085,1.28887 -5.8223,4.89831 -6.99431,8.46123c-0.96111,2.92178 -1.65801,5.81696 -1.97557,8.70492zM204.87907,164.95998c0.54038,0.03649 1.0832,0.05625 1.62797,0.05874c6.20867,-1.54321 10.239,-4.49365 11.33774,-10.91919c0.5411,-3.16439 -0.41473,-9.70705 -4.7095,-10.10583c-2.775,-0.25767 -5.24858,4.61967 -6.01308,6.463c-1.80072,4.34181 -2.41252,9.57913 -2.24313,14.50328z" fill="#ffffff" stroke="none" stroke-width="0.5"/><path d="M304.15796,223.5504c0.36805,-0.32044 0.89631,-0.5504 1.65454,-0.5504c2.5,0 2.5,2.5 2.5,2.5l-2.99029,3.45145c-5.04867,-1.00973 -9.21856,-2.76923 -13.71273,-5.25994c-1.11755,-0.61935 -2.45905,-0.90651 -3.39885,-1.77214c-4.83652,-4.45482 -6.32257,-10.8101 -7.83723,-16.87091c-0.53283,-2.66545 -0.93835,-5.76281 -0.96185,-8.8994c-0.78781,-0.30331 -1.5352,-0.61461 -2.22834,-0.91866c-1.34174,-0.7854 -2.81461,-1.38074 -4.02522,-2.35621c-0.20003,-0.16117 -3.03724,-3.95912 -3.34549,-4.3742c-4.6304,-6.23501 -5.22883,-13.93038 -3.91476,-21.34703c-10.03798,-4.74135 -16.52855,-12.45909 -20.8831,-22.66817c-2.01103,-4.71479 -3.77599,-9.49203 -2.02333,-14.41327c0,0 0.92848,-2.32119 3.24967,-1.39272c2.32119,0.92848 1.39272,3.24967 1.39272,3.24967c-1.47431,3.03859 0.68239,7.58278 1.97667,10.58673c3.8256,8.87898 9.05309,15.27065 17.46253,19.61781c0.55224,-1.91352 1.20539,-3.77927 1.91965,-5.56457c1.89767,-4.74324 4.59065,-10.10055 9.86325,-11.87815c1.51666,-0.51132 3.16259,-0.84072 4.75426,-0.67253c7.93148,0.83811 7.55803,10.48366 6.03238,15.88854c-1.17116,2.33749 -2.08026,4.77131 -4.20491,6.4935c-4.19232,3.39821 -9.6492,3.8435 -14.64615,2.5761c-1.17569,8.51923 0.5099,17.29545 8.6504,21.79368c0.10829,0.0489 0.21947,0.0986 0.33337,0.14893c0.46227,-2.92346 1.404,-5.68201 3.04785,-7.93243c0.86562,-1.18502 4.92778,-3.82352 6.15262,-4.59862c3.52598,-2.2313 7.23324,-4.27324 11.26679,-1.43816c7.29652,5.12852 1.3948,17.2217 -4.88787,20.32316c-3.19298,1.57623 -7.17886,1.35187 -10.93165,0.45733c0.13453,2.24543 0.46574,4.40798 0.82869,6.22173c1.20844,4.83191 2.25965,10.57471 6.16277,14.12909c0.7089,0.64556 1.75574,0.77558 2.60115,1.22786c3.43816,1.83937 6.53593,3.28422 10.14243,4.24192zM284.52009,192.66425c3.02718,0.86616 6.36399,1.28243 8.75036,0.06328c3.21073,-1.6403 4.64643,-5.11876 5.05057,-8.43373c0.19726,-1.61803 0.53127,-2.22608 -0.93844,-3.24311c-1.97028,-1.36343 -4.1285,0.534 -5.73321,1.56184c-0.02542,0.01628 -4.49596,2.91488 -4.84738,3.40138c-1.31638,1.82239 -1.99981,4.16364 -2.2819,6.65034zM271.7703,164.08813c3.50218,0.96429 7.54908,0.89419 10.41717,-1.48794c1.29656,-1.07687 2.08816,-3.08869 2.79509,-4.5065c0.86807,-2.98853 1.46255,-11.13774 -4.21335,-8.78399c-0.60056,0.24905 -0.98051,0.85782 -1.51278,1.23115c-0.84632,0.59361 -1.9166,0.90412 -2.61636,1.66502c-0.83452,0.90744 -2.60499,5.21891 -3.00761,6.22568c-0.71164,1.7795 -1.3487,3.68564 -1.86216,5.65658z" fill="#ab8a78" stroke="none" stroke-width="0.5"/><path d="M296.8125,212c-1.5,2 -3.5,0.5 -3.5,0.5l-2.138,-1.61137c-2.59583,-2.58499 -5.18409,-5.17732 -7.76955,-7.7727c-0.56392,-0.78649 -4.36104,-5.97471 -4.86118,-7.06575c-2.16628,-4.72576 -2.95203,-9.67073 -2.70009,-14.62523c-5.75711,-1.623 -10.32293,-4.84737 -15.56224,-8.94863c-7.564,-5.921 -13.8976,-11.69678 -15.43954,-21.59403c-0.28581,-1.8345 -0.52663,-3.84208 -0.65065,-5.91935c-8.9038,-2.6503 -12.83843,-11.86192 -12.87875,-20.96295c0,0 0,-2.5 2.5,-2.5c2.5,0 2.5,2.5 2.5,2.5c-0.03442,6.3758 2.23238,12.98895 7.85891,15.5934c0.27712,-4.67923 1.41903,-9.27099 4.19693,-12.6651c2.22284,-2.71592 3.83626,-2.82033 6.94417,-3.92831c1.34024,0.50524 2.85674,0.68104 4.02072,1.51571c5.41014,3.87953 2.77802,14.59346 -1.36621,18.35849c-2.38974,2.17108 -5.53666,2.90128 -8.61579,2.85703c0.17233,4.60357 0.9768,9.52626 3.53145,13.3672c2.44872,3.68167 7.02427,6.73318 10.46089,9.42524c4.43212,3.47189 8.2836,6.40172 13.09192,7.91518c0.25467,-1.38152 0.58158,-2.75827 0.97321,-4.12566c1.10205,-3.84786 2.09366,-6.83496 5.13604,-9.58096c1.04543,-0.94359 1.87368,-2.46384 3.2651,-2.68118c6.06629,-0.94753 8.36409,6.90101 7.9905,11.19529c-0.38509,4.4264 -3.26401,9.81652 -7.8205,11.16294c-1.19689,0.35367 -2.49538,0.05971 -3.74307,0.08957c-0.48536,-0.03175 -0.96138,-0.07295 -1.42874,-0.12333c-0.10856,3.90986 0.55863,7.79824 2.2732,11.57429c0.99708,2.1959 2.74104,3.96897 4.13882,5.93425c2.41475,2.40458 4.82651,4.81192 7.23045,7.2273l1.862,1.38863c0,0 2,1.5 0.5,3.5zM281.33919,177.4227c0.34405,0.03268 0.69361,0.0589 1.04905,0.07844c3.94386,0.15651 6.05341,-2.80699 6.43643,-6.74749c0.1947,-2.00306 0.19747,-2.33204 -0.69158,-4.02884c-0.34212,-0.65296 -0.69892,-2.17617 -1.31792,-1.77587c-0.42259,0.27328 -0.41548,0.92993 -0.7349,1.31882c-2.16429,2.63508 -2.88861,3.99606 -3.86396,7.41904c-0.35379,1.24162 -0.6491,2.4879 -0.87712,3.7359zM249.35631,140.75976c1.88073,0.05598 3.81014,-0.31374 5.30168,-1.63395c2.48357,-2.19829 4.26397,-9.34079 0.65451,-11.1258c-4.80128,2.55291 -5.76803,7.72725 -5.95619,12.75976z" fill="#ffffff" stroke="none" stroke-width="0.5"/><path d="M300.17356,168.12571c0.01914,0.10468 0.03779,0.20948 0.05597,0.31439l-0.1939,0.30254c0.0711,0.19283 0.14083,0.38495 0.20925,0.57659c0.05741,0.1076 0.11494,0.21619 0.17262,0.32584c0.01261,0.09047 0.02492,0.181 0.03692,0.27158c0.3109,0.90283 0.59375,1.80083 0.85438,2.7199l-0.40018,1.39876c0.43098,1.17549 0.87476,2.34555 1.33996,3.50611c0.10453,0.26077 0.22397,0.51751 0.35084,0.77218c0.05644,0.31351 0.11195,0.63281 0.1667,0.95851c0.43418,0.80568 0.8662,1.61267 1.29568,2.42125c0.01722,0.09617 0.03133,0.19314 0.04203,0.29102c0.12376,1.13272 -0.67542,2.17655 -1.01313,3.26481l-3.32156,-1.03673c0.03403,0.09634 0.06808,0.19266 0.10214,0.28898c-0.09034,-0.10978 -0.17898,-0.22111 -0.26576,-0.33413c-0.56098,-0.7306 -0.91017,-1.58525 -1.21161,-2.46694c-0.2409,-0.44655 -0.48251,-0.89265 -0.72474,-1.3384c0.75212,2.41069 1.54289,4.8078 2.40006,7.18061c1.13253,3.13504 3.18326,6.07903 3.39644,9.40554c0.05354,0.83542 -0.42645,1.58929 -0.83718,2.35375c0.2465,0.63499 0.49122,1.2709 0.73404,1.90789c0.22886,0.46174 0.45498,0.92391 0.66742,1.38898l-0.06142,0.21363c0.41184,1.09821 0.81784,2.19998 1.21751,3.30612c0.04271,0.26746 0.07353,0.53755 0.09071,0.81064c0.07329,1.16532 -0.89937,2.15511 -1.34906,3.23268l-0.14785,-0.0668c0.46969,1.1664 0.92699,2.33783 1.36897,3.51546l0.01002,0.59886c-0.2154,-0.24644 -0.43355,-0.49084 -0.65296,-0.73432c-0.14184,0.93294 -0.82624,1.80335 -1.1501,2.71531l-1.88741,-0.53848l-0.09405,1.08497c-0.49809,-0.56125 -0.97285,-1.14127 -1.40673,-1.75413c-0.02288,-0.03232 -0.04568,-0.06475 -0.0684,-0.09729c-0.12489,0.2409 -0.24168,0.48288 -0.33209,0.72833l-2.65695,-1.42192c-0.70467,-1.96777 -1.40649,-3.93592 -2.10492,-5.90485c0.83345,2.50934 1.64382,5.02636 2.39618,7.56294c-0.38504,-0.49682 -0.75198,-1.00672 -1.09059,-1.53711c-0.00061,-0.00095 -0.00125,-0.002 -0.00193,-0.00314c0.33689,1.27131 0.66045,2.54791 0.96834,3.8308l-0.66737,3.8679c-0.96706,-0.95536 -2.0185,-1.8422 -2.98644,-2.79684l-0.25563,0.02027c-0.00387,0.45089 -0.00608,0.90164 -0.00224,1.35189c-0.78632,-0.90177 -1.52791,-1.83473 -2.13232,-2.86344c-0.26754,-0.45534 -0.46245,-0.94221 -0.61833,-1.44601c-0.82963,-0.25871 -1.67631,-0.49661 -2.17486,-1.15916c-0.0009,-0.0012 -3.0981,-9.52164 -3.10732,-9.54999c-0.11847,-0.36416 -0.23719,-0.72821 -0.35614,-1.09218l-0.06221,0.57928c-0.35726,-1.09454 -0.70928,-2.19101 -1.05671,-3.28886c-0.1812,0.27009 -0.35555,0.54181 -0.49334,0.8222l-2.79791,-1.56916c-0.36334,-1.81626 -0.88097,-3.74736 -1.39453,-5.7176l-0.50585,1.15115c-0.4658,-2.01275 -0.83301,-4.10221 -1.08555,-5.36249c-0.12745,-0.63605 -0.25543,-1.27192 -0.3836,-1.90767c0.13712,1.70212 0.01047,3.36535 -0.74527,4.88402l-0.74122,-0.10119c-0.3628,0.762 -0.74124,1.51917 -1.07051,2.29148c-0.13469,-0.12695 -0.26736,-0.25536 -0.39729,-0.38579l-2.22227,-4.76746c-0.01108,-0.20127 -0.0188,-0.40363 -0.02544,-0.60634c-0.01963,-0.04615 -0.03813,-0.09256 -0.05556,-0.13921c-0.01463,-0.61286 -0.03334,-1.22479 -0.05561,-1.83599c-0.00572,-0.04659 -0.0118,-0.09306 -0.01827,-0.13941c-0.03787,-0.27122 -0.07589,-0.54214 -0.11396,-0.81279c0.0208,-0.23117 0.04368,-0.46281 0.06396,-0.69386c-0.16597,-3.58562 -0.43848,-7.15336 -0.71061,-10.74872c-0.1237,-1.63441 -0.70376,-3.29844 -0.37043,-4.90328c0.21052,-1.01359 1.14776,-1.70839 1.80295,-2.52692c0.08034,-0.38118 0.16766,-0.76483 0.26249,-1.15132l0.88196,-1.39961c0.18559,0.35182 0.37024,0.70401 0.55045,1.0579c0.20604,-0.75744 0.42476,-1.51271 0.63057,-2.2702c-0.01978,-0.18923 -0.03956,-0.37848 -0.05936,-0.56771l0.35233,-0.55912c0.02238,-0.09117 0.0444,-0.18241 0.06599,-0.27372l0.04738,0.0938l0.70832,-1.12404c0.12707,0.2226 0.25636,0.44406 0.38721,0.66474c0.30787,-0.56786 0.72511,-1.11151 0.99102,-1.68866l2.15325,-0.10968c0.03715,0.34385 0.0741,0.68773 0.11088,1.03162l0.1626,-1.0996c0.35817,0.59658 0.69487,1.20493 0.99563,1.83299c0.05561,0.11614 0.11038,0.23295 0.1643,0.35039c0.29049,-0.19425 0.60684,-0.37759 0.82992,-0.6003l2.0402,1.31357l0.29161,-2.52444c0.11872,0.12623 0.23836,0.25168 0.35874,0.3765c0.12662,0.16218 0.24751,0.32911 0.36172,0.5016c0.73409,1.10876 0.97906,2.45478 1.29886,3.76439l1.54491,-0.12014l0.03837,-0.8728c0.21195,0.22358 0.42113,0.44948 0.62655,0.67857c0.03429,-0.1679 0.08616,-0.33308 0.15015,-0.49639l0.35033,-5.20726c0.40197,0.26546 0.81712,0.51482 1.23714,0.75824c0.99892,1.14401 1.98003,2.30079 2.79744,3.57474l0.35854,-0.01631l-0.04967,-1.68983c0.1693,0.11937 0.33565,0.24235 0.49838,0.36973c0.07666,-0.90077 0.20306,-1.80592 0.23738,-2.70295l0.00428,-0.12876l0.99727,0.80111c0.11309,0.13172 0.2243,0.2623 0.33372,0.3919c0.02269,-0.02284 0.04607,-0.04533 0.07018,-0.06744l2.97438,2.38934c0.74851,1.71071 1.38738,3.26096 1.94286,4.76753l-0.05534,0.08635c0.08803,0.16119 0.17618,0.32454 0.26459,0.49024c0.07124,0.19956 0.14107,0.39861 0.20953,0.59742c0.1678,1.26698 0.27558,2.54407 0.34445,3.81846c0.0365,0.10011 0.07308,0.20017 0.10975,0.3002l-0.08087,0.28268c0.01432,0.317 0.02642,0.63372 0.03663,0.94995l-0.24382,-0.22576l-0.03182,0.11123c-0.02536,-0.00758 -0.05086,-0.01492 -0.07651,-0.02203c0.75631,1.37739 1.50827,2.75713 2.25389,4.14073c0.01966,0.11697 0.03922,0.23478 0.05869,0.35343l-5.73307,-5.47743c-0.00706,-0.01442 -0.01459,-0.02979 -0.02256,-0.04609c-0.00045,-0.00046 -0.0009,-0.00093 -0.00135,-0.00139c-0.00018,-0.00018 -0.00301,-0.00644 -0.00835,-0.01843c-0.29991,-0.61276 -1.17805,-2.4068 -1.96799,-4.02109c0.83033,2.41995 1.52966,4.95824 2.17387,6.89173c0.80923,2.42875 1.65112,4.84584 2.50377,7.25961l-0.03703,-0.01156c-0.44316,-0.83533 -0.88944,-1.66869 -1.33819,-2.50053c-0.26418,-0.77272 -0.49169,-1.5662 -0.79296,-2.31516c-0.36838,-0.91583 -0.72322,-1.83771 -1.06875,-2.7636c0.37124,1.24942 0.74896,2.4967 1.13697,3.74037c-0.87384,-1.60802 -1.75569,-3.21125 -2.64091,-4.81297c1.58693,5.93065 3.2382,11.83207 5.17531,17.6629c0.82444,2.02389 1.63388,4.05218 2.42493,6.08997c-0.03537,0.06583 -0.07023,0.13173 -0.10418,0.19777c0.26987,0.57245 0.55612,1.14096 0.83822,1.71012c0.20335,0.53342 0.40536,1.06759 0.606,1.60261l-0.61177,2.12766c-1.4239,-1.95077 -3.05649,-3.76627 -4.3156,-5.82387c0.00413,0.01118 0.00826,0.02235 0.01238,0.03352c0.00646,0.01747 0.0129,0.03494 0.01935,0.05241c1.63016,3.60571 3.22976,7.22447 4.70695,10.8929l-0.5772,-0.26081c0.57569,0.99024 1.19168,1.96505 1.31676,3.07946c0.02134,0.1901 0.0145,0.37694 -0.01354,0.56135c-1.36136,-1.51074 -2.77109,-2.98584 -3.87151,-4.68891c-0.53515,-0.82824 -3.26046,-8.51378 -3.58896,-9.42074c-0.51446,-1.42037 -1.0087,-2.84548 -1.48589,-4.27478c-0.15348,-0.37626 -0.30742,-0.75234 -0.46181,-1.12826c2.17573,6.29036 4.39242,12.56633 6.61718,18.84589l-0.24652,2.84364l-1.00115,-0.28563c-0.1133,-0.30234 -0.22752,-0.60433 -0.34262,-0.90599c-0.07545,0.14168 -0.15184,0.28324 -0.22541,0.42517c-2.97026,-4.25425 -4.54707,-10.35924 -6.22829,-15.63146c-2.09757,-4.62986 -4.24397,-9.23985 -6.28361,-13.88723c0.74208,2.41156 1.48401,4.82317 2.22596,7.23478c1.6204,5.26689 3.45623,10.45955 5.19197,15.68548c-1.37651,-3.88045 -2.73989,-7.76387 -4.08608,-11.65315c1.63018,4.9386 3.22256,9.88387 4.6317,14.90028c0.27508,0.76175 0.5009,1.53286 0.63695,2.32099c0.04055,0.15145 0.08092,0.30298 0.12109,0.45458c-0.01261,-0.02119 -0.03798,-0.07552 -0.07443,-0.15868c0.04165,0.29207 0.07041,0.58657 0.08426,0.8839c0.02078,0.44618 -0.15047,0.85477 -0.38095,1.25176c-0.08686,1.00139 -0.82675,1.88626 -1.20018,2.83651l-1.11416,0.08836c-0.08505,-0.08389 -0.16946,-0.16829 -0.25311,-0.25332c-0.00088,0.0912 -0.00173,0.1824 -0.00252,0.27359l-0.9525,0.07554c-0.16473,-0.68637 -0.33428,-1.37103 -0.50824,-2.05414c-0.06836,-0.09482 -0.1353,-0.19081 -0.20071,-0.28804c-0.0018,-0.00268 -0.04397,-0.12396 -0.11752,-0.33741c-0.30575,-0.14087 -0.63844,-0.24889 -0.97391,-0.3535c-0.34931,-1.12901 -0.50259,-2.34307 -0.83781,-3.47811c-0.16712,-0.56585 -0.33416,-1.13172 -0.50115,-1.69761l-0.60733,-0.72621c-1.15081,-2.8477 -2.29595,-5.69702 -3.40658,-8.55778l-0.28545,2.65839c-0.32015,-0.97957 -0.64199,-1.95849 -0.96534,-2.93685c-0.05129,0.07573 -0.10271,0.15143 -0.15358,0.22726c-0.64046,-2.02376 -1.26535,-4.05217 -1.87873,-6.08165c-0.72748,-1.15474 -1.5043,-2.28386 -2.21229,-3.44871c-0.01999,0.63803 -0.05028,1.27858 -0.09225,1.92229l-0.5025,1.14351c-0.84846,-3.25506 -1.68582,-6.61694 -1.79806,-9.7442c-0.27986,-1.63423 -0.49926,-3.36325 -0.66671,-4.68578c0.04863,1.48438 0.1169,2.99692 0.16157,4.56189c0.02871,1.00573 0.19889,2.02415 0.25612,3.03244c0.02852,0.23944 0.05288,0.47842 0.07207,0.71663c-0.01831,-0.09085 -0.03664,-0.18169 -0.05496,-0.27254c0.00965,0.52379 -0.02156,1.0439 -0.12966,1.55712c-0.01966,0.0933 -0.04076,0.18615 -0.06321,0.27859c0.00079,0.03797 0.00155,0.07595 0.0023,0.11393l-0.03292,0.0086c-0.2751,1.07162 -0.72787,2.08858 -1.20804,3.09713l-1.02494,-0.13992c0.05494,-0.80499 0.08965,-1.60528 0.10724,-2.40208l-0.30469,0.07957c-0.82508,-0.32147 -2.11752,-0.15439 -2.47523,-0.96442c-0.00606,-0.01373 -0.01202,-0.02748 -0.01788,-0.04126c-0.02177,-0.66366 -0.03208,-1.33096 -0.11117,-1.9752c-0.02001,-0.54922 -0.04289,-1.09785 -0.06827,-1.64606c0.03842,-0.43777 0.06748,-0.87341 0.05529,-1.29975c-0.17093,-5.97711 -0.54062,-11.15124 0.66661,-16.87918c0.0528,-0.06597 0.10378,-0.13274 0.1524,-0.20056l1.09798,0.47567c0.13259,-0.59205 0.28474,-1.18075 0.44453,-1.76814c0.35023,0.68777 0.68368,1.38203 0.97446,2.09276c0.02936,-0.0715 0.06045,-0.14272 0.09282,-0.21374c-0.14769,-1.38281 -0.29212,-2.76601 -0.43671,-4.14922c0.10186,-0.37489 0.20055,-0.75033 0.29297,-1.12683l0.11337,-0.17992l0.73058,1.44627c-0.02215,-0.19153 -0.03395,-0.38446 -0.03322,-0.57912c0.00177,-0.47113 0.16991,-0.90544 0.39817,-1.32646c0.81084,1.36747 1.68144,2.70457 2.45182,4.09259c0.21169,-0.06603 0.43821,-0.12355 0.68041,-0.17191c-0.09395,-0.63668 -0.18984,-1.27233 -0.28827,-1.90667l0.4112,-2.78072c0.16372,1.53056 0.32432,3.06141 0.48672,4.59201c0.29844,-0.02133 0.56933,0.05058 0.82119,0.18689c-0.39048,-0.88612 -0.73924,-1.77865 -0.72728,-2.72615c0.00536,-0.42511 0.35012,-0.70697 0.74191,-0.96897c0.59008,1.28516 1.08077,2.6472 1.50977,4.0531l0.10814,-0.87935c0.30227,0.36475 0.61223,0.72382 0.92567,1.08031c-0.01963,-0.06813 -0.03926,-0.13628 -0.05887,-0.20443l0.3854,-3.33637l0.33702,0.21699c0.25085,1.61658 0.48482,3.24166 0.71209,4.87122c0.03715,0.04199 0.07428,0.08399 0.11135,0.12604c-0.00673,-1.06601 0.64277,-2.05232 0.94798,-3.08045l0.20249,-0.01575c0.09573,0.39201 0.19816,0.78076 0.32242,1.1589c0.82558,2.51239 1.64851,5.02565 2.47195,7.53874c0.90797,1.71071 1.70794,3.55569 2.45893,5.43957c-1.27145,-4.63775 -2.47759,-9.29815 -3.72137,-13.9623l0.01297,-0.29505l0.5639,-0.04385c0.01901,0.06608 0.03803,0.13214 0.05707,0.19819c0.00527,-0.11765 0.0205,-0.23374 0.04395,-0.34857c0.05328,0.05943 0.10631,0.11907 0.15906,0.17893c-0.01475,-0.04998 -0.0295,-0.09995 -0.04426,-0.14992l0.03535,-0.5254c0.28107,-0.71736 0.79591,-1.39849 1.08142,-2.11517l2.08932,1.29614l1.21417,-0.05525c0.02517,0.03923 0.05019,0.07858 0.07505,0.11803c0.10244,0.1626 0.20319,0.33141 0.30231,0.50584l-0.01882,-0.64019l0.01628,-0.00074c0.13975,0.47299 0.27868,0.94636 0.417,1.42002c0.05721,0.11445 0.11387,0.23066 0.16997,0.34848c-0.02585,-0.09567 -0.04908,-0.19227 -0.06941,-0.28986c-0.0111,-0.02536 -0.0206,-0.0471 -0.02844,-0.06503l0.00227,-0.06813c-0.16227,-0.87571 -0.13527,-1.7681 -0.05896,-2.66484c0.04823,0.03776 0.09616,0.0759 0.14373,0.11444l0.09365,-2.8174c0.00164,-0.04294 0.00308,-0.08586 0.00428,-0.12876c0.27783,0.22087 0.56541,0.43176 0.85714,0.63843c0.04703,0.05443 0.09374,0.10865 0.14013,0.16268l0.4039,0.32446c0.02227,-0.02042 0.04516,-0.0405 0.06867,-0.06023c1.03812,0.71684 2.07927,1.43058 2.87871,2.39149c1.00354,1.20623 1.43448,2.78665 2.1078,4.20868z" fill="#ab8a78" stroke="none" stroke-width="0.5"/><path d="M302.2399,210.98617c1.43319,0.18992 1.94431,1.72326 1.94431,1.72326l0.98155,2.94464c0.09499,0.2642 0.14675,0.54902 0.14675,0.84593c0,1.05999 -0.65969,1.96591 -1.59091,2.32957c0.05925,0.21336 0.09091,0.43819 0.09091,0.67043c0,1.38071 -1.11929,2.5 -2.5,2.5c-0.69036,0 -1.31536,-0.27982 -1.76777,-0.73223l-0.34288,-0.34288c-0.33516,-0.08414 -0.64347,-0.23594 -0.90956,-0.44004l-3.9798,-2.98485l0.02098,-0.02798c-0.08772,-0.05763 -0.17472,-0.11656 -0.26092,-0.17686c-0.03243,-0.02269 -0.1509,-0.15791 -0.33424,-0.37827l-0.583,1.45751c-0.35452,0.94948 -1.26971,1.62559 -2.34282,1.62559c-0.13454,0 -0.26661,-0.01063 -0.39539,-0.03109c-0.02716,0.00087 -0.05444,0.00131 -0.08181,0.00131c-1.18578,0 -2.17875,-0.82556 -2.43549,-1.93326l-1.16087,-4.55126c-0.52693,-1.03201 -0.97762,-2.1034 -1.3054,-3.25053c-0.33717,0.16944 -0.71797,0.26483 -1.12104,0.26483c-0.92661,0 -1.73548,-0.50412 -2.16731,-1.25305l-1.47643,-2.46071l0.03621,-0.02172c-0.0399,-0.04163 -0.07937,-0.08376 -0.11838,-0.12638c-0.57587,-0.62922 -0.82587,-1.46856 -1.08132,-2.30439c-0.98273,-1.60986 -2.03388,-3.19142 -2.78364,-4.8914l-0.1826,-0.28694c-0.24885,-0.37767 -0.39803,-0.82683 -0.41011,-1.31002c-0.02828,-0.09513 -0.05538,-0.19073 -0.08124,-0.28682c-0.0124,-0.04604 -0.02428,-0.09217 -0.03566,-0.13837l-0.02071,0.00828l-0.97894,-2.44736c-0.12865,-0.30123 -0.19986,-0.63286 -0.19986,-0.98112c0,-1.01417 0.60389,-1.88729 1.47169,-2.2794l-0.59346,-0.83897c-0.29956,-0.41223 -0.47624,-0.91953 -0.47624,-1.46809c0,-1.38071 1.11929,-2.5 2.5,-2.5c0.70418,0 1.34036,0.29114 1.79474,0.75962l0.46543,0.4788c0.33267,-0.14108 0.64548,-0.29335 0.90937,-0.47315c0,0 2.32119,-0.92848 3.24967,1.39272c0.55609,1.39024 -0.05353,2.28088 -0.63198,2.77167c0.33555,0.40123 0.65833,0.81306 0.96943,1.23411c0.67419,0.58307 1.2073,1.28916 2.03503,2.27308c0.226,-0.26857 0.49169,-0.49244 0.80422,-0.65865c-0.08487,-0.65828 -0.17015,-1.27756 -0.26175,-1.84166c-0.32708,-2.01433 -1.65687,-4.18033 -0.86426,-6.06083c0.39174,-0.92941 0.76895,-1.71342 1.13319,-2.36794c-0.74894,-3.34679 -1.62467,-6.57357 -2.56433,-9.9324c-0.436,-1.55849 -0.91039,-2.86646 -1.28583,-4.11502c-0.44087,0.38965 -1.02027,0.62612 -1.65491,0.62612c-1.22888,0 -2.25067,-0.88665 -2.46053,-2.05512l-0.49092,-2.45459l0.01786,-0.00357l-0.02544,-0.03602c-0.17899,-1.19736 -0.91449,-2.44177 -0.53696,-3.59207c0.05752,-0.17527 0.12144,-0.34755 0.19098,-0.51721l-0.09879,-0.02823l0.23449,-0.82073l-0.29948,-2.09634c-0.02054,-0.12902 -0.03121,-0.26133 -0.03121,-0.39613c0,-1.38071 1.11929,-2.5 2.5,-2.5c0.31262,0 0.61183,0.05738 0.88769,0.16218c0.44335,-0.69856 1.22369,-1.16218 2.11231,-1.16218c0.59805,0 1.14705,0.20999 1.57729,0.56027l2.48445,1.98756l-0.08019,0.10024l0.31361,0.112c2.58073,3.40423 4.21183,4.71887 8.22018,6.45541c0,0 2.28453,1.01535 1.26918,3.29988c-1.01535,2.28453 -3.29988,1.26918 -3.29988,1.26918c-0.71252,-0.32336 -1.37232,-0.63543 -1.98988,-0.94749c0.00347,0.05387 0.00523,0.10821 0.00523,0.16296c0,1.38071 -1.11929,2.5 -2.5,2.5c-0.30387,0 -0.59509,-0.05422 -0.86449,-0.1535c0.3105,1.12431 0.5471,2.03394 0.62005,2.29425c0.84983,3.03256 1.61211,6.04889 2.31488,9.08114c1.40924,1.16383 2.67868,3.6972 4.01856,5.47046l0.40563,2.64387c0,0 0.15558,2.36961 -2.146,2.64152c0.34828,1.78663 0.52205,3.11935 0.47843,5.84489c-0.00563,0.35145 0.0296,0.73437 0.07053,1.12581c0.85817,1.79959 1.65559,3.6144 2.02222,4.42345l-0.07446,0.46059l0.1483,-0.01059l0.08145,1.14024c1.42329,1.31573 3.9233,3.67382 5.35231,5.02405z" fill="#ab8a78" stroke="none" stroke-width="0.5"/></g></g></svg>