<svg version="1.1" xmlns="http://www.w3.org/2000/svg" xmlns:xlink="http://www.w3.org/1999/xlink" width="198.2009" height="170.68473" viewBox="0,0,198.2009,170.68473"><g transform="translate(-140.89955,-94.65764)"><g data-paper-data="{&quot;isPaintingLayer&quot;:true}" fill-rule="nonzero" stroke-linecap="butt" stroke-linejoin="miter" stroke-miterlimit="10" stroke-dasharray="" stroke-dashoffset="0" style="mix-blend-mode: normal"><path d="" fill="#2cde4c" stroke="none" stroke-width="0.5"/><g><path d="M152.17653,255.08121c-10.65336,-8.97425 -13.06515,-135.15631 1,-149.33333c8.74471,-8.81426 163.8354,-13.82247 176.66667,0c7.85128,8.45779 10.22314,138.74158 -0.33333,149c-12.28894,11.94197 -166.47674,9.47878 -177.33333,0.33333z" fill="#a68879" stroke="#8a5b43" stroke-width="5"/><path d="M158.60631,241.43992c-0.71084,-1.86713 -1.27785,-3.80297 -1.66375,-5.77058l-0.48364,-1.9991c0,0 -0.22,-0.915 0.12707,-1.79023c-0.71186,-2.88342 -1.20167,-5.92536 -1.72536,-9.24558c-0.01627,-6.36497 0.08147,-12.9501 1.04479,-19.21336c1.10039,-7.15447 6.41714,-13.11945 7.65407,-20.1613c1.19463,-6.80104 -1.53229,-14.22121 -5.35451,-19.56631c-1.63936,-4.96519 -4.00928,-9.91966 -4.84724,-15.10844c-2.16031,-13.37701 1.92036,-31.5922 14.83423,-37.39738c0,0 0.83489,-0.34723 1.71164,-0.11406c6.39031,-2.19616 14.35777,-2.70645 20.77204,-1.05857c5.7921,1.48804 11.23409,4.63335 16.69003,7.02099c3.38333,1.48062 7.02723,2.17397 10.46633,3.62197c7.69223,1.60642 11.92582,-3.9106 17.68177,-8.09821c10.46411,-7.61291 27.94826,-9.41954 38.46076,-1.22168c4.6119,1.86753 9.23735,3.96101 14.31703,3.38666c3.56213,-0.40277 6.6732,-2.26471 10.20542,-2.65281c8.60145,-0.94508 17.68739,3.12934 19.59567,12.74944c0.62414,3.14647 0.04518,7.10577 0.03362,10.31315c-0.83399,4.43605 -1.89399,8.71055 -1.53081,13.27177c0.37516,4.71168 3.5952,8.33623 5.40149,12.43868c4.91046,11.1526 6.53578,23.38778 2.10932,34.89395c-2.18464,6.77846 -4.57738,12.15136 -3.93892,19.51801c0.43828,5.05691 2.33086,10.49441 0.34391,15.56208c-2.17904,5.5576 -7.34537,11.17668 -12.34857,14.07054c-2.66655,1.54233 -5.87241,2.51812 -8.62532,3.92407c-4.97825,0.89105 -10.50004,1.03215 -15.48527,0.09578c-1.85691,-0.34878 -3.57686,-1.38854 -5.4557,-1.57034c-3.57531,-0.34594 -7.1487,-0.68051 -10.71569,-1.06112c-10.22807,-1.09137 -18.85558,3.30897 -28.58265,5.30561c-5.10504,0 -9.60773,0.83955 -14.71621,-0.61577c-3.08972,-0.88021 -5.92111,-2.58979 -8.83539,-3.95246c-3.47391,-0.31249 -6.62681,0.58855 -10.08117,1.7922c-10.47639,3.61337 -23.23474,6.67013 -34.19116,3.20952c-4.76046,-1.5036 -9.44393,-4.70413 -11.77252,-9.21344c-0.76301,-0.4999 -1.09531,-1.36369 -1.09531,-1.36369z" fill="#fff9f6" stroke="none" stroke-width="0.5"/><path d="M308.3125,119c2.5,0 2.5,2.5 2.5,2.5l-0.03402,0.08901c0.84002,5.38526 4.22132,8.68747 7.12628,13.04263c4.84947,7.27041 10.67766,13.32729 13.82245,21.72093c1.27589,7.64147 -0.51863,14.83698 -6.88366,19.62376c-1.06363,0.79989 -1.95755,1.91517 -3.20354,2.38275c-1.09458,0.41075 -2.33749,0.2004 -3.50474,0.13464c-5.5195,-0.31098 -11.13796,-2.5516 -15.40774,-6.06035c-4.42226,-3.63405 -6.82234,-9.1565 -9.31727,-14.14801c-3.43286,-6.86799 -6.57037,-13.73534 -9.42213,-20.86485c-3.16521,-8.0773 -5.90227,-15.72487 -12.7606,-21.48715c-2.3195,-1.94881 -3.16209,-1.86466 -5.9669,-3.16541c-1.40123,-0.64983 -3.07162,-1.94416 -4.80676,-1.77195c-9.57574,0.9504 -5.71117,12.11568 -3.1607,17.9336c1.96424,4.48066 3.77232,8.93636 6.04993,13.26764c3.67641,4.7094 7.84679,8.9668 11.57727,13.62623c2.0768,2.59394 3.7663,5.48137 5.82437,8.09019c2.67861,3.39542 6.09986,6.24708 8.86021,9.60601c3.14707,3.82951 5.85307,8.10382 9.0962,11.84233c3.17641,3.6616 6.02186,7.27594 9.06147,11.07368c3.63028,4.53573 7.89536,9.11447 9.46287,14.91046c0.70049,2.59012 0.70573,5.3198 1.08073,7.97664c0.00556,3.25267 0.53594,7.38036 -0.02599,10.57768c-1.61675,9.1991 -10.58566,9.22706 -17.85002,8.07014c-16.06079,-2.55784 -29.02433,-17.80507 -38.08751,-30.22511c-8.34831,-13.72857 -14.48365,-28.93997 -19.5843,-44.1251c-1.53229,-4.56177 -2.55625,-9.32674 -4.04355,-13.91135c-1.53722,-4.73845 -3.52703,-9.46425 -4.93567,-14.21541c-0.45986,-1.55103 -0.35024,-3.24574 -0.88891,-4.77118c-1.72262,-4.87826 -6.58067,-9.20616 -10.07249,-12.75115c-3.37866,-2.29404 -7.51546,-5.43149 -11.72977,-5.98139c-0.90336,-0.11787 -6.33144,1.34556 -6.62883,1.42502c-1.91488,0.51165 -4.08944,0.50421 -5.71674,1.63577c-2.66492,1.85308 -4.99837,7.05985 -4.42337,10.21322c0.78573,4.30908 2.12096,9.70794 3.97215,13.69024c1.24467,2.67755 3.64539,5.57639 5.30086,7.95908c4.3768,6.29942 8.52436,12.78582 12.77916,19.16843c8.30057,11.66133 18.34921,22.41893 27.74505,33.25477c5.49346,6.33539 10.95846,12.54144 14.90762,19.99748c5.27597,9.96105 8.06554,21.08906 2.81671,31.62786c-2.39361,2.39361 -2.8032,3.34423 -6.28268,4.42451c-8.38369,2.60289 -17.56368,-3.14573 -23.44404,-8.55198c-8.74788,-8.04257 -15.61294,-18.32444 -20.83082,-28.94619c-3.389,-6.89882 -5.86486,-14.46285 -8.90133,-21.53706c-4.83398,-12.5055 -8.66999,-25.00235 -14.7067,-37.02372c-2.72662,-5.42971 -5.16594,-10.84022 -9.13648,-15.48116c-4.22649,-4.9401 -11.86843,-14.9997 -19.12009,-8.93022c-0.77793,0.65111 -1.45429,1.4529 -1.94484,2.34086c-0.59811,1.08264 -0.84917,2.32341 -1.27375,3.48512c-1.48409,5.98655 -2.40082,11.18074 -1.41896,17.36181c1.51852,9.55949 5.07882,19.83417 11.43606,27.27667c5.98406,7.00562 14.07203,13.82942 21.43512,19.34594c2.31909,1.73749 5.5804,3.46449 7.79586,5.38278c2.55537,2.2126 4.18075,4.58842 6.24528,7.24377c3.80576,3.86483 6.37459,7.31305 8.90166,12.10871c2.15847,4.09615 3.45038,5.07897 3.71397,9.90342c0.33165,6.07027 -3.24588,14.92217 -9.07701,17.45977c-2.93471,1.27713 -9.47763,1.27324 -12.49372,0.60829c-3.45209,-0.76107 -7.00833,-3.74972 -9.28844,-6.26581c-5.04785,-5.57029 -8.99282,-12.76208 -10.09055,-20.18672c-1.61195,-6.43742 -3.05547,-12.96631 -6.65915,-18.64371c-1.94118,-3.05822 -4.66201,-6.67897 -8.54282,-7.3417c-2.37554,-0.40568 -4.53189,4.83757 -5.03495,5.96154c-1.32194,2.95356 -0.7545,3.0744 -0.30118,6.44326c0.55611,4.13271 1.25545,7.79649 2.81267,11.67156c0,0 0.92847,2.32119 -1.39272,3.24966c-2.32119,0.92847 -3.24966,-1.39272 -3.24966,-1.39272c-2.50115,-6.27905 -5.28744,-15.3297 -2.48851,-21.88518c2.61771,-6.13105 6.96255,-11.11882 13.90808,-7.78908c10.44612,5.00794 13.33731,18.67992 15.855,28.76521c0.90276,6.57621 4.49426,12.86588 8.90945,17.81328c1.53915,1.72468 4.30664,4.23987 6.71156,4.73418c2.32472,0.47782 7.2287,0.48264 9.50628,-0.39171c3.74805,-1.43885 6.13106,-8.88058 5.92299,-12.54022c-0.21057,-3.70352 -1.40191,-4.55122 -3.14246,-7.83815c-2.3801,-4.4947 -4.66642,-7.51565 -8.24191,-11.14972c-1.70846,-2.19581 -3.59442,-4.89623 -5.75472,-6.75623c-1.47813,-1.27265 -6.20658,-4.17504 -7.52463,-5.16422c-7.65008,-5.74129 -16.03556,-12.81537 -22.24438,-20.10706c-4.21061,-4.94497 -6.87853,-10.55865 -8.90262,-16.61407c-2.48891,-7.44601 -5.00146,-15.24725 -4.18081,-23.25116c0.24061,-2.34676 1.49673,-7.07763 2.10054,-9.49628c0.57542,-1.50496 0.91273,-3.12413 1.72625,-4.51488c0.80229,-1.37154 1.8331,-2.64357 3.05516,-3.65914c8.1695,-6.78908 16.81651,-0.71792 22.80435,5.6222c14.90561,15.78253 20.37972,38.04788 28.00065,57.75675c7.56095,17.60741 14.10985,35.36066 28.49958,48.70271c5.55167,5.14747 15.61488,11.53093 22.27327,4.87253c4.31976,-8.58351 0.99433,-18.45821 -3.18329,-26.37214c-3.75481,-7.11299 -9.02655,-13.01566 -14.26247,-19.05406c-9.51734,-10.97599 -19.67801,-21.87922 -28.08486,-33.6937c-8.9488,-13.42234 -20.4766,-26.50219 -22.88626,-42.95993c-0.73418,-5.01437 2.25153,-12.01291 6.51506,-15.0091c0.84264,-0.59216 6.25757,-2.09122 7.28326,-2.36423c1.63673,-0.43565 6.59748,-1.78993 8.37117,-1.57498c5.31305,0.64387 10.22601,4.21525 14.4803,7.11895c4.20819,4.24073 9.43499,9.11335 11.57387,14.89008c0.5957,1.60886 0.49319,3.40769 0.98146,5.05235c1.39862,4.71102 3.374,9.39458 4.89827,14.09493c1.4811,4.5672 2.49853,9.31757 4.02688,13.86085c4.96559,14.76101 10.89256,29.58915 19.0039,42.94286c7.98036,10.91763 16.97612,20.61054 29.35545,26.25861c0.81687,0.37269 1.44104,1.12835 2.29181,1.41536c3.5976,1.21367 12.10256,2.45656 14.53693,-1.45841c1.73707,-2.79357 0.62696,-8.36629 0.63291,-11.50844c-0.33819,-2.33674 -0.32085,-4.73936 -0.91927,-7.02336c-1.32652,-5.06295 -5.39166,-9.1559 -8.53713,-13.08954c-3.00646,-3.75979 -5.80095,-7.30268 -8.93853,-10.92632c-3.27026,-3.77687 -6.00813,-8.078 -9.18262,-11.94472c-2.76205,-3.36433 -6.17004,-6.21114 -8.86098,-9.60694c-2.07635,-2.62023 -3.77278,-5.52816 -5.86275,-8.13753c-3.83977,-4.79402 -8.10698,-9.17903 -11.87502,-14.03957c-3.55081,-6.70894 -7.19016,-13.97827 -8.77761,-21.40017c-1.06867,-4.99636 -2.19923,-10.95002 2.3267,-14.91239c4.38513,-3.83911 10.10668,-2.46315 14.6728,-0.36463c6.645,3.05395 12.69603,7.91227 16.16039,14.6035c2.0281,3.91716 3.48957,8.6074 5.1121,12.74394c2.79861,6.99642 5.87858,13.73031 9.24604,20.4708c2.13632,4.27616 4.19179,9.40617 8.01456,12.51635c2.69293,2.19094 6.0524,3.76725 9.43642,4.48833c1.52831,0.32566 3.22632,1.22768 4.65109,0.58595c5.93565,-2.67346 7.87024,-10.23455 6.9128,-15.99349c-2.92664,-7.79564 -8.66538,-13.50715 -13.17755,-20.27907c-3.33391,-5.00358 -6.7979,-8.81149 -7.87372,-14.95737l-0.03402,-0.91099c0,0 0,-2.5 2.5,-2.5z" fill="#462f23" stroke="none" stroke-width="0.5"/><path d="M171.58027,136.23224c1.76776,1.76776 0,3.53553 0,3.53553l-1.76776,1.73224c-1.14122,0.83523 -2.16477,1.85878 -3,3c0,0 -1.5,2 -3.5,0.5c-2,-1.5 -0.5,-3.5 -0.5,-3.5c1.14461,-1.49848 2.50152,-2.85539 4,-4l1.23224,-1.26776c0,0 1.76776,-1.76776 3.53553,0z" fill="#dc1800" stroke="none" stroke-width="0.5"/><path d="M233.58027,179.73224c1.76776,1.76776 0,3.53553 0,3.53553l-0.76776,0.73224c-1.59473,2.12011 -2.90998,4.37438 -4.5,6.5c0,0 -1.5,2 -3.5,0.5c-2,-1.5 -0.5,-3.5 -0.5,-3.5c1.59473,-2.12011 2.90998,-4.37438 4.5,-6.5l1.23224,-1.26776c0,0 1.76776,-1.76776 3.53553,0z" fill="#dc1800" stroke="none" stroke-width="0.5"/><path d="M276.24342,127.04604c0.71509,0.12829 2.06908,0.61413 2.06908,2.45396c0,2.5 -2.5,2.5 -2.5,2.5l-2.06174,-0.54783c-2.2149,-1.77227 -4.29223,-3.35301 -6.7245,-4.80844c0,0 -2.14373,-1.28624 -0.85749,-3.42997c1.28624,-2.14373 3.42997,-0.85749 3.42997,-0.85749c2.38504,1.43457 4.48577,2.98266 6.64468,4.68977z" fill="#dc1800" stroke="none" stroke-width="0.5"/><path d="M293.23786,232.89366c0.60634,2.42535 -1.81902,3.03169 -1.81902,3.03169l-1.3201,0.21838c-1.71462,1.0228 -3.50611,1.93086 -5.35777,2.67746c0,0 -2.32119,0.92847 -3.24966,-1.39272c-0.92847,-2.32119 1.39272,-3.24966 1.39272,-3.24966c1.60857,-0.63745 3.16116,-1.42797 4.64223,-2.32254l2.6799,-0.78162c0,0 2.42536,-0.60634 3.0317,1.81902z" fill="#dc1800" stroke="none" stroke-width="0.5"/><path d="M185.08027,215.76777c-1.76776,1.76776 -3.53553,0 -3.53553,0l-0.29397,-0.3156c-1.38629,-1.14136 -3.01736,-2.03696 -4.72883,-2.58046c0,0 -2.37171,-0.79057 -1.58114,-3.16228c0.79057,-2.37171 3.16228,-1.58114 3.16228,-1.58114c2.25053,0.77724 4.39619,1.95209 6.27117,3.41954l0.70603,0.6844c0,0 1.76776,1.76776 0,3.53553z" fill="#db8e00" stroke="none" stroke-width="0.5"/><path d="M190.08027,150.73224c1.76776,1.76776 0,3.53553 0,3.53553l-0.3156,0.29397c-1.44806,1.79385 -3.09659,3.44237 -4.89043,4.89043c0,0 -1.95217,1.56174 -3.51391,-0.39043c-1.56174,-1.95217 0.39043,-3.51391 0.39043,-3.51391c1.51906,-1.20228 2.90729,-2.59051 4.10957,-4.10957l0.6844,-0.70603c0,0 1.76776,-1.76776 3.53553,0z" fill="#db8e00" stroke="none" stroke-width="0.5"/><path d="M227.54857,138.61804c-1.11803,2.23607 -3.35411,1.11804 -3.35411,1.11804l-1.38197,-0.73607c-1.50921,-1.13745 -2.92865,-2.39872 -4.26776,-3.73224c0,0 -1.76776,-1.76776 0,-3.53553c1.76776,-1.76776 3.53553,0 3.53553,0c1.16646,1.17201 2.40672,2.27922 3.73224,3.26776l0.61803,0.26393c0,0 2.23607,1.11803 1.11804,3.35411z" fill="#db8e00" stroke="none" stroke-width="0.5"/><path d="M277.58027,178.23224c1.76776,1.76776 0,3.53553 0,3.53553l-1.26776,1.23224c-1.14123,0.83523 -2.16478,1.85878 -3,3c0,0 -1.5,2 -3.5,0.5c-2,-1.5 -0.5,-3.5 -0.5,-3.5c1.14461,-1.49848 2.50153,-2.85539 4,-4l0.73224,-0.76776c0,0 1.76776,-1.76776 3.53553,0z" fill="#db8e00" stroke="none" stroke-width="0.5"/><path d="M173.23786,238.10634c-0.60634,2.42535 -3.03169,1.81902 -3.03169,1.81902l-2.18423,-0.55364c-1,-0.33334 -2,-0.66666 -3,-1c0,0 -2.37171,-0.79057 -1.58114,-3.16228c0.79057,-2.37171 3.16228,-1.58114 3.16228,-1.58114c1,0.33334 2,0.66666 3,1l1.81577,0.44636c0,0 2.42535,0.60634 1.81902,3.03169z" fill="#ffe619" stroke="none" stroke-width="0.5"/><path d="M180.8125,175c2,1.5 0.5,3.5 0.5,3.5l-1.52367,2.03106c-0.67472,0.84356 -1.34943,1.68712 -2.02416,2.53068c0,0 -1.56174,1.95217 -3.51391,0.39043c-1.95217,-1.56174 -0.39043,-3.51391 -0.39043,-3.51391c0.65861,-0.8231 1.31723,-1.64621 1.97584,-2.46932l1.47633,-1.96894c0,0 1.5,-2 3.5,-0.5z" fill="#ffe619" stroke="none" stroke-width="0.5"/><path d="M187.04857,122.61804c-1.11803,2.23607 -3.35411,1.11803 -3.35411,1.11803l-1.38197,-0.73607c-1.33334,-1 -2.66666,-2 -4,-3c0,0 -2,-1.5 -0.5,-3.5c1.5,-2 3.5,-0.5 3.5,-0.5c1.33334,1 2.66666,2 4,3l0.61803,0.26393c0,0 2.23607,1.11804 1.11804,3.35411z" fill="#ffe619" stroke="none" stroke-width="0.5"/><path d="M243.10307,223.62829c2.37171,0.79057 1.58114,3.16228 1.58114,3.16228l-0.55052,1.6379c-0.73126,1.79093 -1.67236,3.51514 -2.82119,5.07153c0,0 -1.5,2 -3.5,0.5c-2,-1.5 -0.5,-3.5 -0.5,-3.5c0.9103,-1.18894 1.6354,-2.53314 2.17881,-3.92847l0.44948,-1.3621c0,0 0.79057,-2.37171 3.16228,-1.58114z" fill="#ffe619" stroke="none" stroke-width="0.5"/><path d="M238.3125,152c1.5,2 -0.5,3.5 -0.5,3.5l-1.862,1.38863c-0.62341,0.62637 -1.24683,1.25276 -1.87024,1.87913c0,0 -1.76776,1.76776 -3.53553,0c-1.76776,-1.76776 0,-3.53553 0,-3.53553c0.70992,-0.70695 1.41984,-1.41392 2.12976,-2.12087l2.138,-1.61137c0,0 2,-1.5 3.5,0.5z" fill="#2cde4c" stroke="none" stroke-width="0.5"/><path d="M272.04857,214.11804c-1.11804,2.23607 -3.35411,1.11804 -3.35411,1.11804l-1.16821,-0.59234c-1.28375,-0.79621 -2.71787,-1.42166 -4.20405,-1.69228c0,0 -2.45145,-0.49029 -1.96116,-2.94174c0.49029,-2.45145 2.94174,-1.96116 2.94174,-1.96116c2.03393,0.43292 4.00117,1.25746 5.79595,2.30772l0.83179,0.40766c0,0 2.23607,1.11803 1.11803,3.35411z" fill="#2cde4c" stroke="none" stroke-width="0.5"/><path d="M303.54857,125.38197c1.11804,2.23607 -1.11803,3.35411 -1.11803,3.35411l-0.35027,0.03169c-1.5347,1.48836 -3.36725,2.72782 -5.33929,3.55343c0,0 -2.32119,0.92847 -3.24966,-1.39272c-0.92847,-2.32119 1.39272,-3.24966 1.39272,-3.24966c1.37504,-0.51317 2.64594,-1.38625 3.66071,-2.44657l1.64973,-0.96831c0,0 2.23607,-1.11804 3.35411,1.11803z" fill="#2cde4c" stroke="none" stroke-width="0.5"/><path d="M173.08027,165.26777c-1.76776,1.76776 -3.53553,0 -3.53553,0l-1.89954,-1.90494c-0.79815,-0.63689 -1.59629,-1.27376 -2.39443,-1.91065c0,0 -1.95217,-1.56174 -0.39043,-3.51391c1.56174,-1.95217 3.51391,-0.39043 3.51391,-0.39043c0.86852,0.69645 1.73705,1.3929 2.60557,2.08935l2.10046,2.09506c0,0 1.76776,1.76776 0,3.53553z" fill="#6dd4ff" stroke="none" stroke-width="0.5"/><path d="M208.43054,198.26393c2.23607,1.11803 1.11804,3.35411 1.11804,3.35411l-0.65595,1.26872c-1.06906,1.58972 -2.05728,3.25909 -2.75894,5.04172c0,0 -0.92847,2.32119 -3.24966,1.39272c-2.32119,-0.92847 -1.39272,-3.24966 -1.39272,-3.24966c0.84923,-2.09536 1.99349,-4.07273 3.24106,-5.95828l0.34405,-0.73128c0,0 1.11803,-2.23607 3.35411,-1.11804z" fill="#6dd4ff" stroke="none" stroke-width="0.5"/><path d="M217.63369,151.92848c-0.92847,2.32119 -3.24966,1.39272 -3.24966,1.39272l-2.83023,-1.16118c-0.93435,-0.73595 -1.86869,-1.47189 -2.80303,-2.20784c0,0 -1.95217,-1.56174 -0.39043,-3.51391c1.56174,-1.95217 3.51391,-0.39043 3.51391,-0.39043c0.73232,0.59739 1.46465,1.19477 2.19697,1.79216l2.16977,0.83882c0,0 2.32119,0.92847 1.39272,3.24966z" fill="#6dd4ff" stroke="none" stroke-width="0.5"/><path d="M273.08027,158.73224c1.76776,1.76776 0,3.53553 0,3.53553l-0.81559,0.79397c-1.07418,1.3168 -2.01821,2.7817 -2.63098,4.36674c0,0 -0.92847,2.32119 -3.24966,1.39272c-2.32119,-0.92847 -1.39272,-3.24966 -1.39272,-3.24966c0.83049,-2.0242 2.01519,-3.91447 3.36902,-5.63326l1.18441,-1.20603c0,0 1.76776,-1.76776 3.53553,0z" fill="#6dd4ff" stroke="none" stroke-width="0.5"/><path d="M265.2314,230.5439c0.71182,0.125 2.0811,0.60591 2.0811,2.4561c0,2.5 -2.5,2.5 -2.5,2.5l-2.06174,-0.54783c-1.98005,-1.58853 -4.10937,-2.98875 -6.26326,-4.33218c0,0 -2.11999,-1.325 -0.795,-3.44499c1.32499,-2.11999 3.44499,-0.795 3.44499,-0.795c2.08468,1.30543 4.14537,2.66274 6.09391,4.16389z" fill="#6dd4ff" stroke="none" stroke-width="0.5"/><path d="M213.08027,175.76777c-1.76776,1.76776 -3.53553,0 -3.53553,0l-0.01847,-0.12403c-1.7352,-1.04266 -3.52063,-2.00336 -5.33179,-2.90766c0,0 -2.23607,-1.11803 -1.11804,-3.35411c1.11803,-2.23607 3.35411,-1.11804 3.35411,-1.11804c1.92455,0.96356 3.82196,1.98613 5.66821,3.09234l0.98153,0.87597c0,0 1.76776,1.76776 0,3.53553z" fill="#bdb8ff" stroke="none" stroke-width="0.5"/><path d="M296.08027,198.73224c1.76776,1.76776 0,3.53553 0,3.53553l-1.48152,1.37597c-1.71462,1.0228 -3.50611,1.93086 -5.35777,2.67746c0,0 -2.32119,0.92847 -3.24966,-1.39272c-0.92847,-2.32119 1.39272,-3.24966 1.39272,-3.24966c1.60857,-0.63745 3.16116,-1.42797 4.64223,-2.32254l0.51848,-0.62403c0,0 1.76776,-1.76776 3.53553,0z" fill="#bdb8ff" stroke="none" stroke-width="0.5"/><path d="M204.08027,122.23223c1.76777,1.76777 0,3.53553 0,3.53553l-0.26777,0.23223c-1.15598,1.54092 -2.3446,3.05742 -3.54783,4.56174c0,0 -1.56174,1.95217 -3.51391,0.39043c-1.95217,-1.56174 -0.39043,-3.51391 -0.39043,-3.51391c1.17098,-1.46344 2.3278,-2.93871 3.45217,-4.43826l0.73223,-0.76777c0,0 1.76777,-1.76777 3.53553,0z" fill="#bdb8ff" stroke="none" stroke-width="0.5"/><path d="M201.58027,240.76777c-1.76777,1.76777 -3.53553,0 -3.53553,0l-0.23223,-0.26777c-1.18894,-0.9103 -2.53315,-1.6354 -3.92848,-2.17881c0,0 -2.32119,-0.92848 -1.39272,-3.24967c0.92848,-2.32119 3.24967,-1.39272 3.24967,-1.39272c1.79093,0.73126 3.51514,1.67236 5.07152,2.82119l0.76777,0.73223c0,0 1.76777,1.76777 0,3.53553z" fill="#bdb8ff" stroke="none" stroke-width="0.5"/><path d="M232.19925,204.91987c2.08013,1.38675 0.69338,3.46688 0.69338,3.46688l-0.62867,0.60354c-0.16667,0.83333 -0.33333,1.66667 -0.5,2.5c0,0 -0.49029,2.45145 -2.94174,1.96116c-2.45145,-0.49029 -1.96116,-2.94174 -1.96116,-2.94174c0.16667,-0.83333 0.33333,-1.66667 0.5,-2.5l1.37133,-2.39646c0,0 1.38675,-2.08013 3.46688,-0.69338z" fill="#bdb8ff" stroke="none" stroke-width="0.5"/><path d="M251.54857,186.61803c-1.11803,2.23607 -3.3541,1.11803 -3.3541,1.11803l-2.16821,-1.09234c-0.83333,-0.5 -1.66667,-1 -2.5,-1.5c0,0 -2.14373,-1.28624 -0.85749,-3.42997c1.28624,-2.14373 3.42997,-0.85749 3.42997,-0.85749c0.83333,0.5 1.66667,1 2.5,1.5l1.83179,0.90766c0,0 2.23607,1.11803 1.11803,3.3541z" fill="#bdb8ff" stroke="none" stroke-width="0.5"/></g></g></g></svg>