<svg version="1.1" xmlns="http://www.w3.org/2000/svg" xmlns:xlink="http://www.w3.org/1999/xlink" width="198.2009" height="170.68473" viewBox="0,0,198.2009,170.68473"><g transform="translate(-140.89955,-94.65763)"><g data-paper-data="{&quot;isPaintingLayer&quot;:true}" fill-rule="nonzero" stroke-linecap="butt" stroke-linejoin="miter" stroke-miterlimit="10" stroke-dasharray="" stroke-dashoffset="0" style="mix-blend-mode: normal"><g><path d="M152.17653,255.0812c-10.65336,-8.97425 -13.06515,-135.15631 1,-149.33333c8.74471,-8.81426 163.8354,-13.82247 176.66667,0c7.85128,8.45779 10.22314,138.74158 -0.33333,149c-12.28894,11.94197 -166.47674,9.47878 -177.33333,0.33333z" fill="#ecdcc8" stroke="#8a5b43" stroke-width="5"/><path d="M158.60632,241.43991c-0.71084,-1.86713 -1.27785,-3.80297 -1.66375,-5.77057l-0.48364,-1.9991c0,0 -0.22,-0.915 0.12707,-1.79023c-0.71187,-2.88342 -1.20167,-5.92537 -1.72537,-9.24558c-0.01626,-6.36497 0.08148,-12.95009 1.04479,-19.21336c1.10039,-7.15447 6.41713,-13.11945 7.65407,-20.1613c1.19463,-6.80104 -1.53229,-14.22121 -5.35451,-19.56631c-1.63936,-4.96519 -4.00927,-9.91966 -4.84723,-15.10844c-2.16031,-13.37701 1.92036,-31.5922 14.83423,-37.39739c0,0 0.83489,-0.34723 1.71163,-0.11406c6.39031,-2.19616 14.35777,-2.70645 20.77204,-1.05857c5.7921,1.48804 11.23409,4.63335 16.69003,7.02099c3.38333,1.48062 7.02723,2.17397 10.46633,3.62197c7.69223,1.60642 11.92582,-3.91061 17.68177,-8.09821c10.46411,-7.61291 27.94826,-9.41955 38.46076,-1.22168c4.6119,1.86753 9.23734,3.961 14.31703,3.38665c3.56213,-0.40276 6.67321,-2.2647 10.20542,-2.6528c8.60144,-0.94508 17.68739,3.12934 19.59567,12.74944c0.62415,3.14647 0.04518,7.10577 0.03362,10.31316c-0.83399,4.43604 -1.89399,8.71055 -1.53081,13.27177c0.37515,4.71168 3.5952,8.33623 5.40149,12.43868c4.91045,11.1526 6.53578,23.38778 2.10932,34.89394c-2.18464,6.77846 -4.57738,12.15136 -3.93892,19.51801c0.43828,5.05691 2.33086,10.49441 0.34391,15.56207c-2.17905,5.5576 -7.34537,11.17668 -12.34857,14.07054c-2.66655,1.54233 -5.87242,2.51812 -8.62532,3.92407c-4.97825,0.89106 -10.50004,1.03215 -15.48526,0.09578c-1.85691,-0.34878 -3.57686,-1.38854 -5.4557,-1.57034c-3.5753,-0.34594 -7.1487,-0.68051 -10.71569,-1.06112c-10.22807,-1.09137 -18.85558,3.30897 -28.58264,5.30561c-5.10505,0 -9.60772,0.83955 -14.7162,-0.61577c-3.08972,-0.88021 -5.92111,-2.58979 -8.83538,-3.95245c-3.4739,-0.31249 -6.62681,0.58854 -10.08117,1.7922c-10.4764,3.61337 -23.23474,6.67013 -34.19116,3.20952c-4.76045,-1.5036 -9.44393,-4.70412 -11.77252,-9.21343c-0.76301,-0.4999 -1.09531,-1.3637 -1.09531,-1.3637z" fill="#eda1d3" stroke="none" stroke-width="0.5"/><path d="M261.31251,138.99999c0,-1.38071 1.11929,-2.5 2.5,-2.5c1.38071,0 2.5,1.11929 2.5,2.5c0,1.38071 -1.11929,2.5 -2.5,2.5c-1.38071,0 -2.5,-1.11929 -2.5,-2.5z" fill="#ed5c5c" stroke="none" stroke-width="0.5"/><path d="M174.81251,123.5c0,-1.38071 1.11929,-2.5 2.5,-2.5c1.38071,0 2.5,1.11929 2.5,2.5c0,1.38071 -1.11929,2.5 -2.5,2.5c-1.38071,0 -2.5,-1.11929 -2.5,-2.5z" fill="#ed5c5c" stroke="none" stroke-width="0.5"/><path d="M173.31251,222c0,-1.38071 1.11929,-2.5 2.5,-2.5c1.38071,0 2.5,1.11929 2.5,2.5c0,1.38071 -1.11929,2.5 -2.5,2.5c-1.38071,0 -2.5,-1.11929 -2.5,-2.5z" fill="#ed5c5c" stroke="none" stroke-width="0.5"/><path d="M299.31251,224.5c0,-1.38071 1.11929,-2.5 2.5,-2.5c1.38071,0 2.5,1.11929 2.5,2.5c0,1.38071 -1.11929,2.5 -2.5,2.5c-1.38071,0 -2.5,-1.11929 -2.5,-2.5z" fill="#ed5c5c" stroke="none" stroke-width="0.5"/><path d="M169.31251,147.49999c0,-1.38071 1.11929,-2.5 2.5,-2.5c1.38071,0 2.5,1.11929 2.5,2.5c0,1.38071 -1.11929,2.5 -2.5,2.5c-1.38071,0 -2.5,-1.11929 -2.5,-2.5z" fill="#edb05c" stroke="none" stroke-width="0.5"/><path d="M219.81251,175c0,-1.38071 1.11929,-2.5 2.5,-2.5c1.38071,0 2.5,1.11929 2.5,2.5c0,1.38071 -1.11929,2.5 -2.5,2.5c-1.38071,0 -2.5,-1.11929 -2.5,-2.5z" fill="#ffc574" stroke="none" stroke-width="0.5"/><path d="M169.31251,148.49999c0,-1.38071 1.11929,-2.5 2.5,-2.5c1.38071,0 2.5,1.11929 2.5,2.5c0,1.38071 -1.11929,2.5 -2.5,2.5c-1.38071,0 -2.5,-1.11929 -2.5,-2.5z" fill="#ffc574" stroke="none" stroke-width="0.5"/><path d="M241.81251,236c0,-1.38071 1.11929,-2.5 2.5,-2.5c1.38071,0 2.5,1.11929 2.5,2.5c0,1.38071 -1.11929,2.5 -2.5,2.5c-1.38071,0 -2.5,-1.11929 -2.5,-2.5z" fill="#ffc574" stroke="none" stroke-width="0.5"/><path d="M295.81251,127.5c0,-1.38071 1.11929,-2.5 2.5,-2.5c1.38071,0 2.5,1.11929 2.5,2.5c0,1.38071 -1.11929,2.5 -2.5,2.5c-1.38071,0 -2.5,-1.11929 -2.5,-2.5z" fill="#ffc574" stroke="none" stroke-width="0.5"/><path d="M223.81251,131.49999c0,-1.38071 1.11929,-2.5 2.5,-2.5c1.38071,0 2.5,1.11929 2.5,2.5c0,1.38071 -1.11929,2.5 -2.5,2.5c-1.38071,0 -2.5,-1.11929 -2.5,-2.5z" fill="#fffb73" stroke="none" stroke-width="0.5"/><path d="M182.31251,189c0,-1.38071 1.11929,-2.5 2.5,-2.5c1.38071,0 2.5,1.11929 2.5,2.5c0,1.38071 -1.11929,2.5 -2.5,2.5c-1.38071,0 -2.5,-1.11929 -2.5,-2.5z" fill="#fffb73" stroke="none" stroke-width="0.5"/><path d="M290.81251,241c0,-1.38071 1.11929,-2.5 2.5,-2.5c1.38071,0 2.5,1.11929 2.5,2.5c0,1.38071 -1.11929,2.5 -2.5,2.5c-1.38071,0 -2.5,-1.11929 -2.5,-2.5z" fill="#fffb73" stroke="none" stroke-width="0.5"/><path d="M197.31251,148.49999c0,-1.38071 1.11929,-2.5 2.5,-2.5c1.38071,0 2.5,1.11929 2.5,2.5c0,1.38071 -1.11929,2.5 -2.5,2.5c-1.38071,0 -2.5,-1.11929 -2.5,-2.5z" fill="#6ff16c" stroke="none" stroke-width="0.5"/><path d="M193.31251,240c0,-1.38071 1.11929,-2.5 2.5,-2.5c1.38071,0 2.5,1.11929 2.5,2.5c0,1.38071 -1.11929,2.5 -2.5,2.5c-1.38071,0 -2.5,-1.11929 -2.5,-2.5z" fill="#6ff16c" stroke="none" stroke-width="0.5"/><path d="M263.31251,116c0,-1.38071 1.11929,-2.5 2.5,-2.5c1.38071,0 2.5,1.11929 2.5,2.5c0,1.38071 -1.11929,2.5 -2.5,2.5c-1.38071,0 -2.5,-1.11929 -2.5,-2.5z" fill="#6ff16c" stroke="none" stroke-width="0.5"/><path d="M209.31251,207c0,-1.38071 1.11929,-2.5 2.5,-2.5c1.38071,0 2.5,1.11929 2.5,2.5c0,1.38071 -1.11929,2.5 -2.5,2.5c-1.38071,0 -2.5,-1.11929 -2.5,-2.5z" fill="#87d1ff" stroke="none" stroke-width="0.5"/><path d="M254.81251,156.49999c0,-1.38071 1.11929,-2.5 2.5,-2.5c1.38071,0 2.5,1.11929 2.5,2.5c0,1.38071 -1.11929,2.5 -2.5,2.5c-1.38071,0 -2.5,-1.11929 -2.5,-2.5z" fill="#87d1ff" stroke="none" stroke-width="0.5"/><path d="M196.31251,124c0,-1.38071 1.11929,-2.5 2.5,-2.5c1.38071,0 2.5,1.11929 2.5,2.5c0,1.38071 -1.11929,2.5 -2.5,2.5c-1.38071,0 -2.5,-1.11929 -2.5,-2.5z" fill="#87d1ff" stroke="none" stroke-width="0.5"/><path d="M166.3125,204c0,-1.38071 1.11929,-2.5 2.5,-2.5c1.38071,0 2.5,1.11929 2.5,2.5c0,1.38071 -1.11929,2.5 -2.5,2.5c-1.38071,0 -2.5,-1.11929 -2.5,-2.5z" fill="#cbaeff" stroke="none" stroke-width="0.5"/><path d="M245.31251,189c0,-1.38071 1.11929,-2.5 2.5,-2.5c1.38071,0 2.5,1.11929 2.5,2.5c0,1.38071 -1.11929,2.5 -2.5,2.5c-1.38071,0 -2.5,-1.11929 -2.5,-2.5z" fill="#cbaeff" stroke="none" stroke-width="0.5"/><path d="M266.81251,226.5c0,-1.38071 1.11929,-2.5 2.5,-2.5c1.38071,0 2.5,1.11929 2.5,2.5c0,1.38071 -1.11929,2.5 -2.5,2.5c-1.38071,0 -2.5,-1.11929 -2.5,-2.5z" fill="#cbaeff" stroke="none" stroke-width="0.5"/><path d="M305.81251,138.49999c0,-1.38071 1.11929,-2.5 2.5,-2.5c1.38071,0 2.5,1.11929 2.5,2.5c0,1.38071 -1.11929,2.5 -2.5,2.5c-1.38071,0 -2.5,-1.11929 -2.5,-2.5z" fill="#cbaeff" stroke="none" stroke-width="0.5"/></g></g></g></svg>