<svg version="1.1" xmlns="http://www.w3.org/2000/svg" xmlns:xlink="http://www.w3.org/1999/xlink" width="296.88819" height="144.30628" viewBox="0,0,296.88819,144.30628"><g transform="translate(-12.92595,-127.96301)"><g data-paper-data="{&quot;isPaintingLayer&quot;:true}" fill-rule="nonzero" stroke="none" stroke-width="0.5" stroke-linecap="butt" stroke-linejoin="miter" stroke-miterlimit="10" stroke-dasharray="" stroke-dashoffset="0" style="mix-blend-mode: normal"><path d="M47.1902,190.11255c0.08876,0.30644 0.17808,0.61484 0.26865,0.92509c0.34841,1.19347 0.7532,1.97748 1.01168,2.71043c0.36463,-0.29284 0.87569,-0.49806 1.59196,-0.49806c0.46998,0 0.85161,0.08835 1.1615,0.23184c0.36889,-0.41142 0.94348,-0.73184 1.8385,-0.73184c2.5,0 2.5,2.5 2.5,2.5c0,3.52323 0,7.04646 0,10.56969c0.55632,4.75796 0.5,9.69353 0.5,14.43031v1c0,0 0,2.5 -2.5,2.5c-0.32738,0 -0.61189,-0.04287 -0.85914,-0.11738l-0.14086,0.11738c0,0 -1.35784,0 -2.07213,-1.0007c-1.42736,-0.02799 -2.01557,-0.88691 -2.25796,-1.59007c-0.2132,0.05916 -0.43787,0.09077 -0.66991,0.09077c-0.82831,0 -1.56254,-0.40283 -2.01746,-1.02328l-1.48254,-1.97672l0.03781,-0.02836l-0.11243,-0.07667c-2.08192,-3.49756 -3.06835,-7.28966 -5.165,-10.78406c-1.33984,-3.35736 -2.18416,-7.72471 -5.2811,-10.12661c-3.24316,-2.51531 -8.5192,-0.25032 -12.20409,-2.30488c-6.90159,-3.84807 -6.95364,-12.79312 -2.13168,-18.35376c0.18497,-0.2133 3.93522,-3.0097 4.35649,-3.32565c0,0 0.37133,-0.2785 0.91398,-0.43549l2.08602,-1.56451l0.04756,0.06342c0.16011,-0.13001 0.32514,-0.25461 0.49573,-0.37312c2.54268,-1.76645 5.74631,-0.55011 8.06762,0.57008c6.19901,2.99146 11.02395,9.72694 12.34054,16.24933l0.04855,0.99029c0,0 0,0.70238 -0.3723,1.36255z" fill="#b6bac1"/><path d="" fill="#8a5b43"/><path d="" fill="#8a5b43"/><path d="" fill="#8a5b43"/><g><path d="M245.47105,227.54489c-11.51681,1.03786 -23.37759,-0.17698 -34.26226,-3.44238c-4.67898,-1.40369 -7.63798,-1.91519 -10.5853,-4.05194l-0.40309,0.6718l-2.55718,-1.53431c-0.20061,-0.11567 -0.38432,-0.25737 -0.54651,-0.42049c-1.68126,-0.21476 -3.37529,-0.62056 -4.3031,-1.38403c-0.19545,0.04698 -0.39951,0.07186 -0.60938,0.07186c-0.59433,0 0.04562,-1.38723 -0.39213,-1.72301l-2.88218,-2.13689l-2.12864,-1.38935c-0.21541,-0.28082 -0.67168,-0.01305 -0.75824,-0.36766l-0.05828,-0.07771c-0.33578,-0.43775 -0.53535,-0.98547 -0.53535,-1.5798c0,-0.15164 0.01299,-0.30025 0.03792,-0.44476l-0.31619,-0.31618c-0.27878,-0.27878 -0.49448,-0.62061 -0.62391,-1.00228c-1.31118,0.42994 -2.66869,0.59312 -3.60062,-0.19566c-0.05988,-0.05068 -0.12008,-0.10454 -0.18043,-0.16137c-1.86721,-0.05166 -3.61664,-0.34712 -4.80325,-2.16371c-2.45987,-2.11764 -3.86353,-6.20991 -2.78619,-8.66109c0.0961,-0.21864 0.20757,-0.43112 0.33274,-0.6369c0.61674,-3.41136 2.95278,-7.05246 5.74308,-8.13125c0.15172,-0.16336 0.30543,-0.32278 0.46045,-0.47768c0.92304,-1.77981 2.39462,-3.46079 3.90853,-4.56399c-1.29418,-0.4855 -2.58256,-1.61733 -3.53427,-2.98559c-0.02246,0.00374 -0.04483,0.00764 -0.06713,0.0117c-3.50898,-3.48355 -5.37784,-3.35173 -3.19447,-8.7046c0.0718,-0.17603 0.16776,-0.37011 0.28514,-0.57582c0.64865,-1.78298 2.11217,-3.48506 3.75989,-4.44061c0.63254,-0.85497 1.66401,-1.54282 2.46027,-2.24449c0.82316,-0.72538 1.85544,-1.16328 2.82447,-1.68815c1.347,-1.64539 3.30894,-2.62396 5.69074,-1.8902c4.27989,-5.82825 3.46156,-13.87524 6.86385,-20.46919c1.6217,-3.143 4.15445,-6.21557 7.84751,-5.80836c0.36726,-0.19875 0.78781,-0.31159 1.23472,-0.31159c0.59433,0 1.14204,0.19957 1.5798,0.53535l2.05741,1.54306l-0.11039,0.14718l0.38866,0.09415c0.68554,0.89746 1.30564,1.69615 1.86911,2.44341c4.18238,2.65052 7.34363,11.56541 12.25683,13.66126l1.70343,-1.27757l0.09871,0.13161c0.1975,-0.1885 0.40915,-0.36236 0.63853,-0.5179c0.23796,-0.16136 4.12111,-0.13659 5.74943,-0.12447l2.91036,-0.48506c0.15412,-0.02849 0.31302,-0.0434 0.47539,-0.0434c0.17971,0 0.35516,0.01825 0.5246,0.05299c3.9049,-0.88437 7.96165,-1.07928 12.46543,-1.09219h2.59801c0.16613,0 0.32862,0.01559 0.48608,0.04539c0.01608,-0.02239 0.03251,-0.04453 0.04927,-0.06638l1.54306,-2.05741l0.04248,0.03186c0.02371,-0.05865 0.04813,-0.11709 0.07325,-0.17528c0.54095,-1.25303 1.91236,-2.52296 3.27981,-3.67362c1.37754,-1.63854 2.9512,-3.08606 4.48204,-4.60799l1.16178,-1.54905c2.74357,-4.08288 5.41874,-8.06103 11.76622,-3.51923c7.65118,5.47463 6.02474,18.01888 12.32027,24.31441c7.48521,2.79352 12.55556,8.35276 9.89334,16.93845c-0.78327,2.52604 -3.53713,4.07255 -4.07153,6.19347c-0.22004,0.8733 1.82837,0.18007 2.64166,0.56692c1.0657,0.5069 1.99893,1.28124 2.85504,2.09347c6.62481,6.28517 11.43108,14.01201 5.32162,22.24492c-3.16037,3.16037 -4.70833,3.79166 -8.29183,6.40538c-3.70629,2.70329 -9.28962,7.15837 -13.94583,7.49461c-0.30598,0.40164 -0.72632,0.71146 -1.21244,0.8809l-4.10002,1.53751l-0.25261,-0.67363c-9.44991,4.77907 -20.74738,6.0018 -31.31608,6.03506z" fill="#b6bac1"/><path d="M198.53471,141.9333c0.675,-1.60778 1.42687,-4.85151 3.14096,-5.73341c6.13242,-3.15517 15.08988,5.04871 17.27172,9.47557c0.61967,1.25728 2.49341,2.66456 2.01415,3.84309h0.36995c0,0 2.59801,0 2.59801,2.37382c0,2.37382 -2.59801,2.37382 -2.59801,2.37382h-0.41568c-7.80836,-0.05357 -20.44068,2.44642 -26.64334,7.07604c0,0 -2.0287,1.48291 -3.65166,-0.37072c-1.62296,-1.85364 0.40574,-3.33656 0.40574,-3.33656c0.26299,-0.18917 0.5336,-0.37512 0.81138,-0.55783c1.0711,-5.6177 4.48611,-9.87819 6.6968,-15.14382z" fill="#a9acb4"/><path d="M254.90319,145.42855c0.29228,-2.44748 5.43346,-6.51926 6.99067,-7.54212c3.14656,-4.91399 8.44235,-9.83745 13.17895,-4.01919c4.23419,1.69899 4.31421,7.11442 5.29884,10.9963c0.68727,2.70952 1.4981,3.88933 2.12367,5.50952l0.74321,-0.24774l0.81218,2.43656c0.09871,0.27456 0.1525,0.57054 0.1525,0.87909c0,1.43484 -1.16317,2.59801 -2.59801,2.59801c-0.30855,0 -0.60454,-0.05379 -0.87909,-0.1525l-2.43656,-0.81218l0.01828,-0.05483l-0.19093,-0.00961c-2.43302,-1.21651 -5.14426,-2.67144 -7.87311,-3.79271c-4.87242,-0.90129 -10.12231,-1.29856 -14.87476,-0.60813c0,0 -2.57189,0.36741 -2.9393,-2.20448c-0.36741,-2.57189 2.20448,-2.9393 2.20448,-2.9393c0.08974,-0.01263 0.17939,-0.02486 0.26897,-0.03667z" fill="#a9acb4"/><path d="M194.64591,191.97906c-0.76936,-0.68155 -1.34554,-1.55265 -1.61515,-2.60831c-0.88532,-3.46652 0.24064,-5.34774 2.21795,-6.19349c5.10463,-5.21852 18.49007,-0.82925 12.47343,9.0781c-3.65751,6.02267 -10.26959,3.80341 -13.07623,-0.27629z" fill="#c2b8b6"/><path d="M275.85606,187.88776c0.28498,-0.93421 0.83886,-1.91257 1.72307,-2.91169c1.01449,-1.14634 2.37724,-2.12526 3.86706,-2.477c12.9118,-3.04843 10.9014,19.03677 -1.55677,14.12146c-4.44048,-1.75197 -5.27608,-5.51163 -4.03336,-8.73277z" fill="#c2b8b6"/><g fill="#8a5b43"><path d="M286.63878,160.40531c-2.54755,0.50951 -3.05706,-2.03804 -3.05706,-2.03804l-0.5196,-2.59801c-1.44031,-7.20159 -2.89479,-13.49397 -7.72873,-19.07174c-2.38533,-2.75238 -4.62581,-4.85096 -7.76634,-2.33755c-4.39556,4.39556 -9.10337,14.54094 -14.73723,17.06481c-2.04374,0.91556 -7.0495,0.19776 -9.30783,0.19776c-5.92989,0 -12.18054,-0.35896 -17.74076,1.89258c0,0 -1.58072,0.63228 -2.69479,-0.40642c-0.6879,-0.22983 -1.14636,-0.68829 -1.14636,-0.68829l-0.76094,-0.79787c-1.06597,-1.4213 -2.13098,-2.84332 -3.19515,-4.26596c-2.07109,-3.49625 -8.3094,-12.98479 -13.64972,-11.4554c-1.4054,0.40248 -3.14801,4.24762 -3.65725,5.37572c-2.64734,5.86452 -5.32876,12.82596 -6.56758,19.16876c0,0 -0.50951,2.54755 -3.05706,2.03804c-2.54755,-0.50951 -2.03804,-3.05706 -2.03804,-3.05706c1.54864,-7.59424 4.63069,-16.57102 8.6334,-23.17c1.4284,-2.35489 2.14101,-4.26789 5.04341,-5.28483c8.13748,-2.85119 16.15589,7.80177 19.60475,13.48546c0.94416,1.25522 1.88744,2.5111 2.82996,3.76755c5.89591,-1.98362 12.18941,-1.7983 18.39614,-1.7983c1.39944,0 6.01741,0.76515 7.3194,0.19776c1.38751,-0.60466 3.2399,-4.23121 4.11182,-5.39377c2.84758,-3.79677 5.85532,-7.4418 9.20941,-10.79589c14.28461,-10.33389 22.02294,14.45725 23.99461,24.31561l0.5196,2.59801c0,0 0.50951,2.54755 -2.03804,3.05706z"/><path d="M187.92466,210.85707c0,2.59801 -2.59801,2.59801 -2.59801,2.59801l-1.54871,-0.05045c-2.91015,-0.58744 -6.75505,-1.23121 -9.23429,-2.97664c-6.66114,-4.68958 -4.48723,-15.41905 -1.36796,-21.6031c0.75082,-1.48853 2.71088,-4.24745 4.66324,-5.54699c-12.85242,-7.69502 0.808,-24.84562 13.20333,-24.90053c0,0 2.59801,0 2.59801,2.59801c0,2.59801 -2.59801,2.59801 -2.59801,2.59801c-8.45255,-0.04563 -19.59443,11.86229 -8.07999,16.44079l0.2142,0.28214l0.07178,-0.0957l2.05421,1.54066c0.64476,0.47275 1.06339,1.23577 1.06339,2.09655c0,1.27705 -0.92141,2.33889 -2.13569,2.55699l-1.25324,0.25066c-5.47824,4.26818 -10.37225,11.23431 -6.84236,18.21768c1.23505,2.44337 6.36119,2.99097 8.66238,3.44638l0.52969,-0.05045c0,0 2.59801,0 2.59801,2.59801z"/><path d="M301.54719,210.80268c-0.09455,0.23782 -1.97665,1.71972 -3.22515,1.36053c-1.24851,-0.35919 -2.06838,-1.38142 -2.13478,-2.95774c-0.06641,-1.57631 2.04074,-2.35767 2.04074,-2.35767c4.92503,-2.95092 6.45949,-3.73526 6.41542,-9.98666c-0.68162,-3.39367 -1.67145,-5.97386 -4.61341,-7.99537c-3.20322,-2.20103 -7.61487,-2.2227 -7.86621,-7.4629c-0.08732,-1.82058 3.64984,-5.29842 4.26106,-7.36127c2.00949,-6.78197 -3.8228,-12.13875 -9.97003,-13.33939c0,0 -2.54755,-0.50951 -2.03804,-3.05706c0.50951,-2.54755 3.05706,-2.03804 3.05706,-2.03804c9.06148,1.84784 16.8843,10.15381 13.93162,19.91508c-0.72247,2.38843 -3.43577,4.36395 -4.05256,6.14836c-0.32237,0.93262 1.83029,0.74241 2.71671,1.17595c1.02157,0.49965 1.9992,1.09517 2.92671,1.75318c4.26237,3.02385 5.82833,6.7876 6.81781,11.74947c-0.03838,7.91215 -4.99218,12.30015 -8.26695,14.45353z"/><path d="M296.72828,213.96865c1.44111,2.16168 -0.72056,3.60279 -0.72056,3.60279l-1.66325,1.1053c-16.93244,10.14538 -34.85024,13.36026 -54.33598,13.36026c-16.38942,0 -37.4685,-3.28253 -49.64037,-15.30977c0,0 -1.83707,-1.83707 0,-3.67414c1.83707,-1.83707 3.67414,0 3.67414,0c10.93161,11.09514 31.17215,13.7879 45.96623,13.7879c18.54219,0 35.55127,-2.93865 51.66265,-12.61979l1.45435,-0.97311c0,0 2.16168,-1.44111 3.60279,0.72056z"/><path d="M228.45355,181.23981c0,-1.43484 1.16317,-2.59801 2.59801,-2.59801c1.43484,0 2.59801,1.16317 2.59801,2.59801c0,1.43484 -1.16317,2.59801 -2.59801,2.59801c-1.43484,0 -2.59801,-1.16317 -2.59801,-2.59801z"/><path d="M248.19839,179.681c0,-1.43484 1.16317,-2.59801 2.59801,-2.59801c1.43484,0 2.59801,1.16317 2.59801,2.59801c0,1.43484 -1.16317,2.59801 -2.59801,2.59801c-1.43484,0 -2.59801,-1.16317 -2.59801,-2.59801z"/><path d="M284.48528,186.60494c2.32373,0.7863 1.16187,2.35891 1.16187,2.35891l-0.76493,0.97192c-3.65099,3.26417 -6.52056,6.99362 -12.30387,8.94195c-10.24184,3.45035 -25.98764,0.47629 -30.37741,-6.89128c-0.48778,0.78338 -1.83891,2.78771 -2.76535,3.41233c-2.97837,2.00808 -7.74853,4.08686 -11.9731,4.37451c-11.53526,0.78545 -22.84992,-3.60587 -26.62233,-11.03974c0,0 -0.82156,-1.668 1.64312,-2.22401c2.46469,-0.556 3.28625,1.11201 3.28625,1.11201c2.62031,5.53475 14.26156,10.89574 23.09814,8.41048c4.34282,-1.22141 6.80695,-3.39066 9.6925,-5.67075c1.09348,-0.86403 1.71964,-2.4509 3.39732,-2.52221c1.85969,-0.07905 3.04317,1.45584 4.56476,2.18375c3.36686,5.69638 15.41628,8.54175 23.64458,5.7401c5.03015,-1.71272 7.41705,-5.08026 10.55858,-7.93702l0.27428,-0.43465c0,0 1.16186,-1.57261 3.48559,-0.78631z"/></g><path d="M224.48172,170.52896l0.21865,0.22896c-0.07213,0.16426 -0.13784,0.33343 -0.19896,0.50609c-0.03629,0.70369 -0.23377,1.33381 -0.55138,1.87869c-0.30803,1.07515 -0.68214,2.09985 -1.51515,2.77425c-2.64146,2.13851 -8.00441,0.9032 -8.99889,-2.61884c-1.66562,-5.89899 8.54825,-9.65857 10.63489,-4.39176c0.22602,0.57049 0.35869,1.11257 0.41083,1.62261z" fill="#dfe4ed"/><path d="M269.10538,172.57209c0,0 0.34125,1.02377 -0.07592,1.97162c-0.06574,1.57806 -1.253,2.94006 -4.39154,3.47948c-8.5544,1.47022 -7.64706,-11.55268 -1.32267,-10.96866c1.78754,0.16507 2.97307,0.71802 3.68674,1.47607c0.3555,0.19331 0.6258,0.46706 0.8238,0.73067c0.2078,0.25545 0.36802,0.55114 0.46718,0.87357z" fill="#dfe4ed"/><path d="M210.28244,143.29029c1.83707,1.83707 0,3.67413 0,3.67413l-0.20374,-0.18414c-2.78097,8.13283 -6.5922,7.50989 -10.19226,0.3403c0,0 -1.16186,-2.32373 1.16186,-3.48559c2.32373,-1.16186 3.48559,1.16186 3.48559,1.16186c0.12233,0.24583 0.28167,0.55707 0.44042,0.89276c0.06316,-0.20617 0.12428,-0.39497 0.17502,-0.55246l1.45898,-1.84687c0,0 1.83707,-1.83707 3.67413,0z" fill="#c2b8b6"/><path d="M271.94877,141.78029c0.01743,-0.02594 0.03489,-0.05168 0.05233,-0.0772c0.15134,-0.75734 0.68135,-2.08351 2.53752,-2.08351c2.59801,0 2.59801,2.59801 2.59801,2.59801l-0.5693,2.03864c-4.97132,6.14596 -7.56109,4.96001 -9.89724,-2.04844c0,0 -0.82156,-2.46468 1.64312,-3.28625c2.46468,-0.82156 3.28625,1.64312 3.28625,1.64312c0.10562,0.31685 0.24139,0.75804 0.34931,1.21562z" fill="#c2b8b6"/></g><path d="M58.6842,220.70945c0.79057,2.37171 -1.58114,3.16228 -1.58114,3.16228l-2.29057,0.62829c-5.16578,-0.02289 -9.61027,-1.10688 -13.76776,-4.23224c-1.89295,-2.51809 -3.54273,-5.45811 -4.59692,-8.45642c-1.16823,-3.32269 0.20424,-6.8615 -2.10583,-9.77281c-3.91147,-4.9295 -9.08136,-1.51182 -14.04991,-3.75627c-6.22318,-2.81121 -9.13327,-13.90498 -6.24563,-19.83821c0.57348,-1.17833 1.60216,-2.07424 2.40323,-3.11136c0.42247,-0.42356 4.22016,-4.26038 4.54849,-4.45932c8.05342,-4.87972 19.13747,-2.74419 24.78485,4.58809c3.22978,4.19339 3.36502,9.38569 5.31175,14.01811c0.72844,1.73339 1.60746,2.77321 3.22745,2.06897c0,0 2.45145,-0.49029 2.94174,1.96116c0.49029,2.45145 -1.96116,2.94174 -1.96116,2.94174c-1.23825,0.1471 -2.53284,0.83876 -3.71475,0.44128c-6.11579,-2.05679 -6.15766,-11.48327 -8.51515,-16.28182c-3.21326,-6.54043 -10.35912,-8.61089 -16.90049,-6.26344c-2.98068,1.06965 -3.74631,2.07547 -5.99707,4.31984c-2.53103,2.99367 -2.49175,6.83217 -1.04163,10.40422c0.67651,1.66644 1.33019,3.84305 3.19924,4.64621c2.07865,0.89323 5.09126,0.07161 7.22592,0.29443c3.53801,0.3693 6.54938,2.11856 8.72417,4.9493c2.93324,3.81797 1.3878,7.25936 2.89417,11.22719c0.82739,2.17938 2.00465,4.67142 3.40308,6.54358c2.95178,2.20487 6.60435,2.78735 10.23224,2.76776l0.70943,-0.37171c0,0 2.37171,-0.79057 3.16228,1.58114z" fill="#8a5b43"/><path d="" fill="#b6bac1"/><path d="" fill="#b6bac1"/><path d="M185.25986,260.23264c-0.56771,-0.93817 -0.81061,-2.26308 0.14914,-3.02531c0.63544,-0.50466 5.76745,-1.0865 6.99579,-1.23186c7.11748,-0.84224 14.79192,-1.30898 22.07438,-1.30898c5.89722,0 18.30149,-3.6324 24.16667,-3.57519c3.23449,0.03155 -1.73066,0.90186 0.44835,2.54368c1.07075,0.80678 0.88115,2.50233 0.88498,3.43636c0.01459,3.5568 -1.72241,10.60091 -9.99934,11.68768c-6.21473,0.816 -9.98985,0.28598 -13.47699,-1.95974c-0.16264,-0.11194 -1.76836,-1.21398 -2.64364,-1.82455c-0.46819,-0.01142 -0.90268,-0.08934 -1.26882,-0.21586c-0.54918,0.51366 -1.2545,0.9629 -1.48458,1.15406c-2.30679,1.91652 -5.24973,3.73187 -9.97128,3.96562c-1.65658,0.08202 -4.80442,-0.53367 -6.26625,-0.90639c-0.49759,-0.12687 -5.52918,-1.7147 -5.7234,-1.82821c-3.151,-1.84175 -3.18036,-4.56551 -3.88501,-6.9113z" fill="#b6bac1"/><path d="M69.21568,250.64992c0.52308,0.09053 1.04434,0.17836 1.50983,0.17458c4.1241,-0.0335 7.42564,0.19853 11.35629,1.25322c1.94329,0.25993 5.69753,0.59222 7.11245,1.69126c3.16048,2.45494 1.4128,5.62326 0.10611,8.22411c-2.81793,5.60883 -11.1161,9.90306 -18.34191,5.66268c-0.85467,-0.50155 -1.334,-1.32009 -1.97928,-1.99378c-1.9779,-2.06495 -2.81992,-3.89003 -3.45145,-6.42823c-0.45029,-1.80978 -0.57567,-3.38184 -0.39043,-5.05198c-0.04571,-0.71416 0.05465,-1.41932 0.37502,-2.09173c0.00509,-0.02119 0.01023,-0.04243 0.01541,-0.06369c0,0 0.49029,-1.96742 2.94174,-1.57394c0.28731,0.04611 0.53421,0.11385 0.74622,0.1975z" fill="#b6bac1"/><path d="M240.04898,247.5c2.5,0 2.5,2.5 2.5,2.5v0.5c-0.01671,3.77134 -0.55644,8.23569 -2.28555,11.66026c-3.9212,7.76611 -14.74141,11.91355 -22.43926,7.51915c-2.45012,-1.39868 -4.14299,-2.28569 -5.13865,-4.88334c-4.97292,9.38468 -17.0724,9.8036 -24.9043,1.9717c-3.51798,-3.51798 -3.27263,-6.84411 -4.18369,-11.27747c0,0 -0.49029,-2.45145 1.96116,-2.94174c2.45145,-0.49029 2.94174,1.96116 2.94174,1.96116c0.67244,3.44 0.14449,6.0507 2.81631,8.72253c5.55566,5.55566 14.57882,4.42819 17.41105,-3.16071l0.92379,-0.75793c0.04014,-0.1519 0.07621,-0.24207 0.07621,-0.24207c0.30124,-0.74393 0.60249,-1.48786 0.90373,-2.23179l0.45692,-2.28461c0.20986,-1.16847 1.23165,-2.05512 2.46053,-2.05512c1.22888,0 2.25067,0.88665 2.46053,2.05512l0.49092,2.45459l-0.01594,0.00319c0.00962,0.02162 0.01915,0.0433 0.0286,0.06502c1.11471,2.56366 0.40435,4.90269 2.39238,7.24773c4.57103,5.39191 14.42867,0.58952 16.92906,-4.48591c1.33436,-2.70857 1.73045,-6.37596 1.71445,-9.33974v-0.5c0,0 0,-2.5 2.5,-2.5z" fill="#8a5b43"/><path d="M91.30279,251.54855c2.45145,0.49029 1.96116,2.94174 1.96116,2.94174l-0.49241,2.46041c-0.63148,3.6903 -1.48973,6.85104 -4.11629,9.73876c-5.95733,6.54969 -16.33814,4.05066 -21.68549,-2c-3.40503,-3.85288 -4.02222,-8.5438 -4.13317,-13.34107c-0.01587,-0.11385 -0.02408,-0.23016 -0.02408,-0.34839c0,-0.08546 0.00429,-0.16992 0.01266,-0.25317c-0.01131,-0.74802 -0.01266,-1.49788 -0.01266,-2.24683c0,0 0,-2.5 2.5,-2.5c2.5,0 2.5,2.5 2.5,2.5c0,0.73955 -0.00986,1.50162 -0.01007,2.27408c0.00666,0.07441 0.01007,0.14977 0.01007,0.22592c0,0.07205 -0.00304,0.14338 -0.00902,0.21389c0.01916,3.59325 0.32429,7.36018 2.85177,10.09665c3.43183,3.7156 10.35729,6.46798 14.31451,2c1.95185,-2.20378 2.43361,-4.47422 2.88371,-7.26124l0.50759,-2.53959c0,0 0.49029,-2.45145 2.94174,-1.96116z" fill="#8a5b43"/></g></g></svg>