<svg version="1.1" xmlns="http://www.w3.org/2000/svg" xmlns:xlink="http://www.w3.org/1999/xlink" width="276.31624" height="146.66426" viewBox="0,0,276.31624,146.66426"><g transform="translate(-32.75235,-125.60504)"><g data-paper-data="{&quot;isPaintingLayer&quot;:true}" fill-rule="nonzero" stroke="none" stroke-width="0.5" stroke-linecap="butt" stroke-linejoin="miter" stroke-miterlimit="10" stroke-dasharray="" stroke-dashoffset="0" style="mix-blend-mode: normal"><path d="M45.16204,209.28228c2.36348,-0.62821 4.0698,0.45844 5.40264,1.95721c0.2925,-0.19487 0.66846,-0.35095 1.15064,-0.44095c0.45405,-0.08475 0.84532,-0.0816 1.18193,-0.01841c2.61972,-0.39127 3.05728,2.05887 3.05728,2.05887c0.65584,3.67621 1.10268,7.18016 1.10796,10.911v0.5c0,0 0,2.5 -2.67879,2.5c-1.78422,0 -2.38005,-1.10907 -2.57903,-1.84981c-0.42254,0.27501 -0.90474,0.51744 -1.45161,0.72152c-7.17863,2.67881 -16.77706,-7.29432 -12.90559,-14.20464c0.55332,-0.98765 1.74334,-1.44471 2.61502,-2.16707c0,0 2,-1.5 3.5,0.5c0.0383,0 0.0764,0.00086 0.11427,0.00257c0.49587,-0.18593 0.99799,-0.34077 1.48527,-0.47028z" fill="#697596"/><path d="M57.08524,225.28372c0.46331,2.45669 -2.09688,2.93953 -2.09688,2.93953l-0.51204,0.09657c-7.05544,1.30785 -14.33024,0.54893 -18.83165,-5.55695c-1.65314,-2.24238 -3.06217,-6.06663 -2.8757,-8.8368c0.36143,-5.36935 5.95814,-8.6353 11.04537,-7.8474c4.32103,0.66923 8.24443,2.26084 12.09922,4.21027c0,0 2.2886,1.15766 1.05105,3.37763c-1.23755,2.21998 -3.52616,1.06232 -3.52616,1.06232c-1.59373,-0.80636 -3.05361,-1.94121 -4.79724,-2.39008c-1.85738,-0.47815 -5.54519,-1.68523 -7.50747,-1.34645c-5.98091,1.03258 -1.98871,8.82847 0.83899,10.86172c3.64061,2.61777 7.37964,2.35953 11.57696,1.55234l0.51204,-0.09657c0,0 2.56019,-0.48283 3.02351,1.97386z" fill="#8a5b43"/><g><path d="M185.25987,260.23264c-0.56771,-0.93817 -0.81061,-2.26308 0.14914,-3.02531c0.63544,-0.50466 5.76745,-1.0865 6.99579,-1.23186c7.11748,-0.84224 14.79192,-1.30898 22.07438,-1.30898c5.89722,0 18.30149,-3.6324 24.16667,-3.57519c3.23449,0.03155 -1.73066,0.90186 0.44835,2.54368c1.07075,0.80678 0.88115,2.50233 0.88498,3.43636c0.01459,3.5568 -1.72241,10.60091 -9.99934,11.68768c-6.21473,0.816 -9.98985,0.28598 -13.47699,-1.95974c-0.16264,-0.11194 -1.76836,-1.21398 -2.64364,-1.82455c-0.46819,-0.01142 -0.90268,-0.08934 -1.26882,-0.21586c-0.54918,0.51366 -1.2545,0.9629 -1.48458,1.15406c-2.30679,1.91652 -5.24973,3.73187 -9.97128,3.96562c-1.65658,0.08202 -4.80442,-0.53367 -6.26625,-0.90639c-0.49759,-0.12687 -5.52918,-1.7147 -5.7234,-1.82821c-3.151,-1.84175 -3.18036,-4.56551 -3.88501,-6.9113z" fill="#697596"/><path d="M69.21568,250.64992c0.52308,0.09053 1.04434,0.17836 1.50983,0.17458c4.1241,-0.0335 7.42564,0.19853 11.35629,1.25322c1.94329,0.25993 5.69753,0.59222 7.11245,1.69126c3.16048,2.45494 1.4128,5.62326 0.10611,8.22411c-2.81793,5.60883 -11.1161,9.90306 -18.34191,5.66268c-0.85467,-0.50155 -1.334,-1.32009 -1.97928,-1.99378c-1.9779,-2.06495 -2.81992,-3.89003 -3.45145,-6.42823c-0.45029,-1.80978 -0.57567,-3.38184 -0.39043,-5.05198c-0.04571,-0.71416 0.05465,-1.41932 0.37502,-2.09173c0.00509,-0.02119 0.01023,-0.04243 0.01541,-0.06369c0,0 0.49029,-1.96742 2.94174,-1.57394c0.28731,0.04611 0.53421,0.11385 0.74622,0.1975z" fill="#697596"/><path d="M239.81251,247.5c2.5,0 2.5,2.5 2.5,2.5v0.5c-0.01671,3.77134 -0.55644,8.23569 -2.28555,11.66026c-3.9212,7.76611 -14.74141,11.91355 -22.43926,7.51915c-2.45012,-1.39868 -4.14299,-3.70457 -5.13865,-6.30222c-4.97292,9.38468 -17.0724,11.22248 -24.9043,3.39058c-3.51798,-3.51798 -3.27263,-6.84411 -4.18369,-11.27747c0,0 -0.49029,-2.45145 1.96116,-2.94174c2.45145,-0.49029 2.94174,1.96116 2.94174,1.96116c0.67244,3.44 0.14449,6.0507 2.81631,8.72253c5.55566,5.55566 14.57882,4.42819 17.41105,-3.16071l0.92379,-0.75793c0.04014,-0.1519 0.07621,-0.24207 0.07621,-0.24207c0.30124,-0.74393 0.60249,-1.48786 0.90373,-2.23179l0.45692,-2.28461c0.20986,-1.16847 1.23165,-2.05512 2.46053,-2.05512c1.22888,0 2.25067,0.88665 2.46053,2.05512l0.49092,2.45459l-0.01594,0.00319c0.00962,0.02162 0.01915,0.0433 0.0286,0.06502c1.11471,2.56366 0.40435,4.90269 2.39238,7.24773c4.57103,5.39191 14.42867,0.58952 16.92906,-4.48591c1.33436,-2.70857 1.73045,-6.37596 1.71445,-9.33974v-0.5c0,0 0,-2.5 2.5,-2.5z" fill="#8a5b43"/><path d="M91.3028,251.54855c2.45145,0.49029 1.96116,2.94174 1.96116,2.94174l-0.49241,2.46041c-0.63148,3.6903 -1.48973,6.85104 -4.11629,9.73876c-5.95733,6.54969 -16.33814,4.05066 -21.68549,-2c-3.40503,-3.85288 -4.02222,-8.5438 -4.13317,-13.34107c-0.01587,-0.11385 -0.02408,-0.23016 -0.02408,-0.34839c0,-0.08546 0.00429,-0.16992 0.01266,-0.25317c-0.01131,-0.74802 -0.01266,-1.49788 -0.01266,-2.24683c0,0 0,-2.5 2.5,-2.5c2.5,0 2.5,2.5 2.5,2.5c0,0.73955 -0.00986,1.50162 -0.01007,2.27408c0.00666,0.07441 0.01007,0.14977 0.01007,0.22592c0,0.07205 -0.00304,0.14338 -0.00902,0.21389c0.01916,3.59325 0.32429,7.36018 2.85177,10.09665c3.43183,3.7156 10.35729,6.46798 14.31451,2c1.95185,-2.20378 2.43361,-4.47422 2.88371,-7.26124l0.50759,-2.53959c0,0 0.49029,-2.45145 2.94174,-1.96116z" fill="#8a5b43"/></g><path d="M240.04899,247.50001c2.5,0 2.5,2.5 2.5,2.5v0.5c-0.01671,3.77134 -0.55644,8.23569 -2.28555,11.66026c-3.9212,7.76611 -14.74141,11.91355 -22.43926,7.51915c-2.45012,-1.39868 -4.14299,-2.28569 -5.13865,-4.88334c-4.97292,9.38468 -17.0724,9.8036 -24.9043,1.9717c-3.51798,-3.51798 -3.27263,-6.84411 -4.18369,-11.27747c0,0 -0.49029,-2.45145 1.96116,-2.94174c2.45145,-0.49029 2.94174,1.96116 2.94174,1.96116c0.67244,3.44 0.14449,6.0507 2.81631,8.72253c5.55566,5.55566 14.57882,4.42819 17.41105,-3.16071l0.92379,-0.75793c0.04014,-0.1519 0.07621,-0.24207 0.07621,-0.24207c0.30124,-0.74393 0.60249,-1.48786 0.90373,-2.23179l0.45692,-2.28461c0.20986,-1.16847 1.23165,-2.05512 2.46053,-2.05512c1.22888,0 2.25067,0.88665 2.46053,2.05512l0.49092,2.45459l-0.01594,0.00319c0.00962,0.02162 0.01915,0.0433 0.0286,0.06502c1.11471,2.56366 0.40435,4.90269 2.39238,7.24773c4.57103,5.39191 14.42867,0.58952 16.92906,-4.48591c1.33436,-2.70857 1.73045,-6.37596 1.71445,-9.33974v-0.5c0,0 0,-2.5 2.5,-2.5z" fill="#8a5b43"/><g><path d="M187.64452,165.66711c-2.53243,-5.54471 -4.84807,-10.79663 -4.32735,-17.33132c0.44283,-5.55717 4.41173,-9.605 8.36263,-12.36618c0.5809,-0.40598 5.50523,-4.0604 5.88943,-4.22283c1.14216,-0.48288 2.42191,-0.39848 3.62816,-0.62875c5.97802,-1.14121 10.49212,-2.24183 16.15409,0.80184c5.25042,3.88004 6.87816,8.47443 8.38136,15.05964c0.0337,0.1476 0.42021,5.53408 1.08909,5.86656c0.93611,0.46533 1.91249,-0.83422 2.89655,-1.16029c4.27519,-1.41658 8.36004,-1.66219 12.79958,-2.09512c0.47084,-0.04592 5.57612,0.02308 5.64667,0.03659c0.80794,0.1547 1.56357,0.57226 2.28463,1c0.18402,0.10915 0.34996,0.79521 0.3557,0.56626c0.03651,-1.45669 -0.32274,-2.90047 -0.31969,-4.35771c0.75911,-4.24949 1.62695,-8.85095 4.1749,-12.35552c3.01197,-4.14283 8.69965,-5.39082 13.17718,-5.39813c6.39152,-0.01044 13.11314,0.9513 18.34257,5.55584c0.891,0.78453 4.10992,5.77892 4.58664,6.57341c1.34835,2.24711 2.15417,3.54391 2.20144,6.33046c0.01517,0.89432 -0.73632,4.81648 -0.951,5.99101c-0.7943,4.83944 -3.30992,8.40123 -5.09268,12.80388c-0.05226,0.12908 0.24053,-0.12084 0.36946,-0.12629c0.77223,-0.03266 1.60568,-0.31432 2.3184,0.01264c0.36017,0.16523 5.01437,4.12714 5.45355,4.61913c1.22313,1.37022 1.71726,3.3389 2.61805,4.98123c0.97253,1.77311 2.10124,3.42757 3.11728,5.16813c0.41904,-0.55543 1.05308,-0.90943 1.76268,-0.90943c1.12302,0 2.05678,0.88665 2.24856,2.05513l0.44863,2.45459l-0.09494,0.02077l0.12819,0.22317c0.00549,1.60226 0.00922,3.20451 0.01119,4.80677c0.17985,0.70437 0.34715,1.4112 0.43975,2.13411c0.57526,4.49162 0.51163,10.96053 -1.05045,15.20695c-4.67812,12.71725 -17.71592,13.99649 -27.78416,18.4197c-1.67107,0.71886 -3.32082,1.153 -4.9721,1.42866c-0.08738,0.96362 -0.67478,1.7663 -1.47429,2.09296l-2.23522,0.97837l-0.04122,-0.11276l-0.19166,0.19911c-2.109,0.38866 -4.26042,0.41938 -6.39368,0.58618c-2.53285,0.19804 -5.92446,1.16333 -8.53393,0.58353c-3.39323,0.74967 -6.76434,2.05622 -10.17358,2.41424c-10.3364,1.08546 -19.93714,-1.06032 -29.65,-4.60315c-4.08861,-1.29116 -6.90269,-3.86709 -10.70839,-5.57863c-4.69594,-2.11191 -9.0734,-4.82657 -13.72049,-7.0058c-1.95738,-0.9179 -4.21763,-1.42326 -5.75468,-3.03613c-5.1779,-5.43336 -8.88646,-14.81 -8.89383,-22.76776c-0.00054,-0.58148 0.96648,-6.32703 1.05455,-6.86378c1.38665,-2.59484 2.26641,-6.00299 4.0791,-8.28137c1.59284,-2.00206 4.28331,-4.48634 6.1634,-6.24349c1.03726,-0.96943 2.20615,-1.94495 2.17994,-3.52639z" fill="#eff2f9"/><path d="M212.54934,225.58213c0,-2.5 2.28463,-2.5 2.28463,-2.5l1.10525,0.12829c2.3432,-0.85055 5.16588,-1.16631 7.23972,-2.72055c1.6566,-1.24155 3.14479,-2.75542 4.87068,-3.87825c2.99889,-3.31659 5.71108,-7.1998 6.98128,-11.73243c2.26531,-8.08355 -0.39868,-18.93664 -5.75424,-24.96016c-0.68088,-0.76581 -4.90482,-2.56828 -5.07689,-2.67259c-0.5356,-0.32467 -0.82572,-1.081 -1.40668,-1.2926c-0.58322,-0.21243 -1.23327,0.20806 -1.84132,0.10956c-3.1304,-0.50711 -6.14537,-0.96551 -9.28974,-1.48144c-2.31356,0.44093 -4.7287,0.01364 -6.97143,0.46789c-11.47342,2.32391 -25.14741,16.87975 -22.34279,30.54199c0,0 0.44806,2.45145 -1.79221,2.94174c-2.24026,0.49029 -2.68832,-1.96116 -2.68832,-1.96116c-2.18628,-13.04153 7.08242,-27.87545 17.7537,-33.27089c2.47883,-1.25331 5.65899,-2.66137 8.33769,-3.18712c2.4683,-0.48445 5.12435,-0.08987 7.65022,-0.53211c3.38725,0.50616 6.54285,0.93482 9.90116,1.51856c0.89866,0.1562 1.86479,0.59443 2.72795,0.90956c0.86545,0.31597 1.44528,0.43442 2.24874,0.9074c2.00671,1.18131 4.18886,1.50233 5.88934,3.32741c6.65933,7.14728 9.79041,20.28464 7.0397,30.03984c-1.57709,5.59303 -4.82324,10.21544 -8.55422,14.26757c-1.82695,1.20966 -3.3929,2.84563 -5.18169,4.12175c-2.60482,1.85827 -5.42102,2.22525 -8.29577,3.27945l-2.55016,0.12829c0,0 -2.28463,0 -2.28463,-2.5z" fill="#697596"/><path d="M269.54863,227.08213l-2.47603,-0.12829c-2.79116,-1.0542 -5.52551,-1.42118 -8.0546,-3.27945c-1.73678,-1.27612 -3.25722,-2.91208 -5.03105,-4.12175c-3.62252,-4.05213 -6.77428,-8.67455 -8.30552,-14.26757c-2.67074,-9.7552 0.36931,-22.89256 6.83504,-30.03984c1.65104,-1.82508 3.76977,-2.1461 5.71813,-3.32741c0.78011,-0.47298 1.52584,-0.79143 2.36613,-1.1074c0.83806,-0.31513 1.59334,-0.55335 2.46588,-0.70956c3.26067,-0.58374 6.32452,-1.0124 9.6133,-1.51856c2.45242,0.44224 5.03127,0.04765 7.42781,0.53211c2.60082,0.52575 5.68853,1.93381 8.09531,3.18712c10.36104,5.39543 19.36029,20.22936 17.23757,33.27089c0,0 -0.43504,2.45145 -2.61017,1.96116c-2.17513,-0.49029 -1.7401,-2.94174 -1.7401,-2.94174c2.72309,-13.66224 -10.55337,-28.21808 -21.69323,-30.54199c-2.17751,-0.45425 -4.52246,-0.02696 -6.76875,-0.46789c-3.05296,0.51593 -5.98027,0.97433 -9.01968,1.48144c-0.59038,0.0985 -1.22152,-0.32199 -1.78779,-0.10956c-0.56406,0.2116 -0.84576,0.96794 -1.36578,1.2926c-0.16707,0.10431 -4.26821,1.90678 -4.92929,2.67259c-5.19986,6.02352 -7.7864,16.87661 -5.58694,24.96016c1.23329,4.53262 3.86661,8.41584 6.77832,11.73243c1.67573,1.12284 3.12065,2.63671 4.72909,3.87825c2.01355,1.55424 4.75417,1.87 7.02924,2.72055l1.07311,-0.12829c0,0 2.21821,0 2.21821,2.5c0,2.5 -2.21821,2.5 -2.21821,2.5z" data-paper-data="{&quot;index&quot;:null}" fill="#697596"/><path d="M246.36292,195.02162c-0.02739,-6.46086 2.21287,-13.27875 6.41514,-16.91001c2.19341,-1.89536 4.98052,-2.78693 7.53389,-3.8999c0.04371,-0.01308 8.68737,-2.60934 8.86049,-2.62763c2.28996,-0.24193 4.56017,0.67153 6.83764,1.02765c5.53972,0.86623 10.70306,2.05809 15.22019,5.99989c7.21557,6.29654 10.99571,15.87632 10.00606,25.71686c-0.10058,1.00013 0.26799,2.09351 -0.09787,3.0166c-1.75266,4.42213 -4.50358,5.68194 -7.93014,7.92857c-4.94876,2.70703 -9.74279,5.38302 -14.87254,7.62967c-2.40248,1.0522 -5.4418,2.9209 -8.01735,3.17398c-5.39938,0.53055 -10.10053,-3.36066 -13.63752,-7.22741c-5.88862,-6.43761 -12.45143,-11.4689 -10.68874,-21.68985c0.09718,-0.72138 0.22116,-1.43465 0.37076,-2.13842zM273.78162,219.54042c-0.00119,-0.00009 -0.00239,-0.00019 -0.00358,-0.00029c0.00012,0.00056 0.00023,0.00112 0.00034,0.00168c0.00108,-0.00046 0.00215,-0.00093 0.00323,-0.0014z" fill="#697596"/><path d="M279.67702,204.25563c-0.20666,-0.25009 -0.38473,-0.50418 -0.53054,-0.76117c-3.76375,-6.63325 1.12843,-14.15103 5.08537,-17.85609c1.46043,-1.36746 3.9775,-2.21556 4.18964,-2.30813c8.61935,-3.76121 20.82451,3.07405 19.79104,13.70203c-0.24117,2.48024 -2.17146,4.41902 -3.60403,6.35908c-0.06621,0.08966 -0.13236,0.17897 -0.19846,0.2679c-1.28875,3.10049 -3.60306,5.26188 -6.30371,6.47267c-2.08982,1.30463 -4.52326,1.97168 -7.62538,1.66745c-3.80224,-0.37289 -8.71127,-3.30253 -10.80392,-7.54375z" fill="#b68084"/><path d="M196.78537,222.33213l-1.30541,-0.17881c-2.36346,-1.08275 -4.26836,-2.70484 -5.95153,-4.62222c-0.00272,0.00001 -0.00546,0.00002 -0.00818,0.00002c-0.33756,0 -0.65802,-0.08476 -0.94638,-0.2369l-3.15207,-1.56397l0.03396,-0.09174l-0.2775,-0.04955c-1.52996,-1.31355 -3.50573,-2.03868 -4.70819,-3.74891c-1.7416,-2.47704 -1.42266,-4.22239 -1.45913,-7.00494c0,0 0,-1.86214 1.34955,-2.46152l-0.25306,-0.73246c-0.11757,-0.3187 -0.18264,-0.66956 -0.18264,-1.03802c0,-1.1315 0.61369,-2.09706 1.47675,-2.47487c0.26817,-5.06019 3.80253,-8.12463 6.31794,-11.84891c7.61703,-11.27762 21.1206,-15.70855 32.86597,-12.29682c2.11784,-0.01769 4.33484,0.21908 5.54926,1.41804c0.4089,0.15966 0.81622,0.33233 1.22193,0.51819c0.98093,0.44933 2.10736,0.66283 2.89875,1.47042c1.27358,1.29967 3.14671,5.43167 3.85318,7.34468c0.06448,0.17461 0.13331,0.34862 0.20467,0.52237c2.01025,-0.06445 2.25475,2.34185 2.25475,2.34185c0.17797,1.75125 0.35592,3.50252 0.53388,5.25377l0.37593,3.6995c0.01299,0.11413 0.01968,0.23055 0.01968,0.34878c0,0.98181 -0.46205,1.83867 -1.14814,2.29503c0.31887,8.29227 -3.32483,17.02217 -8.97725,21.57082c-1.60504,1.29162 -4.09013,3.76916 -6.2938,4.27725l-0.48707,0.42292l-0.1081,-0.16687l-0.24722,0.42024c-1.42861,0.48185 -2.79907,1.51556 -4.28585,1.44557c-0.07906,-0.00372 -0.15801,-0.00856 -0.23681,-0.01445l0.00296,0.04789l-2.64948,0.2191l-0.83399,0.13793l-0.00843,-0.06827l-0.17962,0.01485l-0.12438,0.07997c-0.08398,-0.01217 -0.18723,-0.02704 -0.30701,-0.04429l-0.43122,0.03566c-0.06145,0.00574 -0.12357,0.00867 -0.1863,0.00867c-0.36959,0 -0.71867,-0.1016 -1.02755,-0.28198c-0.18049,-0.02625 -0.36703,-0.05347 -0.55763,-0.08138c-0.3392,0.23092 -0.73444,0.36336 -1.15638,0.36336c-0.4402,0 -0.85133,-0.14414 -1.20009,-0.39387l-0.60329,-0.41518c-0.59846,-0.09394 -1.12656,-0.18057 -1.50856,-0.24999l-0.09339,-0.00983l0.00058,-0.00724c-0.12786,-0.02381 -0.23616,-0.0453 -0.32144,-0.06403l-0.02211,0.00439c-0.01263,-0.00598 -0.02526,-0.01198 -0.03787,-0.018c-0.08264,-0.01947 -0.13504,-0.0353 -0.15223,-0.04683c-0.04748,-0.03185 -0.09447,-0.0644 -0.14098,-0.09767c-0.08704,-0.04423 -0.17364,-0.08945 -0.25984,-0.13563l-0.00848,0.01686l-0.16655,-0.11223c-0.7991,-0.44278 -1.56292,-0.96677 -2.29947,-1.54692l-0.17348,0.40167l-4.0426,-2.34014c-0.12358,-0.06783 -0.24108,-0.14812 -0.35128,-0.23947c-0.056,0.0041 -0.08775,0.0041 -0.08775,0.0041z" fill="#697596"/><path d="M193.57883,211.60702c-0.42373,0.19799 -0.85808,0.36728 -1.30654,0.49858c-7.82868,2.29209 -17.32147,-2.32012 -18.2992,-11.83714c-1.90919,-18.58334 28.99424,-22.18553 29.27123,-2.52612c0.04201,2.98111 -0.67581,6.17207 -2.26439,8.59432c-1.56396,2.38471 -4.12281,3.95687 -6.63733,4.97894c-0.25056,0.10184 -0.50542,0.19937 -0.76376,0.29143z" fill="#b68084"/><path d="M186.0348,167.07636c-0.83316,-0.2285 -1.35798,-0.99423 -1.35798,-0.99423l-1.53473,-2.27518c-2.36353,-6.44437 -3.23726,-15.00251 -0.01522,-21.41953c1.27485,-2.53899 3.13946,-3.95212 5.13118,-5.74175c1.41055,-1.26743 4.65591,-4.11639 6.01988,-4.85751c4.45137,-2.41871 11.27814,-2.83714 16.05475,-1.63914c0.80182,0.20109 5.16731,1.85232 5.86252,2.42532c1.48248,1.22188 2.47596,3.06128 3.95387,4.28976c2.55346,4.14407 8.07584,12.37289 3.45674,17.14003c-0.83155,0.85821 -2.18867,0.72609 -3.29759,1.02946c-3.49412,0.9559 -7.13975,0.18916 -10.498,0.9975c-1.03046,0.24803 -1.9,1.01492 -2.89252,1.40661c-6.17254,2.43599 -12.68613,4.64693 -17.42691,9.91221c0,0 -1.61547,1.76776 -3.23095,0c-0.0834,-0.09126 -0.15819,-0.18252 -0.22504,-0.27354z" fill="#697596"/><path d="M227.35507,150.34184c0.44805,2.45145 -1.79221,2.94174 -1.79221,2.94174l-2.28463,0.5c-5.21026,1.14029 -10.20049,3.34244 -15.17164,5.38536c-6.20459,2.54981 -12.66544,4.55568 -18.37046,8.30693c0,0 -1.95905,1.28624 -3.13449,-0.85749c-1.17543,-2.14373 0.78361,-3.42997 0.78361,-3.42997c5.95402,-3.90375 12.62613,-6.04134 19.0975,-8.69307c5.21035,-2.13502 10.43672,-4.41913 15.89935,-5.61464l2.28463,-0.5c0,0 2.24026,-0.49029 2.68832,1.96116z" fill="#697596"/><path d="M220.7001,220.36285c0.10227,-0.20906 1.12115,-2.15908 3.0566,-1.10013c2.04344,1.11803 1.02171,3.3541 1.02171,3.3541l-1.21455,1.71924c-4.28312,2.67119 -9.0945,5.23146 -14.17672,4.6478c-0.85566,-0.09827 -4.47963,-1.11857 -5.48331,-1.39305c0,0 -2.21643,-0.60634 -1.66232,-3.0317c0.55411,-2.42536 2.77053,-1.81902 2.77053,-1.81902c6.1913,1.69431 10.22188,0.93437 15.68807,-2.37725z" fill="#697596"/><path d="M195.35448,219.95603c-0.72246,2.37171 -2.88986,1.58114 -2.88986,1.58114l-1.13678,-0.42913c-2.21974,-1.10973 -4.3808,-2.38589 -6.41425,-3.86246c0,0 -1.90093,-1.38675 -0.63365,-3.46688c1.26729,-2.08013 3.16822,-0.69338 3.16822,-0.69338c1.82337,1.33706 3.77035,2.48164 5.77045,3.47088l0.69093,0.23754c0,0 2.1674,0.79057 1.44493,3.16228z" fill="#697596"/><path d="M282.88956,219.93863c0.21014,-0.38219 1.01145,-1.62086 2.40392,-1.25573c3.85936,-2.12003 7.80732,-4.08572 11.21858,-7.00574l1.50612,-1.10675c0,0 1.90093,-1.38675 3.16822,0.69338c1.26729,2.08013 -0.63365,3.46688 -0.63365,3.46688l-1.23544,0.89325c-4.55807,3.85993 -9.90953,6.16417 -14.91475,9.21201c0,0 -0.28339,0.17228 -0.69597,0.27023c-0.84099,0.50806 -1.6765,1.02824 -2.57503,1.3911c-3.83102,1.54712 -8.05589,1.25204 -12.01739,0.82246c0,0 -2.27329,-0.24876 -2.04596,-2.73635c0.22733,-2.48759 2.50063,-2.23883 2.50063,-2.23883c3.1745,0.35075 6.8354,0.77902 9.91508,-0.51088c1.18928,-0.49813 2.26965,-1.26321 3.40568,-1.89503z" fill="#697596"/><path d="M248.21344,146.27517c0.04771,-0.37025 0.13956,-0.62151 0.13956,-0.62151l0.95094,-2.59566c2.57101,-5.63555 5.92285,-12.41579 11.93139,-14.36859c9.78836,-3.18126 19.68251,1.63797 26.49462,9.12497c1.66356,1.82837 3.54697,3.46401 4.24167,6.10043c0.12431,0.47175 0.07305,6.98289 0.07178,7.41368c-0.80248,4.39068 -0.13711,8.20962 -3.24827,11.83863c-0.99011,1.15492 -1.99623,2.71526 -3.43254,2.90874c-1.26464,0.17035 -2.27431,-1.26467 -3.36045,-1.99371c-2.43761,-1.63617 -4.69304,-3.40904 -7.33288,-4.7194c-8.28124,-4.11064 -16.30575,-8.32537 -25.56581,-8.2806c0,0 -2.28463,0 -2.28463,-2.5c0,-1.43543 0.75317,-2.04667 1.39462,-2.30696z" fill="#697596"/><path d="M299.66549,215.57661c1.5599,2.16168 -0.28683,3.85279 -0.28683,3.85279l-1.80035,1.6053c-18.32804,10.14538 -37.72267,13.36026 -58.81447,13.36026c-17.74027,0 -40.55674,-3.28252 -53.73184,-15.30976c0,0 -1.98849,-1.83707 0,-3.67414c1.98849,-1.83707 3.97697,0 3.97697,0c11.83261,11.09514 33.74144,13.78789 49.75487,13.78789c20.07048,0 37.74179,-3.43865 55.18112,-13.1198l2.06736,-0.97311c0,0 2.58639,-0.94111 4.14629,1.22056z" fill="#8a5b43"/><path d="M289.42418,165.1227c-0.72246,2.37171 -2.88986,1.58114 -2.88986,1.58114l-1.4968,-0.55052c-11.83565,-5.22208 -23.02514,-11.59652 -35.69673,-14.36974c0,0 -2.24026,-0.49029 -1.79221,-2.94174c0.44805,-2.45145 2.68832,-1.96116 2.68832,-1.96116c12.96972,2.83847 24.36238,9.36786 36.49762,14.63026l1.24475,0.44948c0,0 2.1674,0.79057 1.44493,3.16228z" fill="#697596"/><path d="M187.20617,218.3499c-1.61547,1.76776 -3.23095,0 -3.23095,0l-0.4738,-0.62403c-5.44318,-3.58262 -9.64125,-9.24205 -11.53074,-15.95745c-3.61329,-12.8419 2.57161,-28.09082 12.72789,-34.88659c-1.51005,-2.02872 -2.90751,-3.97657 -3.59262,-6.62605c-1.08125,-4.18141 -1.79923,-10.51107 -0.93724,-14.74802c1.05814,-5.20111 4.97896,-8.8749 8.7367,-11.51496c6.67212,-4.68761 14.24008,-6.94886 22.13313,-6.8865c9.01846,2.81287 15.82392,10.16961 16.89827,20.26074c4.52759,-2.11478 10.10843,-3.14111 14.74481,-2.2398c2.22392,0.43232 4.58909,1.50428 6.8699,2.00344l1.62435,1.18368c0,0 1.61547,1.76776 0,3.53553c-1.52268,1.66622 -3.04536,0.19142 -3.21527,0.01649c-2.06363,-0.53806 -4.14205,-1.41941 -6.14306,-1.82937c-4.47739,-0.91729 -10.60223,0.6584 -14.38495,3.18884c0,0 -0.76399,0.5016 -1.62403,0.35626c-0.00278,0 -0.00555,0.00001 -0.00833,0.00001c-2.28463,0 -2.28463,-2.5 -2.28463,-2.5v-1c0.04329,-8.77252 -5.56132,-15.65562 -13.11082,-18.02417c-6.7774,0.06754 -13.24612,2.15492 -18.99025,6.11351c-2.75993,1.90202 -6.07,4.54298 -6.79879,8.48504c-0.65992,3.56958 0.0581,8.7344 0.89047,12.25198c0.56931,2.40593 2.32429,4.23572 3.6962,6.1119c0,0 0.838,1.14625 0.42707,2.38474c0.58539,1.94205 -1.18935,2.91307 -1.18935,2.91307c-15.01504,8.123 -17.33372,33.46476 -2.58784,43.1202l1.3539,1.37597c0,0 1.61547,1.76776 0,3.53553z" fill="#8a5b43"/><path d="M246.49754,149.58213v-1c0.04647,-11.48176 7.23743,-19.91644 17.04632,-22.97584c7.89305,-0.06236 15.46101,2.19888 22.13313,6.8865c3.75774,2.64006 7.67856,6.31385 8.7367,11.51496c0.86199,4.23695 0.14402,10.56661 -0.93724,14.74802c-0.82528,3.19153 -2.68423,5.365 -4.52847,7.8881c0,0 -1.4272,1.95217 -3.2112,0.39043c-1.784,-1.56174 -0.3568,-3.51391 -0.3568,-3.51391c1.37192,-1.87618 3.12689,-3.70597 3.6962,-6.1119c0.83237,-3.51758 1.5504,-8.6824 0.89047,-12.25198c-0.7288,-3.94206 -4.03886,-6.58302 -6.7988,-8.48504c-5.74412,-3.95858 -12.21285,-6.04596 -18.99025,-6.1135c-7.54949,2.36854 -13.1541,9.25165 -13.11082,18.02416v1c0,0 0,2.5 -2.28463,2.5c-2.28463,0 -2.28463,-2.5 -2.28463,-2.5z" data-paper-data="{&quot;index&quot;:null}" fill="#8a5b43"/><path d="M297.29294,216.15962c-1.61547,-1.76776 0,-3.53553 0,-3.53553l1.08533,-1.11899c0.6212,-1.01906 1.2424,-2.03812 1.8636,-3.05718c0.8357,-1.22028 2.02046,-2.21717 2.54371,-3.6305c5.53767,-14.95731 -3.22219,-30.9463 -16.14881,-36.60438c0,0 -2.12123,-0.92847 -1.27275,-3.24966c0.84848,-2.32119 2.96971,-1.39272 2.96971,-1.39272c15.24808,6.6742 25.38098,25.89213 18.57759,43.39562c-0.09615,0.24737 -2.63592,3.92708 -2.9394,4.3695c-0.59727,0.98094 -1.19454,1.96188 -1.7918,2.94282l-1.65623,1.88101c0,0 -1.61547,1.76776 -3.23095,0z" fill="#8a5b43"/><path d="M227.85637,193.33213c0,-1.38071 1.02287,-2.5 2.28463,-2.5c1.26177,0 2.28463,1.11929 2.28463,2.5c0,1.38071 -1.02287,2.5 -2.28463,2.5c-1.26177,0 -2.28463,-1.11929 -2.28463,-2.5z" fill="#5a3c2c"/><path d="M250.70269,192.83213c0,-1.38071 1.02287,-2.5 2.28463,-2.5c1.26177,0 2.28463,1.11929 2.28463,2.5c0,1.38071 -1.02287,2.5 -2.28463,2.5c-1.26177,0 -2.28463,-1.11929 -2.28463,-2.5z" fill="#5a3c2c"/><path d="M201.62018,143.46042c2.16739,0.79057 1.44493,3.16228 1.44493,3.16228l-0.42759,1.39623c-0.92462,2.99278 -1.19217,7.47701 -5.92805,6.58167c-1.91605,-0.36223 -3.08468,-2.59136 -4.62701,-3.88703c0,0 -1.71936,-1.64626 -0.21492,-3.5277c1.50443,-1.88144 3.22379,-0.23518 3.22379,-0.23518c0.75015,0.89934 1.36782,1.95651 2.25043,2.69801c0.76389,0.64175 0.71762,-1.9691 0.90231,-3.00338l0.48626,-1.60377c0,0 0.72246,-2.37171 2.88986,-1.58114z" fill="#dc9a9d"/><path d="M284.51523,148.33213c0,2.18784 -1.7497,2.46103 -2.18666,2.49514c-2.15232,1.21182 -5.66986,3.3363 -7.87073,2.00073c-1.13911,-0.69125 -0.90884,-6.71885 -0.90884,-7.99587c0,0 0,-2.5 2.28463,-2.5c2.28463,0 2.28463,2.5 2.28463,2.5c0,0.87964 0.1461,1.77882 0.10784,2.65334c0.96127,-0.72028 2.28795,-1.25813 2.52586,-1.38941l1.47865,-0.26393c0,0 2.28463,0 2.28463,2.5z" fill="#dc9a9d"/><path d="M305.70794,200.2682c2.47487,0.35355 2.12132,2.82843 2.12132,2.82843l-0.44377,2.69231c-2.0868,5.5648 -4.38736,10.25372 -8.62585,14.51776c0,0 -1.26841,1.26841 -2.73081,0.58195c-0.52055,0.42366 -1.05631,0.83507 -1.61026,1.23323c0,0 -2.03433,1.4531 -3.48743,-0.58124c-1.4531,-2.03433 0.58124,-3.48743 0.58124,-3.48743c2.77237,-1.96579 5.01842,-4.36388 7.22801,-6.94055l1.48244,-2.07961c0,0 0.25787,-0.36102 0.70844,-0.67026c0.63234,-1.37743 1.20539,-2.81697 1.77257,-4.32946l0.17567,-1.6438c0,0 0.35355,-2.47487 2.82843,-2.12132z" fill="#8a5b43"/><path d="M174.65286,209.1264c-0.44918,-0.90948 -0.89836,-1.81897 -1.34754,-2.72845l0.02997,-0.28868l-0.11062,0.02765l-0.60585,-2.42339c-0.05753,-0.21047 -0.08824,-0.43201 -0.08824,-0.66073c0,-1.38071 1.11929,-2.5 2.5,-2.5c0.76522,0 1.45014,0.3438 1.90872,0.88536l1.84776,2.15572l-0.37247,0.31926c0.82634,0.72745 1.56263,1.53667 2.14294,2.4605l0.63718,1.25254c2.33976,2.99312 4.93233,5.46532 7.68283,8.21582l-0.03029,-0.15858c0,0 2.23607,1.11803 1.11803,3.3541c-1.11803,2.23607 -3.3541,1.11803 -3.3541,1.11803l-1.26918,-0.77802c-2.93997,-2.93997 -5.71634,-5.6181 -8.21901,-8.84385c-1.64676,0.23948 -2.47014,-1.40728 -2.47014,-1.40728z" fill="#8a5b43"/></g></g></g></svg>