<svg version="1.1" xmlns="http://www.w3.org/2000/svg" xmlns:xlink="http://www.w3.org/1999/xlink" width="306.25757" height="164.20791" viewBox="0,0,306.25757,164.20791"><g transform="translate(-6.61278,-108.06138)"><g data-paper-data="{&quot;isPaintingLayer&quot;:true}" fill-rule="nonzero" stroke="none" stroke-width="0.5" stroke-linecap="butt" stroke-linejoin="miter" stroke-miterlimit="10" stroke-dasharray="" stroke-dashoffset="0" style="mix-blend-mode: normal"><path d="M54.18054,212.51393c2.23607,1.11803 1.11803,3.35411 1.11803,3.35411l-1.80759,2.20316c-3.72462,1.45056 -6.4095,4.42819 -10.52802,5.14653c-10.29362,1.7954 -19.78127,-3.82735 -26.76327,-10.80042c-2.16532,-2.70953 -4.3012,-5.54534 -5.50186,-8.85596c-1.43379,-3.95345 -1.31336,-8.53045 -1.62903,-12.63412c-0.89029,-11.57379 1.4604,-23.47018 5.122,-34.46779c0,0 0.79057,-2.37171 3.16228,-1.58114c2.37171,0.79057 1.58114,3.16228 1.58114,3.16228c-3.46344,10.37877 -5.71822,21.60933 -4.878,32.53221c0.5636,7.32683 1.14942,12.61787 5.86911,18.50992c5.85434,5.8633 13.61695,10.54122 22.23673,9.19958c3.46039,-0.53859 6.28159,-3.55079 9.47198,-4.85347l-0.80759,0.20316c0,0 1.11803,-2.23607 3.3541,-1.11804z" fill="#b6bac1"/><path d="M55.5625,214.25c0,0 0,0.85718 -0.50192,1.56769c0.00679,0.76101 -0.26742,1.82399 -1.70751,2.30402c-2.07637,0.69212 -2.94087,-1.03949 -3.12398,-1.48149c-1.6666,-0.48242 -1.6666,-2.39022 -1.6666,-2.39022v-1c0,-3.34179 -0.22034,-6.80255 -0.14827,-10.19058c-0.12227,-0.51753 -0.23695,-1.03814 -0.33957,-1.56307l-0.01217,-2.74634c0,0 0,-0.8914 0.53228,-1.60965c-0.01937,-0.63056 -0.0308,-1.26073 -0.03228,-1.89035c0,0 0,-0.93963 0.57605,-1.66678c0.00105,-0.51766 -0.01794,-1.04493 -0.06389,-1.58688c-0.22301,-2.63017 -0.51217,-5.06852 -0.51217,-7.74634c0,0 0,-2.5 2.5,-2.5c2.5,0 2.5,2.5 2.5,2.5c0,1.25371 0.0564,2.48591 0.13131,3.71074c-0.13131,0.43863 -0.13131,0.78926 -0.13131,0.78926c0,4.32051 0.20726,8.60548 0.35491,12.88846c-0.01219,0.3185 -0.02478,0.63709 -0.03763,0.95578c0.03673,0.49907 0.07499,0.99815 0.11381,1.49719c0.04172,1.55175 0.06891,3.10407 0.06891,4.65857v0.5c0,0 0,1.6343 1.32138,2.26014c0.11024,0.89527 0.17568,1.80581 0.17862,2.73986z" fill="#b6bac1"/><path d="M51.69639,215.48607c-0.12128,-0.0572 -0.23325,-0.11732 -0.33655,-0.17991c-0.15545,0.83796 -0.53432,1.55544 -1.27,2.03719c-0.96944,0.63484 -2.11307,0.49206 -3.28447,0.01419c-0.58012,0.11919 -1.21092,0.17561 -1.87762,0.18013c-0.18373,0.14243 -0.37104,0.27372 -0.55989,0.39224c-0.61341,0.38497 -1.56295,0.60932 -2.68439,0.69858c-0.33979,0.14936 -0.71875,0.23276 -1.11835,0.23276c-0.2339,0 -0.46073,-0.02858 -0.67677,-0.08223l-0.64104,-0.14538c-0.85715,-0.05385 -1.74213,-0.16078 -2.60542,-0.31307c-0.34544,0.15553 -0.73217,0.2426 -1.14046,0.2426c-0.33928,0 -0.66367,-0.06013 -0.96185,-0.16969l-4.92554,-1.6857l0.05658,-0.14707l-0.49971,-0.05002c-0.01073,-0.0087 -0.16416,-0.13278 -0.42292,-0.34223c-0.39022,-0.13293 -0.77386,-0.27912 -1.14779,-0.44209c-0.35758,-0.04657 -0.69238,-0.16042 -0.98958,-0.32755l-2.77853,-1.49752c-1.71296,-0.95402 -3.62768,-1.64189 -5.13887,-2.86206c-0.76313,-0.61617 -1.39328,-1.64727 -1.91469,-2.83315l-2.71958,-4.24447c-0.2562,-0.38475 -0.40437,-0.83997 -0.40437,-1.32784c0,-0.57643 0.20684,-1.10729 0.55433,-1.53016l-0.03665,-0.20741l-1.73742,-2.86774c-0.23647,-0.37408 -0.37233,-0.81131 -0.37233,-1.27847c0,-0.8842 0.48668,-1.66118 1.22115,-2.10566c-0.33118,-3.90682 -0.33108,-7.78727 -0.68436,-11.71712c-0.57006,-6.34126 -0.57179,-11.55454 1.75246,-17.55504c0,0 0.09127,-0.22957 0.29288,-0.51796c-0.70606,-2.21696 -1.18634,-4.50444 -1.50141,-6.79415c0,0 -0.32877,-2.48069 2.30136,-2.79078c2.63014,-0.31008 2.95891,2.17061 2.95891,2.17061c0.66413,5.24616 2.40857,10.51758 6.18697,14.59204c1.30609,1.40843 3.28537,2.09873 4.90658,3.17719c1.42909,0.95066 3.05541,1.80215 4.78869,2.52314c0.74723,-0.48229 1.63221,-0.48229 1.63221,-0.48229h1.06024c2.20395,0.02313 4.38579,0.53482 6.51165,1.08375c0.98158,0.25346 2.19741,-0.00179 2.98462,0.60655c0.13397,0.10353 0.26455,0.21027 0.39211,0.31988l0.06384,-0.09031l3.14652,1.97849c0.10793,0.06574 0.21047,0.13868 0.30686,0.2181c0.26139,-0.07395 0.56198,-0.11647 0.90765,-0.11647c1.18298,0 1.83799,0.49797 2.20067,1.04942c2.0403,0.35081 2.04031,2.45058 2.04031,2.45058c0,0.33334 0,0.66666 0,1c0,0.31101 0.00064,0.62184 0.0019,0.93249c-0.53202,0.71048 -0.53202,1.56751 -0.53202,1.56751c0,6.7105 0.53012,13.33526 0.53012,20v0.5c0,0 -0.00001,0.84626 0.52201,1.55405c0.00526,0.648 0.0081,1.29662 0.0081,1.94595l-0.80995,2.11803c0,0 -1.18539,2.23607 -3.55616,1.11804z" fill="#b6bac1"/><path d="" fill="#8a5b43"/><path d="M9.61105,180.25971c0.16667,-0.83333 0.33333,-1.66667 0.5,-2.5l-0.04855,-1.00971c0,0 0,-1.759 1.47547,-2.32607c-0.02972,-0.77626 -0.02396,-1.55875 0.03082,-2.35115c0.27719,-4.0095 1.40912,-8.03978 2.08618,-11.99642l0.18515,-0.21531l-0.09881,-0.03953l0.97837,-2.44593c0.35452,-0.94948 1.26971,-1.62559 2.34282,-1.62559c1.27327,0 2.32422,0.95187 2.48007,2.18283l0.4948,3.46361l-0.31509,0.04501c0.73392,2.07859 1.32432,4.17791 1.77738,6.37215c0.1809,-0.04162 0.36931,-0.06361 0.56285,-0.06361c0.92661,0 1.73548,0.50412 2.16731,1.25305l1.47643,2.46071l-0.0102,0.00612c0.00792,0.00559 0.01584,0.01117 0.02376,0.01676l0.00667,0.02682l0.00665,-0.0038l0.27139,0.47494c2.19605,-1.04867 3.29407,1.14738 3.29407,1.14738l1.22992,3.52903c-0.45002,1.49885 -0.18031,3.45695 -1.35005,4.49655c-2.78683,2.47679 -6.17257,-0.36738 -8.67201,-0.8667c-0.29119,-0.05817 0.51629,0.40984 0.5439,0.7055c0.09968,1.06712 0.34995,2.27773 -0.17813,3.21036c-0.81561,1.44042 -2.0387,2.84591 -3.58524,3.43602c-2.17402,0.82955 -5.60801,-1.30239 -7.34249,-2.15666c0,0 -2.23607,-1.11803 -1.11803,-3.3541c0.2215,-0.44301 0.48689,-0.75436 0.77008,-0.96884c-0.06486,-0.50642 0.01453,-0.90341 0.01453,-0.90341z" fill="#dfe4ed"/><g><path d="M206.22169,198.05938c0.92096,-0.52766 2.00811,-0.21705 2.00811,-0.21705l1.95662,0.58979c3.69478,0.46901 7.40739,0.38966 11.09971,1.01451c2.94553,0.49847 5.40934,1.81455 8.39512,1.97001c4.94649,0.25756 9.84581,-0.09566 14.75288,-0.63108c10.24457,-2.58492 21.40324,-8.92648 32.21774,-7c6.94234,1.23669 13.40478,6.69401 16.18273,13.12796c1.07797,2.49668 1.84295,4.47009 1.12466,7.30763c-0.30725,1.21374 -1.21501,2.18952 -1.82252,3.28428c-5.61397,4.83186 -12.98822,6.54181 -20.13469,7.86488c-1.95536,0.36201 -3.76569,1.33837 -5.72526,1.6769c-1.98971,0.34374 -3.78024,-0.22591 -5.76166,0.01355c-10.39091,1.25581 -20.92466,1.5622 -31.40936,0.68323c-10.67171,-0.00251 -19.9604,-3.75881 -29.33033,-8.58661c-3.95069,-2.03557 -7.60447,-4.83749 -6.30223,-9.93377c0.31242,-1.22264 1.27636,-2.17736 1.92407,-3.26038c0.5641,-0.94321 0.93416,-2.04105 1.71129,-2.81818c1.90887,-1.90887 5.50039,-3.38684 7.86075,-4.73618c0,0 0.5489,-0.31365 1.25237,-0.34949z" fill="#dfe4ed"/><path d="M174.62245,197.51327c0,0 -1.60046,-1.92056 0.32009,-3.52102c0.38172,-0.31809 0.75079,-0.4971 1.09716,-0.57974c-0.0043,-0.11972 -0.00097,-0.24034 0.01096,-0.36192c0.31815,-3.24337 5.82036,-6.54672 8.2721,-7.98642c0.64787,-0.38045 1.37775,-0.62071 2.1143,-0.78744c-1.89403,-0.60432 -3.158,-2.5464 -4.5799,-3.85119c-0.25627,-0.23516 -3.98759,-3.28595 -4.08192,-3.41163c-0.9659,-1.28695 -2.59898,-2.6204 -2.35919,-4.21154c0.23589,-1.56528 6.35274,-5.0722 7.84436,-6.13045c1.60065,-1.58597 6.5504,-3.72583 7.26525,-5.94351c0.50857,-1.57774 -0.24183,-3.31613 -0.14449,-4.97095c0.11617,-1.97502 0.3819,-3.9408 0.69143,-5.89487c1.43747,-9.07482 3.94032,-18.01904 8.26622,-26.12943c1.22941,-2.30496 2.72807,-5.85811 4.93156,-7.40299c1.24874,-0.8755 2.77233,-1.27183 4.1585,-1.90774c6.99724,4.82871 10.85443,13.43236 12.24698,21.74723c0.72646,4.33774 1.13936,9.73173 3.53835,13.58253c1.1181,1.79475 4.66106,0.96941 6.23345,0.69763c5.18077,-0.89547 10.37816,-1.45679 15.62376,-2.0332c2.24651,0 4.21339,-0.11932 6.43134,0.34675c0.45116,0.09481 0.81452,0.71432 1.25554,0.58003c0.32075,-0.09768 0.05716,-0.66932 0.11956,-0.99876c0.17829,-0.94128 0.33269,-1.89092 0.60195,-2.81032c0.60106,-2.0523 1.35108,-4.05801 2.02748,-6.08673c1.72444,-5.17199 3.58384,-10.16317 5.73784,-15.18626c1.63488,-3.81253 3.36016,-7.67581 6.74149,-10.30498c3.2489,-2.52621 7.59281,-4.2773 11.28291,-1.18494c0.91555,0.76725 1.06228,2.13989 1.59342,3.20984c0.47105,1.25584 1.94198,5.04871 2.14776,6.19776c0.99914,5.57896 -0.29023,11.64814 0.97408,17.19748c0.46064,2.02186 1.21642,3.96949 1.66533,5.99399c0.07889,0.35576 0.16951,0.70846 0.26781,1.05916c0.0957,-0.01112 0.19305,-0.01684 0.29173,-0.01684c1.18975,0 2.1854,0.8311 2.43804,1.9444l0.65398,2.61594c0.65115,1.13992 0.78051,2.41773 1.13613,3.62399c0.53228,0.52453 1.14369,1.09764 1.81054,2.15262l1.46759,1.28414c1.03007,0.44971 2.14119,0.87772 2.46671,1.0807c1.86419,1.16246 2.79748,2.50196 4.37952,3.95217c2.35785,2.16136 5.29398,4.08776 6.33648,7.34219c1.4865,4.6405 -1.33467,6.78542 -4.18802,9.86916c-0.68768,0.7432 -1.37628,1.49246 -2.14846,2.14744c-0.49599,0.4207 -2.14065,0.88152 -1.55921,1.17294c2.74166,1.37419 3.90373,2.7771 5.92686,5.22177c0.72373,1.26118 2.71775,4.42582 2.77186,5.89289c0.19085,5.1743 -4.70914,8.15213 -8.84055,9.83087c-1.03121,0.41902 -2.00547,1.1788 -3.11845,1.19415c-5.71176,0.07879 -6.72705,-4.96512 -9.51978,-8.6412c-0.42977,-0.56571 -0.91745,-1.12892 -1.45191,-1.67971c-0.57993,-0.052 -1.01268,-0.26837 -1.01268,-0.26837l-1.45565,-0.73213c-5.04739,-2.95155 -9.38585,-2.02065 -14.93765,-1.67544c-3.20706,0.19941 -6.24852,0.44588 -9.27353,0.86318c-4.61032,2.02648 -9.2938,3.74418 -14.0837,5.34416c-2.7902,0.93202 -5.4158,1.80693 -8.44766,1.79743c-2.02507,-0.00635 -3.97788,-0.78341 -5.98925,-1.01868c-8.87728,-1.03834 -17.65405,-2.99968 -26.61808,-2.01508c-4.55447,0.95076 -7.08471,3.97743 -9.32046,7.90664l-0.13351,0.09404l0.04417,0.03313l-1.98254,2.64339c-0.45492,0.62044 -1.18914,1.02327 -2.01746,1.02327c-0.73062,0 -1.38803,-0.31341 -1.84513,-0.81313c-0.15178,-0.05451 -0.29677,-0.12329 -0.43333,-0.20471l-2.20387,-1.25935c-4.73908,-2.07 -8.16378,-5.70057 -11.43822,-9.62235z" fill="#b6bac1"/><path d="M296.72828,213.96865c1.44112,2.16168 -0.72056,3.60279 -0.72056,3.60279l-1.66325,1.1053c-16.93244,10.14538 -34.85024,13.36026 -54.33598,13.36026c-16.38942,0 -37.4685,-3.28252 -49.64037,-15.30976c0,0 -1.83707,-1.83707 0,-3.67414c1.83707,-1.83707 3.67414,0 3.67414,0c10.9316,11.09514 31.17215,13.78789 45.96623,13.78789c18.54219,0 35.55127,-2.93865 51.66265,-12.6198l1.45436,-0.97311c0,0 2.16167,-1.44111 3.60279,0.72056z" fill="#8a5b43"/><path d="M229.78688,182.90648c0,-1.43483 1.16317,-2.59801 2.59801,-2.59801c1.43483,0 2.59801,1.16317 2.59801,2.59801c0,1.43483 -1.16317,2.59801 -2.59801,2.59801c-1.43483,0 -2.59801,-1.16317 -2.59801,-2.59801z" fill="#8a5b43"/><path d="M246.53172,182.34768c0,-1.43483 1.16317,-2.59801 2.59801,-2.59801c1.43483,0 2.59801,1.16317 2.59801,2.59801c0,1.43483 -1.16317,2.59801 -2.59801,2.59801c-1.43483,0 -2.59801,-1.16317 -2.59801,-2.59801z" fill="#8a5b43"/><path d="M259.37666,133.03698c0.36467,-1.72716 0.95147,-3.42413 1.42371,-5.12486c1.91273,-6.88852 5.95207,-18.31082 15.71762,-15.74892c3.0455,0.79896 4.7155,3.25563 6.41279,5.65841c3.54851,5.02348 4.43015,10.35337 6.0215,16.0905c0.86621,3.12286 2.65246,8.14599 1.39176,11.40112c-0.04851,0.12525 -0.1007,0.24853 -0.15622,0.37004l0.06021,0.02007l-0.91977,2.75931c0.72025,0.13402 2.04806,0.62817 2.04806,2.45012c0,2.5 -2.5,2.5 -2.5,2.5h-0.33333c-3.0029,-0.01893 -5.65051,-0.69244 -8.62642,-1.01724c-5.41509,-0.67677 -10.78892,-1.27301 -16.26029,-0.98533c-0.38355,0.02017 -1.97969,0.01453 -3.56413,0.13122c-0.34758,0.91516 -1.01825,1.88536 -1.28617,2.76717c-0.85966,2.82942 -2.45723,5.25372 -3.63806,7.9368c-0.42096,0.9565 -0.51063,2.08284 -1.13049,2.9242c-0.92131,1.25053 -1.85837,2.91177 -3.384,3.20347c-1.4949,0.28583 -2.9066,-0.97635 -4.21723,-1.75009c-2.87582,-1.69776 -4.9978,-4.91808 -6.60564,-7.92454l-0.4503,0.78802l-0.04644,-0.02654c-0.02562,0.07577 -0.05247,0.15121 -0.08062,0.22631c-0.39854,1.06295 -1.43727,1.75951 -2.20923,2.59184c-3.04603,3.28422 -5.82255,5.47341 -10.28163,2.67315c-3.47629,-2.18308 -5.05389,-8.53546 -6.59226,-12.42485c-1.68638,0.52309 -3.43222,0.85109 -5.16804,1.17723c-4.33496,0.81449 -9.34655,1.44066 -13.34466,3.44706c-2.65426,1.33201 -4.71641,3.19581 -7.46293,4.39331c0,0 -2.29786,0.9848 -3.28266,-1.31306c-0.18251,-0.42586 -0.25227,-0.80662 -0.24481,-1.14437c-0.22856,-0.47637 -0.27537,-0.89768 -0.27537,-0.89768c-0.98833,-8.9943 1.61775,-17.92017 4.44901,-26.40795c1.16983,-3.50702 2.22156,-6.48187 4.29088,-9.59117c2.4379,-3.66311 6.04024,-9.25419 11.36819,-7.25333c3.2965,1.23797 5.24973,6.45751 6.95155,9.20278c1.93815,5.1058 3.95113,10.16379 5.49204,15.40795c0.26141,0.88966 1.187,4.61696 1.32955,6.17193c1.56595,-0.24423 2.44076,1.28669 2.44076,1.28669c0.36461,0.6402 0.68403,1.27281 0.97031,1.90217c0.45763,-0.50865 1.121,-0.82849 1.85908,-0.82849c0.11851,0 0.23509,0.00825 0.34921,0.0242l2.62754,0.32844l-0.01543,0.12345l0.30339,-0.07016c0.07966,0.06511 0.15932,0.13021 0.23899,0.19532l0.04077,-0.10872l1.43133,0.53675c0.23934,0.00402 0.47659,0.00604 0.7053,-0.00884c1.93468,-0.12587 4.09673,-1.09285 5.81317,-0.19136c0.34665,0.18206 0.55121,0.47823 0.67923,0.83761h2.72201c2.29136,-0.26131 5.14867,-0.95358 7.69828,-1.22845c0.36962,-0.23732 0.68782,-0.33278 0.68782,-0.33278c1.20129,-0.36014 2.37361,-0.74394 3.53274,-1.14048c-0.15719,-0.81573 -0.22872,-1.66671 -0.31428,-2.44302c-0.24703,-2.24137 1.41093,-6.19448 2.15472,-8.22135c0.39858,-1.08615 0.78735,-2.20586 1.17885,-3.34304zM271.80487,140.55459l0.01346,-0.22878l-0.07941,0.23823c0.02198,-0.00313 0.04396,-0.00628 0.06595,-0.00945zM198.55786,149.986c0.12829,-0.04373 0.25917,-0.08087 0.39198,-0.11311c-0.09607,-0.1549 -0.18368,-0.30967 -0.26339,-0.46437c-0.03793,0.19392 -0.0797,0.38673 -0.12859,0.57748z" fill="#a9acb4"/><path d="M225.66733,152.24047c-2.44047,0.54233 -2.9828,-1.89814 -2.9828,-1.89814l-0.39551,-1.78017c-1.86291,-8.09564 -4.0622,-17.70214 -8.31719,-24.89177c-1.56804,-2.64951 -3.71597,-6.57443 -7.05098,-6.80192c-4.23365,1.83468 -5.54263,6.87849 -7.06404,10.83303c-4.10251,10.6635 -6.63181,21.2379 -6.63181,32.69851c0,0 0,2.5 -2.5,2.5c-2.5,0 -2.5,-2.5 -2.5,-2.5c0,-12.08081 2.64631,-23.26147 6.9682,-34.50149c2.39529,-6.22947 4.41473,-11.29483 10.93596,-13.96697c1.27053,0.10177 2.60571,-0.10755 3.8116,0.3053c2.64662,0.90609 3.54691,2.43317 5.13642,4.40143c4.8747,6.03624 6.99879,13.13648 9.05438,20.48462c0.96867,3.4627 2.21662,6.80215 3.02943,10.31497l0.40449,1.81983c0,0 0.54233,2.44047 -1.89814,2.98279z" fill="#8a5b43"/><path d="M251.27953,151.83607l0.17166,-0.00009c-8.9416,-1.87948 -17.01045,-1.25281 -25.85203,0.6c0,0 -2.68256,0.56215 -3.30161,-1.87383c-0.61906,-2.43598 2.06351,-2.99813 2.06351,-2.99813c9.39516,-1.96882 18.0927,-2.60421 27.54205,-0.75891c1.86324,-9.97554 4.707,-20.48225 9.83898,-29.3601c2.58423,-4.47048 7.69478,-9.99203 13.98359,-9.32917c1.43453,0.15121 2.70261,0.92529 4.05392,1.38793c11.56043,10.252 9.71346,26.82774 12.86476,40.17241l0.2601,1.81374c0,0 0.34148,2.4807 -2.39033,2.79078c-2.73181,0.31008 -3.07328,-2.17061 -3.07328,-2.17061l-0.18039,-1.38626c-1.39371,-5.91024 -2.67588,-12.1176 -3.1385,-18.15825c-0.49422,-6.45331 -2.21916,-14.00215 -7.34272,-18.86934c-4.6012,-1.68392 -8.22591,2.65293 -10.15385,6.05876c-5.3408,9.43484 -8.08781,20.61187 -9.85187,31.02516c0,0 -0.41863,2.47093 -3.13968,2.09078c-0.86193,-0.12042 -1.40882,-0.45062 -1.75378,-0.84562c-0.3636,-0.08167 -0.60052,-0.18924 -0.60052,-0.18924z" fill="#8a5b43"/><path d="M188.08027,210.26777c-1.76776,1.76776 -3.53553,0 -3.53553,0l-0.01847,-0.12403c-4.83743,-2.90964 -9.20689,-5.98427 -13.02346,-10.18702c-0.17439,-5.69573 2.05586,-9.88819 6.96231,-13.06255c0.7722,-0.49959 1.81783,-1.29419 2.75904,-1.61102c-0.36695,-0.27409 -0.70667,-0.59439 -1.04966,-0.89451c-0.754,-0.65974 -1.42056,-1.4132 -2.12976,-2.12087c-2.47388,-2.46856 -5.82037,-4.56728 -5.19556,-8.69445c0.19898,-1.31438 1.17792,-2.3914 1.91074,-3.50052c3.30389,-5.00042 8.50732,-7.13222 13.05258,-10.5728c0,0 2,-1.5 3.5,0.5c1.5,2 -0.5,3.5 -0.5,3.5c-4.06035,3.02181 -11.16855,5.65706 -13.03668,10.92668c-0.32,0.90264 1.70442,2.20979 1.80444,2.30555c1.67556,1.60423 4.67046,3.69172 6,5.5c0.94337,1.28305 2.51256,2.68974 2.18561,4.24835c-0.4634,2.20906 -4.918,3.5731 -6.60599,4.62526c-2.35054,1.46514 -4.67925,4.12363 -5.03769,6.93745c3.52783,2.84722 7.08247,5.48284 10.97654,7.81298l0.98153,0.87597c0,0 1.76776,1.76776 0,3.53553z" fill="#8a5b43"/><path d="M296.28342,205.23224l0.98153,-0.87597c3.89407,-2.33014 7.44871,-4.96576 10.97654,-7.81298c-0.35843,-2.81382 -2.68715,-5.47231 -5.03769,-6.93745c-1.68799,-1.05216 -6.14259,-2.4162 -6.60599,-4.62526c-0.32695,-1.5586 1.24225,-2.9653 2.18561,-4.24835c1.32954,-1.80828 4.32445,-3.89577 6,-5.5c0.10002,-0.09576 2.12444,-1.40292 1.80444,-2.30555c-1.86813,-5.26962 -8.97632,-7.90487 -13.03668,-10.92668c0,0 -2,-1.5 -0.5,-3.5c1.5,-2 3.5,-0.5 3.5,-0.5c4.54526,3.44058 9.74869,5.57238 13.05258,10.5728c0.73282,1.10912 1.71175,2.18615 1.91074,3.50052c0.62482,4.12716 -2.72167,6.22589 -5.19556,8.69445c-0.7092,0.70767 -1.37577,1.46113 -2.12976,2.12087c-0.34299,0.30012 -0.6827,0.62042 -1.04966,0.89451c0.94121,0.31683 1.98684,1.11142 2.75904,1.61102c4.90645,3.17436 7.13671,7.36682 6.96231,13.06255c-3.81657,4.20275 -8.18602,7.27738 -13.02346,10.18702l-0.01848,0.12403c0,0 -1.76776,1.76776 -3.53553,0c-1.76776,-1.76776 0,-3.53553 0,-3.53553z" data-paper-data="{&quot;index&quot;:null}" fill="#8a5b43"/><path d="M212.3272,195.75645c-0.33523,0.11957 -0.67391,0.21435 -1.01404,0.28535c-1.45128,0.55517 -3.11555,0.7873 -4.7577,0.67511c-2.4319,1.34038 -4.47207,3.38625 -6.71437,2.75977c-1.72117,1.54859 -3.3992,-0.12944 -3.3992,-0.12944c-2.05163,-2.09307 -3.09147,-2.67884 -3.96706,-5.73956c-2.43498,-8.51183 3.61083,-16.75123 11.80344,-18.78895c5.1042,-1.26955 10.70827,0.2771 14.80325,3.4569c2.69672,2.09403 3.35307,3.34285 4.49194,6.48995c1.26691,3.50091 1.15276,6.2115 0.28927,9.74598c-0.93473,1.2509 -1.33868,3.21352 -2.8042,3.75271c-2.47859,0.91193 -4.82855,-1.61481 -6.90667,-2.29207c-0.29358,-0.09568 -1.01836,-0.16785 -1.82467,-0.21575zM200.96876,194.64743c-0.02324,0.20202 0.00674,0.27581 0.13891,0.11165c-0.04674,-0.03669 -0.09305,-0.07391 -0.13891,-0.11165z" fill="#c2b8b6"/><path d="M264.03416,193.69954c-0.05865,0.01041 -0.11899,0.01953 -0.18109,0.02729c-2.48069,0.31009 -2.79078,-2.17061 -2.79078,-2.17061c-0.38279,-3.21321 -0.51708,-6.89673 0.84797,-9.95798c5.16579,-11.58477 21.91079,-12.94345 29.29526,-2.8576c2.73604,3.73693 6.00497,13.38939 1.43856,17.27326c-1.20362,1.02371 -2.94694,1.14117 -4.42041,1.71176c-4.57836,-3.08197 -9.31171,-5.30469 -15.01402,-5.31286c-1.95757,-0.0028 -6.65813,1.83394 -9.17549,1.28673z" fill="#c2b8b6"/><path d="M294.33552,217.00237c-2.47698,0 -2.47699,-2.45397 -2.47699,-2.45397v-1.47238c0.01984,-3.63958 -1.03819,-7.67201 -2.94316,-10.75963c-1.25655,-1.23101 -2.1055,-2.86434 -3.48663,-3.95651c-1.22569,-0.96926 -2.94315,-1.07559 -4.39807,-1.65555c-12.06082,-4.80767 -24.24524,4.14384 -35.83805,6.52414c-3.42316,0.70287 -7.7875,0.03169 -11.29549,0.03169c-10.66473,-0.04681 -22.98013,-7.25581 -32.88014,-1.34808c-3.66172,2.18509 -8.06443,5.85124 -6.79969,10.68269c0,0 0.48577,2.40632 -1.94311,2.88757c-2.42888,0.48126 -2.91466,-1.92505 -2.91466,-1.92505c-0.3512,-2.08141 -0.13651,-4.32954 0.62446,-6.30058c4.03886,-10.46137 14.84212,-13.62374 25.43163,-12.31632c6.18462,0.76358 12.15394,3.44568 18.48151,3.41183c3.19311,0 7.40462,0.71517 10.50196,0.03168c12.81422,-2.82771 25.04639,-11.52785 38.47145,-6.23648c0.63063,0.24856 5.2074,2.04174 5.50986,2.27079c1.75572,1.32956 2.88489,3.32199 4.43972,4.87777c2.49036,4.15829 3.97058,8.90307 3.99239,13.78003v1.47238c0,0 0,2.45397 -2.47698,2.45397z" fill="#8a5b43"/><path d="M240.00359,187.43248c1.47961,-0.11547 2.96655,-0.06009 4.20607,-0.01967c1.23879,0.04039 2.6685,-0.4412 3.71131,0.22872c0.78688,0.50551 1.57649,1.14743 2.2061,1.89407c0.76557,0.58722 1.42812,1.27229 1.74773,2.14238c2.08291,5.6705 -3.60958,7.4935 -7.50979,8.06333c-2.80411,-0.00915 -3.86701,0.20894 -6.65846,-0.80592c-1.19009,-0.43267 -2.47255,-0.84873 -3.3824,-1.72947c-1.15886,-1.12178 -2.70895,-2.46312 -2.61192,-4.07307c0.10075,-1.67166 1.82487,-2.86639 3.09586,-3.95688c1.01245,-0.86867 2.35682,-1.33381 3.78774,-1.57441c0.02324,-0.00969 0.04636,-0.01955 0.06936,-0.02958c0,0 0.61823,-0.23184 1.33841,-0.1395z" fill="#56392a"/><path d="M209.32769,138.01007c2.23607,1.11803 1.11803,3.3541 1.11803,3.3541l-0.93821,1.86676c-0.40923,0.9167 -0.53915,2.01954 -1.22769,2.75011c-1.20618,1.2798 -2.51988,3.17647 -4.27637,3.08991c-1.92466,-0.09485 -4.04706,-4.31667 -4.96441,-5.9178c0,0 -1.24035,-2.17061 0.93026,-3.41096c2.17061,-1.24035 3.41096,0.93026 3.41096,0.93026c0.26446,0.46415 0.71034,1.0844 1.02703,1.67894c0.16101,-0.3654 0.35583,-0.72113 0.5045,-1.09006l1.06179,-2.13324c0,0 1.11803,-2.23607 3.3541,-1.11803z" fill="#c2a19a"/><path d="M282.43806,136.6273c1.95217,1.56174 0.39043,3.51391 0.39043,3.51391l-1.25117,1.55802c-0.72626,0.95446 -1.14418,2.2567 -2.17878,2.86338c-5.9339,3.47957 -6.69887,-0.48359 -9.30888,-4.65814c0,0 -1.325,-2.12 0.795,-3.44499c2.12,-1.325 3.44499,0.795 3.44499,0.795c0.76537,1.22501 1.05797,2.69434 1.72888,3.97353c0.10798,0.20587 0.17662,-0.43194 0.29557,-0.63167c0.36521,-0.61323 0.7697,-1.20219 1.15455,-1.80329l1.41549,-1.77531c0,0 1.56174,-1.95217 3.51391,-0.39043z" fill="#c2a19a"/></g><path d="M59.3379,213.41402l-0.19804,1.29027c-0.36844,0.83528 -0.73689,1.67058 -1.10533,2.50586c-11.32245,14.22155 -33.66443,7.80406 -43.93196,-4.47403c-2.98478,-3.56924 -5.31266,-8.94715 -6.46884,-13.37713c-1.94807,-11.36491 -0.99605,-24.77099 1.90194,-35.92599c0.64762,-2.49285 1.69749,-4.88294 2.50425,-7.31243c0.73389,-2.21006 0.27129,-3.42745 2.3455,-5.21977c1.25657,-1.08581 2.71744,-2.8762 4.32741,-2.46884c1.87717,0.47496 2.37907,6.8011 2.6709,8.51362c1.70116,6.8188 6.49504,15.60471 14.07238,17.29402c5.93041,1.32214 12.79977,0.59685 17.72922,5.11729c0.18868,0.17302 2.62891,3.64268 2.90469,4.03248c0,0 1.12425,1.58908 -0.18338,2.86396c-0.83114,0.03606 -1.36758,0.36041 -1.71383,0.76409c-1.10218,-0.01764 -1.80394,-1.00956 -1.80394,-1.00956c-0.78898,-1.11519 -1.33606,-2.43513 -2.33229,-3.36983c-4.04877,-3.79868 -10.70002,-2.83166 -15.58112,-3.97199c-9.4725,-2.21298 -15.26554,-12.11465 -17.5258,-20.77502c-0.03015,-0.17518 -0.24787,-0.86483 -0.44774,-1.68833c-1.38743,3.60265 -2.36571,7.67109 -3.09377,11.41665c-1.92007,9.87799 -3.05232,20.78846 -1.3403,30.79421c3.05381,12.24067 14.39537,21.82707 27.11516,22.15095c1.84302,0.04693 3.69591,0.39014 5.52784,0.18285c3.30039,-0.37346 7.43482,-3.33971 9.43454,-5.8673c0.27779,-0.6586 0.55559,-1.3172 0.83338,-1.9758l-0.17286,0.38387c0,0 0.02917,-1.04995 0.7625,-1.7006c0.27721,0.10207 0.60546,0.16249 0.99413,0.16249c0.68559,0 1.18316,-0.18801 1.54429,-0.46092c1.27432,0.56913 1.23111,2.12493 1.23111,2.12493z" fill="#8a5b43"/><path d="" fill="#b6bac1"/><path d="" fill="#b6bac1"/><path d="M40.0625,216.25c0,-1.38071 1.11929,-2.5 2.5,-2.5c1.38071,0 2.5,1.11929 2.5,2.5c0,1.38071 -1.11929,2.5 -2.5,2.5c-1.38071,0 -2.5,-1.11929 -2.5,-2.5z" fill="#b6bac1"/><path d="" fill="#dfe4ed"/><path d="" fill="#dfe4ed"/><g><path d="M185.25987,260.23264c-0.56771,-0.93817 -0.81061,-2.26308 0.14914,-3.02531c0.63544,-0.50466 5.76745,-1.0865 6.99579,-1.23186c7.11748,-0.84224 14.79192,-1.30898 22.07438,-1.30898c5.89722,0 18.30149,-3.6324 24.16667,-3.57519c3.23449,0.03155 -1.73066,0.90186 0.44835,2.54368c1.07075,0.80678 0.88115,2.50233 0.88498,3.43636c0.01459,3.5568 -1.72241,10.60091 -9.99934,11.68768c-6.21473,0.816 -9.98985,0.28598 -13.47699,-1.95974c-0.16264,-0.11194 -1.76836,-1.21398 -2.64364,-1.82455c-0.46819,-0.01142 -0.90268,-0.08934 -1.26882,-0.21586c-0.54918,0.51366 -1.2545,0.9629 -1.48458,1.15406c-2.30679,1.91652 -5.24973,3.73187 -9.97128,3.96562c-1.65658,0.08202 -4.80442,-0.53367 -6.26625,-0.90639c-0.49759,-0.12687 -5.52918,-1.7147 -5.7234,-1.82821c-3.151,-1.84175 -3.18036,-4.56551 -3.88501,-6.9113z" fill="#b6bac1"/><path d="M69.21568,250.64992c0.52308,0.09053 1.04434,0.17836 1.50983,0.17458c4.1241,-0.0335 7.42564,0.19853 11.35629,1.25322c1.94329,0.25993 5.69753,0.59222 7.11245,1.69126c3.16048,2.45494 1.4128,5.62326 0.10611,8.22411c-2.81793,5.60883 -11.1161,9.90306 -18.34191,5.66268c-0.85467,-0.50155 -1.334,-1.32009 -1.97928,-1.99378c-1.9779,-2.06495 -2.81992,-3.89003 -3.45145,-6.42823c-0.45029,-1.80978 -0.57567,-3.38184 -0.39043,-5.05198c-0.04571,-0.71416 0.05465,-1.41932 0.37502,-2.09173c0.00509,-0.02119 0.01023,-0.04243 0.01541,-0.06369c0,0 0.49029,-1.96742 2.94174,-1.57394c0.28731,0.04611 0.53421,0.11385 0.74622,0.1975z" fill="#b6bac1"/><path d="M239.81251,247.5c2.5,0 2.5,2.5 2.5,2.5v0.5c-0.01671,3.77134 -0.55644,8.23569 -2.28555,11.66026c-3.9212,7.76611 -14.74141,11.91355 -22.43926,7.51915c-2.45012,-1.39868 -4.14299,-3.70457 -5.13865,-6.30222c-4.97292,9.38468 -17.0724,11.22248 -24.9043,3.39058c-3.51798,-3.51798 -3.27263,-6.84411 -4.18369,-11.27747c0,0 -0.49029,-2.45145 1.96116,-2.94174c2.45145,-0.49029 2.94174,1.96116 2.94174,1.96116c0.67244,3.44 0.14449,6.0507 2.81631,8.72253c5.55566,5.55566 14.57882,4.42819 17.41105,-3.16071l0.92379,-0.75793c0.04014,-0.1519 0.07621,-0.24207 0.07621,-0.24207c0.30124,-0.74393 0.60249,-1.48786 0.90373,-2.23179l0.45692,-2.28461c0.20986,-1.16847 1.23165,-2.05512 2.46053,-2.05512c1.22888,0 2.25067,0.88665 2.46053,2.05512l0.49092,2.45459l-0.01594,0.00319c0.00962,0.02162 0.01915,0.0433 0.0286,0.06502c1.11471,2.56366 0.40435,4.90269 2.39238,7.24773c4.57103,5.39191 14.42867,0.58952 16.92906,-4.48591c1.33436,-2.70857 1.73045,-6.37596 1.71445,-9.33974v-0.5c0,0 0,-2.5 2.5,-2.5z" fill="#8a5b43"/><path d="M91.3028,251.54855c2.45145,0.49029 1.96116,2.94174 1.96116,2.94174l-0.49241,2.46041c-0.63148,3.6903 -1.48973,6.85104 -4.11629,9.73876c-5.95733,6.54969 -16.33814,4.05066 -21.68549,-2c-3.40503,-3.85288 -4.02222,-8.5438 -4.13317,-13.34107c-0.01587,-0.11385 -0.02408,-0.23016 -0.02408,-0.34839c0,-0.08546 0.00429,-0.16992 0.01266,-0.25317c-0.01131,-0.74802 -0.01266,-1.49788 -0.01266,-2.24683c0,0 0,-2.5 2.5,-2.5c2.5,0 2.5,2.5 2.5,2.5c0,0.73955 -0.00986,1.50162 -0.01007,2.27408c0.00666,0.07441 0.01007,0.14977 0.01007,0.22592c0,0.07205 -0.00304,0.14338 -0.00902,0.21389c0.01916,3.59325 0.32429,7.36018 2.85177,10.09665c3.43183,3.7156 10.35729,6.46798 14.31451,2c1.95185,-2.20378 2.43361,-4.47422 2.88371,-7.26124l0.50759,-2.53959c0,0 0.49029,-2.45145 2.94174,-1.96116z" fill="#8a5b43"/></g><path d="M240.04899,247.50001c2.5,0 2.5,2.5 2.5,2.5v0.5c-0.01671,3.77134 -0.55644,8.23569 -2.28555,11.66026c-3.9212,7.76611 -14.74141,11.91355 -22.43926,7.51915c-2.45012,-1.39868 -4.14299,-2.28569 -5.13865,-4.88334c-4.97292,9.38468 -17.0724,9.8036 -24.9043,1.9717c-3.51798,-3.51798 -3.27263,-6.84411 -4.18369,-11.27747c0,0 -0.49029,-2.45145 1.96116,-2.94174c2.45145,-0.49029 2.94174,1.96116 2.94174,1.96116c0.67244,3.44 0.14449,6.0507 2.81631,8.72253c5.55566,5.55566 14.57882,4.42819 17.41105,-3.16071l0.92379,-0.75793c0.04014,-0.1519 0.07621,-0.24207 0.07621,-0.24207c0.30124,-0.74393 0.60249,-1.48786 0.90373,-2.23179l0.45692,-2.28461c0.20986,-1.16847 1.23165,-2.05512 2.46053,-2.05512c1.22888,0 2.25067,0.88665 2.46053,2.05512l0.49092,2.45459l-0.01594,0.00319c0.00962,0.02162 0.01915,0.0433 0.0286,0.06502c1.11471,2.56366 0.40435,4.90269 2.39238,7.24773c4.57103,5.39191 14.42867,0.58952 16.92906,-4.48591c1.33436,-2.70857 1.73045,-6.37596 1.71445,-9.33974v-0.5c0,0 0,-2.5 2.5,-2.5z" fill="#8a5b43"/></g></g></svg>